G04 #@! TF.GenerationSoftware,KiCad,Pcbnew,(5.1.5)-3*
G04 #@! TF.CreationDate,2020-12-18T10:23:58+02:00*
G04 #@! TF.ProjectId,voltlog christmas tree,766f6c74-6c6f-4672-9063-68726973746d,rev?*
G04 #@! TF.SameCoordinates,Original*
G04 #@! TF.FileFunction,Copper,L1,Top*
G04 #@! TF.FilePolarity,Positive*
%FSLAX46Y46*%
G04 Gerber Fmt 4.6, Leading zero omitted, Abs format (unit mm)*
G04 Created by KiCad (PCBNEW (5.1.5)-3) date 2020-12-18 10:23:58*
%MOMM*%
%LPD*%
G04 APERTURE LIST*
%ADD10C,0.100000*%
%ADD11R,1.200000X1.900000*%
%ADD12O,1.200000X1.900000*%
%ADD13R,1.500000X1.900000*%
%ADD14C,1.450000*%
%ADD15R,0.400000X1.350000*%
%ADD16R,2.000000X1.500000*%
%ADD17R,2.000000X3.800000*%
%ADD18R,2.000000X0.900000*%
%ADD19R,0.900000X2.000000*%
%ADD20R,5.000000X5.000000*%
%ADD21R,1.550000X1.300000*%
%ADD22R,0.900000X0.800000*%
%ADD23C,0.600000*%
%ADD24C,1.600000*%
%ADD25C,0.300000*%
%ADD26C,0.500000*%
%ADD27C,0.600000*%
%ADD28C,0.800000*%
%ADD29C,0.700000*%
%ADD30C,0.250000*%
%ADD31C,0.254000*%
G04 APERTURE END LIST*
G04 #@! TA.AperFunction,SMDPad,CuDef*
D10*
G36*
X140180142Y-119076174D02*
G01*
X140203803Y-119079684D01*
X140227007Y-119085496D01*
X140249529Y-119093554D01*
X140271153Y-119103782D01*
X140291670Y-119116079D01*
X140310883Y-119130329D01*
X140328607Y-119146393D01*
X140344671Y-119164117D01*
X140358921Y-119183330D01*
X140371218Y-119203847D01*
X140381446Y-119225471D01*
X140389504Y-119247993D01*
X140395316Y-119271197D01*
X140398826Y-119294858D01*
X140400000Y-119318750D01*
X140400000Y-119806250D01*
X140398826Y-119830142D01*
X140395316Y-119853803D01*
X140389504Y-119877007D01*
X140381446Y-119899529D01*
X140371218Y-119921153D01*
X140358921Y-119941670D01*
X140344671Y-119960883D01*
X140328607Y-119978607D01*
X140310883Y-119994671D01*
X140291670Y-120008921D01*
X140271153Y-120021218D01*
X140249529Y-120031446D01*
X140227007Y-120039504D01*
X140203803Y-120045316D01*
X140180142Y-120048826D01*
X140156250Y-120050000D01*
X139243750Y-120050000D01*
X139219858Y-120048826D01*
X139196197Y-120045316D01*
X139172993Y-120039504D01*
X139150471Y-120031446D01*
X139128847Y-120021218D01*
X139108330Y-120008921D01*
X139089117Y-119994671D01*
X139071393Y-119978607D01*
X139055329Y-119960883D01*
X139041079Y-119941670D01*
X139028782Y-119921153D01*
X139018554Y-119899529D01*
X139010496Y-119877007D01*
X139004684Y-119853803D01*
X139001174Y-119830142D01*
X139000000Y-119806250D01*
X139000000Y-119318750D01*
X139001174Y-119294858D01*
X139004684Y-119271197D01*
X139010496Y-119247993D01*
X139018554Y-119225471D01*
X139028782Y-119203847D01*
X139041079Y-119183330D01*
X139055329Y-119164117D01*
X139071393Y-119146393D01*
X139089117Y-119130329D01*
X139108330Y-119116079D01*
X139128847Y-119103782D01*
X139150471Y-119093554D01*
X139172993Y-119085496D01*
X139196197Y-119079684D01*
X139219858Y-119076174D01*
X139243750Y-119075000D01*
X140156250Y-119075000D01*
X140180142Y-119076174D01*
G37*
G04 #@! TD.AperFunction*
G04 #@! TA.AperFunction,SMDPad,CuDef*
G36*
X140180142Y-120951174D02*
G01*
X140203803Y-120954684D01*
X140227007Y-120960496D01*
X140249529Y-120968554D01*
X140271153Y-120978782D01*
X140291670Y-120991079D01*
X140310883Y-121005329D01*
X140328607Y-121021393D01*
X140344671Y-121039117D01*
X140358921Y-121058330D01*
X140371218Y-121078847D01*
X140381446Y-121100471D01*
X140389504Y-121122993D01*
X140395316Y-121146197D01*
X140398826Y-121169858D01*
X140400000Y-121193750D01*
X140400000Y-121681250D01*
X140398826Y-121705142D01*
X140395316Y-121728803D01*
X140389504Y-121752007D01*
X140381446Y-121774529D01*
X140371218Y-121796153D01*
X140358921Y-121816670D01*
X140344671Y-121835883D01*
X140328607Y-121853607D01*
X140310883Y-121869671D01*
X140291670Y-121883921D01*
X140271153Y-121896218D01*
X140249529Y-121906446D01*
X140227007Y-121914504D01*
X140203803Y-121920316D01*
X140180142Y-121923826D01*
X140156250Y-121925000D01*
X139243750Y-121925000D01*
X139219858Y-121923826D01*
X139196197Y-121920316D01*
X139172993Y-121914504D01*
X139150471Y-121906446D01*
X139128847Y-121896218D01*
X139108330Y-121883921D01*
X139089117Y-121869671D01*
X139071393Y-121853607D01*
X139055329Y-121835883D01*
X139041079Y-121816670D01*
X139028782Y-121796153D01*
X139018554Y-121774529D01*
X139010496Y-121752007D01*
X139004684Y-121728803D01*
X139001174Y-121705142D01*
X139000000Y-121681250D01*
X139000000Y-121193750D01*
X139001174Y-121169858D01*
X139004684Y-121146197D01*
X139010496Y-121122993D01*
X139018554Y-121100471D01*
X139028782Y-121078847D01*
X139041079Y-121058330D01*
X139055329Y-121039117D01*
X139071393Y-121021393D01*
X139089117Y-121005329D01*
X139108330Y-120991079D01*
X139128847Y-120978782D01*
X139150471Y-120968554D01*
X139172993Y-120960496D01*
X139196197Y-120954684D01*
X139219858Y-120951174D01*
X139243750Y-120950000D01*
X140156250Y-120950000D01*
X140180142Y-120951174D01*
G37*
G04 #@! TD.AperFunction*
G04 #@! TA.AperFunction,SMDPad,CuDef*
G36*
X153874505Y-101451204D02*
G01*
X153898773Y-101454804D01*
X153922572Y-101460765D01*
X153945671Y-101469030D01*
X153967850Y-101479520D01*
X153988893Y-101492132D01*
X154008599Y-101506747D01*
X154026777Y-101523223D01*
X154043253Y-101541401D01*
X154057868Y-101561107D01*
X154070480Y-101582150D01*
X154080970Y-101604329D01*
X154089235Y-101627428D01*
X154095196Y-101651227D01*
X154098796Y-101675495D01*
X154100000Y-101699999D01*
X154100000Y-102400001D01*
X154098796Y-102424505D01*
X154095196Y-102448773D01*
X154089235Y-102472572D01*
X154080970Y-102495671D01*
X154070480Y-102517850D01*
X154057868Y-102538893D01*
X154043253Y-102558599D01*
X154026777Y-102576777D01*
X154008599Y-102593253D01*
X153988893Y-102607868D01*
X153967850Y-102620480D01*
X153945671Y-102630970D01*
X153922572Y-102639235D01*
X153898773Y-102645196D01*
X153874505Y-102648796D01*
X153850001Y-102650000D01*
X152549999Y-102650000D01*
X152525495Y-102648796D01*
X152501227Y-102645196D01*
X152477428Y-102639235D01*
X152454329Y-102630970D01*
X152432150Y-102620480D01*
X152411107Y-102607868D01*
X152391401Y-102593253D01*
X152373223Y-102576777D01*
X152356747Y-102558599D01*
X152342132Y-102538893D01*
X152329520Y-102517850D01*
X152319030Y-102495671D01*
X152310765Y-102472572D01*
X152304804Y-102448773D01*
X152301204Y-102424505D01*
X152300000Y-102400001D01*
X152300000Y-101699999D01*
X152301204Y-101675495D01*
X152304804Y-101651227D01*
X152310765Y-101627428D01*
X152319030Y-101604329D01*
X152329520Y-101582150D01*
X152342132Y-101561107D01*
X152356747Y-101541401D01*
X152373223Y-101523223D01*
X152391401Y-101506747D01*
X152411107Y-101492132D01*
X152432150Y-101479520D01*
X152454329Y-101469030D01*
X152477428Y-101460765D01*
X152501227Y-101454804D01*
X152525495Y-101451204D01*
X152549999Y-101450000D01*
X153850001Y-101450000D01*
X153874505Y-101451204D01*
G37*
G04 #@! TD.AperFunction*
G04 #@! TA.AperFunction,SMDPad,CuDef*
G36*
X153874505Y-93851204D02*
G01*
X153898773Y-93854804D01*
X153922572Y-93860765D01*
X153945671Y-93869030D01*
X153967850Y-93879520D01*
X153988893Y-93892132D01*
X154008599Y-93906747D01*
X154026777Y-93923223D01*
X154043253Y-93941401D01*
X154057868Y-93961107D01*
X154070480Y-93982150D01*
X154080970Y-94004329D01*
X154089235Y-94027428D01*
X154095196Y-94051227D01*
X154098796Y-94075495D01*
X154100000Y-94099999D01*
X154100000Y-94800001D01*
X154098796Y-94824505D01*
X154095196Y-94848773D01*
X154089235Y-94872572D01*
X154080970Y-94895671D01*
X154070480Y-94917850D01*
X154057868Y-94938893D01*
X154043253Y-94958599D01*
X154026777Y-94976777D01*
X154008599Y-94993253D01*
X153988893Y-95007868D01*
X153967850Y-95020480D01*
X153945671Y-95030970D01*
X153922572Y-95039235D01*
X153898773Y-95045196D01*
X153874505Y-95048796D01*
X153850001Y-95050000D01*
X152549999Y-95050000D01*
X152525495Y-95048796D01*
X152501227Y-95045196D01*
X152477428Y-95039235D01*
X152454329Y-95030970D01*
X152432150Y-95020480D01*
X152411107Y-95007868D01*
X152391401Y-94993253D01*
X152373223Y-94976777D01*
X152356747Y-94958599D01*
X152342132Y-94938893D01*
X152329520Y-94917850D01*
X152319030Y-94895671D01*
X152310765Y-94872572D01*
X152304804Y-94848773D01*
X152301204Y-94824505D01*
X152300000Y-94800001D01*
X152300000Y-94099999D01*
X152301204Y-94075495D01*
X152304804Y-94051227D01*
X152310765Y-94027428D01*
X152319030Y-94004329D01*
X152329520Y-93982150D01*
X152342132Y-93961107D01*
X152356747Y-93941401D01*
X152373223Y-93923223D01*
X152391401Y-93906747D01*
X152411107Y-93892132D01*
X152432150Y-93879520D01*
X152454329Y-93869030D01*
X152477428Y-93860765D01*
X152501227Y-93854804D01*
X152525495Y-93851204D01*
X152549999Y-93850000D01*
X153850001Y-93850000D01*
X153874505Y-93851204D01*
G37*
G04 #@! TD.AperFunction*
G04 #@! TA.AperFunction,SMDPad,CuDef*
G36*
X151314703Y-100450722D02*
G01*
X151329264Y-100452882D01*
X151343543Y-100456459D01*
X151357403Y-100461418D01*
X151370710Y-100467712D01*
X151383336Y-100475280D01*
X151395159Y-100484048D01*
X151406066Y-100493934D01*
X151415952Y-100504841D01*
X151424720Y-100516664D01*
X151432288Y-100529290D01*
X151438582Y-100542597D01*
X151443541Y-100556457D01*
X151447118Y-100570736D01*
X151449278Y-100585297D01*
X151450000Y-100600000D01*
X151450000Y-100900000D01*
X151449278Y-100914703D01*
X151447118Y-100929264D01*
X151443541Y-100943543D01*
X151438582Y-100957403D01*
X151432288Y-100970710D01*
X151424720Y-100983336D01*
X151415952Y-100995159D01*
X151406066Y-101006066D01*
X151395159Y-101015952D01*
X151383336Y-101024720D01*
X151370710Y-101032288D01*
X151357403Y-101038582D01*
X151343543Y-101043541D01*
X151329264Y-101047118D01*
X151314703Y-101049278D01*
X151300000Y-101050000D01*
X150050000Y-101050000D01*
X150035297Y-101049278D01*
X150020736Y-101047118D01*
X150006457Y-101043541D01*
X149992597Y-101038582D01*
X149979290Y-101032288D01*
X149966664Y-101024720D01*
X149954841Y-101015952D01*
X149943934Y-101006066D01*
X149934048Y-100995159D01*
X149925280Y-100983336D01*
X149917712Y-100970710D01*
X149911418Y-100957403D01*
X149906459Y-100943543D01*
X149902882Y-100929264D01*
X149900722Y-100914703D01*
X149900000Y-100900000D01*
X149900000Y-100600000D01*
X149900722Y-100585297D01*
X149902882Y-100570736D01*
X149906459Y-100556457D01*
X149911418Y-100542597D01*
X149917712Y-100529290D01*
X149925280Y-100516664D01*
X149934048Y-100504841D01*
X149943934Y-100493934D01*
X149954841Y-100484048D01*
X149966664Y-100475280D01*
X149979290Y-100467712D01*
X149992597Y-100461418D01*
X150006457Y-100456459D01*
X150020736Y-100452882D01*
X150035297Y-100450722D01*
X150050000Y-100450000D01*
X151300000Y-100450000D01*
X151314703Y-100450722D01*
G37*
G04 #@! TD.AperFunction*
G04 #@! TA.AperFunction,SMDPad,CuDef*
G36*
X151314703Y-99450722D02*
G01*
X151329264Y-99452882D01*
X151343543Y-99456459D01*
X151357403Y-99461418D01*
X151370710Y-99467712D01*
X151383336Y-99475280D01*
X151395159Y-99484048D01*
X151406066Y-99493934D01*
X151415952Y-99504841D01*
X151424720Y-99516664D01*
X151432288Y-99529290D01*
X151438582Y-99542597D01*
X151443541Y-99556457D01*
X151447118Y-99570736D01*
X151449278Y-99585297D01*
X151450000Y-99600000D01*
X151450000Y-99900000D01*
X151449278Y-99914703D01*
X151447118Y-99929264D01*
X151443541Y-99943543D01*
X151438582Y-99957403D01*
X151432288Y-99970710D01*
X151424720Y-99983336D01*
X151415952Y-99995159D01*
X151406066Y-100006066D01*
X151395159Y-100015952D01*
X151383336Y-100024720D01*
X151370710Y-100032288D01*
X151357403Y-100038582D01*
X151343543Y-100043541D01*
X151329264Y-100047118D01*
X151314703Y-100049278D01*
X151300000Y-100050000D01*
X150050000Y-100050000D01*
X150035297Y-100049278D01*
X150020736Y-100047118D01*
X150006457Y-100043541D01*
X149992597Y-100038582D01*
X149979290Y-100032288D01*
X149966664Y-100024720D01*
X149954841Y-100015952D01*
X149943934Y-100006066D01*
X149934048Y-99995159D01*
X149925280Y-99983336D01*
X149917712Y-99970710D01*
X149911418Y-99957403D01*
X149906459Y-99943543D01*
X149902882Y-99929264D01*
X149900722Y-99914703D01*
X149900000Y-99900000D01*
X149900000Y-99600000D01*
X149900722Y-99585297D01*
X149902882Y-99570736D01*
X149906459Y-99556457D01*
X149911418Y-99542597D01*
X149917712Y-99529290D01*
X149925280Y-99516664D01*
X149934048Y-99504841D01*
X149943934Y-99493934D01*
X149954841Y-99484048D01*
X149966664Y-99475280D01*
X149979290Y-99467712D01*
X149992597Y-99461418D01*
X150006457Y-99456459D01*
X150020736Y-99452882D01*
X150035297Y-99450722D01*
X150050000Y-99450000D01*
X151300000Y-99450000D01*
X151314703Y-99450722D01*
G37*
G04 #@! TD.AperFunction*
G04 #@! TA.AperFunction,SMDPad,CuDef*
G36*
X151314703Y-98450722D02*
G01*
X151329264Y-98452882D01*
X151343543Y-98456459D01*
X151357403Y-98461418D01*
X151370710Y-98467712D01*
X151383336Y-98475280D01*
X151395159Y-98484048D01*
X151406066Y-98493934D01*
X151415952Y-98504841D01*
X151424720Y-98516664D01*
X151432288Y-98529290D01*
X151438582Y-98542597D01*
X151443541Y-98556457D01*
X151447118Y-98570736D01*
X151449278Y-98585297D01*
X151450000Y-98600000D01*
X151450000Y-98900000D01*
X151449278Y-98914703D01*
X151447118Y-98929264D01*
X151443541Y-98943543D01*
X151438582Y-98957403D01*
X151432288Y-98970710D01*
X151424720Y-98983336D01*
X151415952Y-98995159D01*
X151406066Y-99006066D01*
X151395159Y-99015952D01*
X151383336Y-99024720D01*
X151370710Y-99032288D01*
X151357403Y-99038582D01*
X151343543Y-99043541D01*
X151329264Y-99047118D01*
X151314703Y-99049278D01*
X151300000Y-99050000D01*
X150050000Y-99050000D01*
X150035297Y-99049278D01*
X150020736Y-99047118D01*
X150006457Y-99043541D01*
X149992597Y-99038582D01*
X149979290Y-99032288D01*
X149966664Y-99024720D01*
X149954841Y-99015952D01*
X149943934Y-99006066D01*
X149934048Y-98995159D01*
X149925280Y-98983336D01*
X149917712Y-98970710D01*
X149911418Y-98957403D01*
X149906459Y-98943543D01*
X149902882Y-98929264D01*
X149900722Y-98914703D01*
X149900000Y-98900000D01*
X149900000Y-98600000D01*
X149900722Y-98585297D01*
X149902882Y-98570736D01*
X149906459Y-98556457D01*
X149911418Y-98542597D01*
X149917712Y-98529290D01*
X149925280Y-98516664D01*
X149934048Y-98504841D01*
X149943934Y-98493934D01*
X149954841Y-98484048D01*
X149966664Y-98475280D01*
X149979290Y-98467712D01*
X149992597Y-98461418D01*
X150006457Y-98456459D01*
X150020736Y-98452882D01*
X150035297Y-98450722D01*
X150050000Y-98450000D01*
X151300000Y-98450000D01*
X151314703Y-98450722D01*
G37*
G04 #@! TD.AperFunction*
G04 #@! TA.AperFunction,SMDPad,CuDef*
G36*
X151314703Y-97450722D02*
G01*
X151329264Y-97452882D01*
X151343543Y-97456459D01*
X151357403Y-97461418D01*
X151370710Y-97467712D01*
X151383336Y-97475280D01*
X151395159Y-97484048D01*
X151406066Y-97493934D01*
X151415952Y-97504841D01*
X151424720Y-97516664D01*
X151432288Y-97529290D01*
X151438582Y-97542597D01*
X151443541Y-97556457D01*
X151447118Y-97570736D01*
X151449278Y-97585297D01*
X151450000Y-97600000D01*
X151450000Y-97900000D01*
X151449278Y-97914703D01*
X151447118Y-97929264D01*
X151443541Y-97943543D01*
X151438582Y-97957403D01*
X151432288Y-97970710D01*
X151424720Y-97983336D01*
X151415952Y-97995159D01*
X151406066Y-98006066D01*
X151395159Y-98015952D01*
X151383336Y-98024720D01*
X151370710Y-98032288D01*
X151357403Y-98038582D01*
X151343543Y-98043541D01*
X151329264Y-98047118D01*
X151314703Y-98049278D01*
X151300000Y-98050000D01*
X150050000Y-98050000D01*
X150035297Y-98049278D01*
X150020736Y-98047118D01*
X150006457Y-98043541D01*
X149992597Y-98038582D01*
X149979290Y-98032288D01*
X149966664Y-98024720D01*
X149954841Y-98015952D01*
X149943934Y-98006066D01*
X149934048Y-97995159D01*
X149925280Y-97983336D01*
X149917712Y-97970710D01*
X149911418Y-97957403D01*
X149906459Y-97943543D01*
X149902882Y-97929264D01*
X149900722Y-97914703D01*
X149900000Y-97900000D01*
X149900000Y-97600000D01*
X149900722Y-97585297D01*
X149902882Y-97570736D01*
X149906459Y-97556457D01*
X149911418Y-97542597D01*
X149917712Y-97529290D01*
X149925280Y-97516664D01*
X149934048Y-97504841D01*
X149943934Y-97493934D01*
X149954841Y-97484048D01*
X149966664Y-97475280D01*
X149979290Y-97467712D01*
X149992597Y-97461418D01*
X150006457Y-97456459D01*
X150020736Y-97452882D01*
X150035297Y-97450722D01*
X150050000Y-97450000D01*
X151300000Y-97450000D01*
X151314703Y-97450722D01*
G37*
G04 #@! TD.AperFunction*
G04 #@! TA.AperFunction,SMDPad,CuDef*
G36*
X151314703Y-96450722D02*
G01*
X151329264Y-96452882D01*
X151343543Y-96456459D01*
X151357403Y-96461418D01*
X151370710Y-96467712D01*
X151383336Y-96475280D01*
X151395159Y-96484048D01*
X151406066Y-96493934D01*
X151415952Y-96504841D01*
X151424720Y-96516664D01*
X151432288Y-96529290D01*
X151438582Y-96542597D01*
X151443541Y-96556457D01*
X151447118Y-96570736D01*
X151449278Y-96585297D01*
X151450000Y-96600000D01*
X151450000Y-96900000D01*
X151449278Y-96914703D01*
X151447118Y-96929264D01*
X151443541Y-96943543D01*
X151438582Y-96957403D01*
X151432288Y-96970710D01*
X151424720Y-96983336D01*
X151415952Y-96995159D01*
X151406066Y-97006066D01*
X151395159Y-97015952D01*
X151383336Y-97024720D01*
X151370710Y-97032288D01*
X151357403Y-97038582D01*
X151343543Y-97043541D01*
X151329264Y-97047118D01*
X151314703Y-97049278D01*
X151300000Y-97050000D01*
X150050000Y-97050000D01*
X150035297Y-97049278D01*
X150020736Y-97047118D01*
X150006457Y-97043541D01*
X149992597Y-97038582D01*
X149979290Y-97032288D01*
X149966664Y-97024720D01*
X149954841Y-97015952D01*
X149943934Y-97006066D01*
X149934048Y-96995159D01*
X149925280Y-96983336D01*
X149917712Y-96970710D01*
X149911418Y-96957403D01*
X149906459Y-96943543D01*
X149902882Y-96929264D01*
X149900722Y-96914703D01*
X149900000Y-96900000D01*
X149900000Y-96600000D01*
X149900722Y-96585297D01*
X149902882Y-96570736D01*
X149906459Y-96556457D01*
X149911418Y-96542597D01*
X149917712Y-96529290D01*
X149925280Y-96516664D01*
X149934048Y-96504841D01*
X149943934Y-96493934D01*
X149954841Y-96484048D01*
X149966664Y-96475280D01*
X149979290Y-96467712D01*
X149992597Y-96461418D01*
X150006457Y-96456459D01*
X150020736Y-96452882D01*
X150035297Y-96450722D01*
X150050000Y-96450000D01*
X151300000Y-96450000D01*
X151314703Y-96450722D01*
G37*
G04 #@! TD.AperFunction*
G04 #@! TA.AperFunction,SMDPad,CuDef*
G36*
X151314703Y-95450722D02*
G01*
X151329264Y-95452882D01*
X151343543Y-95456459D01*
X151357403Y-95461418D01*
X151370710Y-95467712D01*
X151383336Y-95475280D01*
X151395159Y-95484048D01*
X151406066Y-95493934D01*
X151415952Y-95504841D01*
X151424720Y-95516664D01*
X151432288Y-95529290D01*
X151438582Y-95542597D01*
X151443541Y-95556457D01*
X151447118Y-95570736D01*
X151449278Y-95585297D01*
X151450000Y-95600000D01*
X151450000Y-95900000D01*
X151449278Y-95914703D01*
X151447118Y-95929264D01*
X151443541Y-95943543D01*
X151438582Y-95957403D01*
X151432288Y-95970710D01*
X151424720Y-95983336D01*
X151415952Y-95995159D01*
X151406066Y-96006066D01*
X151395159Y-96015952D01*
X151383336Y-96024720D01*
X151370710Y-96032288D01*
X151357403Y-96038582D01*
X151343543Y-96043541D01*
X151329264Y-96047118D01*
X151314703Y-96049278D01*
X151300000Y-96050000D01*
X150050000Y-96050000D01*
X150035297Y-96049278D01*
X150020736Y-96047118D01*
X150006457Y-96043541D01*
X149992597Y-96038582D01*
X149979290Y-96032288D01*
X149966664Y-96024720D01*
X149954841Y-96015952D01*
X149943934Y-96006066D01*
X149934048Y-95995159D01*
X149925280Y-95983336D01*
X149917712Y-95970710D01*
X149911418Y-95957403D01*
X149906459Y-95943543D01*
X149902882Y-95929264D01*
X149900722Y-95914703D01*
X149900000Y-95900000D01*
X149900000Y-95600000D01*
X149900722Y-95585297D01*
X149902882Y-95570736D01*
X149906459Y-95556457D01*
X149911418Y-95542597D01*
X149917712Y-95529290D01*
X149925280Y-95516664D01*
X149934048Y-95504841D01*
X149943934Y-95493934D01*
X149954841Y-95484048D01*
X149966664Y-95475280D01*
X149979290Y-95467712D01*
X149992597Y-95461418D01*
X150006457Y-95456459D01*
X150020736Y-95452882D01*
X150035297Y-95450722D01*
X150050000Y-95450000D01*
X151300000Y-95450000D01*
X151314703Y-95450722D01*
G37*
G04 #@! TD.AperFunction*
D11*
X136100000Y-139937500D03*
X141900000Y-139937500D03*
D12*
X142500000Y-139937500D03*
X135500000Y-139937500D03*
D13*
X138000000Y-139937500D03*
D14*
X141500000Y-137237500D03*
D15*
X139000000Y-137237500D03*
X139650000Y-137237500D03*
X140300000Y-137237500D03*
X137700000Y-137237500D03*
X138350000Y-137237500D03*
D14*
X136500000Y-137237500D03*
D13*
X140000000Y-139937500D03*
D16*
X142250000Y-120300000D03*
X142250000Y-124900000D03*
X142250000Y-122600000D03*
D17*
X148550000Y-122600000D03*
D18*
X147250000Y-84245000D03*
X147250000Y-85515000D03*
X147250000Y-86785000D03*
X147250000Y-88055000D03*
X147250000Y-89325000D03*
X147250000Y-90595000D03*
X147250000Y-91865000D03*
X147250000Y-93135000D03*
X147250000Y-94405000D03*
X147250000Y-95675000D03*
X147250000Y-96945000D03*
X147250000Y-98215000D03*
X147250000Y-99485000D03*
X147250000Y-100755000D03*
D19*
X144465000Y-101755000D03*
X143195000Y-101755000D03*
X141925000Y-101755000D03*
X140655000Y-101755000D03*
X139385000Y-101755000D03*
X138115000Y-101755000D03*
X136845000Y-101755000D03*
X135575000Y-101755000D03*
X134305000Y-101755000D03*
X133035000Y-101755000D03*
D18*
X130250000Y-100755000D03*
X130250000Y-99485000D03*
X130250000Y-98215000D03*
X130250000Y-96945000D03*
X130250000Y-95675000D03*
X130250000Y-94405000D03*
X130250000Y-93135000D03*
X130250000Y-91865000D03*
X130250000Y-90595000D03*
X130250000Y-89325000D03*
X130250000Y-88055000D03*
X130250000Y-86785000D03*
X130250000Y-85515000D03*
X130250000Y-84245000D03*
D20*
X137750000Y-91745000D03*
D21*
X113425000Y-123200000D03*
X113425000Y-127700000D03*
X121375000Y-127700000D03*
X121375000Y-123200000D03*
G04 #@! TA.AperFunction,SMDPad,CuDef*
D10*
G36*
X128230142Y-94951174D02*
G01*
X128253803Y-94954684D01*
X128277007Y-94960496D01*
X128299529Y-94968554D01*
X128321153Y-94978782D01*
X128341670Y-94991079D01*
X128360883Y-95005329D01*
X128378607Y-95021393D01*
X128394671Y-95039117D01*
X128408921Y-95058330D01*
X128421218Y-95078847D01*
X128431446Y-95100471D01*
X128439504Y-95122993D01*
X128445316Y-95146197D01*
X128448826Y-95169858D01*
X128450000Y-95193750D01*
X128450000Y-95681250D01*
X128448826Y-95705142D01*
X128445316Y-95728803D01*
X128439504Y-95752007D01*
X128431446Y-95774529D01*
X128421218Y-95796153D01*
X128408921Y-95816670D01*
X128394671Y-95835883D01*
X128378607Y-95853607D01*
X128360883Y-95869671D01*
X128341670Y-95883921D01*
X128321153Y-95896218D01*
X128299529Y-95906446D01*
X128277007Y-95914504D01*
X128253803Y-95920316D01*
X128230142Y-95923826D01*
X128206250Y-95925000D01*
X127293750Y-95925000D01*
X127269858Y-95923826D01*
X127246197Y-95920316D01*
X127222993Y-95914504D01*
X127200471Y-95906446D01*
X127178847Y-95896218D01*
X127158330Y-95883921D01*
X127139117Y-95869671D01*
X127121393Y-95853607D01*
X127105329Y-95835883D01*
X127091079Y-95816670D01*
X127078782Y-95796153D01*
X127068554Y-95774529D01*
X127060496Y-95752007D01*
X127054684Y-95728803D01*
X127051174Y-95705142D01*
X127050000Y-95681250D01*
X127050000Y-95193750D01*
X127051174Y-95169858D01*
X127054684Y-95146197D01*
X127060496Y-95122993D01*
X127068554Y-95100471D01*
X127078782Y-95078847D01*
X127091079Y-95058330D01*
X127105329Y-95039117D01*
X127121393Y-95021393D01*
X127139117Y-95005329D01*
X127158330Y-94991079D01*
X127178847Y-94978782D01*
X127200471Y-94968554D01*
X127222993Y-94960496D01*
X127246197Y-94954684D01*
X127269858Y-94951174D01*
X127293750Y-94950000D01*
X128206250Y-94950000D01*
X128230142Y-94951174D01*
G37*
G04 #@! TD.AperFunction*
G04 #@! TA.AperFunction,SMDPad,CuDef*
G36*
X128230142Y-93076174D02*
G01*
X128253803Y-93079684D01*
X128277007Y-93085496D01*
X128299529Y-93093554D01*
X128321153Y-93103782D01*
X128341670Y-93116079D01*
X128360883Y-93130329D01*
X128378607Y-93146393D01*
X128394671Y-93164117D01*
X128408921Y-93183330D01*
X128421218Y-93203847D01*
X128431446Y-93225471D01*
X128439504Y-93247993D01*
X128445316Y-93271197D01*
X128448826Y-93294858D01*
X128450000Y-93318750D01*
X128450000Y-93806250D01*
X128448826Y-93830142D01*
X128445316Y-93853803D01*
X128439504Y-93877007D01*
X128431446Y-93899529D01*
X128421218Y-93921153D01*
X128408921Y-93941670D01*
X128394671Y-93960883D01*
X128378607Y-93978607D01*
X128360883Y-93994671D01*
X128341670Y-94008921D01*
X128321153Y-94021218D01*
X128299529Y-94031446D01*
X128277007Y-94039504D01*
X128253803Y-94045316D01*
X128230142Y-94048826D01*
X128206250Y-94050000D01*
X127293750Y-94050000D01*
X127269858Y-94048826D01*
X127246197Y-94045316D01*
X127222993Y-94039504D01*
X127200471Y-94031446D01*
X127178847Y-94021218D01*
X127158330Y-94008921D01*
X127139117Y-93994671D01*
X127121393Y-93978607D01*
X127105329Y-93960883D01*
X127091079Y-93941670D01*
X127078782Y-93921153D01*
X127068554Y-93899529D01*
X127060496Y-93877007D01*
X127054684Y-93853803D01*
X127051174Y-93830142D01*
X127050000Y-93806250D01*
X127050000Y-93318750D01*
X127051174Y-93294858D01*
X127054684Y-93271197D01*
X127060496Y-93247993D01*
X127068554Y-93225471D01*
X127078782Y-93203847D01*
X127091079Y-93183330D01*
X127105329Y-93164117D01*
X127121393Y-93146393D01*
X127139117Y-93130329D01*
X127158330Y-93116079D01*
X127178847Y-93103782D01*
X127200471Y-93093554D01*
X127222993Y-93085496D01*
X127246197Y-93079684D01*
X127269858Y-93076174D01*
X127293750Y-93075000D01*
X128206250Y-93075000D01*
X128230142Y-93076174D01*
G37*
G04 #@! TD.AperFunction*
G04 #@! TA.AperFunction,SMDPad,CuDef*
G36*
X125505142Y-124801174D02*
G01*
X125528803Y-124804684D01*
X125552007Y-124810496D01*
X125574529Y-124818554D01*
X125596153Y-124828782D01*
X125616670Y-124841079D01*
X125635883Y-124855329D01*
X125653607Y-124871393D01*
X125669671Y-124889117D01*
X125683921Y-124908330D01*
X125696218Y-124928847D01*
X125706446Y-124950471D01*
X125714504Y-124972993D01*
X125720316Y-124996197D01*
X125723826Y-125019858D01*
X125725000Y-125043750D01*
X125725000Y-125956250D01*
X125723826Y-125980142D01*
X125720316Y-126003803D01*
X125714504Y-126027007D01*
X125706446Y-126049529D01*
X125696218Y-126071153D01*
X125683921Y-126091670D01*
X125669671Y-126110883D01*
X125653607Y-126128607D01*
X125635883Y-126144671D01*
X125616670Y-126158921D01*
X125596153Y-126171218D01*
X125574529Y-126181446D01*
X125552007Y-126189504D01*
X125528803Y-126195316D01*
X125505142Y-126198826D01*
X125481250Y-126200000D01*
X124993750Y-126200000D01*
X124969858Y-126198826D01*
X124946197Y-126195316D01*
X124922993Y-126189504D01*
X124900471Y-126181446D01*
X124878847Y-126171218D01*
X124858330Y-126158921D01*
X124839117Y-126144671D01*
X124821393Y-126128607D01*
X124805329Y-126110883D01*
X124791079Y-126091670D01*
X124778782Y-126071153D01*
X124768554Y-126049529D01*
X124760496Y-126027007D01*
X124754684Y-126003803D01*
X124751174Y-125980142D01*
X124750000Y-125956250D01*
X124750000Y-125043750D01*
X124751174Y-125019858D01*
X124754684Y-124996197D01*
X124760496Y-124972993D01*
X124768554Y-124950471D01*
X124778782Y-124928847D01*
X124791079Y-124908330D01*
X124805329Y-124889117D01*
X124821393Y-124871393D01*
X124839117Y-124855329D01*
X124858330Y-124841079D01*
X124878847Y-124828782D01*
X124900471Y-124818554D01*
X124922993Y-124810496D01*
X124946197Y-124804684D01*
X124969858Y-124801174D01*
X124993750Y-124800000D01*
X125481250Y-124800000D01*
X125505142Y-124801174D01*
G37*
G04 #@! TD.AperFunction*
G04 #@! TA.AperFunction,SMDPad,CuDef*
G36*
X123630142Y-124801174D02*
G01*
X123653803Y-124804684D01*
X123677007Y-124810496D01*
X123699529Y-124818554D01*
X123721153Y-124828782D01*
X123741670Y-124841079D01*
X123760883Y-124855329D01*
X123778607Y-124871393D01*
X123794671Y-124889117D01*
X123808921Y-124908330D01*
X123821218Y-124928847D01*
X123831446Y-124950471D01*
X123839504Y-124972993D01*
X123845316Y-124996197D01*
X123848826Y-125019858D01*
X123850000Y-125043750D01*
X123850000Y-125956250D01*
X123848826Y-125980142D01*
X123845316Y-126003803D01*
X123839504Y-126027007D01*
X123831446Y-126049529D01*
X123821218Y-126071153D01*
X123808921Y-126091670D01*
X123794671Y-126110883D01*
X123778607Y-126128607D01*
X123760883Y-126144671D01*
X123741670Y-126158921D01*
X123721153Y-126171218D01*
X123699529Y-126181446D01*
X123677007Y-126189504D01*
X123653803Y-126195316D01*
X123630142Y-126198826D01*
X123606250Y-126200000D01*
X123118750Y-126200000D01*
X123094858Y-126198826D01*
X123071197Y-126195316D01*
X123047993Y-126189504D01*
X123025471Y-126181446D01*
X123003847Y-126171218D01*
X122983330Y-126158921D01*
X122964117Y-126144671D01*
X122946393Y-126128607D01*
X122930329Y-126110883D01*
X122916079Y-126091670D01*
X122903782Y-126071153D01*
X122893554Y-126049529D01*
X122885496Y-126027007D01*
X122879684Y-126003803D01*
X122876174Y-125980142D01*
X122875000Y-125956250D01*
X122875000Y-125043750D01*
X122876174Y-125019858D01*
X122879684Y-124996197D01*
X122885496Y-124972993D01*
X122893554Y-124950471D01*
X122903782Y-124928847D01*
X122916079Y-124908330D01*
X122930329Y-124889117D01*
X122946393Y-124871393D01*
X122964117Y-124855329D01*
X122983330Y-124841079D01*
X123003847Y-124828782D01*
X123025471Y-124818554D01*
X123047993Y-124810496D01*
X123071197Y-124804684D01*
X123094858Y-124801174D01*
X123118750Y-124800000D01*
X123606250Y-124800000D01*
X123630142Y-124801174D01*
G37*
G04 #@! TD.AperFunction*
G04 #@! TA.AperFunction,SMDPad,CuDef*
G36*
X123630142Y-122501174D02*
G01*
X123653803Y-122504684D01*
X123677007Y-122510496D01*
X123699529Y-122518554D01*
X123721153Y-122528782D01*
X123741670Y-122541079D01*
X123760883Y-122555329D01*
X123778607Y-122571393D01*
X123794671Y-122589117D01*
X123808921Y-122608330D01*
X123821218Y-122628847D01*
X123831446Y-122650471D01*
X123839504Y-122672993D01*
X123845316Y-122696197D01*
X123848826Y-122719858D01*
X123850000Y-122743750D01*
X123850000Y-123656250D01*
X123848826Y-123680142D01*
X123845316Y-123703803D01*
X123839504Y-123727007D01*
X123831446Y-123749529D01*
X123821218Y-123771153D01*
X123808921Y-123791670D01*
X123794671Y-123810883D01*
X123778607Y-123828607D01*
X123760883Y-123844671D01*
X123741670Y-123858921D01*
X123721153Y-123871218D01*
X123699529Y-123881446D01*
X123677007Y-123889504D01*
X123653803Y-123895316D01*
X123630142Y-123898826D01*
X123606250Y-123900000D01*
X123118750Y-123900000D01*
X123094858Y-123898826D01*
X123071197Y-123895316D01*
X123047993Y-123889504D01*
X123025471Y-123881446D01*
X123003847Y-123871218D01*
X122983330Y-123858921D01*
X122964117Y-123844671D01*
X122946393Y-123828607D01*
X122930329Y-123810883D01*
X122916079Y-123791670D01*
X122903782Y-123771153D01*
X122893554Y-123749529D01*
X122885496Y-123727007D01*
X122879684Y-123703803D01*
X122876174Y-123680142D01*
X122875000Y-123656250D01*
X122875000Y-122743750D01*
X122876174Y-122719858D01*
X122879684Y-122696197D01*
X122885496Y-122672993D01*
X122893554Y-122650471D01*
X122903782Y-122628847D01*
X122916079Y-122608330D01*
X122930329Y-122589117D01*
X122946393Y-122571393D01*
X122964117Y-122555329D01*
X122983330Y-122541079D01*
X123003847Y-122528782D01*
X123025471Y-122518554D01*
X123047993Y-122510496D01*
X123071197Y-122504684D01*
X123094858Y-122501174D01*
X123118750Y-122500000D01*
X123606250Y-122500000D01*
X123630142Y-122501174D01*
G37*
G04 #@! TD.AperFunction*
G04 #@! TA.AperFunction,SMDPad,CuDef*
G36*
X125505142Y-122501174D02*
G01*
X125528803Y-122504684D01*
X125552007Y-122510496D01*
X125574529Y-122518554D01*
X125596153Y-122528782D01*
X125616670Y-122541079D01*
X125635883Y-122555329D01*
X125653607Y-122571393D01*
X125669671Y-122589117D01*
X125683921Y-122608330D01*
X125696218Y-122628847D01*
X125706446Y-122650471D01*
X125714504Y-122672993D01*
X125720316Y-122696197D01*
X125723826Y-122719858D01*
X125725000Y-122743750D01*
X125725000Y-123656250D01*
X125723826Y-123680142D01*
X125720316Y-123703803D01*
X125714504Y-123727007D01*
X125706446Y-123749529D01*
X125696218Y-123771153D01*
X125683921Y-123791670D01*
X125669671Y-123810883D01*
X125653607Y-123828607D01*
X125635883Y-123844671D01*
X125616670Y-123858921D01*
X125596153Y-123871218D01*
X125574529Y-123881446D01*
X125552007Y-123889504D01*
X125528803Y-123895316D01*
X125505142Y-123898826D01*
X125481250Y-123900000D01*
X124993750Y-123900000D01*
X124969858Y-123898826D01*
X124946197Y-123895316D01*
X124922993Y-123889504D01*
X124900471Y-123881446D01*
X124878847Y-123871218D01*
X124858330Y-123858921D01*
X124839117Y-123844671D01*
X124821393Y-123828607D01*
X124805329Y-123810883D01*
X124791079Y-123791670D01*
X124778782Y-123771153D01*
X124768554Y-123749529D01*
X124760496Y-123727007D01*
X124754684Y-123703803D01*
X124751174Y-123680142D01*
X124750000Y-123656250D01*
X124750000Y-122743750D01*
X124751174Y-122719858D01*
X124754684Y-122696197D01*
X124760496Y-122672993D01*
X124768554Y-122650471D01*
X124778782Y-122628847D01*
X124791079Y-122608330D01*
X124805329Y-122589117D01*
X124821393Y-122571393D01*
X124839117Y-122555329D01*
X124858330Y-122541079D01*
X124878847Y-122528782D01*
X124900471Y-122518554D01*
X124922993Y-122510496D01*
X124946197Y-122504684D01*
X124969858Y-122501174D01*
X124993750Y-122500000D01*
X125481250Y-122500000D01*
X125505142Y-122501174D01*
G37*
G04 #@! TD.AperFunction*
G04 #@! TA.AperFunction,SMDPad,CuDef*
G36*
X136580142Y-68651174D02*
G01*
X136603803Y-68654684D01*
X136627007Y-68660496D01*
X136649529Y-68668554D01*
X136671153Y-68678782D01*
X136691670Y-68691079D01*
X136710883Y-68705329D01*
X136728607Y-68721393D01*
X136744671Y-68739117D01*
X136758921Y-68758330D01*
X136771218Y-68778847D01*
X136781446Y-68800471D01*
X136789504Y-68822993D01*
X136795316Y-68846197D01*
X136798826Y-68869858D01*
X136800000Y-68893750D01*
X136800000Y-69381250D01*
X136798826Y-69405142D01*
X136795316Y-69428803D01*
X136789504Y-69452007D01*
X136781446Y-69474529D01*
X136771218Y-69496153D01*
X136758921Y-69516670D01*
X136744671Y-69535883D01*
X136728607Y-69553607D01*
X136710883Y-69569671D01*
X136691670Y-69583921D01*
X136671153Y-69596218D01*
X136649529Y-69606446D01*
X136627007Y-69614504D01*
X136603803Y-69620316D01*
X136580142Y-69623826D01*
X136556250Y-69625000D01*
X135643750Y-69625000D01*
X135619858Y-69623826D01*
X135596197Y-69620316D01*
X135572993Y-69614504D01*
X135550471Y-69606446D01*
X135528847Y-69596218D01*
X135508330Y-69583921D01*
X135489117Y-69569671D01*
X135471393Y-69553607D01*
X135455329Y-69535883D01*
X135441079Y-69516670D01*
X135428782Y-69496153D01*
X135418554Y-69474529D01*
X135410496Y-69452007D01*
X135404684Y-69428803D01*
X135401174Y-69405142D01*
X135400000Y-69381250D01*
X135400000Y-68893750D01*
X135401174Y-68869858D01*
X135404684Y-68846197D01*
X135410496Y-68822993D01*
X135418554Y-68800471D01*
X135428782Y-68778847D01*
X135441079Y-68758330D01*
X135455329Y-68739117D01*
X135471393Y-68721393D01*
X135489117Y-68705329D01*
X135508330Y-68691079D01*
X135528847Y-68678782D01*
X135550471Y-68668554D01*
X135572993Y-68660496D01*
X135596197Y-68654684D01*
X135619858Y-68651174D01*
X135643750Y-68650000D01*
X136556250Y-68650000D01*
X136580142Y-68651174D01*
G37*
G04 #@! TD.AperFunction*
G04 #@! TA.AperFunction,SMDPad,CuDef*
G36*
X136580142Y-66776174D02*
G01*
X136603803Y-66779684D01*
X136627007Y-66785496D01*
X136649529Y-66793554D01*
X136671153Y-66803782D01*
X136691670Y-66816079D01*
X136710883Y-66830329D01*
X136728607Y-66846393D01*
X136744671Y-66864117D01*
X136758921Y-66883330D01*
X136771218Y-66903847D01*
X136781446Y-66925471D01*
X136789504Y-66947993D01*
X136795316Y-66971197D01*
X136798826Y-66994858D01*
X136800000Y-67018750D01*
X136800000Y-67506250D01*
X136798826Y-67530142D01*
X136795316Y-67553803D01*
X136789504Y-67577007D01*
X136781446Y-67599529D01*
X136771218Y-67621153D01*
X136758921Y-67641670D01*
X136744671Y-67660883D01*
X136728607Y-67678607D01*
X136710883Y-67694671D01*
X136691670Y-67708921D01*
X136671153Y-67721218D01*
X136649529Y-67731446D01*
X136627007Y-67739504D01*
X136603803Y-67745316D01*
X136580142Y-67748826D01*
X136556250Y-67750000D01*
X135643750Y-67750000D01*
X135619858Y-67748826D01*
X135596197Y-67745316D01*
X135572993Y-67739504D01*
X135550471Y-67731446D01*
X135528847Y-67721218D01*
X135508330Y-67708921D01*
X135489117Y-67694671D01*
X135471393Y-67678607D01*
X135455329Y-67660883D01*
X135441079Y-67641670D01*
X135428782Y-67621153D01*
X135418554Y-67599529D01*
X135410496Y-67577007D01*
X135404684Y-67553803D01*
X135401174Y-67530142D01*
X135400000Y-67506250D01*
X135400000Y-67018750D01*
X135401174Y-66994858D01*
X135404684Y-66971197D01*
X135410496Y-66947993D01*
X135418554Y-66925471D01*
X135428782Y-66903847D01*
X135441079Y-66883330D01*
X135455329Y-66864117D01*
X135471393Y-66846393D01*
X135489117Y-66830329D01*
X135508330Y-66816079D01*
X135528847Y-66803782D01*
X135550471Y-66793554D01*
X135572993Y-66785496D01*
X135596197Y-66779684D01*
X135619858Y-66776174D01*
X135643750Y-66775000D01*
X136556250Y-66775000D01*
X136580142Y-66776174D01*
G37*
G04 #@! TD.AperFunction*
G04 #@! TA.AperFunction,SMDPad,CuDef*
G36*
X126280142Y-89151174D02*
G01*
X126303803Y-89154684D01*
X126327007Y-89160496D01*
X126349529Y-89168554D01*
X126371153Y-89178782D01*
X126391670Y-89191079D01*
X126410883Y-89205329D01*
X126428607Y-89221393D01*
X126444671Y-89239117D01*
X126458921Y-89258330D01*
X126471218Y-89278847D01*
X126481446Y-89300471D01*
X126489504Y-89322993D01*
X126495316Y-89346197D01*
X126498826Y-89369858D01*
X126500000Y-89393750D01*
X126500000Y-89881250D01*
X126498826Y-89905142D01*
X126495316Y-89928803D01*
X126489504Y-89952007D01*
X126481446Y-89974529D01*
X126471218Y-89996153D01*
X126458921Y-90016670D01*
X126444671Y-90035883D01*
X126428607Y-90053607D01*
X126410883Y-90069671D01*
X126391670Y-90083921D01*
X126371153Y-90096218D01*
X126349529Y-90106446D01*
X126327007Y-90114504D01*
X126303803Y-90120316D01*
X126280142Y-90123826D01*
X126256250Y-90125000D01*
X125343750Y-90125000D01*
X125319858Y-90123826D01*
X125296197Y-90120316D01*
X125272993Y-90114504D01*
X125250471Y-90106446D01*
X125228847Y-90096218D01*
X125208330Y-90083921D01*
X125189117Y-90069671D01*
X125171393Y-90053607D01*
X125155329Y-90035883D01*
X125141079Y-90016670D01*
X125128782Y-89996153D01*
X125118554Y-89974529D01*
X125110496Y-89952007D01*
X125104684Y-89928803D01*
X125101174Y-89905142D01*
X125100000Y-89881250D01*
X125100000Y-89393750D01*
X125101174Y-89369858D01*
X125104684Y-89346197D01*
X125110496Y-89322993D01*
X125118554Y-89300471D01*
X125128782Y-89278847D01*
X125141079Y-89258330D01*
X125155329Y-89239117D01*
X125171393Y-89221393D01*
X125189117Y-89205329D01*
X125208330Y-89191079D01*
X125228847Y-89178782D01*
X125250471Y-89168554D01*
X125272993Y-89160496D01*
X125296197Y-89154684D01*
X125319858Y-89151174D01*
X125343750Y-89150000D01*
X126256250Y-89150000D01*
X126280142Y-89151174D01*
G37*
G04 #@! TD.AperFunction*
G04 #@! TA.AperFunction,SMDPad,CuDef*
G36*
X126280142Y-87276174D02*
G01*
X126303803Y-87279684D01*
X126327007Y-87285496D01*
X126349529Y-87293554D01*
X126371153Y-87303782D01*
X126391670Y-87316079D01*
X126410883Y-87330329D01*
X126428607Y-87346393D01*
X126444671Y-87364117D01*
X126458921Y-87383330D01*
X126471218Y-87403847D01*
X126481446Y-87425471D01*
X126489504Y-87447993D01*
X126495316Y-87471197D01*
X126498826Y-87494858D01*
X126500000Y-87518750D01*
X126500000Y-88006250D01*
X126498826Y-88030142D01*
X126495316Y-88053803D01*
X126489504Y-88077007D01*
X126481446Y-88099529D01*
X126471218Y-88121153D01*
X126458921Y-88141670D01*
X126444671Y-88160883D01*
X126428607Y-88178607D01*
X126410883Y-88194671D01*
X126391670Y-88208921D01*
X126371153Y-88221218D01*
X126349529Y-88231446D01*
X126327007Y-88239504D01*
X126303803Y-88245316D01*
X126280142Y-88248826D01*
X126256250Y-88250000D01*
X125343750Y-88250000D01*
X125319858Y-88248826D01*
X125296197Y-88245316D01*
X125272993Y-88239504D01*
X125250471Y-88231446D01*
X125228847Y-88221218D01*
X125208330Y-88208921D01*
X125189117Y-88194671D01*
X125171393Y-88178607D01*
X125155329Y-88160883D01*
X125141079Y-88141670D01*
X125128782Y-88121153D01*
X125118554Y-88099529D01*
X125110496Y-88077007D01*
X125104684Y-88053803D01*
X125101174Y-88030142D01*
X125100000Y-88006250D01*
X125100000Y-87518750D01*
X125101174Y-87494858D01*
X125104684Y-87471197D01*
X125110496Y-87447993D01*
X125118554Y-87425471D01*
X125128782Y-87403847D01*
X125141079Y-87383330D01*
X125155329Y-87364117D01*
X125171393Y-87346393D01*
X125189117Y-87330329D01*
X125208330Y-87316079D01*
X125228847Y-87303782D01*
X125250471Y-87293554D01*
X125272993Y-87285496D01*
X125296197Y-87279684D01*
X125319858Y-87276174D01*
X125343750Y-87275000D01*
X126256250Y-87275000D01*
X126280142Y-87276174D01*
G37*
G04 #@! TD.AperFunction*
G04 #@! TA.AperFunction,SMDPad,CuDef*
G36*
X142180142Y-68651174D02*
G01*
X142203803Y-68654684D01*
X142227007Y-68660496D01*
X142249529Y-68668554D01*
X142271153Y-68678782D01*
X142291670Y-68691079D01*
X142310883Y-68705329D01*
X142328607Y-68721393D01*
X142344671Y-68739117D01*
X142358921Y-68758330D01*
X142371218Y-68778847D01*
X142381446Y-68800471D01*
X142389504Y-68822993D01*
X142395316Y-68846197D01*
X142398826Y-68869858D01*
X142400000Y-68893750D01*
X142400000Y-69381250D01*
X142398826Y-69405142D01*
X142395316Y-69428803D01*
X142389504Y-69452007D01*
X142381446Y-69474529D01*
X142371218Y-69496153D01*
X142358921Y-69516670D01*
X142344671Y-69535883D01*
X142328607Y-69553607D01*
X142310883Y-69569671D01*
X142291670Y-69583921D01*
X142271153Y-69596218D01*
X142249529Y-69606446D01*
X142227007Y-69614504D01*
X142203803Y-69620316D01*
X142180142Y-69623826D01*
X142156250Y-69625000D01*
X141243750Y-69625000D01*
X141219858Y-69623826D01*
X141196197Y-69620316D01*
X141172993Y-69614504D01*
X141150471Y-69606446D01*
X141128847Y-69596218D01*
X141108330Y-69583921D01*
X141089117Y-69569671D01*
X141071393Y-69553607D01*
X141055329Y-69535883D01*
X141041079Y-69516670D01*
X141028782Y-69496153D01*
X141018554Y-69474529D01*
X141010496Y-69452007D01*
X141004684Y-69428803D01*
X141001174Y-69405142D01*
X141000000Y-69381250D01*
X141000000Y-68893750D01*
X141001174Y-68869858D01*
X141004684Y-68846197D01*
X141010496Y-68822993D01*
X141018554Y-68800471D01*
X141028782Y-68778847D01*
X141041079Y-68758330D01*
X141055329Y-68739117D01*
X141071393Y-68721393D01*
X141089117Y-68705329D01*
X141108330Y-68691079D01*
X141128847Y-68678782D01*
X141150471Y-68668554D01*
X141172993Y-68660496D01*
X141196197Y-68654684D01*
X141219858Y-68651174D01*
X141243750Y-68650000D01*
X142156250Y-68650000D01*
X142180142Y-68651174D01*
G37*
G04 #@! TD.AperFunction*
G04 #@! TA.AperFunction,SMDPad,CuDef*
G36*
X142180142Y-66776174D02*
G01*
X142203803Y-66779684D01*
X142227007Y-66785496D01*
X142249529Y-66793554D01*
X142271153Y-66803782D01*
X142291670Y-66816079D01*
X142310883Y-66830329D01*
X142328607Y-66846393D01*
X142344671Y-66864117D01*
X142358921Y-66883330D01*
X142371218Y-66903847D01*
X142381446Y-66925471D01*
X142389504Y-66947993D01*
X142395316Y-66971197D01*
X142398826Y-66994858D01*
X142400000Y-67018750D01*
X142400000Y-67506250D01*
X142398826Y-67530142D01*
X142395316Y-67553803D01*
X142389504Y-67577007D01*
X142381446Y-67599529D01*
X142371218Y-67621153D01*
X142358921Y-67641670D01*
X142344671Y-67660883D01*
X142328607Y-67678607D01*
X142310883Y-67694671D01*
X142291670Y-67708921D01*
X142271153Y-67721218D01*
X142249529Y-67731446D01*
X142227007Y-67739504D01*
X142203803Y-67745316D01*
X142180142Y-67748826D01*
X142156250Y-67750000D01*
X141243750Y-67750000D01*
X141219858Y-67748826D01*
X141196197Y-67745316D01*
X141172993Y-67739504D01*
X141150471Y-67731446D01*
X141128847Y-67721218D01*
X141108330Y-67708921D01*
X141089117Y-67694671D01*
X141071393Y-67678607D01*
X141055329Y-67660883D01*
X141041079Y-67641670D01*
X141028782Y-67621153D01*
X141018554Y-67599529D01*
X141010496Y-67577007D01*
X141004684Y-67553803D01*
X141001174Y-67530142D01*
X141000000Y-67506250D01*
X141000000Y-67018750D01*
X141001174Y-66994858D01*
X141004684Y-66971197D01*
X141010496Y-66947993D01*
X141018554Y-66925471D01*
X141028782Y-66903847D01*
X141041079Y-66883330D01*
X141055329Y-66864117D01*
X141071393Y-66846393D01*
X141089117Y-66830329D01*
X141108330Y-66816079D01*
X141128847Y-66803782D01*
X141150471Y-66793554D01*
X141172993Y-66785496D01*
X141196197Y-66779684D01*
X141219858Y-66776174D01*
X141243750Y-66775000D01*
X142156250Y-66775000D01*
X142180142Y-66776174D01*
G37*
G04 #@! TD.AperFunction*
D22*
X139900000Y-68300000D03*
X137900000Y-69250000D03*
X137900000Y-67350000D03*
G04 #@! TA.AperFunction,SMDPad,CuDef*
D10*
G36*
X140050000Y-133150602D02*
G01*
X140074534Y-133150602D01*
X140123365Y-133155412D01*
X140171490Y-133164984D01*
X140218445Y-133179228D01*
X140263778Y-133198005D01*
X140307051Y-133221136D01*
X140347850Y-133248396D01*
X140385779Y-133279524D01*
X140420476Y-133314221D01*
X140451604Y-133352150D01*
X140478864Y-133392949D01*
X140501995Y-133436222D01*
X140520772Y-133481555D01*
X140535016Y-133528510D01*
X140544588Y-133576635D01*
X140549398Y-133625466D01*
X140549398Y-133650000D01*
X140550000Y-133650000D01*
X140550000Y-134150000D01*
X140549398Y-134150000D01*
X140549398Y-134174534D01*
X140544588Y-134223365D01*
X140535016Y-134271490D01*
X140520772Y-134318445D01*
X140501995Y-134363778D01*
X140478864Y-134407051D01*
X140451604Y-134447850D01*
X140420476Y-134485779D01*
X140385779Y-134520476D01*
X140347850Y-134551604D01*
X140307051Y-134578864D01*
X140263778Y-134601995D01*
X140218445Y-134620772D01*
X140171490Y-134635016D01*
X140123365Y-134644588D01*
X140074534Y-134649398D01*
X140050000Y-134649398D01*
X140050000Y-134650000D01*
X139550000Y-134650000D01*
X139550000Y-133150000D01*
X140050000Y-133150000D01*
X140050000Y-133150602D01*
G37*
G04 #@! TD.AperFunction*
G04 #@! TA.AperFunction,SMDPad,CuDef*
G36*
X139250000Y-134650000D02*
G01*
X138750000Y-134650000D01*
X138750000Y-134649398D01*
X138725466Y-134649398D01*
X138676635Y-134644588D01*
X138628510Y-134635016D01*
X138581555Y-134620772D01*
X138536222Y-134601995D01*
X138492949Y-134578864D01*
X138452150Y-134551604D01*
X138414221Y-134520476D01*
X138379524Y-134485779D01*
X138348396Y-134447850D01*
X138321136Y-134407051D01*
X138298005Y-134363778D01*
X138279228Y-134318445D01*
X138264984Y-134271490D01*
X138255412Y-134223365D01*
X138250602Y-134174534D01*
X138250602Y-134150000D01*
X138250000Y-134150000D01*
X138250000Y-133650000D01*
X138250602Y-133650000D01*
X138250602Y-133625466D01*
X138255412Y-133576635D01*
X138264984Y-133528510D01*
X138279228Y-133481555D01*
X138298005Y-133436222D01*
X138321136Y-133392949D01*
X138348396Y-133352150D01*
X138379524Y-133314221D01*
X138414221Y-133279524D01*
X138452150Y-133248396D01*
X138492949Y-133221136D01*
X138536222Y-133198005D01*
X138581555Y-133179228D01*
X138628510Y-133164984D01*
X138676635Y-133155412D01*
X138725466Y-133150602D01*
X138750000Y-133150602D01*
X138750000Y-133150000D01*
X139250000Y-133150000D01*
X139250000Y-134650000D01*
G37*
G04 #@! TD.AperFunction*
G04 #@! TA.AperFunction,SMDPad,CuDef*
G36*
X137480142Y-133451174D02*
G01*
X137503803Y-133454684D01*
X137527007Y-133460496D01*
X137549529Y-133468554D01*
X137571153Y-133478782D01*
X137591670Y-133491079D01*
X137610883Y-133505329D01*
X137628607Y-133521393D01*
X137644671Y-133539117D01*
X137658921Y-133558330D01*
X137671218Y-133578847D01*
X137681446Y-133600471D01*
X137689504Y-133622993D01*
X137695316Y-133646197D01*
X137698826Y-133669858D01*
X137700000Y-133693750D01*
X137700000Y-134181250D01*
X137698826Y-134205142D01*
X137695316Y-134228803D01*
X137689504Y-134252007D01*
X137681446Y-134274529D01*
X137671218Y-134296153D01*
X137658921Y-134316670D01*
X137644671Y-134335883D01*
X137628607Y-134353607D01*
X137610883Y-134369671D01*
X137591670Y-134383921D01*
X137571153Y-134396218D01*
X137549529Y-134406446D01*
X137527007Y-134414504D01*
X137503803Y-134420316D01*
X137480142Y-134423826D01*
X137456250Y-134425000D01*
X136543750Y-134425000D01*
X136519858Y-134423826D01*
X136496197Y-134420316D01*
X136472993Y-134414504D01*
X136450471Y-134406446D01*
X136428847Y-134396218D01*
X136408330Y-134383921D01*
X136389117Y-134369671D01*
X136371393Y-134353607D01*
X136355329Y-134335883D01*
X136341079Y-134316670D01*
X136328782Y-134296153D01*
X136318554Y-134274529D01*
X136310496Y-134252007D01*
X136304684Y-134228803D01*
X136301174Y-134205142D01*
X136300000Y-134181250D01*
X136300000Y-133693750D01*
X136301174Y-133669858D01*
X136304684Y-133646197D01*
X136310496Y-133622993D01*
X136318554Y-133600471D01*
X136328782Y-133578847D01*
X136341079Y-133558330D01*
X136355329Y-133539117D01*
X136371393Y-133521393D01*
X136389117Y-133505329D01*
X136408330Y-133491079D01*
X136428847Y-133478782D01*
X136450471Y-133468554D01*
X136472993Y-133460496D01*
X136496197Y-133454684D01*
X136519858Y-133451174D01*
X136543750Y-133450000D01*
X137456250Y-133450000D01*
X137480142Y-133451174D01*
G37*
G04 #@! TD.AperFunction*
G04 #@! TA.AperFunction,SMDPad,CuDef*
G36*
X137480142Y-131576174D02*
G01*
X137503803Y-131579684D01*
X137527007Y-131585496D01*
X137549529Y-131593554D01*
X137571153Y-131603782D01*
X137591670Y-131616079D01*
X137610883Y-131630329D01*
X137628607Y-131646393D01*
X137644671Y-131664117D01*
X137658921Y-131683330D01*
X137671218Y-131703847D01*
X137681446Y-131725471D01*
X137689504Y-131747993D01*
X137695316Y-131771197D01*
X137698826Y-131794858D01*
X137700000Y-131818750D01*
X137700000Y-132306250D01*
X137698826Y-132330142D01*
X137695316Y-132353803D01*
X137689504Y-132377007D01*
X137681446Y-132399529D01*
X137671218Y-132421153D01*
X137658921Y-132441670D01*
X137644671Y-132460883D01*
X137628607Y-132478607D01*
X137610883Y-132494671D01*
X137591670Y-132508921D01*
X137571153Y-132521218D01*
X137549529Y-132531446D01*
X137527007Y-132539504D01*
X137503803Y-132545316D01*
X137480142Y-132548826D01*
X137456250Y-132550000D01*
X136543750Y-132550000D01*
X136519858Y-132548826D01*
X136496197Y-132545316D01*
X136472993Y-132539504D01*
X136450471Y-132531446D01*
X136428847Y-132521218D01*
X136408330Y-132508921D01*
X136389117Y-132494671D01*
X136371393Y-132478607D01*
X136355329Y-132460883D01*
X136341079Y-132441670D01*
X136328782Y-132421153D01*
X136318554Y-132399529D01*
X136310496Y-132377007D01*
X136304684Y-132353803D01*
X136301174Y-132330142D01*
X136300000Y-132306250D01*
X136300000Y-131818750D01*
X136301174Y-131794858D01*
X136304684Y-131771197D01*
X136310496Y-131747993D01*
X136318554Y-131725471D01*
X136328782Y-131703847D01*
X136341079Y-131683330D01*
X136355329Y-131664117D01*
X136371393Y-131646393D01*
X136389117Y-131630329D01*
X136408330Y-131616079D01*
X136428847Y-131603782D01*
X136450471Y-131593554D01*
X136472993Y-131585496D01*
X136496197Y-131579684D01*
X136519858Y-131576174D01*
X136543750Y-131575000D01*
X137456250Y-131575000D01*
X137480142Y-131576174D01*
G37*
G04 #@! TD.AperFunction*
G04 #@! TA.AperFunction,SMDPad,CuDef*
G36*
X126230142Y-94951174D02*
G01*
X126253803Y-94954684D01*
X126277007Y-94960496D01*
X126299529Y-94968554D01*
X126321153Y-94978782D01*
X126341670Y-94991079D01*
X126360883Y-95005329D01*
X126378607Y-95021393D01*
X126394671Y-95039117D01*
X126408921Y-95058330D01*
X126421218Y-95078847D01*
X126431446Y-95100471D01*
X126439504Y-95122993D01*
X126445316Y-95146197D01*
X126448826Y-95169858D01*
X126450000Y-95193750D01*
X126450000Y-95681250D01*
X126448826Y-95705142D01*
X126445316Y-95728803D01*
X126439504Y-95752007D01*
X126431446Y-95774529D01*
X126421218Y-95796153D01*
X126408921Y-95816670D01*
X126394671Y-95835883D01*
X126378607Y-95853607D01*
X126360883Y-95869671D01*
X126341670Y-95883921D01*
X126321153Y-95896218D01*
X126299529Y-95906446D01*
X126277007Y-95914504D01*
X126253803Y-95920316D01*
X126230142Y-95923826D01*
X126206250Y-95925000D01*
X125293750Y-95925000D01*
X125269858Y-95923826D01*
X125246197Y-95920316D01*
X125222993Y-95914504D01*
X125200471Y-95906446D01*
X125178847Y-95896218D01*
X125158330Y-95883921D01*
X125139117Y-95869671D01*
X125121393Y-95853607D01*
X125105329Y-95835883D01*
X125091079Y-95816670D01*
X125078782Y-95796153D01*
X125068554Y-95774529D01*
X125060496Y-95752007D01*
X125054684Y-95728803D01*
X125051174Y-95705142D01*
X125050000Y-95681250D01*
X125050000Y-95193750D01*
X125051174Y-95169858D01*
X125054684Y-95146197D01*
X125060496Y-95122993D01*
X125068554Y-95100471D01*
X125078782Y-95078847D01*
X125091079Y-95058330D01*
X125105329Y-95039117D01*
X125121393Y-95021393D01*
X125139117Y-95005329D01*
X125158330Y-94991079D01*
X125178847Y-94978782D01*
X125200471Y-94968554D01*
X125222993Y-94960496D01*
X125246197Y-94954684D01*
X125269858Y-94951174D01*
X125293750Y-94950000D01*
X126206250Y-94950000D01*
X126230142Y-94951174D01*
G37*
G04 #@! TD.AperFunction*
G04 #@! TA.AperFunction,SMDPad,CuDef*
G36*
X126230142Y-93076174D02*
G01*
X126253803Y-93079684D01*
X126277007Y-93085496D01*
X126299529Y-93093554D01*
X126321153Y-93103782D01*
X126341670Y-93116079D01*
X126360883Y-93130329D01*
X126378607Y-93146393D01*
X126394671Y-93164117D01*
X126408921Y-93183330D01*
X126421218Y-93203847D01*
X126431446Y-93225471D01*
X126439504Y-93247993D01*
X126445316Y-93271197D01*
X126448826Y-93294858D01*
X126450000Y-93318750D01*
X126450000Y-93806250D01*
X126448826Y-93830142D01*
X126445316Y-93853803D01*
X126439504Y-93877007D01*
X126431446Y-93899529D01*
X126421218Y-93921153D01*
X126408921Y-93941670D01*
X126394671Y-93960883D01*
X126378607Y-93978607D01*
X126360883Y-93994671D01*
X126341670Y-94008921D01*
X126321153Y-94021218D01*
X126299529Y-94031446D01*
X126277007Y-94039504D01*
X126253803Y-94045316D01*
X126230142Y-94048826D01*
X126206250Y-94050000D01*
X125293750Y-94050000D01*
X125269858Y-94048826D01*
X125246197Y-94045316D01*
X125222993Y-94039504D01*
X125200471Y-94031446D01*
X125178847Y-94021218D01*
X125158330Y-94008921D01*
X125139117Y-93994671D01*
X125121393Y-93978607D01*
X125105329Y-93960883D01*
X125091079Y-93941670D01*
X125078782Y-93921153D01*
X125068554Y-93899529D01*
X125060496Y-93877007D01*
X125054684Y-93853803D01*
X125051174Y-93830142D01*
X125050000Y-93806250D01*
X125050000Y-93318750D01*
X125051174Y-93294858D01*
X125054684Y-93271197D01*
X125060496Y-93247993D01*
X125068554Y-93225471D01*
X125078782Y-93203847D01*
X125091079Y-93183330D01*
X125105329Y-93164117D01*
X125121393Y-93146393D01*
X125139117Y-93130329D01*
X125158330Y-93116079D01*
X125178847Y-93103782D01*
X125200471Y-93093554D01*
X125222993Y-93085496D01*
X125246197Y-93079684D01*
X125269858Y-93076174D01*
X125293750Y-93075000D01*
X126206250Y-93075000D01*
X126230142Y-93076174D01*
G37*
G04 #@! TD.AperFunction*
G04 #@! TA.AperFunction,SMDPad,CuDef*
G36*
X140180142Y-126251174D02*
G01*
X140203803Y-126254684D01*
X140227007Y-126260496D01*
X140249529Y-126268554D01*
X140271153Y-126278782D01*
X140291670Y-126291079D01*
X140310883Y-126305329D01*
X140328607Y-126321393D01*
X140344671Y-126339117D01*
X140358921Y-126358330D01*
X140371218Y-126378847D01*
X140381446Y-126400471D01*
X140389504Y-126422993D01*
X140395316Y-126446197D01*
X140398826Y-126469858D01*
X140400000Y-126493750D01*
X140400000Y-126981250D01*
X140398826Y-127005142D01*
X140395316Y-127028803D01*
X140389504Y-127052007D01*
X140381446Y-127074529D01*
X140371218Y-127096153D01*
X140358921Y-127116670D01*
X140344671Y-127135883D01*
X140328607Y-127153607D01*
X140310883Y-127169671D01*
X140291670Y-127183921D01*
X140271153Y-127196218D01*
X140249529Y-127206446D01*
X140227007Y-127214504D01*
X140203803Y-127220316D01*
X140180142Y-127223826D01*
X140156250Y-127225000D01*
X139243750Y-127225000D01*
X139219858Y-127223826D01*
X139196197Y-127220316D01*
X139172993Y-127214504D01*
X139150471Y-127206446D01*
X139128847Y-127196218D01*
X139108330Y-127183921D01*
X139089117Y-127169671D01*
X139071393Y-127153607D01*
X139055329Y-127135883D01*
X139041079Y-127116670D01*
X139028782Y-127096153D01*
X139018554Y-127074529D01*
X139010496Y-127052007D01*
X139004684Y-127028803D01*
X139001174Y-127005142D01*
X139000000Y-126981250D01*
X139000000Y-126493750D01*
X139001174Y-126469858D01*
X139004684Y-126446197D01*
X139010496Y-126422993D01*
X139018554Y-126400471D01*
X139028782Y-126378847D01*
X139041079Y-126358330D01*
X139055329Y-126339117D01*
X139071393Y-126321393D01*
X139089117Y-126305329D01*
X139108330Y-126291079D01*
X139128847Y-126278782D01*
X139150471Y-126268554D01*
X139172993Y-126260496D01*
X139196197Y-126254684D01*
X139219858Y-126251174D01*
X139243750Y-126250000D01*
X140156250Y-126250000D01*
X140180142Y-126251174D01*
G37*
G04 #@! TD.AperFunction*
G04 #@! TA.AperFunction,SMDPad,CuDef*
G36*
X140180142Y-124376174D02*
G01*
X140203803Y-124379684D01*
X140227007Y-124385496D01*
X140249529Y-124393554D01*
X140271153Y-124403782D01*
X140291670Y-124416079D01*
X140310883Y-124430329D01*
X140328607Y-124446393D01*
X140344671Y-124464117D01*
X140358921Y-124483330D01*
X140371218Y-124503847D01*
X140381446Y-124525471D01*
X140389504Y-124547993D01*
X140395316Y-124571197D01*
X140398826Y-124594858D01*
X140400000Y-124618750D01*
X140400000Y-125106250D01*
X140398826Y-125130142D01*
X140395316Y-125153803D01*
X140389504Y-125177007D01*
X140381446Y-125199529D01*
X140371218Y-125221153D01*
X140358921Y-125241670D01*
X140344671Y-125260883D01*
X140328607Y-125278607D01*
X140310883Y-125294671D01*
X140291670Y-125308921D01*
X140271153Y-125321218D01*
X140249529Y-125331446D01*
X140227007Y-125339504D01*
X140203803Y-125345316D01*
X140180142Y-125348826D01*
X140156250Y-125350000D01*
X139243750Y-125350000D01*
X139219858Y-125348826D01*
X139196197Y-125345316D01*
X139172993Y-125339504D01*
X139150471Y-125331446D01*
X139128847Y-125321218D01*
X139108330Y-125308921D01*
X139089117Y-125294671D01*
X139071393Y-125278607D01*
X139055329Y-125260883D01*
X139041079Y-125241670D01*
X139028782Y-125221153D01*
X139018554Y-125199529D01*
X139010496Y-125177007D01*
X139004684Y-125153803D01*
X139001174Y-125130142D01*
X139000000Y-125106250D01*
X139000000Y-124618750D01*
X139001174Y-124594858D01*
X139004684Y-124571197D01*
X139010496Y-124547993D01*
X139018554Y-124525471D01*
X139028782Y-124503847D01*
X139041079Y-124483330D01*
X139055329Y-124464117D01*
X139071393Y-124446393D01*
X139089117Y-124430329D01*
X139108330Y-124416079D01*
X139128847Y-124403782D01*
X139150471Y-124393554D01*
X139172993Y-124385496D01*
X139196197Y-124379684D01*
X139219858Y-124376174D01*
X139243750Y-124375000D01*
X140156250Y-124375000D01*
X140180142Y-124376174D01*
G37*
G04 #@! TD.AperFunction*
G04 #@! TA.AperFunction,SMDPad,CuDef*
G36*
X128230142Y-83376174D02*
G01*
X128253803Y-83379684D01*
X128277007Y-83385496D01*
X128299529Y-83393554D01*
X128321153Y-83403782D01*
X128341670Y-83416079D01*
X128360883Y-83430329D01*
X128378607Y-83446393D01*
X128394671Y-83464117D01*
X128408921Y-83483330D01*
X128421218Y-83503847D01*
X128431446Y-83525471D01*
X128439504Y-83547993D01*
X128445316Y-83571197D01*
X128448826Y-83594858D01*
X128450000Y-83618750D01*
X128450000Y-84106250D01*
X128448826Y-84130142D01*
X128445316Y-84153803D01*
X128439504Y-84177007D01*
X128431446Y-84199529D01*
X128421218Y-84221153D01*
X128408921Y-84241670D01*
X128394671Y-84260883D01*
X128378607Y-84278607D01*
X128360883Y-84294671D01*
X128341670Y-84308921D01*
X128321153Y-84321218D01*
X128299529Y-84331446D01*
X128277007Y-84339504D01*
X128253803Y-84345316D01*
X128230142Y-84348826D01*
X128206250Y-84350000D01*
X127293750Y-84350000D01*
X127269858Y-84348826D01*
X127246197Y-84345316D01*
X127222993Y-84339504D01*
X127200471Y-84331446D01*
X127178847Y-84321218D01*
X127158330Y-84308921D01*
X127139117Y-84294671D01*
X127121393Y-84278607D01*
X127105329Y-84260883D01*
X127091079Y-84241670D01*
X127078782Y-84221153D01*
X127068554Y-84199529D01*
X127060496Y-84177007D01*
X127054684Y-84153803D01*
X127051174Y-84130142D01*
X127050000Y-84106250D01*
X127050000Y-83618750D01*
X127051174Y-83594858D01*
X127054684Y-83571197D01*
X127060496Y-83547993D01*
X127068554Y-83525471D01*
X127078782Y-83503847D01*
X127091079Y-83483330D01*
X127105329Y-83464117D01*
X127121393Y-83446393D01*
X127139117Y-83430329D01*
X127158330Y-83416079D01*
X127178847Y-83403782D01*
X127200471Y-83393554D01*
X127222993Y-83385496D01*
X127246197Y-83379684D01*
X127269858Y-83376174D01*
X127293750Y-83375000D01*
X128206250Y-83375000D01*
X128230142Y-83376174D01*
G37*
G04 #@! TD.AperFunction*
G04 #@! TA.AperFunction,SMDPad,CuDef*
G36*
X128230142Y-85251174D02*
G01*
X128253803Y-85254684D01*
X128277007Y-85260496D01*
X128299529Y-85268554D01*
X128321153Y-85278782D01*
X128341670Y-85291079D01*
X128360883Y-85305329D01*
X128378607Y-85321393D01*
X128394671Y-85339117D01*
X128408921Y-85358330D01*
X128421218Y-85378847D01*
X128431446Y-85400471D01*
X128439504Y-85422993D01*
X128445316Y-85446197D01*
X128448826Y-85469858D01*
X128450000Y-85493750D01*
X128450000Y-85981250D01*
X128448826Y-86005142D01*
X128445316Y-86028803D01*
X128439504Y-86052007D01*
X128431446Y-86074529D01*
X128421218Y-86096153D01*
X128408921Y-86116670D01*
X128394671Y-86135883D01*
X128378607Y-86153607D01*
X128360883Y-86169671D01*
X128341670Y-86183921D01*
X128321153Y-86196218D01*
X128299529Y-86206446D01*
X128277007Y-86214504D01*
X128253803Y-86220316D01*
X128230142Y-86223826D01*
X128206250Y-86225000D01*
X127293750Y-86225000D01*
X127269858Y-86223826D01*
X127246197Y-86220316D01*
X127222993Y-86214504D01*
X127200471Y-86206446D01*
X127178847Y-86196218D01*
X127158330Y-86183921D01*
X127139117Y-86169671D01*
X127121393Y-86153607D01*
X127105329Y-86135883D01*
X127091079Y-86116670D01*
X127078782Y-86096153D01*
X127068554Y-86074529D01*
X127060496Y-86052007D01*
X127054684Y-86028803D01*
X127051174Y-86005142D01*
X127050000Y-85981250D01*
X127050000Y-85493750D01*
X127051174Y-85469858D01*
X127054684Y-85446197D01*
X127060496Y-85422993D01*
X127068554Y-85400471D01*
X127078782Y-85378847D01*
X127091079Y-85358330D01*
X127105329Y-85339117D01*
X127121393Y-85321393D01*
X127139117Y-85305329D01*
X127158330Y-85291079D01*
X127178847Y-85278782D01*
X127200471Y-85268554D01*
X127222993Y-85260496D01*
X127246197Y-85254684D01*
X127269858Y-85251174D01*
X127293750Y-85250000D01*
X128206250Y-85250000D01*
X128230142Y-85251174D01*
G37*
G04 #@! TD.AperFunction*
G04 #@! TA.AperFunction,SMDPad,CuDef*
G36*
X123630142Y-127001174D02*
G01*
X123653803Y-127004684D01*
X123677007Y-127010496D01*
X123699529Y-127018554D01*
X123721153Y-127028782D01*
X123741670Y-127041079D01*
X123760883Y-127055329D01*
X123778607Y-127071393D01*
X123794671Y-127089117D01*
X123808921Y-127108330D01*
X123821218Y-127128847D01*
X123831446Y-127150471D01*
X123839504Y-127172993D01*
X123845316Y-127196197D01*
X123848826Y-127219858D01*
X123850000Y-127243750D01*
X123850000Y-128156250D01*
X123848826Y-128180142D01*
X123845316Y-128203803D01*
X123839504Y-128227007D01*
X123831446Y-128249529D01*
X123821218Y-128271153D01*
X123808921Y-128291670D01*
X123794671Y-128310883D01*
X123778607Y-128328607D01*
X123760883Y-128344671D01*
X123741670Y-128358921D01*
X123721153Y-128371218D01*
X123699529Y-128381446D01*
X123677007Y-128389504D01*
X123653803Y-128395316D01*
X123630142Y-128398826D01*
X123606250Y-128400000D01*
X123118750Y-128400000D01*
X123094858Y-128398826D01*
X123071197Y-128395316D01*
X123047993Y-128389504D01*
X123025471Y-128381446D01*
X123003847Y-128371218D01*
X122983330Y-128358921D01*
X122964117Y-128344671D01*
X122946393Y-128328607D01*
X122930329Y-128310883D01*
X122916079Y-128291670D01*
X122903782Y-128271153D01*
X122893554Y-128249529D01*
X122885496Y-128227007D01*
X122879684Y-128203803D01*
X122876174Y-128180142D01*
X122875000Y-128156250D01*
X122875000Y-127243750D01*
X122876174Y-127219858D01*
X122879684Y-127196197D01*
X122885496Y-127172993D01*
X122893554Y-127150471D01*
X122903782Y-127128847D01*
X122916079Y-127108330D01*
X122930329Y-127089117D01*
X122946393Y-127071393D01*
X122964117Y-127055329D01*
X122983330Y-127041079D01*
X123003847Y-127028782D01*
X123025471Y-127018554D01*
X123047993Y-127010496D01*
X123071197Y-127004684D01*
X123094858Y-127001174D01*
X123118750Y-127000000D01*
X123606250Y-127000000D01*
X123630142Y-127001174D01*
G37*
G04 #@! TD.AperFunction*
G04 #@! TA.AperFunction,SMDPad,CuDef*
G36*
X125505142Y-127001174D02*
G01*
X125528803Y-127004684D01*
X125552007Y-127010496D01*
X125574529Y-127018554D01*
X125596153Y-127028782D01*
X125616670Y-127041079D01*
X125635883Y-127055329D01*
X125653607Y-127071393D01*
X125669671Y-127089117D01*
X125683921Y-127108330D01*
X125696218Y-127128847D01*
X125706446Y-127150471D01*
X125714504Y-127172993D01*
X125720316Y-127196197D01*
X125723826Y-127219858D01*
X125725000Y-127243750D01*
X125725000Y-128156250D01*
X125723826Y-128180142D01*
X125720316Y-128203803D01*
X125714504Y-128227007D01*
X125706446Y-128249529D01*
X125696218Y-128271153D01*
X125683921Y-128291670D01*
X125669671Y-128310883D01*
X125653607Y-128328607D01*
X125635883Y-128344671D01*
X125616670Y-128358921D01*
X125596153Y-128371218D01*
X125574529Y-128381446D01*
X125552007Y-128389504D01*
X125528803Y-128395316D01*
X125505142Y-128398826D01*
X125481250Y-128400000D01*
X124993750Y-128400000D01*
X124969858Y-128398826D01*
X124946197Y-128395316D01*
X124922993Y-128389504D01*
X124900471Y-128381446D01*
X124878847Y-128371218D01*
X124858330Y-128358921D01*
X124839117Y-128344671D01*
X124821393Y-128328607D01*
X124805329Y-128310883D01*
X124791079Y-128291670D01*
X124778782Y-128271153D01*
X124768554Y-128249529D01*
X124760496Y-128227007D01*
X124754684Y-128203803D01*
X124751174Y-128180142D01*
X124750000Y-128156250D01*
X124750000Y-127243750D01*
X124751174Y-127219858D01*
X124754684Y-127196197D01*
X124760496Y-127172993D01*
X124768554Y-127150471D01*
X124778782Y-127128847D01*
X124791079Y-127108330D01*
X124805329Y-127089117D01*
X124821393Y-127071393D01*
X124839117Y-127055329D01*
X124858330Y-127041079D01*
X124878847Y-127028782D01*
X124900471Y-127018554D01*
X124922993Y-127010496D01*
X124946197Y-127004684D01*
X124969858Y-127001174D01*
X124993750Y-127000000D01*
X125481250Y-127000000D01*
X125505142Y-127001174D01*
G37*
G04 #@! TD.AperFunction*
G04 #@! TA.AperFunction,SMDPad,CuDef*
G36*
X126230142Y-83376174D02*
G01*
X126253803Y-83379684D01*
X126277007Y-83385496D01*
X126299529Y-83393554D01*
X126321153Y-83403782D01*
X126341670Y-83416079D01*
X126360883Y-83430329D01*
X126378607Y-83446393D01*
X126394671Y-83464117D01*
X126408921Y-83483330D01*
X126421218Y-83503847D01*
X126431446Y-83525471D01*
X126439504Y-83547993D01*
X126445316Y-83571197D01*
X126448826Y-83594858D01*
X126450000Y-83618750D01*
X126450000Y-84106250D01*
X126448826Y-84130142D01*
X126445316Y-84153803D01*
X126439504Y-84177007D01*
X126431446Y-84199529D01*
X126421218Y-84221153D01*
X126408921Y-84241670D01*
X126394671Y-84260883D01*
X126378607Y-84278607D01*
X126360883Y-84294671D01*
X126341670Y-84308921D01*
X126321153Y-84321218D01*
X126299529Y-84331446D01*
X126277007Y-84339504D01*
X126253803Y-84345316D01*
X126230142Y-84348826D01*
X126206250Y-84350000D01*
X125293750Y-84350000D01*
X125269858Y-84348826D01*
X125246197Y-84345316D01*
X125222993Y-84339504D01*
X125200471Y-84331446D01*
X125178847Y-84321218D01*
X125158330Y-84308921D01*
X125139117Y-84294671D01*
X125121393Y-84278607D01*
X125105329Y-84260883D01*
X125091079Y-84241670D01*
X125078782Y-84221153D01*
X125068554Y-84199529D01*
X125060496Y-84177007D01*
X125054684Y-84153803D01*
X125051174Y-84130142D01*
X125050000Y-84106250D01*
X125050000Y-83618750D01*
X125051174Y-83594858D01*
X125054684Y-83571197D01*
X125060496Y-83547993D01*
X125068554Y-83525471D01*
X125078782Y-83503847D01*
X125091079Y-83483330D01*
X125105329Y-83464117D01*
X125121393Y-83446393D01*
X125139117Y-83430329D01*
X125158330Y-83416079D01*
X125178847Y-83403782D01*
X125200471Y-83393554D01*
X125222993Y-83385496D01*
X125246197Y-83379684D01*
X125269858Y-83376174D01*
X125293750Y-83375000D01*
X126206250Y-83375000D01*
X126230142Y-83376174D01*
G37*
G04 #@! TD.AperFunction*
G04 #@! TA.AperFunction,SMDPad,CuDef*
G36*
X126230142Y-85251174D02*
G01*
X126253803Y-85254684D01*
X126277007Y-85260496D01*
X126299529Y-85268554D01*
X126321153Y-85278782D01*
X126341670Y-85291079D01*
X126360883Y-85305329D01*
X126378607Y-85321393D01*
X126394671Y-85339117D01*
X126408921Y-85358330D01*
X126421218Y-85378847D01*
X126431446Y-85400471D01*
X126439504Y-85422993D01*
X126445316Y-85446197D01*
X126448826Y-85469858D01*
X126450000Y-85493750D01*
X126450000Y-85981250D01*
X126448826Y-86005142D01*
X126445316Y-86028803D01*
X126439504Y-86052007D01*
X126431446Y-86074529D01*
X126421218Y-86096153D01*
X126408921Y-86116670D01*
X126394671Y-86135883D01*
X126378607Y-86153607D01*
X126360883Y-86169671D01*
X126341670Y-86183921D01*
X126321153Y-86196218D01*
X126299529Y-86206446D01*
X126277007Y-86214504D01*
X126253803Y-86220316D01*
X126230142Y-86223826D01*
X126206250Y-86225000D01*
X125293750Y-86225000D01*
X125269858Y-86223826D01*
X125246197Y-86220316D01*
X125222993Y-86214504D01*
X125200471Y-86206446D01*
X125178847Y-86196218D01*
X125158330Y-86183921D01*
X125139117Y-86169671D01*
X125121393Y-86153607D01*
X125105329Y-86135883D01*
X125091079Y-86116670D01*
X125078782Y-86096153D01*
X125068554Y-86074529D01*
X125060496Y-86052007D01*
X125054684Y-86028803D01*
X125051174Y-86005142D01*
X125050000Y-85981250D01*
X125050000Y-85493750D01*
X125051174Y-85469858D01*
X125054684Y-85446197D01*
X125060496Y-85422993D01*
X125068554Y-85400471D01*
X125078782Y-85378847D01*
X125091079Y-85358330D01*
X125105329Y-85339117D01*
X125121393Y-85321393D01*
X125139117Y-85305329D01*
X125158330Y-85291079D01*
X125178847Y-85278782D01*
X125200471Y-85268554D01*
X125222993Y-85260496D01*
X125246197Y-85254684D01*
X125269858Y-85251174D01*
X125293750Y-85250000D01*
X126206250Y-85250000D01*
X126230142Y-85251174D01*
G37*
G04 #@! TD.AperFunction*
G04 #@! TA.AperFunction,SMDPad,CuDef*
G36*
X130680142Y-129051174D02*
G01*
X130703803Y-129054684D01*
X130727007Y-129060496D01*
X130749529Y-129068554D01*
X130771153Y-129078782D01*
X130791670Y-129091079D01*
X130810883Y-129105329D01*
X130828607Y-129121393D01*
X130844671Y-129139117D01*
X130858921Y-129158330D01*
X130871218Y-129178847D01*
X130881446Y-129200471D01*
X130889504Y-129222993D01*
X130895316Y-129246197D01*
X130898826Y-129269858D01*
X130900000Y-129293750D01*
X130900000Y-129781250D01*
X130898826Y-129805142D01*
X130895316Y-129828803D01*
X130889504Y-129852007D01*
X130881446Y-129874529D01*
X130871218Y-129896153D01*
X130858921Y-129916670D01*
X130844671Y-129935883D01*
X130828607Y-129953607D01*
X130810883Y-129969671D01*
X130791670Y-129983921D01*
X130771153Y-129996218D01*
X130749529Y-130006446D01*
X130727007Y-130014504D01*
X130703803Y-130020316D01*
X130680142Y-130023826D01*
X130656250Y-130025000D01*
X129743750Y-130025000D01*
X129719858Y-130023826D01*
X129696197Y-130020316D01*
X129672993Y-130014504D01*
X129650471Y-130006446D01*
X129628847Y-129996218D01*
X129608330Y-129983921D01*
X129589117Y-129969671D01*
X129571393Y-129953607D01*
X129555329Y-129935883D01*
X129541079Y-129916670D01*
X129528782Y-129896153D01*
X129518554Y-129874529D01*
X129510496Y-129852007D01*
X129504684Y-129828803D01*
X129501174Y-129805142D01*
X129500000Y-129781250D01*
X129500000Y-129293750D01*
X129501174Y-129269858D01*
X129504684Y-129246197D01*
X129510496Y-129222993D01*
X129518554Y-129200471D01*
X129528782Y-129178847D01*
X129541079Y-129158330D01*
X129555329Y-129139117D01*
X129571393Y-129121393D01*
X129589117Y-129105329D01*
X129608330Y-129091079D01*
X129628847Y-129078782D01*
X129650471Y-129068554D01*
X129672993Y-129060496D01*
X129696197Y-129054684D01*
X129719858Y-129051174D01*
X129743750Y-129050000D01*
X130656250Y-129050000D01*
X130680142Y-129051174D01*
G37*
G04 #@! TD.AperFunction*
G04 #@! TA.AperFunction,SMDPad,CuDef*
G36*
X130680142Y-127176174D02*
G01*
X130703803Y-127179684D01*
X130727007Y-127185496D01*
X130749529Y-127193554D01*
X130771153Y-127203782D01*
X130791670Y-127216079D01*
X130810883Y-127230329D01*
X130828607Y-127246393D01*
X130844671Y-127264117D01*
X130858921Y-127283330D01*
X130871218Y-127303847D01*
X130881446Y-127325471D01*
X130889504Y-127347993D01*
X130895316Y-127371197D01*
X130898826Y-127394858D01*
X130900000Y-127418750D01*
X130900000Y-127906250D01*
X130898826Y-127930142D01*
X130895316Y-127953803D01*
X130889504Y-127977007D01*
X130881446Y-127999529D01*
X130871218Y-128021153D01*
X130858921Y-128041670D01*
X130844671Y-128060883D01*
X130828607Y-128078607D01*
X130810883Y-128094671D01*
X130791670Y-128108921D01*
X130771153Y-128121218D01*
X130749529Y-128131446D01*
X130727007Y-128139504D01*
X130703803Y-128145316D01*
X130680142Y-128148826D01*
X130656250Y-128150000D01*
X129743750Y-128150000D01*
X129719858Y-128148826D01*
X129696197Y-128145316D01*
X129672993Y-128139504D01*
X129650471Y-128131446D01*
X129628847Y-128121218D01*
X129608330Y-128108921D01*
X129589117Y-128094671D01*
X129571393Y-128078607D01*
X129555329Y-128060883D01*
X129541079Y-128041670D01*
X129528782Y-128021153D01*
X129518554Y-127999529D01*
X129510496Y-127977007D01*
X129504684Y-127953803D01*
X129501174Y-127930142D01*
X129500000Y-127906250D01*
X129500000Y-127418750D01*
X129501174Y-127394858D01*
X129504684Y-127371197D01*
X129510496Y-127347993D01*
X129518554Y-127325471D01*
X129528782Y-127303847D01*
X129541079Y-127283330D01*
X129555329Y-127264117D01*
X129571393Y-127246393D01*
X129589117Y-127230329D01*
X129608330Y-127216079D01*
X129628847Y-127203782D01*
X129650471Y-127193554D01*
X129672993Y-127185496D01*
X129696197Y-127179684D01*
X129719858Y-127176174D01*
X129743750Y-127175000D01*
X130656250Y-127175000D01*
X130680142Y-127176174D01*
G37*
G04 #@! TD.AperFunction*
G04 #@! TA.AperFunction,SMDPad,CuDef*
G36*
X158380142Y-127651174D02*
G01*
X158403803Y-127654684D01*
X158427007Y-127660496D01*
X158449529Y-127668554D01*
X158471153Y-127678782D01*
X158491670Y-127691079D01*
X158510883Y-127705329D01*
X158528607Y-127721393D01*
X158544671Y-127739117D01*
X158558921Y-127758330D01*
X158571218Y-127778847D01*
X158581446Y-127800471D01*
X158589504Y-127822993D01*
X158595316Y-127846197D01*
X158598826Y-127869858D01*
X158600000Y-127893750D01*
X158600000Y-128381250D01*
X158598826Y-128405142D01*
X158595316Y-128428803D01*
X158589504Y-128452007D01*
X158581446Y-128474529D01*
X158571218Y-128496153D01*
X158558921Y-128516670D01*
X158544671Y-128535883D01*
X158528607Y-128553607D01*
X158510883Y-128569671D01*
X158491670Y-128583921D01*
X158471153Y-128596218D01*
X158449529Y-128606446D01*
X158427007Y-128614504D01*
X158403803Y-128620316D01*
X158380142Y-128623826D01*
X158356250Y-128625000D01*
X157443750Y-128625000D01*
X157419858Y-128623826D01*
X157396197Y-128620316D01*
X157372993Y-128614504D01*
X157350471Y-128606446D01*
X157328847Y-128596218D01*
X157308330Y-128583921D01*
X157289117Y-128569671D01*
X157271393Y-128553607D01*
X157255329Y-128535883D01*
X157241079Y-128516670D01*
X157228782Y-128496153D01*
X157218554Y-128474529D01*
X157210496Y-128452007D01*
X157204684Y-128428803D01*
X157201174Y-128405142D01*
X157200000Y-128381250D01*
X157200000Y-127893750D01*
X157201174Y-127869858D01*
X157204684Y-127846197D01*
X157210496Y-127822993D01*
X157218554Y-127800471D01*
X157228782Y-127778847D01*
X157241079Y-127758330D01*
X157255329Y-127739117D01*
X157271393Y-127721393D01*
X157289117Y-127705329D01*
X157308330Y-127691079D01*
X157328847Y-127678782D01*
X157350471Y-127668554D01*
X157372993Y-127660496D01*
X157396197Y-127654684D01*
X157419858Y-127651174D01*
X157443750Y-127650000D01*
X158356250Y-127650000D01*
X158380142Y-127651174D01*
G37*
G04 #@! TD.AperFunction*
G04 #@! TA.AperFunction,SMDPad,CuDef*
G36*
X158380142Y-125776174D02*
G01*
X158403803Y-125779684D01*
X158427007Y-125785496D01*
X158449529Y-125793554D01*
X158471153Y-125803782D01*
X158491670Y-125816079D01*
X158510883Y-125830329D01*
X158528607Y-125846393D01*
X158544671Y-125864117D01*
X158558921Y-125883330D01*
X158571218Y-125903847D01*
X158581446Y-125925471D01*
X158589504Y-125947993D01*
X158595316Y-125971197D01*
X158598826Y-125994858D01*
X158600000Y-126018750D01*
X158600000Y-126506250D01*
X158598826Y-126530142D01*
X158595316Y-126553803D01*
X158589504Y-126577007D01*
X158581446Y-126599529D01*
X158571218Y-126621153D01*
X158558921Y-126641670D01*
X158544671Y-126660883D01*
X158528607Y-126678607D01*
X158510883Y-126694671D01*
X158491670Y-126708921D01*
X158471153Y-126721218D01*
X158449529Y-126731446D01*
X158427007Y-126739504D01*
X158403803Y-126745316D01*
X158380142Y-126748826D01*
X158356250Y-126750000D01*
X157443750Y-126750000D01*
X157419858Y-126748826D01*
X157396197Y-126745316D01*
X157372993Y-126739504D01*
X157350471Y-126731446D01*
X157328847Y-126721218D01*
X157308330Y-126708921D01*
X157289117Y-126694671D01*
X157271393Y-126678607D01*
X157255329Y-126660883D01*
X157241079Y-126641670D01*
X157228782Y-126621153D01*
X157218554Y-126599529D01*
X157210496Y-126577007D01*
X157204684Y-126553803D01*
X157201174Y-126530142D01*
X157200000Y-126506250D01*
X157200000Y-126018750D01*
X157201174Y-125994858D01*
X157204684Y-125971197D01*
X157210496Y-125947993D01*
X157218554Y-125925471D01*
X157228782Y-125903847D01*
X157241079Y-125883330D01*
X157255329Y-125864117D01*
X157271393Y-125846393D01*
X157289117Y-125830329D01*
X157308330Y-125816079D01*
X157328847Y-125803782D01*
X157350471Y-125793554D01*
X157372993Y-125785496D01*
X157396197Y-125779684D01*
X157419858Y-125776174D01*
X157443750Y-125775000D01*
X158356250Y-125775000D01*
X158380142Y-125776174D01*
G37*
G04 #@! TD.AperFunction*
G04 #@! TA.AperFunction,SMDPad,CuDef*
G36*
X117580142Y-117951174D02*
G01*
X117603803Y-117954684D01*
X117627007Y-117960496D01*
X117649529Y-117968554D01*
X117671153Y-117978782D01*
X117691670Y-117991079D01*
X117710883Y-118005329D01*
X117728607Y-118021393D01*
X117744671Y-118039117D01*
X117758921Y-118058330D01*
X117771218Y-118078847D01*
X117781446Y-118100471D01*
X117789504Y-118122993D01*
X117795316Y-118146197D01*
X117798826Y-118169858D01*
X117800000Y-118193750D01*
X117800000Y-118681250D01*
X117798826Y-118705142D01*
X117795316Y-118728803D01*
X117789504Y-118752007D01*
X117781446Y-118774529D01*
X117771218Y-118796153D01*
X117758921Y-118816670D01*
X117744671Y-118835883D01*
X117728607Y-118853607D01*
X117710883Y-118869671D01*
X117691670Y-118883921D01*
X117671153Y-118896218D01*
X117649529Y-118906446D01*
X117627007Y-118914504D01*
X117603803Y-118920316D01*
X117580142Y-118923826D01*
X117556250Y-118925000D01*
X116643750Y-118925000D01*
X116619858Y-118923826D01*
X116596197Y-118920316D01*
X116572993Y-118914504D01*
X116550471Y-118906446D01*
X116528847Y-118896218D01*
X116508330Y-118883921D01*
X116489117Y-118869671D01*
X116471393Y-118853607D01*
X116455329Y-118835883D01*
X116441079Y-118816670D01*
X116428782Y-118796153D01*
X116418554Y-118774529D01*
X116410496Y-118752007D01*
X116404684Y-118728803D01*
X116401174Y-118705142D01*
X116400000Y-118681250D01*
X116400000Y-118193750D01*
X116401174Y-118169858D01*
X116404684Y-118146197D01*
X116410496Y-118122993D01*
X116418554Y-118100471D01*
X116428782Y-118078847D01*
X116441079Y-118058330D01*
X116455329Y-118039117D01*
X116471393Y-118021393D01*
X116489117Y-118005329D01*
X116508330Y-117991079D01*
X116528847Y-117978782D01*
X116550471Y-117968554D01*
X116572993Y-117960496D01*
X116596197Y-117954684D01*
X116619858Y-117951174D01*
X116643750Y-117950000D01*
X117556250Y-117950000D01*
X117580142Y-117951174D01*
G37*
G04 #@! TD.AperFunction*
G04 #@! TA.AperFunction,SMDPad,CuDef*
G36*
X117580142Y-116076174D02*
G01*
X117603803Y-116079684D01*
X117627007Y-116085496D01*
X117649529Y-116093554D01*
X117671153Y-116103782D01*
X117691670Y-116116079D01*
X117710883Y-116130329D01*
X117728607Y-116146393D01*
X117744671Y-116164117D01*
X117758921Y-116183330D01*
X117771218Y-116203847D01*
X117781446Y-116225471D01*
X117789504Y-116247993D01*
X117795316Y-116271197D01*
X117798826Y-116294858D01*
X117800000Y-116318750D01*
X117800000Y-116806250D01*
X117798826Y-116830142D01*
X117795316Y-116853803D01*
X117789504Y-116877007D01*
X117781446Y-116899529D01*
X117771218Y-116921153D01*
X117758921Y-116941670D01*
X117744671Y-116960883D01*
X117728607Y-116978607D01*
X117710883Y-116994671D01*
X117691670Y-117008921D01*
X117671153Y-117021218D01*
X117649529Y-117031446D01*
X117627007Y-117039504D01*
X117603803Y-117045316D01*
X117580142Y-117048826D01*
X117556250Y-117050000D01*
X116643750Y-117050000D01*
X116619858Y-117048826D01*
X116596197Y-117045316D01*
X116572993Y-117039504D01*
X116550471Y-117031446D01*
X116528847Y-117021218D01*
X116508330Y-117008921D01*
X116489117Y-116994671D01*
X116471393Y-116978607D01*
X116455329Y-116960883D01*
X116441079Y-116941670D01*
X116428782Y-116921153D01*
X116418554Y-116899529D01*
X116410496Y-116877007D01*
X116404684Y-116853803D01*
X116401174Y-116830142D01*
X116400000Y-116806250D01*
X116400000Y-116318750D01*
X116401174Y-116294858D01*
X116404684Y-116271197D01*
X116410496Y-116247993D01*
X116418554Y-116225471D01*
X116428782Y-116203847D01*
X116441079Y-116183330D01*
X116455329Y-116164117D01*
X116471393Y-116146393D01*
X116489117Y-116130329D01*
X116508330Y-116116079D01*
X116528847Y-116103782D01*
X116550471Y-116093554D01*
X116572993Y-116085496D01*
X116596197Y-116079684D01*
X116619858Y-116076174D01*
X116643750Y-116075000D01*
X117556250Y-116075000D01*
X117580142Y-116076174D01*
G37*
G04 #@! TD.AperFunction*
G04 #@! TA.AperFunction,SMDPad,CuDef*
G36*
X134180142Y-113251174D02*
G01*
X134203803Y-113254684D01*
X134227007Y-113260496D01*
X134249529Y-113268554D01*
X134271153Y-113278782D01*
X134291670Y-113291079D01*
X134310883Y-113305329D01*
X134328607Y-113321393D01*
X134344671Y-113339117D01*
X134358921Y-113358330D01*
X134371218Y-113378847D01*
X134381446Y-113400471D01*
X134389504Y-113422993D01*
X134395316Y-113446197D01*
X134398826Y-113469858D01*
X134400000Y-113493750D01*
X134400000Y-113981250D01*
X134398826Y-114005142D01*
X134395316Y-114028803D01*
X134389504Y-114052007D01*
X134381446Y-114074529D01*
X134371218Y-114096153D01*
X134358921Y-114116670D01*
X134344671Y-114135883D01*
X134328607Y-114153607D01*
X134310883Y-114169671D01*
X134291670Y-114183921D01*
X134271153Y-114196218D01*
X134249529Y-114206446D01*
X134227007Y-114214504D01*
X134203803Y-114220316D01*
X134180142Y-114223826D01*
X134156250Y-114225000D01*
X133243750Y-114225000D01*
X133219858Y-114223826D01*
X133196197Y-114220316D01*
X133172993Y-114214504D01*
X133150471Y-114206446D01*
X133128847Y-114196218D01*
X133108330Y-114183921D01*
X133089117Y-114169671D01*
X133071393Y-114153607D01*
X133055329Y-114135883D01*
X133041079Y-114116670D01*
X133028782Y-114096153D01*
X133018554Y-114074529D01*
X133010496Y-114052007D01*
X133004684Y-114028803D01*
X133001174Y-114005142D01*
X133000000Y-113981250D01*
X133000000Y-113493750D01*
X133001174Y-113469858D01*
X133004684Y-113446197D01*
X133010496Y-113422993D01*
X133018554Y-113400471D01*
X133028782Y-113378847D01*
X133041079Y-113358330D01*
X133055329Y-113339117D01*
X133071393Y-113321393D01*
X133089117Y-113305329D01*
X133108330Y-113291079D01*
X133128847Y-113278782D01*
X133150471Y-113268554D01*
X133172993Y-113260496D01*
X133196197Y-113254684D01*
X133219858Y-113251174D01*
X133243750Y-113250000D01*
X134156250Y-113250000D01*
X134180142Y-113251174D01*
G37*
G04 #@! TD.AperFunction*
G04 #@! TA.AperFunction,SMDPad,CuDef*
G36*
X134180142Y-111376174D02*
G01*
X134203803Y-111379684D01*
X134227007Y-111385496D01*
X134249529Y-111393554D01*
X134271153Y-111403782D01*
X134291670Y-111416079D01*
X134310883Y-111430329D01*
X134328607Y-111446393D01*
X134344671Y-111464117D01*
X134358921Y-111483330D01*
X134371218Y-111503847D01*
X134381446Y-111525471D01*
X134389504Y-111547993D01*
X134395316Y-111571197D01*
X134398826Y-111594858D01*
X134400000Y-111618750D01*
X134400000Y-112106250D01*
X134398826Y-112130142D01*
X134395316Y-112153803D01*
X134389504Y-112177007D01*
X134381446Y-112199529D01*
X134371218Y-112221153D01*
X134358921Y-112241670D01*
X134344671Y-112260883D01*
X134328607Y-112278607D01*
X134310883Y-112294671D01*
X134291670Y-112308921D01*
X134271153Y-112321218D01*
X134249529Y-112331446D01*
X134227007Y-112339504D01*
X134203803Y-112345316D01*
X134180142Y-112348826D01*
X134156250Y-112350000D01*
X133243750Y-112350000D01*
X133219858Y-112348826D01*
X133196197Y-112345316D01*
X133172993Y-112339504D01*
X133150471Y-112331446D01*
X133128847Y-112321218D01*
X133108330Y-112308921D01*
X133089117Y-112294671D01*
X133071393Y-112278607D01*
X133055329Y-112260883D01*
X133041079Y-112241670D01*
X133028782Y-112221153D01*
X133018554Y-112199529D01*
X133010496Y-112177007D01*
X133004684Y-112153803D01*
X133001174Y-112130142D01*
X133000000Y-112106250D01*
X133000000Y-111618750D01*
X133001174Y-111594858D01*
X133004684Y-111571197D01*
X133010496Y-111547993D01*
X133018554Y-111525471D01*
X133028782Y-111503847D01*
X133041079Y-111483330D01*
X133055329Y-111464117D01*
X133071393Y-111446393D01*
X133089117Y-111430329D01*
X133108330Y-111416079D01*
X133128847Y-111403782D01*
X133150471Y-111393554D01*
X133172993Y-111385496D01*
X133196197Y-111379684D01*
X133219858Y-111376174D01*
X133243750Y-111375000D01*
X134156250Y-111375000D01*
X134180142Y-111376174D01*
G37*
G04 #@! TD.AperFunction*
G04 #@! TA.AperFunction,SMDPad,CuDef*
G36*
X151880142Y-109451174D02*
G01*
X151903803Y-109454684D01*
X151927007Y-109460496D01*
X151949529Y-109468554D01*
X151971153Y-109478782D01*
X151991670Y-109491079D01*
X152010883Y-109505329D01*
X152028607Y-109521393D01*
X152044671Y-109539117D01*
X152058921Y-109558330D01*
X152071218Y-109578847D01*
X152081446Y-109600471D01*
X152089504Y-109622993D01*
X152095316Y-109646197D01*
X152098826Y-109669858D01*
X152100000Y-109693750D01*
X152100000Y-110181250D01*
X152098826Y-110205142D01*
X152095316Y-110228803D01*
X152089504Y-110252007D01*
X152081446Y-110274529D01*
X152071218Y-110296153D01*
X152058921Y-110316670D01*
X152044671Y-110335883D01*
X152028607Y-110353607D01*
X152010883Y-110369671D01*
X151991670Y-110383921D01*
X151971153Y-110396218D01*
X151949529Y-110406446D01*
X151927007Y-110414504D01*
X151903803Y-110420316D01*
X151880142Y-110423826D01*
X151856250Y-110425000D01*
X150943750Y-110425000D01*
X150919858Y-110423826D01*
X150896197Y-110420316D01*
X150872993Y-110414504D01*
X150850471Y-110406446D01*
X150828847Y-110396218D01*
X150808330Y-110383921D01*
X150789117Y-110369671D01*
X150771393Y-110353607D01*
X150755329Y-110335883D01*
X150741079Y-110316670D01*
X150728782Y-110296153D01*
X150718554Y-110274529D01*
X150710496Y-110252007D01*
X150704684Y-110228803D01*
X150701174Y-110205142D01*
X150700000Y-110181250D01*
X150700000Y-109693750D01*
X150701174Y-109669858D01*
X150704684Y-109646197D01*
X150710496Y-109622993D01*
X150718554Y-109600471D01*
X150728782Y-109578847D01*
X150741079Y-109558330D01*
X150755329Y-109539117D01*
X150771393Y-109521393D01*
X150789117Y-109505329D01*
X150808330Y-109491079D01*
X150828847Y-109478782D01*
X150850471Y-109468554D01*
X150872993Y-109460496D01*
X150896197Y-109454684D01*
X150919858Y-109451174D01*
X150943750Y-109450000D01*
X151856250Y-109450000D01*
X151880142Y-109451174D01*
G37*
G04 #@! TD.AperFunction*
G04 #@! TA.AperFunction,SMDPad,CuDef*
G36*
X151880142Y-107576174D02*
G01*
X151903803Y-107579684D01*
X151927007Y-107585496D01*
X151949529Y-107593554D01*
X151971153Y-107603782D01*
X151991670Y-107616079D01*
X152010883Y-107630329D01*
X152028607Y-107646393D01*
X152044671Y-107664117D01*
X152058921Y-107683330D01*
X152071218Y-107703847D01*
X152081446Y-107725471D01*
X152089504Y-107747993D01*
X152095316Y-107771197D01*
X152098826Y-107794858D01*
X152100000Y-107818750D01*
X152100000Y-108306250D01*
X152098826Y-108330142D01*
X152095316Y-108353803D01*
X152089504Y-108377007D01*
X152081446Y-108399529D01*
X152071218Y-108421153D01*
X152058921Y-108441670D01*
X152044671Y-108460883D01*
X152028607Y-108478607D01*
X152010883Y-108494671D01*
X151991670Y-108508921D01*
X151971153Y-108521218D01*
X151949529Y-108531446D01*
X151927007Y-108539504D01*
X151903803Y-108545316D01*
X151880142Y-108548826D01*
X151856250Y-108550000D01*
X150943750Y-108550000D01*
X150919858Y-108548826D01*
X150896197Y-108545316D01*
X150872993Y-108539504D01*
X150850471Y-108531446D01*
X150828847Y-108521218D01*
X150808330Y-108508921D01*
X150789117Y-108494671D01*
X150771393Y-108478607D01*
X150755329Y-108460883D01*
X150741079Y-108441670D01*
X150728782Y-108421153D01*
X150718554Y-108399529D01*
X150710496Y-108377007D01*
X150704684Y-108353803D01*
X150701174Y-108330142D01*
X150700000Y-108306250D01*
X150700000Y-107818750D01*
X150701174Y-107794858D01*
X150704684Y-107771197D01*
X150710496Y-107747993D01*
X150718554Y-107725471D01*
X150728782Y-107703847D01*
X150741079Y-107683330D01*
X150755329Y-107664117D01*
X150771393Y-107646393D01*
X150789117Y-107630329D01*
X150808330Y-107616079D01*
X150828847Y-107603782D01*
X150850471Y-107593554D01*
X150872993Y-107585496D01*
X150896197Y-107579684D01*
X150919858Y-107576174D01*
X150943750Y-107575000D01*
X151856250Y-107575000D01*
X151880142Y-107576174D01*
G37*
G04 #@! TD.AperFunction*
G04 #@! TA.AperFunction,SMDPad,CuDef*
G36*
X121230142Y-102451174D02*
G01*
X121253803Y-102454684D01*
X121277007Y-102460496D01*
X121299529Y-102468554D01*
X121321153Y-102478782D01*
X121341670Y-102491079D01*
X121360883Y-102505329D01*
X121378607Y-102521393D01*
X121394671Y-102539117D01*
X121408921Y-102558330D01*
X121421218Y-102578847D01*
X121431446Y-102600471D01*
X121439504Y-102622993D01*
X121445316Y-102646197D01*
X121448826Y-102669858D01*
X121450000Y-102693750D01*
X121450000Y-103181250D01*
X121448826Y-103205142D01*
X121445316Y-103228803D01*
X121439504Y-103252007D01*
X121431446Y-103274529D01*
X121421218Y-103296153D01*
X121408921Y-103316670D01*
X121394671Y-103335883D01*
X121378607Y-103353607D01*
X121360883Y-103369671D01*
X121341670Y-103383921D01*
X121321153Y-103396218D01*
X121299529Y-103406446D01*
X121277007Y-103414504D01*
X121253803Y-103420316D01*
X121230142Y-103423826D01*
X121206250Y-103425000D01*
X120293750Y-103425000D01*
X120269858Y-103423826D01*
X120246197Y-103420316D01*
X120222993Y-103414504D01*
X120200471Y-103406446D01*
X120178847Y-103396218D01*
X120158330Y-103383921D01*
X120139117Y-103369671D01*
X120121393Y-103353607D01*
X120105329Y-103335883D01*
X120091079Y-103316670D01*
X120078782Y-103296153D01*
X120068554Y-103274529D01*
X120060496Y-103252007D01*
X120054684Y-103228803D01*
X120051174Y-103205142D01*
X120050000Y-103181250D01*
X120050000Y-102693750D01*
X120051174Y-102669858D01*
X120054684Y-102646197D01*
X120060496Y-102622993D01*
X120068554Y-102600471D01*
X120078782Y-102578847D01*
X120091079Y-102558330D01*
X120105329Y-102539117D01*
X120121393Y-102521393D01*
X120139117Y-102505329D01*
X120158330Y-102491079D01*
X120178847Y-102478782D01*
X120200471Y-102468554D01*
X120222993Y-102460496D01*
X120246197Y-102454684D01*
X120269858Y-102451174D01*
X120293750Y-102450000D01*
X121206250Y-102450000D01*
X121230142Y-102451174D01*
G37*
G04 #@! TD.AperFunction*
G04 #@! TA.AperFunction,SMDPad,CuDef*
G36*
X121230142Y-100576174D02*
G01*
X121253803Y-100579684D01*
X121277007Y-100585496D01*
X121299529Y-100593554D01*
X121321153Y-100603782D01*
X121341670Y-100616079D01*
X121360883Y-100630329D01*
X121378607Y-100646393D01*
X121394671Y-100664117D01*
X121408921Y-100683330D01*
X121421218Y-100703847D01*
X121431446Y-100725471D01*
X121439504Y-100747993D01*
X121445316Y-100771197D01*
X121448826Y-100794858D01*
X121450000Y-100818750D01*
X121450000Y-101306250D01*
X121448826Y-101330142D01*
X121445316Y-101353803D01*
X121439504Y-101377007D01*
X121431446Y-101399529D01*
X121421218Y-101421153D01*
X121408921Y-101441670D01*
X121394671Y-101460883D01*
X121378607Y-101478607D01*
X121360883Y-101494671D01*
X121341670Y-101508921D01*
X121321153Y-101521218D01*
X121299529Y-101531446D01*
X121277007Y-101539504D01*
X121253803Y-101545316D01*
X121230142Y-101548826D01*
X121206250Y-101550000D01*
X120293750Y-101550000D01*
X120269858Y-101548826D01*
X120246197Y-101545316D01*
X120222993Y-101539504D01*
X120200471Y-101531446D01*
X120178847Y-101521218D01*
X120158330Y-101508921D01*
X120139117Y-101494671D01*
X120121393Y-101478607D01*
X120105329Y-101460883D01*
X120091079Y-101441670D01*
X120078782Y-101421153D01*
X120068554Y-101399529D01*
X120060496Y-101377007D01*
X120054684Y-101353803D01*
X120051174Y-101330142D01*
X120050000Y-101306250D01*
X120050000Y-100818750D01*
X120051174Y-100794858D01*
X120054684Y-100771197D01*
X120060496Y-100747993D01*
X120068554Y-100725471D01*
X120078782Y-100703847D01*
X120091079Y-100683330D01*
X120105329Y-100664117D01*
X120121393Y-100646393D01*
X120139117Y-100630329D01*
X120158330Y-100616079D01*
X120178847Y-100603782D01*
X120200471Y-100593554D01*
X120222993Y-100585496D01*
X120246197Y-100579684D01*
X120269858Y-100576174D01*
X120293750Y-100575000D01*
X121206250Y-100575000D01*
X121230142Y-100576174D01*
G37*
G04 #@! TD.AperFunction*
G04 #@! TA.AperFunction,SMDPad,CuDef*
G36*
X153180142Y-89951174D02*
G01*
X153203803Y-89954684D01*
X153227007Y-89960496D01*
X153249529Y-89968554D01*
X153271153Y-89978782D01*
X153291670Y-89991079D01*
X153310883Y-90005329D01*
X153328607Y-90021393D01*
X153344671Y-90039117D01*
X153358921Y-90058330D01*
X153371218Y-90078847D01*
X153381446Y-90100471D01*
X153389504Y-90122993D01*
X153395316Y-90146197D01*
X153398826Y-90169858D01*
X153400000Y-90193750D01*
X153400000Y-90681250D01*
X153398826Y-90705142D01*
X153395316Y-90728803D01*
X153389504Y-90752007D01*
X153381446Y-90774529D01*
X153371218Y-90796153D01*
X153358921Y-90816670D01*
X153344671Y-90835883D01*
X153328607Y-90853607D01*
X153310883Y-90869671D01*
X153291670Y-90883921D01*
X153271153Y-90896218D01*
X153249529Y-90906446D01*
X153227007Y-90914504D01*
X153203803Y-90920316D01*
X153180142Y-90923826D01*
X153156250Y-90925000D01*
X152243750Y-90925000D01*
X152219858Y-90923826D01*
X152196197Y-90920316D01*
X152172993Y-90914504D01*
X152150471Y-90906446D01*
X152128847Y-90896218D01*
X152108330Y-90883921D01*
X152089117Y-90869671D01*
X152071393Y-90853607D01*
X152055329Y-90835883D01*
X152041079Y-90816670D01*
X152028782Y-90796153D01*
X152018554Y-90774529D01*
X152010496Y-90752007D01*
X152004684Y-90728803D01*
X152001174Y-90705142D01*
X152000000Y-90681250D01*
X152000000Y-90193750D01*
X152001174Y-90169858D01*
X152004684Y-90146197D01*
X152010496Y-90122993D01*
X152018554Y-90100471D01*
X152028782Y-90078847D01*
X152041079Y-90058330D01*
X152055329Y-90039117D01*
X152071393Y-90021393D01*
X152089117Y-90005329D01*
X152108330Y-89991079D01*
X152128847Y-89978782D01*
X152150471Y-89968554D01*
X152172993Y-89960496D01*
X152196197Y-89954684D01*
X152219858Y-89951174D01*
X152243750Y-89950000D01*
X153156250Y-89950000D01*
X153180142Y-89951174D01*
G37*
G04 #@! TD.AperFunction*
G04 #@! TA.AperFunction,SMDPad,CuDef*
G36*
X153180142Y-88076174D02*
G01*
X153203803Y-88079684D01*
X153227007Y-88085496D01*
X153249529Y-88093554D01*
X153271153Y-88103782D01*
X153291670Y-88116079D01*
X153310883Y-88130329D01*
X153328607Y-88146393D01*
X153344671Y-88164117D01*
X153358921Y-88183330D01*
X153371218Y-88203847D01*
X153381446Y-88225471D01*
X153389504Y-88247993D01*
X153395316Y-88271197D01*
X153398826Y-88294858D01*
X153400000Y-88318750D01*
X153400000Y-88806250D01*
X153398826Y-88830142D01*
X153395316Y-88853803D01*
X153389504Y-88877007D01*
X153381446Y-88899529D01*
X153371218Y-88921153D01*
X153358921Y-88941670D01*
X153344671Y-88960883D01*
X153328607Y-88978607D01*
X153310883Y-88994671D01*
X153291670Y-89008921D01*
X153271153Y-89021218D01*
X153249529Y-89031446D01*
X153227007Y-89039504D01*
X153203803Y-89045316D01*
X153180142Y-89048826D01*
X153156250Y-89050000D01*
X152243750Y-89050000D01*
X152219858Y-89048826D01*
X152196197Y-89045316D01*
X152172993Y-89039504D01*
X152150471Y-89031446D01*
X152128847Y-89021218D01*
X152108330Y-89008921D01*
X152089117Y-88994671D01*
X152071393Y-88978607D01*
X152055329Y-88960883D01*
X152041079Y-88941670D01*
X152028782Y-88921153D01*
X152018554Y-88899529D01*
X152010496Y-88877007D01*
X152004684Y-88853803D01*
X152001174Y-88830142D01*
X152000000Y-88806250D01*
X152000000Y-88318750D01*
X152001174Y-88294858D01*
X152004684Y-88271197D01*
X152010496Y-88247993D01*
X152018554Y-88225471D01*
X152028782Y-88203847D01*
X152041079Y-88183330D01*
X152055329Y-88164117D01*
X152071393Y-88146393D01*
X152089117Y-88130329D01*
X152108330Y-88116079D01*
X152128847Y-88103782D01*
X152150471Y-88093554D01*
X152172993Y-88085496D01*
X152196197Y-88079684D01*
X152219858Y-88076174D01*
X152243750Y-88075000D01*
X153156250Y-88075000D01*
X153180142Y-88076174D01*
G37*
G04 #@! TD.AperFunction*
G04 #@! TA.AperFunction,SMDPad,CuDef*
G36*
X126330142Y-81301174D02*
G01*
X126353803Y-81304684D01*
X126377007Y-81310496D01*
X126399529Y-81318554D01*
X126421153Y-81328782D01*
X126441670Y-81341079D01*
X126460883Y-81355329D01*
X126478607Y-81371393D01*
X126494671Y-81389117D01*
X126508921Y-81408330D01*
X126521218Y-81428847D01*
X126531446Y-81450471D01*
X126539504Y-81472993D01*
X126545316Y-81496197D01*
X126548826Y-81519858D01*
X126550000Y-81543750D01*
X126550000Y-82456250D01*
X126548826Y-82480142D01*
X126545316Y-82503803D01*
X126539504Y-82527007D01*
X126531446Y-82549529D01*
X126521218Y-82571153D01*
X126508921Y-82591670D01*
X126494671Y-82610883D01*
X126478607Y-82628607D01*
X126460883Y-82644671D01*
X126441670Y-82658921D01*
X126421153Y-82671218D01*
X126399529Y-82681446D01*
X126377007Y-82689504D01*
X126353803Y-82695316D01*
X126330142Y-82698826D01*
X126306250Y-82700000D01*
X125818750Y-82700000D01*
X125794858Y-82698826D01*
X125771197Y-82695316D01*
X125747993Y-82689504D01*
X125725471Y-82681446D01*
X125703847Y-82671218D01*
X125683330Y-82658921D01*
X125664117Y-82644671D01*
X125646393Y-82628607D01*
X125630329Y-82610883D01*
X125616079Y-82591670D01*
X125603782Y-82571153D01*
X125593554Y-82549529D01*
X125585496Y-82527007D01*
X125579684Y-82503803D01*
X125576174Y-82480142D01*
X125575000Y-82456250D01*
X125575000Y-81543750D01*
X125576174Y-81519858D01*
X125579684Y-81496197D01*
X125585496Y-81472993D01*
X125593554Y-81450471D01*
X125603782Y-81428847D01*
X125616079Y-81408330D01*
X125630329Y-81389117D01*
X125646393Y-81371393D01*
X125664117Y-81355329D01*
X125683330Y-81341079D01*
X125703847Y-81328782D01*
X125725471Y-81318554D01*
X125747993Y-81310496D01*
X125771197Y-81304684D01*
X125794858Y-81301174D01*
X125818750Y-81300000D01*
X126306250Y-81300000D01*
X126330142Y-81301174D01*
G37*
G04 #@! TD.AperFunction*
G04 #@! TA.AperFunction,SMDPad,CuDef*
G36*
X128205142Y-81301174D02*
G01*
X128228803Y-81304684D01*
X128252007Y-81310496D01*
X128274529Y-81318554D01*
X128296153Y-81328782D01*
X128316670Y-81341079D01*
X128335883Y-81355329D01*
X128353607Y-81371393D01*
X128369671Y-81389117D01*
X128383921Y-81408330D01*
X128396218Y-81428847D01*
X128406446Y-81450471D01*
X128414504Y-81472993D01*
X128420316Y-81496197D01*
X128423826Y-81519858D01*
X128425000Y-81543750D01*
X128425000Y-82456250D01*
X128423826Y-82480142D01*
X128420316Y-82503803D01*
X128414504Y-82527007D01*
X128406446Y-82549529D01*
X128396218Y-82571153D01*
X128383921Y-82591670D01*
X128369671Y-82610883D01*
X128353607Y-82628607D01*
X128335883Y-82644671D01*
X128316670Y-82658921D01*
X128296153Y-82671218D01*
X128274529Y-82681446D01*
X128252007Y-82689504D01*
X128228803Y-82695316D01*
X128205142Y-82698826D01*
X128181250Y-82700000D01*
X127693750Y-82700000D01*
X127669858Y-82698826D01*
X127646197Y-82695316D01*
X127622993Y-82689504D01*
X127600471Y-82681446D01*
X127578847Y-82671218D01*
X127558330Y-82658921D01*
X127539117Y-82644671D01*
X127521393Y-82628607D01*
X127505329Y-82610883D01*
X127491079Y-82591670D01*
X127478782Y-82571153D01*
X127468554Y-82549529D01*
X127460496Y-82527007D01*
X127454684Y-82503803D01*
X127451174Y-82480142D01*
X127450000Y-82456250D01*
X127450000Y-81543750D01*
X127451174Y-81519858D01*
X127454684Y-81496197D01*
X127460496Y-81472993D01*
X127468554Y-81450471D01*
X127478782Y-81428847D01*
X127491079Y-81408330D01*
X127505329Y-81389117D01*
X127521393Y-81371393D01*
X127539117Y-81355329D01*
X127558330Y-81341079D01*
X127578847Y-81328782D01*
X127600471Y-81318554D01*
X127622993Y-81310496D01*
X127646197Y-81304684D01*
X127669858Y-81301174D01*
X127693750Y-81300000D01*
X128181250Y-81300000D01*
X128205142Y-81301174D01*
G37*
G04 #@! TD.AperFunction*
G04 #@! TA.AperFunction,SMDPad,CuDef*
G36*
X145380142Y-68476174D02*
G01*
X145403803Y-68479684D01*
X145427007Y-68485496D01*
X145449529Y-68493554D01*
X145471153Y-68503782D01*
X145491670Y-68516079D01*
X145510883Y-68530329D01*
X145528607Y-68546393D01*
X145544671Y-68564117D01*
X145558921Y-68583330D01*
X145571218Y-68603847D01*
X145581446Y-68625471D01*
X145589504Y-68647993D01*
X145595316Y-68671197D01*
X145598826Y-68694858D01*
X145600000Y-68718750D01*
X145600000Y-69206250D01*
X145598826Y-69230142D01*
X145595316Y-69253803D01*
X145589504Y-69277007D01*
X145581446Y-69299529D01*
X145571218Y-69321153D01*
X145558921Y-69341670D01*
X145544671Y-69360883D01*
X145528607Y-69378607D01*
X145510883Y-69394671D01*
X145491670Y-69408921D01*
X145471153Y-69421218D01*
X145449529Y-69431446D01*
X145427007Y-69439504D01*
X145403803Y-69445316D01*
X145380142Y-69448826D01*
X145356250Y-69450000D01*
X144443750Y-69450000D01*
X144419858Y-69448826D01*
X144396197Y-69445316D01*
X144372993Y-69439504D01*
X144350471Y-69431446D01*
X144328847Y-69421218D01*
X144308330Y-69408921D01*
X144289117Y-69394671D01*
X144271393Y-69378607D01*
X144255329Y-69360883D01*
X144241079Y-69341670D01*
X144228782Y-69321153D01*
X144218554Y-69299529D01*
X144210496Y-69277007D01*
X144204684Y-69253803D01*
X144201174Y-69230142D01*
X144200000Y-69206250D01*
X144200000Y-68718750D01*
X144201174Y-68694858D01*
X144204684Y-68671197D01*
X144210496Y-68647993D01*
X144218554Y-68625471D01*
X144228782Y-68603847D01*
X144241079Y-68583330D01*
X144255329Y-68564117D01*
X144271393Y-68546393D01*
X144289117Y-68530329D01*
X144308330Y-68516079D01*
X144328847Y-68503782D01*
X144350471Y-68493554D01*
X144372993Y-68485496D01*
X144396197Y-68479684D01*
X144419858Y-68476174D01*
X144443750Y-68475000D01*
X145356250Y-68475000D01*
X145380142Y-68476174D01*
G37*
G04 #@! TD.AperFunction*
G04 #@! TA.AperFunction,SMDPad,CuDef*
G36*
X145380142Y-70351174D02*
G01*
X145403803Y-70354684D01*
X145427007Y-70360496D01*
X145449529Y-70368554D01*
X145471153Y-70378782D01*
X145491670Y-70391079D01*
X145510883Y-70405329D01*
X145528607Y-70421393D01*
X145544671Y-70439117D01*
X145558921Y-70458330D01*
X145571218Y-70478847D01*
X145581446Y-70500471D01*
X145589504Y-70522993D01*
X145595316Y-70546197D01*
X145598826Y-70569858D01*
X145600000Y-70593750D01*
X145600000Y-71081250D01*
X145598826Y-71105142D01*
X145595316Y-71128803D01*
X145589504Y-71152007D01*
X145581446Y-71174529D01*
X145571218Y-71196153D01*
X145558921Y-71216670D01*
X145544671Y-71235883D01*
X145528607Y-71253607D01*
X145510883Y-71269671D01*
X145491670Y-71283921D01*
X145471153Y-71296218D01*
X145449529Y-71306446D01*
X145427007Y-71314504D01*
X145403803Y-71320316D01*
X145380142Y-71323826D01*
X145356250Y-71325000D01*
X144443750Y-71325000D01*
X144419858Y-71323826D01*
X144396197Y-71320316D01*
X144372993Y-71314504D01*
X144350471Y-71306446D01*
X144328847Y-71296218D01*
X144308330Y-71283921D01*
X144289117Y-71269671D01*
X144271393Y-71253607D01*
X144255329Y-71235883D01*
X144241079Y-71216670D01*
X144228782Y-71196153D01*
X144218554Y-71174529D01*
X144210496Y-71152007D01*
X144204684Y-71128803D01*
X144201174Y-71105142D01*
X144200000Y-71081250D01*
X144200000Y-70593750D01*
X144201174Y-70569858D01*
X144204684Y-70546197D01*
X144210496Y-70522993D01*
X144218554Y-70500471D01*
X144228782Y-70478847D01*
X144241079Y-70458330D01*
X144255329Y-70439117D01*
X144271393Y-70421393D01*
X144289117Y-70405329D01*
X144308330Y-70391079D01*
X144328847Y-70378782D01*
X144350471Y-70368554D01*
X144372993Y-70360496D01*
X144396197Y-70354684D01*
X144419858Y-70351174D01*
X144443750Y-70350000D01*
X145356250Y-70350000D01*
X145380142Y-70351174D01*
G37*
G04 #@! TD.AperFunction*
G04 #@! TA.AperFunction,SMDPad,CuDef*
G36*
X134480142Y-68651174D02*
G01*
X134503803Y-68654684D01*
X134527007Y-68660496D01*
X134549529Y-68668554D01*
X134571153Y-68678782D01*
X134591670Y-68691079D01*
X134610883Y-68705329D01*
X134628607Y-68721393D01*
X134644671Y-68739117D01*
X134658921Y-68758330D01*
X134671218Y-68778847D01*
X134681446Y-68800471D01*
X134689504Y-68822993D01*
X134695316Y-68846197D01*
X134698826Y-68869858D01*
X134700000Y-68893750D01*
X134700000Y-69381250D01*
X134698826Y-69405142D01*
X134695316Y-69428803D01*
X134689504Y-69452007D01*
X134681446Y-69474529D01*
X134671218Y-69496153D01*
X134658921Y-69516670D01*
X134644671Y-69535883D01*
X134628607Y-69553607D01*
X134610883Y-69569671D01*
X134591670Y-69583921D01*
X134571153Y-69596218D01*
X134549529Y-69606446D01*
X134527007Y-69614504D01*
X134503803Y-69620316D01*
X134480142Y-69623826D01*
X134456250Y-69625000D01*
X133543750Y-69625000D01*
X133519858Y-69623826D01*
X133496197Y-69620316D01*
X133472993Y-69614504D01*
X133450471Y-69606446D01*
X133428847Y-69596218D01*
X133408330Y-69583921D01*
X133389117Y-69569671D01*
X133371393Y-69553607D01*
X133355329Y-69535883D01*
X133341079Y-69516670D01*
X133328782Y-69496153D01*
X133318554Y-69474529D01*
X133310496Y-69452007D01*
X133304684Y-69428803D01*
X133301174Y-69405142D01*
X133300000Y-69381250D01*
X133300000Y-68893750D01*
X133301174Y-68869858D01*
X133304684Y-68846197D01*
X133310496Y-68822993D01*
X133318554Y-68800471D01*
X133328782Y-68778847D01*
X133341079Y-68758330D01*
X133355329Y-68739117D01*
X133371393Y-68721393D01*
X133389117Y-68705329D01*
X133408330Y-68691079D01*
X133428847Y-68678782D01*
X133450471Y-68668554D01*
X133472993Y-68660496D01*
X133496197Y-68654684D01*
X133519858Y-68651174D01*
X133543750Y-68650000D01*
X134456250Y-68650000D01*
X134480142Y-68651174D01*
G37*
G04 #@! TD.AperFunction*
G04 #@! TA.AperFunction,SMDPad,CuDef*
G36*
X134480142Y-66776174D02*
G01*
X134503803Y-66779684D01*
X134527007Y-66785496D01*
X134549529Y-66793554D01*
X134571153Y-66803782D01*
X134591670Y-66816079D01*
X134610883Y-66830329D01*
X134628607Y-66846393D01*
X134644671Y-66864117D01*
X134658921Y-66883330D01*
X134671218Y-66903847D01*
X134681446Y-66925471D01*
X134689504Y-66947993D01*
X134695316Y-66971197D01*
X134698826Y-66994858D01*
X134700000Y-67018750D01*
X134700000Y-67506250D01*
X134698826Y-67530142D01*
X134695316Y-67553803D01*
X134689504Y-67577007D01*
X134681446Y-67599529D01*
X134671218Y-67621153D01*
X134658921Y-67641670D01*
X134644671Y-67660883D01*
X134628607Y-67678607D01*
X134610883Y-67694671D01*
X134591670Y-67708921D01*
X134571153Y-67721218D01*
X134549529Y-67731446D01*
X134527007Y-67739504D01*
X134503803Y-67745316D01*
X134480142Y-67748826D01*
X134456250Y-67750000D01*
X133543750Y-67750000D01*
X133519858Y-67748826D01*
X133496197Y-67745316D01*
X133472993Y-67739504D01*
X133450471Y-67731446D01*
X133428847Y-67721218D01*
X133408330Y-67708921D01*
X133389117Y-67694671D01*
X133371393Y-67678607D01*
X133355329Y-67660883D01*
X133341079Y-67641670D01*
X133328782Y-67621153D01*
X133318554Y-67599529D01*
X133310496Y-67577007D01*
X133304684Y-67553803D01*
X133301174Y-67530142D01*
X133300000Y-67506250D01*
X133300000Y-67018750D01*
X133301174Y-66994858D01*
X133304684Y-66971197D01*
X133310496Y-66947993D01*
X133318554Y-66925471D01*
X133328782Y-66903847D01*
X133341079Y-66883330D01*
X133355329Y-66864117D01*
X133371393Y-66846393D01*
X133389117Y-66830329D01*
X133408330Y-66816079D01*
X133428847Y-66803782D01*
X133450471Y-66793554D01*
X133472993Y-66785496D01*
X133496197Y-66779684D01*
X133519858Y-66776174D01*
X133543750Y-66775000D01*
X134456250Y-66775000D01*
X134480142Y-66776174D01*
G37*
G04 #@! TD.AperFunction*
D23*
X137500000Y-91500000D03*
X136500000Y-91500000D03*
X134000000Y-70200000D03*
X144100000Y-68000000D03*
X138300000Y-118300000D03*
X139000000Y-117900000D03*
X139000000Y-118500000D03*
X140200000Y-118500000D03*
X140800000Y-118500000D03*
X140200000Y-117900000D03*
X139600000Y-117900000D03*
X139600000Y-118500000D03*
X138300000Y-119500000D03*
X138300000Y-118900000D03*
X139100000Y-127700000D03*
X139700000Y-127700000D03*
X140300000Y-127700000D03*
X139100000Y-128300000D03*
X139700000Y-128300000D03*
X140300000Y-128300000D03*
X141400000Y-135200000D03*
X142000000Y-135200000D03*
X142600000Y-135200000D03*
X143200000Y-135200000D03*
X143200000Y-135800000D03*
X142600000Y-135800000D03*
X142600000Y-134600000D03*
X143200000Y-134600000D03*
X142000000Y-134600000D03*
X142600000Y-134000000D03*
X143200000Y-134000000D03*
X142000000Y-134000000D03*
X132300000Y-113700000D03*
X115800000Y-118400000D03*
X128900000Y-129600000D03*
X156800000Y-128100000D03*
X150000000Y-110000000D03*
X154100000Y-90400000D03*
X131800000Y-84000000D03*
X132000000Y-84600000D03*
X128800000Y-84300000D03*
X128800000Y-83600000D03*
X126800000Y-83700000D03*
X126800000Y-83100000D03*
X124400000Y-84200000D03*
X124400000Y-83500000D03*
X125200000Y-82400000D03*
X124800000Y-83000000D03*
X125500000Y-83000000D03*
X120700000Y-103900000D03*
X123500000Y-129100000D03*
X133000000Y-100000000D03*
X155000000Y-103750000D03*
D24*
X139600000Y-51000000D03*
D23*
X148850000Y-81599998D03*
X140800000Y-117900000D03*
X159600000Y-126100000D03*
X131900000Y-128700000D03*
X118800000Y-116400000D03*
X122350000Y-99650000D03*
X150850000Y-88650000D03*
X135900000Y-66400000D03*
X130600000Y-117400000D03*
X130600000Y-113700000D03*
X130600000Y-114300000D03*
X130600000Y-118000000D03*
X130600000Y-118600000D03*
X130600000Y-113100000D03*
X151000000Y-75000000D03*
X150400000Y-75000000D03*
X129000000Y-82000000D03*
X135450000Y-111700000D03*
X152965373Y-108034627D03*
X141650000Y-93350000D03*
X135800000Y-84100000D03*
X129600000Y-119600000D03*
X132000000Y-119600000D03*
X152500000Y-104000000D03*
X153000000Y-106500000D03*
X135100000Y-71200000D03*
X143900000Y-76400010D03*
X135800000Y-70200000D03*
X147450000Y-79300000D03*
X146150000Y-77150000D03*
X135000000Y-85100000D03*
X150850000Y-89850000D03*
X149800002Y-87500000D03*
X143600000Y-89200000D03*
X141200000Y-95700000D03*
X132000000Y-98100000D03*
X128100000Y-98100000D03*
X122350000Y-100850000D03*
X150000000Y-103500000D03*
X127500000Y-100800000D03*
X154400000Y-107900000D03*
X135450000Y-112949998D03*
X136800000Y-111800000D03*
X125800000Y-110900000D03*
X124200000Y-112400000D03*
X118850000Y-117600000D03*
X121700000Y-116300000D03*
X159600000Y-127350000D03*
X160900000Y-126100000D03*
X139000000Y-132000000D03*
X131850000Y-129850000D03*
X134600000Y-133100000D03*
X151750000Y-93000000D03*
X153000000Y-95750000D03*
X145300000Y-93700000D03*
X149200000Y-93900000D03*
X125200000Y-115200000D03*
X130700000Y-108900000D03*
D25*
X113425000Y-127700000D02*
X121375000Y-127700000D01*
X121375000Y-127700000D02*
X123362500Y-127700000D01*
D26*
X134000000Y-69137500D02*
X134000000Y-70200000D01*
D25*
X144900000Y-68962500D02*
X144900000Y-68800000D01*
D26*
X144900000Y-68800000D02*
X144100000Y-68000000D01*
X140300000Y-136062500D02*
X140881250Y-135481250D01*
X140300000Y-137237500D02*
X140300000Y-136062500D01*
X141162500Y-135200000D02*
X141400000Y-135200000D01*
X140881250Y-135481250D02*
X141162500Y-135200000D01*
X141400000Y-135200000D02*
X142000000Y-135200000D01*
X142000000Y-135200000D02*
X142600000Y-135200000D01*
X142600000Y-135200000D02*
X142600000Y-135200000D01*
X133700000Y-113737500D02*
X132337500Y-113737500D01*
X132337500Y-113737500D02*
X132300000Y-113700000D01*
X117100000Y-118437500D02*
X115837500Y-118437500D01*
X115837500Y-118437500D02*
X115800000Y-118400000D01*
X130200000Y-129537500D02*
X128962500Y-129537500D01*
X128962500Y-129537500D02*
X128900000Y-129600000D01*
X157900000Y-128137500D02*
X156837500Y-128137500D01*
X156837500Y-128137500D02*
X156800000Y-128100000D01*
X151400000Y-109937500D02*
X150062500Y-109937500D01*
X150062500Y-109937500D02*
X150000000Y-110000000D01*
X152700000Y-90437500D02*
X154062500Y-90437500D01*
X154062500Y-90437500D02*
X154100000Y-90400000D01*
X120750000Y-102937500D02*
X120750000Y-103850000D01*
X120750000Y-103850000D02*
X120700000Y-103900000D01*
D25*
X123362500Y-127700000D02*
X123362500Y-128962500D01*
X123362500Y-128962500D02*
X123500000Y-129100000D01*
D27*
X133035000Y-101755000D02*
X133035000Y-100035000D01*
X133035000Y-100035000D02*
X133000000Y-100000000D01*
D25*
X150675000Y-99750000D02*
X154250000Y-99750000D01*
X154250000Y-99750000D02*
X155000000Y-100500000D01*
X155000000Y-100500000D02*
X155000000Y-103750000D01*
D26*
X147250000Y-83199998D02*
X148550001Y-81899997D01*
X148550001Y-81899997D02*
X148850000Y-81599998D01*
X147250000Y-84245000D02*
X147250000Y-83199998D01*
D28*
X138437500Y-124862500D02*
X139700000Y-124862500D01*
X137000000Y-126300000D02*
X138437500Y-124862500D01*
X142212500Y-124862500D02*
X142250000Y-124900000D01*
X139700000Y-124862500D02*
X142212500Y-124862500D01*
X134000000Y-66200000D02*
X134000000Y-67262500D01*
X134900000Y-65300000D02*
X134000000Y-66200000D01*
X143100000Y-65300000D02*
X134900000Y-65300000D01*
X146800000Y-68969242D02*
X144830758Y-67000000D01*
X149500000Y-73500000D02*
X146800000Y-70800000D01*
X144830758Y-67000000D02*
X144800000Y-67000000D01*
X155100000Y-87300000D02*
X152100000Y-84300000D01*
X146800000Y-70800000D02*
X146800000Y-68969242D01*
X152100000Y-82500000D02*
X149500000Y-79900000D01*
X152100000Y-84300000D02*
X152100000Y-82500000D01*
X137000000Y-132062500D02*
X134362500Y-132062500D01*
X144800000Y-67000000D02*
X143100000Y-65300000D01*
X134362500Y-132062500D02*
X133200000Y-130900000D01*
X136100000Y-67262500D02*
X134000000Y-67262500D01*
X133200000Y-128700000D02*
X133137500Y-128762500D01*
X133200000Y-130900000D02*
X133200000Y-128700000D01*
X137000000Y-130100000D02*
X137000000Y-126300000D01*
X137000000Y-132062500D02*
X137000000Y-130100000D01*
X149000000Y-104900000D02*
X150000000Y-104900000D01*
X154937500Y-88562500D02*
X152700000Y-88562500D01*
X155100000Y-88400000D02*
X154937500Y-88562500D01*
X155100000Y-88400000D02*
X155100000Y-87300000D01*
X146762500Y-70837500D02*
X144900000Y-70837500D01*
X146800000Y-70800000D02*
X146762500Y-70837500D01*
D26*
X152612500Y-88650000D02*
X152700000Y-88562500D01*
X150850000Y-88650000D02*
X152612500Y-88650000D01*
X122350000Y-99650000D02*
X121450000Y-99650000D01*
X120750000Y-100350000D02*
X120750000Y-101062500D01*
X121450000Y-99650000D02*
X120750000Y-100350000D01*
D28*
X133700000Y-111862500D02*
X130537500Y-111862500D01*
X130600000Y-118000000D02*
X130600000Y-117400000D01*
X130600000Y-118600000D02*
X130600000Y-118000000D01*
D26*
X117262500Y-116400000D02*
X117100000Y-116562500D01*
X118800000Y-116400000D02*
X117262500Y-116400000D01*
X130862500Y-127662500D02*
X131900000Y-128700000D01*
X130200000Y-127662500D02*
X130862500Y-127662500D01*
D28*
X130200000Y-127662500D02*
X130200000Y-126900000D01*
X130800000Y-126300000D02*
X130200000Y-126900000D01*
X133200000Y-126300000D02*
X130800000Y-126300000D01*
X133200000Y-128700000D02*
X133200000Y-126300000D01*
D26*
X158062500Y-126100000D02*
X157900000Y-126262500D01*
X159600000Y-126100000D02*
X158062500Y-126100000D01*
X149600000Y-75000000D02*
X150400000Y-75000000D01*
D28*
X149500000Y-74900000D02*
X149500000Y-73500000D01*
D26*
X149500000Y-74900000D02*
X149600000Y-75000000D01*
D28*
X149500000Y-79900000D02*
X149500000Y-74900000D01*
D26*
X150400000Y-75000000D02*
X151000000Y-75000000D01*
X127937500Y-82000000D02*
X129000000Y-82000000D01*
X136100000Y-66600000D02*
X135900000Y-66400000D01*
X136100000Y-67262500D02*
X136100000Y-66600000D01*
X133862500Y-111700000D02*
X135450000Y-111700000D01*
X133700000Y-111862500D02*
X133862500Y-111700000D01*
X151400000Y-108062500D02*
X152937500Y-108062500D01*
D28*
X135262500Y-110300000D02*
X137463587Y-110300000D01*
X133700000Y-111862500D02*
X135262500Y-110300000D01*
X142863587Y-104900000D02*
X149000000Y-104900000D01*
D26*
X152937500Y-108062500D02*
X152965373Y-108034627D01*
D28*
X137463587Y-110300000D02*
X142863587Y-104900000D01*
X130600000Y-113300000D02*
X130600000Y-114300000D01*
X130537500Y-111862500D02*
X130600000Y-111925000D01*
X130600000Y-111925000D02*
X130600000Y-113300000D01*
X156537500Y-126262500D02*
X157900000Y-126262500D01*
X140900000Y-130100000D02*
X141800000Y-131000000D01*
X137000000Y-130100000D02*
X140900000Y-130100000D01*
X155800000Y-127000000D02*
X156537500Y-126262500D01*
X154400000Y-131000000D02*
X155800000Y-129600000D01*
X141800000Y-131000000D02*
X154400000Y-131000000D01*
X155800000Y-129600000D02*
X155800000Y-127000000D01*
X130600000Y-123700000D02*
X130600000Y-118600000D01*
X133200000Y-126300000D02*
X130600000Y-123700000D01*
X130100000Y-118600000D02*
X130600000Y-118600000D01*
X119675000Y-113500000D02*
X125000000Y-113500000D01*
X117100000Y-116562500D02*
X117100000Y-116075000D01*
X125000000Y-113500000D02*
X130100000Y-118600000D01*
X117100000Y-116075000D02*
X119675000Y-113500000D01*
X126750000Y-109750000D02*
X126750000Y-106850000D01*
X130537500Y-111862500D02*
X128862500Y-111862500D01*
X120962500Y-101062500D02*
X120750000Y-101062500D01*
X126750000Y-106850000D02*
X120962500Y-101062500D01*
X128862500Y-111862500D02*
X126750000Y-109750000D01*
X151400000Y-106150000D02*
X151400000Y-108062500D01*
X149000000Y-104900000D02*
X150150000Y-104900000D01*
X150150000Y-104900000D02*
X151400000Y-106150000D01*
X155100000Y-91300000D02*
X155100000Y-88400000D01*
X154750000Y-91650000D02*
X155100000Y-91300000D01*
X155600000Y-104900000D02*
X158000000Y-102500000D01*
X150150000Y-104900000D02*
X155600000Y-104900000D01*
X158000000Y-102500000D02*
X158000000Y-100000000D01*
X158000000Y-100000000D02*
X154750000Y-96750000D01*
D29*
X154750000Y-96750000D02*
X154750000Y-91650000D01*
D26*
X141949999Y-93050001D02*
X141650000Y-93350000D01*
X144350001Y-90649999D02*
X141949999Y-93050001D01*
X144350001Y-88839999D02*
X144350001Y-90649999D01*
X140009992Y-84499990D02*
X144350001Y-88839999D01*
X136199990Y-84499990D02*
X140009992Y-84499990D01*
X135800000Y-84100000D02*
X136199990Y-84499990D01*
D28*
X125750000Y-85737500D02*
X127750000Y-85737500D01*
X127972500Y-85515000D02*
X127750000Y-85737500D01*
X130250000Y-85515000D02*
X127972500Y-85515000D01*
D25*
X125800000Y-85787500D02*
X125750000Y-85737500D01*
X125800000Y-87762500D02*
X125800000Y-85787500D01*
D28*
X124956250Y-85737500D02*
X125750000Y-85737500D01*
X124000000Y-94500000D02*
X124000000Y-86693750D01*
X135500000Y-116500000D02*
X135000000Y-116000000D01*
X136375000Y-121875000D02*
X135500000Y-121000000D01*
X139100000Y-122537500D02*
X138437500Y-121875000D01*
X119500000Y-99869242D02*
X119500000Y-99000000D01*
X135500000Y-121000000D02*
X135500000Y-116500000D01*
X129500000Y-116000000D02*
X118500000Y-105000000D01*
X138437500Y-121875000D02*
X136375000Y-121875000D01*
X118500000Y-105000000D02*
X118500000Y-100869242D01*
X135000000Y-116000000D02*
X129500000Y-116000000D01*
X118500000Y-100869242D02*
X119500000Y-99869242D01*
X124000000Y-86693750D02*
X124956250Y-85737500D01*
D25*
X141612500Y-67350000D02*
X141700000Y-67262500D01*
X137900000Y-67350000D02*
X141612500Y-67350000D01*
X133185000Y-85515000D02*
X130250000Y-85515000D01*
X133400000Y-85300000D02*
X133185000Y-85515000D01*
X130300000Y-83200000D02*
X133000000Y-83200000D01*
X132300000Y-69200000D02*
X132300000Y-71400000D01*
X129600000Y-82500000D02*
X130300000Y-83200000D01*
X133300000Y-68200000D02*
X132300000Y-69200000D01*
X137552206Y-67350000D02*
X136702206Y-68200000D01*
X136702206Y-68200000D02*
X133300000Y-68200000D01*
X137900000Y-67350000D02*
X137552206Y-67350000D01*
X133000000Y-83200000D02*
X133400000Y-83600000D01*
X128262002Y-75437998D02*
X128262002Y-80300000D01*
X132300000Y-71400000D02*
X128262002Y-75437998D01*
X133400000Y-83600000D02*
X133400000Y-85300000D01*
X128262002Y-80300000D02*
X129650001Y-81687999D01*
X129650001Y-81687999D02*
X129650001Y-82449999D01*
X129650001Y-82449999D02*
X129600000Y-82500000D01*
X129400000Y-119600000D02*
X129600000Y-119600000D01*
X126349990Y-128750010D02*
X126700000Y-128400000D01*
X123850000Y-125500000D02*
X124300000Y-125950000D01*
X126700000Y-128400000D02*
X126700000Y-122300000D01*
X123362500Y-125500000D02*
X123850000Y-125500000D01*
X124300000Y-128302206D02*
X124747804Y-128750010D01*
X126700000Y-122300000D02*
X129400000Y-119600000D01*
X124747804Y-128750010D02*
X126349990Y-128750010D01*
X124300000Y-125950000D02*
X124300000Y-128302206D01*
X122875000Y-95625000D02*
X123062500Y-95437500D01*
X123062500Y-95437500D02*
X125750000Y-95437500D01*
D28*
X122875000Y-95625000D02*
X124000000Y-94500000D01*
X119500000Y-99000000D02*
X122875000Y-95625000D01*
D25*
X150675000Y-100750000D02*
X150675000Y-102175000D01*
X150675000Y-102175000D02*
X152500000Y-104000000D01*
X143600001Y-76100011D02*
X143900000Y-76400010D01*
X138699990Y-71200000D02*
X143600001Y-76100011D01*
X135100000Y-71200000D02*
X138699990Y-71200000D01*
X135800000Y-69437500D02*
X136100000Y-69137500D01*
X135800000Y-70200000D02*
X135800000Y-69437500D01*
X137518750Y-68300000D02*
X139900000Y-68300000D01*
X137318751Y-68499999D02*
X137518750Y-68300000D01*
X136471826Y-69137500D02*
X136100000Y-69137500D01*
X137109327Y-68499999D02*
X136471826Y-69137500D01*
X137318751Y-68499999D02*
X137109327Y-68499999D01*
X147450000Y-79300000D02*
X147450000Y-78450000D01*
X147450000Y-78450000D02*
X146150000Y-77150000D01*
X150850000Y-89850000D02*
X149800002Y-88800002D01*
X149800002Y-87924264D02*
X149800002Y-87500000D01*
X149800002Y-88800002D02*
X149800002Y-87924264D01*
X139500000Y-85100000D02*
X143600000Y-89200000D01*
X135000000Y-85100000D02*
X139500000Y-85100000D01*
X141200000Y-95700000D02*
X138800000Y-98100000D01*
X138800000Y-98100000D02*
X132000000Y-98100000D01*
X123100000Y-101600000D02*
X122350000Y-100850000D01*
X125300000Y-101600000D02*
X123100000Y-101600000D01*
X128100000Y-98100000D02*
X128100000Y-98800000D01*
X128100000Y-98800000D02*
X125300000Y-101600000D01*
X134000000Y-104000000D02*
X149075736Y-104000000D01*
X149575736Y-103500000D02*
X150000000Y-103500000D01*
X132250000Y-105750000D02*
X134000000Y-104000000D01*
X149075736Y-104000000D02*
X149575736Y-103500000D01*
X132250000Y-105750000D02*
X132250000Y-109250000D01*
X132250000Y-109250000D02*
X131500000Y-110000000D01*
X127500000Y-106662002D02*
X127500000Y-100800000D01*
X131500000Y-110000000D02*
X130837998Y-110000000D01*
X130837998Y-110000000D02*
X127500000Y-106662002D01*
X154400000Y-108550000D02*
X154400000Y-107900000D01*
X136249990Y-111050010D02*
X137849990Y-111050010D01*
X150000000Y-108750000D02*
X150250000Y-109000000D01*
X137849990Y-111050010D02*
X143150000Y-105750000D01*
X136100001Y-111199999D02*
X136249990Y-111050010D01*
X143150000Y-105750000D02*
X149500000Y-105750000D01*
X135450000Y-112949998D02*
X136100001Y-112299997D01*
X136100001Y-112299997D02*
X136100001Y-111199999D01*
X149500000Y-105750000D02*
X150000000Y-106250000D01*
X150250000Y-109000000D02*
X153950000Y-109000000D01*
X150000000Y-106250000D02*
X150000000Y-108750000D01*
X153950000Y-109000000D02*
X154400000Y-108550000D01*
X136800000Y-112562000D02*
X134112010Y-115249990D01*
X136800000Y-111800000D02*
X136800000Y-112562000D01*
X134112010Y-115249990D02*
X131600000Y-115249990D01*
X131600000Y-115249990D02*
X130149990Y-115249990D01*
X130149990Y-115249990D02*
X125800000Y-110900000D01*
X124200000Y-112400000D02*
X119714326Y-112400000D01*
X119714326Y-112400000D02*
X116049990Y-116064336D01*
X116049990Y-116064336D02*
X116049990Y-117052196D01*
X116049990Y-117052196D02*
X116597794Y-117600000D01*
X116597794Y-117600000D02*
X118850000Y-117600000D01*
X158500000Y-129400000D02*
X159600000Y-128300000D01*
X157100000Y-129400000D02*
X158500000Y-129400000D01*
X154600000Y-131900000D02*
X157100000Y-129400000D01*
X159600000Y-128300000D02*
X159600000Y-127350000D01*
X141500000Y-131900000D02*
X154600000Y-131900000D01*
X140500000Y-130900000D02*
X141500000Y-131900000D01*
X138200000Y-131600000D02*
X138900000Y-130900000D01*
X137702196Y-132900010D02*
X138200000Y-132402206D01*
X113300000Y-120200000D02*
X111100000Y-122400000D01*
X111100000Y-122400000D02*
X111100000Y-128700000D01*
X117212002Y-120200000D02*
X113300000Y-120200000D01*
X138200000Y-132402206D02*
X138200000Y-131600000D01*
X121112002Y-116300000D02*
X117212002Y-120200000D01*
X138900000Y-130900000D02*
X140500000Y-130900000D01*
X121700000Y-116300000D02*
X121112002Y-116300000D01*
X111100000Y-128700000D02*
X112300000Y-129900000D01*
X126800000Y-129900000D02*
X130650001Y-133750001D01*
X136497784Y-132900010D02*
X137702196Y-132900010D01*
X135647793Y-133750001D02*
X136497784Y-132900010D01*
X112300000Y-129900000D02*
X126800000Y-129900000D01*
X130650001Y-133750001D02*
X135647793Y-133750001D01*
X160600001Y-128007119D02*
X158707120Y-129900000D01*
X160900000Y-126100000D02*
X160600001Y-126399999D01*
X160600001Y-126399999D02*
X160600001Y-128007119D01*
X158707120Y-129900000D02*
X158653555Y-129953565D01*
X157253555Y-129953565D02*
X154707120Y-132500000D01*
X158653555Y-129953565D02*
X157253555Y-129953565D01*
X154707120Y-132500000D02*
X144800000Y-132500000D01*
X144800000Y-132500000D02*
X141100000Y-132500000D01*
X141100000Y-132500000D02*
X140600000Y-132000000D01*
X140600000Y-132000000D02*
X139000000Y-132000000D01*
X131850000Y-130774264D02*
X134175736Y-133100000D01*
X134175736Y-133100000D02*
X134600000Y-133100000D01*
X131850000Y-129850000D02*
X131850000Y-130774264D01*
X125750000Y-93562500D02*
X127750000Y-93562500D01*
D26*
X137700000Y-137287500D02*
X137700000Y-136400000D01*
D28*
X137000000Y-134425000D02*
X137700000Y-135125000D01*
X137000000Y-133937500D02*
X137000000Y-134425000D01*
X137700000Y-135125000D02*
X137700000Y-135900000D01*
D26*
X137700000Y-136400000D02*
X137700000Y-135900000D01*
D25*
X147987120Y-88055000D02*
X149750000Y-89817880D01*
X147250000Y-88055000D02*
X147987120Y-88055000D01*
X149750000Y-89817880D02*
X149750000Y-92000000D01*
X149750000Y-92000000D02*
X150750000Y-93000000D01*
X150750000Y-93000000D02*
X151750000Y-93000000D01*
X151450000Y-98750000D02*
X150675000Y-98750000D01*
X153000000Y-97200000D02*
X151450000Y-98750000D01*
X153000000Y-95750000D02*
X153000000Y-97200000D01*
X148550000Y-89325000D02*
X147250000Y-89325000D01*
X150675000Y-97750000D02*
X151500000Y-97750000D01*
X151500000Y-97750000D02*
X151800010Y-97449990D01*
X151800010Y-97449990D02*
X151800010Y-95300010D01*
X149250000Y-92750000D02*
X149250000Y-90025000D01*
X149250000Y-90025000D02*
X148550000Y-89325000D01*
X151800010Y-95300010D02*
X149250000Y-92750000D01*
X148550000Y-100755000D02*
X147250000Y-100755000D01*
X148900000Y-100405000D02*
X148550000Y-100755000D01*
X148900000Y-97200000D02*
X148900000Y-100405000D01*
X150675000Y-96750000D02*
X149350000Y-96750000D01*
X149350000Y-96750000D02*
X148900000Y-97200000D01*
X125800000Y-89637500D02*
X127162500Y-89637500D01*
X127162500Y-89637500D02*
X127700000Y-89100000D01*
X128950000Y-86785000D02*
X130250000Y-86785000D01*
X127700000Y-88035000D02*
X128950000Y-86785000D01*
X127700000Y-89100000D02*
X127700000Y-88035000D01*
X150675000Y-95750000D02*
X149550000Y-95750000D01*
X149200000Y-95400000D02*
X149200000Y-93900000D01*
X149550000Y-95750000D02*
X149200000Y-95400000D01*
X130250000Y-86785000D02*
X139885000Y-86785000D01*
X140999999Y-87899999D02*
X140999999Y-94099999D01*
X139885000Y-86785000D02*
X140999999Y-87899999D01*
X140999999Y-94099999D02*
X141600000Y-94700000D01*
X144300000Y-94700000D02*
X145300000Y-93700000D01*
X141600000Y-94700000D02*
X144300000Y-94700000D01*
D30*
X138750000Y-135875318D02*
X138750000Y-134647592D01*
X138350000Y-136275318D02*
X138750000Y-135875318D01*
X138750000Y-134647592D02*
X138750000Y-133900000D01*
X138350000Y-137287500D02*
X138350000Y-136275318D01*
X140050000Y-134750000D02*
X140050000Y-133900000D01*
X139400000Y-135861728D02*
X139400000Y-135400000D01*
X139400000Y-135400000D02*
X140050000Y-134750000D01*
X139000000Y-137287500D02*
X139000000Y-136261728D01*
X139000000Y-136261728D02*
X139400000Y-135861728D01*
D25*
X114500000Y-123200000D02*
X121375000Y-123200000D01*
X113425000Y-123200000D02*
X114500000Y-123200000D01*
X123362500Y-123200000D02*
X121375000Y-123200000D01*
X141587500Y-69250000D02*
X141700000Y-69137500D01*
X137900000Y-69250000D02*
X141587500Y-69250000D01*
X141700000Y-69625000D02*
X143975000Y-71900000D01*
X141700000Y-69137500D02*
X141700000Y-69625000D01*
X148749990Y-73849990D02*
X148749991Y-80210665D01*
X143975000Y-71900000D02*
X146800000Y-71900000D01*
X146800000Y-71900000D02*
X148749990Y-73849990D01*
X148749991Y-80210665D02*
X151200000Y-82660674D01*
X151200000Y-82660674D02*
X151200000Y-84800000D01*
X150485000Y-85515000D02*
X147250000Y-85515000D01*
X151200000Y-84800000D02*
X150485000Y-85515000D01*
X125237500Y-127700000D02*
X125237500Y-125500000D01*
X125237500Y-125500000D02*
X125237500Y-123200000D01*
X125200000Y-123162500D02*
X125237500Y-123200000D01*
X125200000Y-115200000D02*
X125200000Y-123162500D01*
X128415000Y-99485000D02*
X128400001Y-99499999D01*
X130250000Y-99485000D02*
X128415000Y-99485000D01*
X128400001Y-106600001D02*
X130400001Y-108600001D01*
X130400001Y-108600001D02*
X130700000Y-108900000D01*
X128400001Y-99499999D02*
X128400001Y-106600001D01*
X130012500Y-95437500D02*
X130250000Y-95675000D01*
X127750000Y-95437500D02*
X130012500Y-95437500D01*
D31*
G36*
X159811625Y-102949401D02*
G01*
X159819142Y-102965047D01*
X159826964Y-102977919D01*
X159834104Y-102991193D01*
X159843792Y-103005610D01*
X163762239Y-109453689D01*
X163769882Y-109471383D01*
X163795910Y-109509097D01*
X163802813Y-109520456D01*
X163814348Y-109535812D01*
X163825225Y-109551573D01*
X163833786Y-109561691D01*
X163861330Y-109598360D01*
X163875701Y-109611226D01*
X164922331Y-110848154D01*
X164923477Y-110849864D01*
X161095931Y-109684959D01*
X161088072Y-109681013D01*
X161033836Y-109666061D01*
X161011152Y-109659157D01*
X161002578Y-109657443D01*
X160962738Y-109646460D01*
X160938971Y-109644730D01*
X160915608Y-109640061D01*
X160874287Y-109640023D01*
X160833074Y-109637024D01*
X160809428Y-109639964D01*
X160785601Y-109639942D01*
X160745072Y-109647965D01*
X160704059Y-109653064D01*
X160681437Y-109660562D01*
X160658068Y-109665188D01*
X160619884Y-109680964D01*
X160580652Y-109693967D01*
X160559925Y-109705736D01*
X160537910Y-109714831D01*
X160503540Y-109737750D01*
X160467596Y-109758159D01*
X160449567Y-109773742D01*
X160429745Y-109786960D01*
X160400501Y-109816151D01*
X160369236Y-109843174D01*
X160354592Y-109861976D01*
X160337732Y-109878806D01*
X160314744Y-109913141D01*
X160289352Y-109945744D01*
X160278662Y-109967033D01*
X160265403Y-109986837D01*
X160249550Y-110025012D01*
X160231013Y-110061928D01*
X160224682Y-110084893D01*
X160215541Y-110106904D01*
X160207442Y-110147427D01*
X160196460Y-110187262D01*
X160194730Y-110211029D01*
X160190061Y-110234392D01*
X160190023Y-110275713D01*
X160187024Y-110316926D01*
X160189964Y-110340572D01*
X160189942Y-110364399D01*
X160197965Y-110404928D01*
X160203064Y-110445941D01*
X160210562Y-110468562D01*
X160215188Y-110491932D01*
X160230964Y-110530116D01*
X160233718Y-110538426D01*
X160243359Y-110560118D01*
X160264831Y-110612090D01*
X160269708Y-110619404D01*
X160842235Y-111907590D01*
X160850073Y-111927017D01*
X160855390Y-111937188D01*
X160860051Y-111947676D01*
X160870398Y-111965899D01*
X165458310Y-120742775D01*
X165465824Y-120758851D01*
X165473306Y-120771463D01*
X165480109Y-120784478D01*
X165489845Y-120799343D01*
X170700520Y-129583054D01*
X170701399Y-129585485D01*
X170733606Y-129638827D01*
X170748904Y-129664615D01*
X170750433Y-129666697D01*
X170751760Y-129668894D01*
X170769602Y-129692790D01*
X170806589Y-129743137D01*
X170808500Y-129744884D01*
X171650826Y-130873000D01*
X157444278Y-130873000D01*
X157578713Y-130738565D01*
X158615002Y-130738565D01*
X158653555Y-130742362D01*
X158692108Y-130738565D01*
X158692116Y-130738565D01*
X158807442Y-130727206D01*
X158955415Y-130682319D01*
X159091788Y-130609427D01*
X159211319Y-130511329D01*
X159235902Y-130481375D01*
X159289465Y-130427812D01*
X161127817Y-128589461D01*
X161157765Y-128564883D01*
X161189258Y-128526510D01*
X161224072Y-128484089D01*
X161255863Y-128445352D01*
X161328755Y-128308979D01*
X161336029Y-128285000D01*
X161373643Y-128161006D01*
X161381021Y-128086093D01*
X161385001Y-128045680D01*
X161385001Y-128045675D01*
X161388798Y-128007119D01*
X161385001Y-127968564D01*
X161385001Y-126900448D01*
X161496028Y-126826262D01*
X161626262Y-126696028D01*
X161728586Y-126542889D01*
X161799068Y-126372729D01*
X161835000Y-126192089D01*
X161835000Y-126007911D01*
X161799068Y-125827271D01*
X161728586Y-125657111D01*
X161626262Y-125503972D01*
X161496028Y-125373738D01*
X161342889Y-125271414D01*
X161172729Y-125200932D01*
X160992089Y-125165000D01*
X160807911Y-125165000D01*
X160627271Y-125200932D01*
X160457111Y-125271414D01*
X160303972Y-125373738D01*
X160250000Y-125427710D01*
X160196028Y-125373738D01*
X160042889Y-125271414D01*
X159872729Y-125200932D01*
X159692089Y-125165000D01*
X159507911Y-125165000D01*
X159327271Y-125200932D01*
X159293308Y-125215000D01*
X158714189Y-125215000D01*
X158693709Y-125204053D01*
X158528285Y-125153872D01*
X158356250Y-125136928D01*
X157443750Y-125136928D01*
X157271715Y-125153872D01*
X157106291Y-125204053D01*
X157062425Y-125227500D01*
X156588335Y-125227500D01*
X156537500Y-125222493D01*
X156486665Y-125227500D01*
X156486662Y-125227500D01*
X156334605Y-125242476D01*
X156192637Y-125285542D01*
X156139506Y-125301659D01*
X155959702Y-125397766D01*
X155903721Y-125443709D01*
X155802104Y-125527104D01*
X155769697Y-125566592D01*
X155104092Y-126232198D01*
X155064605Y-126264604D01*
X155032198Y-126304092D01*
X155032197Y-126304093D01*
X154935266Y-126422203D01*
X154839160Y-126602007D01*
X154779977Y-126797105D01*
X154759994Y-127000000D01*
X154765001Y-127050838D01*
X154765000Y-129171289D01*
X153971290Y-129965000D01*
X142228711Y-129965000D01*
X141667807Y-129404097D01*
X141635396Y-129364604D01*
X141477797Y-129235266D01*
X141326613Y-129154457D01*
X141327983Y-129152787D01*
X141386664Y-129043004D01*
X141422799Y-128923882D01*
X141435000Y-128800000D01*
X141435000Y-126288072D01*
X143250000Y-126288072D01*
X143374482Y-126275812D01*
X143494180Y-126239502D01*
X143604494Y-126180537D01*
X143701185Y-126101185D01*
X143780537Y-126004494D01*
X143839502Y-125894180D01*
X143875812Y-125774482D01*
X143888072Y-125650000D01*
X143888072Y-124150000D01*
X143875812Y-124025518D01*
X143839502Y-123905820D01*
X143780537Y-123795506D01*
X143701185Y-123698815D01*
X143604494Y-123619463D01*
X143494180Y-123560498D01*
X143374482Y-123524188D01*
X143250000Y-123511928D01*
X141250000Y-123511928D01*
X141125518Y-123524188D01*
X141005820Y-123560498D01*
X140895506Y-123619463D01*
X140798815Y-123698815D01*
X140719463Y-123795506D01*
X140702362Y-123827500D01*
X140537575Y-123827500D01*
X140493709Y-123804053D01*
X140328285Y-123753872D01*
X140156250Y-123736928D01*
X139243750Y-123736928D01*
X139071715Y-123753872D01*
X138906291Y-123804053D01*
X138862425Y-123827500D01*
X138488328Y-123827500D01*
X138437500Y-123822494D01*
X138386672Y-123827500D01*
X138386662Y-123827500D01*
X138234605Y-123842476D01*
X138039507Y-123901659D01*
X137955809Y-123946396D01*
X137859702Y-123997766D01*
X137741592Y-124094697D01*
X137702104Y-124127104D01*
X137669697Y-124166592D01*
X136304093Y-125532197D01*
X136264605Y-125564604D01*
X136232198Y-125604092D01*
X136232197Y-125604093D01*
X136135266Y-125722203D01*
X136039160Y-125902007D01*
X135979977Y-126097105D01*
X135959994Y-126300000D01*
X135965001Y-126350838D01*
X135965000Y-130049162D01*
X135959993Y-130100000D01*
X135965001Y-130150848D01*
X135965000Y-130873000D01*
X134636710Y-130873000D01*
X134235000Y-130471290D01*
X134235000Y-128750829D01*
X134240006Y-128700001D01*
X134235000Y-128649173D01*
X134235000Y-126350838D01*
X134240007Y-126300000D01*
X134220024Y-126097105D01*
X134160841Y-125902007D01*
X134089449Y-125768441D01*
X134064734Y-125722202D01*
X133967803Y-125604092D01*
X133935396Y-125564604D01*
X133895908Y-125532197D01*
X131635000Y-123271290D01*
X131635000Y-118650837D01*
X131640007Y-118600000D01*
X131635000Y-118549162D01*
X131635000Y-117400000D01*
X137165000Y-117400000D01*
X137165000Y-120300000D01*
X137177201Y-120423882D01*
X137213336Y-120543004D01*
X137272017Y-120652787D01*
X137350987Y-120749013D01*
X137447213Y-120827983D01*
X137556996Y-120886664D01*
X137676118Y-120922799D01*
X137800000Y-120935000D01*
X140158573Y-120935000D01*
X140878129Y-121574605D01*
X140947213Y-121627983D01*
X141056996Y-121686664D01*
X141176118Y-121722799D01*
X141300000Y-121735000D01*
X143300000Y-121735000D01*
X143423882Y-121722799D01*
X143543004Y-121686664D01*
X143652787Y-121627983D01*
X143749013Y-121549013D01*
X143827983Y-121452787D01*
X143886664Y-121343004D01*
X143922799Y-121223882D01*
X143935000Y-121100000D01*
X143935000Y-117400000D01*
X143922799Y-117276118D01*
X143886664Y-117156996D01*
X143827983Y-117047213D01*
X143749013Y-116950987D01*
X143652787Y-116872017D01*
X143543004Y-116813336D01*
X143423882Y-116777201D01*
X143300000Y-116765000D01*
X137800000Y-116765000D01*
X137676118Y-116777201D01*
X137556996Y-116813336D01*
X137447213Y-116872017D01*
X137350987Y-116950987D01*
X137272017Y-117047213D01*
X137213336Y-117156996D01*
X137177201Y-117276118D01*
X137165000Y-117400000D01*
X131635000Y-117400000D01*
X131635000Y-117349163D01*
X131627000Y-117267936D01*
X131627000Y-116034990D01*
X134073457Y-116034990D01*
X134112010Y-116038787D01*
X134150563Y-116034990D01*
X134150571Y-116034990D01*
X134265897Y-116023631D01*
X134413870Y-115978744D01*
X134550243Y-115905852D01*
X134669774Y-115807754D01*
X134694357Y-115777800D01*
X137327816Y-113144342D01*
X137357764Y-113119764D01*
X137455862Y-113000233D01*
X137528754Y-112863860D01*
X137539853Y-112827271D01*
X137573642Y-112715887D01*
X137581608Y-112635000D01*
X137585000Y-112600561D01*
X137585000Y-112600556D01*
X137588797Y-112562000D01*
X137585000Y-112523444D01*
X137585000Y-112308120D01*
X137628586Y-112242889D01*
X137699068Y-112072729D01*
X137735000Y-111892089D01*
X137735000Y-111835010D01*
X137811437Y-111835010D01*
X137849990Y-111838807D01*
X137888543Y-111835010D01*
X137888551Y-111835010D01*
X138003877Y-111823651D01*
X138151850Y-111778764D01*
X138288223Y-111705872D01*
X138407754Y-111607774D01*
X138432337Y-111577820D01*
X143475158Y-106535000D01*
X149174843Y-106535000D01*
X149215000Y-106575157D01*
X149215001Y-108711437D01*
X149211203Y-108750000D01*
X149226359Y-108903886D01*
X149271246Y-109051859D01*
X149271247Y-109051860D01*
X149344139Y-109188233D01*
X149374247Y-109224919D01*
X149410650Y-109269276D01*
X149403972Y-109273738D01*
X149273738Y-109403972D01*
X149171414Y-109557111D01*
X149100932Y-109727271D01*
X149065000Y-109907911D01*
X149065000Y-110092089D01*
X149100932Y-110272729D01*
X149171414Y-110442889D01*
X149273738Y-110596028D01*
X149403972Y-110726262D01*
X149557111Y-110828586D01*
X149727271Y-110899068D01*
X149907911Y-110935000D01*
X150092089Y-110935000D01*
X150272729Y-110899068D01*
X150380626Y-110854376D01*
X150453836Y-110914458D01*
X150606291Y-110995947D01*
X150771715Y-111046128D01*
X150943750Y-111063072D01*
X151856250Y-111063072D01*
X152028285Y-111046128D01*
X152193709Y-110995947D01*
X152346164Y-110914458D01*
X152479792Y-110804792D01*
X152589458Y-110671164D01*
X152670947Y-110518709D01*
X152721128Y-110353285D01*
X152738072Y-110181250D01*
X152738072Y-109785000D01*
X153911447Y-109785000D01*
X153950000Y-109788797D01*
X153988553Y-109785000D01*
X153988561Y-109785000D01*
X154103887Y-109773641D01*
X154251860Y-109728754D01*
X154388233Y-109655862D01*
X154507764Y-109557764D01*
X154532347Y-109527810D01*
X154927811Y-109132346D01*
X154957764Y-109107764D01*
X155055862Y-108988233D01*
X155128754Y-108851860D01*
X155145649Y-108796164D01*
X155173641Y-108703888D01*
X155180854Y-108630655D01*
X155185000Y-108588561D01*
X155185000Y-108588554D01*
X155188797Y-108550001D01*
X155185000Y-108511448D01*
X155185000Y-108408120D01*
X155228586Y-108342889D01*
X155299068Y-108172729D01*
X155335000Y-107992089D01*
X155335000Y-107807911D01*
X155299068Y-107627271D01*
X155228586Y-107457111D01*
X155126262Y-107303972D01*
X154996028Y-107173738D01*
X154842889Y-107071414D01*
X154672729Y-107000932D01*
X154492089Y-106965000D01*
X154307911Y-106965000D01*
X154127271Y-107000932D01*
X153957111Y-107071414D01*
X153803972Y-107173738D01*
X153673738Y-107303972D01*
X153626983Y-107373947D01*
X153561401Y-107308365D01*
X153408262Y-107206041D01*
X153238102Y-107135559D01*
X153057462Y-107099627D01*
X152873284Y-107099627D01*
X152692644Y-107135559D01*
X152591389Y-107177500D01*
X152458215Y-107177500D01*
X152435000Y-107158448D01*
X152435000Y-106200835D01*
X152440007Y-106150000D01*
X152434700Y-106096114D01*
X152420024Y-105947105D01*
X152416352Y-105935000D01*
X155549172Y-105935000D01*
X155600000Y-105940006D01*
X155650828Y-105935000D01*
X155650838Y-105935000D01*
X155802895Y-105920024D01*
X155997993Y-105860841D01*
X156177797Y-105764734D01*
X156335396Y-105635396D01*
X156367807Y-105595903D01*
X158695908Y-103267803D01*
X158735396Y-103235396D01*
X158802219Y-103153972D01*
X158864734Y-103077798D01*
X158960841Y-102897994D01*
X158986017Y-102815000D01*
X159020024Y-102702895D01*
X159027499Y-102627000D01*
X159638212Y-102627000D01*
X159811625Y-102949401D01*
G37*
X159811625Y-102949401D02*
X159819142Y-102965047D01*
X159826964Y-102977919D01*
X159834104Y-102991193D01*
X159843792Y-103005610D01*
X163762239Y-109453689D01*
X163769882Y-109471383D01*
X163795910Y-109509097D01*
X163802813Y-109520456D01*
X163814348Y-109535812D01*
X163825225Y-109551573D01*
X163833786Y-109561691D01*
X163861330Y-109598360D01*
X163875701Y-109611226D01*
X164922331Y-110848154D01*
X164923477Y-110849864D01*
X161095931Y-109684959D01*
X161088072Y-109681013D01*
X161033836Y-109666061D01*
X161011152Y-109659157D01*
X161002578Y-109657443D01*
X160962738Y-109646460D01*
X160938971Y-109644730D01*
X160915608Y-109640061D01*
X160874287Y-109640023D01*
X160833074Y-109637024D01*
X160809428Y-109639964D01*
X160785601Y-109639942D01*
X160745072Y-109647965D01*
X160704059Y-109653064D01*
X160681437Y-109660562D01*
X160658068Y-109665188D01*
X160619884Y-109680964D01*
X160580652Y-109693967D01*
X160559925Y-109705736D01*
X160537910Y-109714831D01*
X160503540Y-109737750D01*
X160467596Y-109758159D01*
X160449567Y-109773742D01*
X160429745Y-109786960D01*
X160400501Y-109816151D01*
X160369236Y-109843174D01*
X160354592Y-109861976D01*
X160337732Y-109878806D01*
X160314744Y-109913141D01*
X160289352Y-109945744D01*
X160278662Y-109967033D01*
X160265403Y-109986837D01*
X160249550Y-110025012D01*
X160231013Y-110061928D01*
X160224682Y-110084893D01*
X160215541Y-110106904D01*
X160207442Y-110147427D01*
X160196460Y-110187262D01*
X160194730Y-110211029D01*
X160190061Y-110234392D01*
X160190023Y-110275713D01*
X160187024Y-110316926D01*
X160189964Y-110340572D01*
X160189942Y-110364399D01*
X160197965Y-110404928D01*
X160203064Y-110445941D01*
X160210562Y-110468562D01*
X160215188Y-110491932D01*
X160230964Y-110530116D01*
X160233718Y-110538426D01*
X160243359Y-110560118D01*
X160264831Y-110612090D01*
X160269708Y-110619404D01*
X160842235Y-111907590D01*
X160850073Y-111927017D01*
X160855390Y-111937188D01*
X160860051Y-111947676D01*
X160870398Y-111965899D01*
X165458310Y-120742775D01*
X165465824Y-120758851D01*
X165473306Y-120771463D01*
X165480109Y-120784478D01*
X165489845Y-120799343D01*
X170700520Y-129583054D01*
X170701399Y-129585485D01*
X170733606Y-129638827D01*
X170748904Y-129664615D01*
X170750433Y-129666697D01*
X170751760Y-129668894D01*
X170769602Y-129692790D01*
X170806589Y-129743137D01*
X170808500Y-129744884D01*
X171650826Y-130873000D01*
X157444278Y-130873000D01*
X157578713Y-130738565D01*
X158615002Y-130738565D01*
X158653555Y-130742362D01*
X158692108Y-130738565D01*
X158692116Y-130738565D01*
X158807442Y-130727206D01*
X158955415Y-130682319D01*
X159091788Y-130609427D01*
X159211319Y-130511329D01*
X159235902Y-130481375D01*
X159289465Y-130427812D01*
X161127817Y-128589461D01*
X161157765Y-128564883D01*
X161189258Y-128526510D01*
X161224072Y-128484089D01*
X161255863Y-128445352D01*
X161328755Y-128308979D01*
X161336029Y-128285000D01*
X161373643Y-128161006D01*
X161381021Y-128086093D01*
X161385001Y-128045680D01*
X161385001Y-128045675D01*
X161388798Y-128007119D01*
X161385001Y-127968564D01*
X161385001Y-126900448D01*
X161496028Y-126826262D01*
X161626262Y-126696028D01*
X161728586Y-126542889D01*
X161799068Y-126372729D01*
X161835000Y-126192089D01*
X161835000Y-126007911D01*
X161799068Y-125827271D01*
X161728586Y-125657111D01*
X161626262Y-125503972D01*
X161496028Y-125373738D01*
X161342889Y-125271414D01*
X161172729Y-125200932D01*
X160992089Y-125165000D01*
X160807911Y-125165000D01*
X160627271Y-125200932D01*
X160457111Y-125271414D01*
X160303972Y-125373738D01*
X160250000Y-125427710D01*
X160196028Y-125373738D01*
X160042889Y-125271414D01*
X159872729Y-125200932D01*
X159692089Y-125165000D01*
X159507911Y-125165000D01*
X159327271Y-125200932D01*
X159293308Y-125215000D01*
X158714189Y-125215000D01*
X158693709Y-125204053D01*
X158528285Y-125153872D01*
X158356250Y-125136928D01*
X157443750Y-125136928D01*
X157271715Y-125153872D01*
X157106291Y-125204053D01*
X157062425Y-125227500D01*
X156588335Y-125227500D01*
X156537500Y-125222493D01*
X156486665Y-125227500D01*
X156486662Y-125227500D01*
X156334605Y-125242476D01*
X156192637Y-125285542D01*
X156139506Y-125301659D01*
X155959702Y-125397766D01*
X155903721Y-125443709D01*
X155802104Y-125527104D01*
X155769697Y-125566592D01*
X155104092Y-126232198D01*
X155064605Y-126264604D01*
X155032198Y-126304092D01*
X155032197Y-126304093D01*
X154935266Y-126422203D01*
X154839160Y-126602007D01*
X154779977Y-126797105D01*
X154759994Y-127000000D01*
X154765001Y-127050838D01*
X154765000Y-129171289D01*
X153971290Y-129965000D01*
X142228711Y-129965000D01*
X141667807Y-129404097D01*
X141635396Y-129364604D01*
X141477797Y-129235266D01*
X141326613Y-129154457D01*
X141327983Y-129152787D01*
X141386664Y-129043004D01*
X141422799Y-128923882D01*
X141435000Y-128800000D01*
X141435000Y-126288072D01*
X143250000Y-126288072D01*
X143374482Y-126275812D01*
X143494180Y-126239502D01*
X143604494Y-126180537D01*
X143701185Y-126101185D01*
X143780537Y-126004494D01*
X143839502Y-125894180D01*
X143875812Y-125774482D01*
X143888072Y-125650000D01*
X143888072Y-124150000D01*
X143875812Y-124025518D01*
X143839502Y-123905820D01*
X143780537Y-123795506D01*
X143701185Y-123698815D01*
X143604494Y-123619463D01*
X143494180Y-123560498D01*
X143374482Y-123524188D01*
X143250000Y-123511928D01*
X141250000Y-123511928D01*
X141125518Y-123524188D01*
X141005820Y-123560498D01*
X140895506Y-123619463D01*
X140798815Y-123698815D01*
X140719463Y-123795506D01*
X140702362Y-123827500D01*
X140537575Y-123827500D01*
X140493709Y-123804053D01*
X140328285Y-123753872D01*
X140156250Y-123736928D01*
X139243750Y-123736928D01*
X139071715Y-123753872D01*
X138906291Y-123804053D01*
X138862425Y-123827500D01*
X138488328Y-123827500D01*
X138437500Y-123822494D01*
X138386672Y-123827500D01*
X138386662Y-123827500D01*
X138234605Y-123842476D01*
X138039507Y-123901659D01*
X137955809Y-123946396D01*
X137859702Y-123997766D01*
X137741592Y-124094697D01*
X137702104Y-124127104D01*
X137669697Y-124166592D01*
X136304093Y-125532197D01*
X136264605Y-125564604D01*
X136232198Y-125604092D01*
X136232197Y-125604093D01*
X136135266Y-125722203D01*
X136039160Y-125902007D01*
X135979977Y-126097105D01*
X135959994Y-126300000D01*
X135965001Y-126350838D01*
X135965000Y-130049162D01*
X135959993Y-130100000D01*
X135965001Y-130150848D01*
X135965000Y-130873000D01*
X134636710Y-130873000D01*
X134235000Y-130471290D01*
X134235000Y-128750829D01*
X134240006Y-128700001D01*
X134235000Y-128649173D01*
X134235000Y-126350838D01*
X134240007Y-126300000D01*
X134220024Y-126097105D01*
X134160841Y-125902007D01*
X134089449Y-125768441D01*
X134064734Y-125722202D01*
X133967803Y-125604092D01*
X133935396Y-125564604D01*
X133895908Y-125532197D01*
X131635000Y-123271290D01*
X131635000Y-118650837D01*
X131640007Y-118600000D01*
X131635000Y-118549162D01*
X131635000Y-117400000D01*
X137165000Y-117400000D01*
X137165000Y-120300000D01*
X137177201Y-120423882D01*
X137213336Y-120543004D01*
X137272017Y-120652787D01*
X137350987Y-120749013D01*
X137447213Y-120827983D01*
X137556996Y-120886664D01*
X137676118Y-120922799D01*
X137800000Y-120935000D01*
X140158573Y-120935000D01*
X140878129Y-121574605D01*
X140947213Y-121627983D01*
X141056996Y-121686664D01*
X141176118Y-121722799D01*
X141300000Y-121735000D01*
X143300000Y-121735000D01*
X143423882Y-121722799D01*
X143543004Y-121686664D01*
X143652787Y-121627983D01*
X143749013Y-121549013D01*
X143827983Y-121452787D01*
X143886664Y-121343004D01*
X143922799Y-121223882D01*
X143935000Y-121100000D01*
X143935000Y-117400000D01*
X143922799Y-117276118D01*
X143886664Y-117156996D01*
X143827983Y-117047213D01*
X143749013Y-116950987D01*
X143652787Y-116872017D01*
X143543004Y-116813336D01*
X143423882Y-116777201D01*
X143300000Y-116765000D01*
X137800000Y-116765000D01*
X137676118Y-116777201D01*
X137556996Y-116813336D01*
X137447213Y-116872017D01*
X137350987Y-116950987D01*
X137272017Y-117047213D01*
X137213336Y-117156996D01*
X137177201Y-117276118D01*
X137165000Y-117400000D01*
X131635000Y-117400000D01*
X131635000Y-117349163D01*
X131627000Y-117267936D01*
X131627000Y-116034990D01*
X134073457Y-116034990D01*
X134112010Y-116038787D01*
X134150563Y-116034990D01*
X134150571Y-116034990D01*
X134265897Y-116023631D01*
X134413870Y-115978744D01*
X134550243Y-115905852D01*
X134669774Y-115807754D01*
X134694357Y-115777800D01*
X137327816Y-113144342D01*
X137357764Y-113119764D01*
X137455862Y-113000233D01*
X137528754Y-112863860D01*
X137539853Y-112827271D01*
X137573642Y-112715887D01*
X137581608Y-112635000D01*
X137585000Y-112600561D01*
X137585000Y-112600556D01*
X137588797Y-112562000D01*
X137585000Y-112523444D01*
X137585000Y-112308120D01*
X137628586Y-112242889D01*
X137699068Y-112072729D01*
X137735000Y-111892089D01*
X137735000Y-111835010D01*
X137811437Y-111835010D01*
X137849990Y-111838807D01*
X137888543Y-111835010D01*
X137888551Y-111835010D01*
X138003877Y-111823651D01*
X138151850Y-111778764D01*
X138288223Y-111705872D01*
X138407754Y-111607774D01*
X138432337Y-111577820D01*
X143475158Y-106535000D01*
X149174843Y-106535000D01*
X149215000Y-106575157D01*
X149215001Y-108711437D01*
X149211203Y-108750000D01*
X149226359Y-108903886D01*
X149271246Y-109051859D01*
X149271247Y-109051860D01*
X149344139Y-109188233D01*
X149374247Y-109224919D01*
X149410650Y-109269276D01*
X149403972Y-109273738D01*
X149273738Y-109403972D01*
X149171414Y-109557111D01*
X149100932Y-109727271D01*
X149065000Y-109907911D01*
X149065000Y-110092089D01*
X149100932Y-110272729D01*
X149171414Y-110442889D01*
X149273738Y-110596028D01*
X149403972Y-110726262D01*
X149557111Y-110828586D01*
X149727271Y-110899068D01*
X149907911Y-110935000D01*
X150092089Y-110935000D01*
X150272729Y-110899068D01*
X150380626Y-110854376D01*
X150453836Y-110914458D01*
X150606291Y-110995947D01*
X150771715Y-111046128D01*
X150943750Y-111063072D01*
X151856250Y-111063072D01*
X152028285Y-111046128D01*
X152193709Y-110995947D01*
X152346164Y-110914458D01*
X152479792Y-110804792D01*
X152589458Y-110671164D01*
X152670947Y-110518709D01*
X152721128Y-110353285D01*
X152738072Y-110181250D01*
X152738072Y-109785000D01*
X153911447Y-109785000D01*
X153950000Y-109788797D01*
X153988553Y-109785000D01*
X153988561Y-109785000D01*
X154103887Y-109773641D01*
X154251860Y-109728754D01*
X154388233Y-109655862D01*
X154507764Y-109557764D01*
X154532347Y-109527810D01*
X154927811Y-109132346D01*
X154957764Y-109107764D01*
X155055862Y-108988233D01*
X155128754Y-108851860D01*
X155145649Y-108796164D01*
X155173641Y-108703888D01*
X155180854Y-108630655D01*
X155185000Y-108588561D01*
X155185000Y-108588554D01*
X155188797Y-108550001D01*
X155185000Y-108511448D01*
X155185000Y-108408120D01*
X155228586Y-108342889D01*
X155299068Y-108172729D01*
X155335000Y-107992089D01*
X155335000Y-107807911D01*
X155299068Y-107627271D01*
X155228586Y-107457111D01*
X155126262Y-107303972D01*
X154996028Y-107173738D01*
X154842889Y-107071414D01*
X154672729Y-107000932D01*
X154492089Y-106965000D01*
X154307911Y-106965000D01*
X154127271Y-107000932D01*
X153957111Y-107071414D01*
X153803972Y-107173738D01*
X153673738Y-107303972D01*
X153626983Y-107373947D01*
X153561401Y-107308365D01*
X153408262Y-107206041D01*
X153238102Y-107135559D01*
X153057462Y-107099627D01*
X152873284Y-107099627D01*
X152692644Y-107135559D01*
X152591389Y-107177500D01*
X152458215Y-107177500D01*
X152435000Y-107158448D01*
X152435000Y-106200835D01*
X152440007Y-106150000D01*
X152434700Y-106096114D01*
X152420024Y-105947105D01*
X152416352Y-105935000D01*
X155549172Y-105935000D01*
X155600000Y-105940006D01*
X155650828Y-105935000D01*
X155650838Y-105935000D01*
X155802895Y-105920024D01*
X155997993Y-105860841D01*
X156177797Y-105764734D01*
X156335396Y-105635396D01*
X156367807Y-105595903D01*
X158695908Y-103267803D01*
X158735396Y-103235396D01*
X158802219Y-103153972D01*
X158864734Y-103077798D01*
X158960841Y-102897994D01*
X158986017Y-102815000D01*
X159020024Y-102702895D01*
X159027499Y-102627000D01*
X159638212Y-102627000D01*
X159811625Y-102949401D01*
G36*
X130873000Y-114464990D02*
G01*
X130475147Y-114464990D01*
X130327000Y-114316843D01*
X130327000Y-112827000D01*
X130873000Y-112827000D01*
X130873000Y-114464990D01*
G37*
X130873000Y-114464990D02*
X130475147Y-114464990D01*
X130327000Y-114316843D01*
X130327000Y-112827000D01*
X130873000Y-112827000D01*
X130873000Y-114464990D01*
G36*
X130873000Y-118773000D02*
G01*
X130327000Y-118773000D01*
X130327000Y-117035000D01*
X130873000Y-117035000D01*
X130873000Y-118773000D01*
G37*
X130873000Y-118773000D02*
X130327000Y-118773000D01*
X130327000Y-117035000D01*
X130873000Y-117035000D01*
X130873000Y-118773000D01*
G36*
X151273000Y-75473000D02*
G01*
X149727000Y-75473000D01*
X149727000Y-74627000D01*
X151273000Y-74627000D01*
X151273000Y-75473000D01*
G37*
X151273000Y-75473000D02*
X149727000Y-75473000D01*
X149727000Y-74627000D01*
X151273000Y-74627000D01*
X151273000Y-75473000D01*
G36*
X143173000Y-120973000D02*
G01*
X141348285Y-120973000D01*
X140484374Y-120205079D01*
X140464235Y-120190442D01*
X140441627Y-120180016D01*
X140417419Y-120174200D01*
X140400000Y-120173000D01*
X137927000Y-120173000D01*
X137927000Y-117527000D01*
X143173000Y-117527000D01*
X143173000Y-120973000D01*
G37*
X143173000Y-120973000D02*
X141348285Y-120973000D01*
X140484374Y-120205079D01*
X140464235Y-120190442D01*
X140441627Y-120180016D01*
X140417419Y-120174200D01*
X140400000Y-120173000D01*
X137927000Y-120173000D01*
X137927000Y-117527000D01*
X143173000Y-117527000D01*
X143173000Y-120973000D01*
G36*
X140673000Y-128673000D02*
G01*
X138727000Y-128673000D01*
X138727000Y-126327000D01*
X140673000Y-126327000D01*
X140673000Y-128673000D01*
G37*
X140673000Y-128673000D02*
X138727000Y-128673000D01*
X138727000Y-126327000D01*
X140673000Y-126327000D01*
X140673000Y-128673000D01*
G36*
X143473000Y-136065000D02*
G01*
X142193164Y-136065000D01*
X142144201Y-136032284D01*
X141896697Y-135929764D01*
X141633948Y-135877500D01*
X141366052Y-135877500D01*
X141103303Y-135929764D01*
X140855799Y-136032284D01*
X140790729Y-136075762D01*
X140776118Y-136077201D01*
X140656996Y-136113336D01*
X140547213Y-136172017D01*
X140450987Y-136250987D01*
X140422237Y-136286020D01*
X140380537Y-136208006D01*
X140301185Y-136111315D01*
X140204494Y-136031963D01*
X140149790Y-136002723D01*
X140160000Y-135899061D01*
X140160000Y-135899052D01*
X140163676Y-135861729D01*
X140160000Y-135824406D01*
X140160000Y-135714801D01*
X140561004Y-135313798D01*
X140590001Y-135290001D01*
X140684974Y-135174276D01*
X140755546Y-135042247D01*
X140756753Y-135038267D01*
X140818382Y-134987690D01*
X140887690Y-134918382D01*
X140967042Y-134821691D01*
X141021498Y-134740192D01*
X141080464Y-134629875D01*
X141117973Y-134539319D01*
X141154282Y-134419623D01*
X141173404Y-134323490D01*
X141185664Y-134199009D01*
X141185664Y-134174450D01*
X141188072Y-134150000D01*
X141188072Y-133650000D01*
X141185807Y-133627000D01*
X143473000Y-133627000D01*
X143473000Y-136065000D01*
G37*
X143473000Y-136065000D02*
X142193164Y-136065000D01*
X142144201Y-136032284D01*
X141896697Y-135929764D01*
X141633948Y-135877500D01*
X141366052Y-135877500D01*
X141103303Y-135929764D01*
X140855799Y-136032284D01*
X140790729Y-136075762D01*
X140776118Y-136077201D01*
X140656996Y-136113336D01*
X140547213Y-136172017D01*
X140450987Y-136250987D01*
X140422237Y-136286020D01*
X140380537Y-136208006D01*
X140301185Y-136111315D01*
X140204494Y-136031963D01*
X140149790Y-136002723D01*
X140160000Y-135899061D01*
X140160000Y-135899052D01*
X140163676Y-135861729D01*
X140160000Y-135824406D01*
X140160000Y-135714801D01*
X140561004Y-135313798D01*
X140590001Y-135290001D01*
X140684974Y-135174276D01*
X140755546Y-135042247D01*
X140756753Y-135038267D01*
X140818382Y-134987690D01*
X140887690Y-134918382D01*
X140967042Y-134821691D01*
X141021498Y-134740192D01*
X141080464Y-134629875D01*
X141117973Y-134539319D01*
X141154282Y-134419623D01*
X141173404Y-134323490D01*
X141185664Y-134199009D01*
X141185664Y-134174450D01*
X141188072Y-134150000D01*
X141188072Y-133650000D01*
X141185807Y-133627000D01*
X143473000Y-133627000D01*
X143473000Y-136065000D01*
G36*
X136815000Y-137330976D02*
G01*
X136827805Y-137460989D01*
X136861928Y-137573476D01*
X136861928Y-137912500D01*
X136874188Y-138036982D01*
X136910498Y-138156680D01*
X136969463Y-138266994D01*
X136973000Y-138271304D01*
X136973000Y-138500000D01*
X136975440Y-138524776D01*
X136982667Y-138548601D01*
X136994403Y-138570557D01*
X137010197Y-138589803D01*
X137029443Y-138605597D01*
X137051399Y-138617333D01*
X137075224Y-138624560D01*
X137100000Y-138627000D01*
X140900000Y-138627000D01*
X140924776Y-138624560D01*
X140948601Y-138617333D01*
X140970557Y-138605597D01*
X140989803Y-138589803D01*
X141005597Y-138570557D01*
X141017333Y-138548601D01*
X141024560Y-138524776D01*
X141027000Y-138500000D01*
X141027000Y-138271304D01*
X141030537Y-138266994D01*
X141089502Y-138156680D01*
X141125812Y-138036982D01*
X141138072Y-137912500D01*
X141138072Y-137523477D01*
X141172195Y-137410990D01*
X141185000Y-137280977D01*
X141185000Y-136827000D01*
X144017604Y-136827000D01*
X143951000Y-140790000D01*
X134254782Y-140790000D01*
X134222536Y-136727000D01*
X136815000Y-136727000D01*
X136815000Y-137330976D01*
G37*
X136815000Y-137330976D02*
X136827805Y-137460989D01*
X136861928Y-137573476D01*
X136861928Y-137912500D01*
X136874188Y-138036982D01*
X136910498Y-138156680D01*
X136969463Y-138266994D01*
X136973000Y-138271304D01*
X136973000Y-138500000D01*
X136975440Y-138524776D01*
X136982667Y-138548601D01*
X136994403Y-138570557D01*
X137010197Y-138589803D01*
X137029443Y-138605597D01*
X137051399Y-138617333D01*
X137075224Y-138624560D01*
X137100000Y-138627000D01*
X140900000Y-138627000D01*
X140924776Y-138624560D01*
X140948601Y-138617333D01*
X140970557Y-138605597D01*
X140989803Y-138589803D01*
X141005597Y-138570557D01*
X141017333Y-138548601D01*
X141024560Y-138524776D01*
X141027000Y-138500000D01*
X141027000Y-138271304D01*
X141030537Y-138266994D01*
X141089502Y-138156680D01*
X141125812Y-138036982D01*
X141138072Y-137912500D01*
X141138072Y-137523477D01*
X141172195Y-137410990D01*
X141185000Y-137280977D01*
X141185000Y-136827000D01*
X144017604Y-136827000D01*
X143951000Y-140790000D01*
X134254782Y-140790000D01*
X134222536Y-136727000D01*
X136815000Y-136727000D01*
X136815000Y-137330976D01*
G36*
X126973000Y-81038656D02*
G01*
X126960542Y-81053836D01*
X126879053Y-81206291D01*
X126828872Y-81371715D01*
X126811928Y-81543750D01*
X126811928Y-82456250D01*
X126828872Y-82628285D01*
X126879053Y-82793709D01*
X126960542Y-82946164D01*
X127070208Y-83079792D01*
X127203836Y-83189458D01*
X127356291Y-83270947D01*
X127521715Y-83321128D01*
X127693750Y-83338072D01*
X128181250Y-83338072D01*
X128353285Y-83321128D01*
X128518709Y-83270947D01*
X128671164Y-83189458D01*
X128804792Y-83079792D01*
X128914458Y-82946164D01*
X128920425Y-82935000D01*
X128942411Y-82935000D01*
X128944139Y-82938232D01*
X128976621Y-82977811D01*
X129042236Y-83057764D01*
X129072187Y-83082344D01*
X129073000Y-83083157D01*
X129073000Y-83700000D01*
X129075440Y-83724776D01*
X129082667Y-83748601D01*
X129094403Y-83770557D01*
X129110197Y-83789803D01*
X129129443Y-83805597D01*
X129151399Y-83817333D01*
X129175224Y-83824560D01*
X129200000Y-83827000D01*
X129826599Y-83827000D01*
X129861767Y-83855862D01*
X129998140Y-83928754D01*
X130111672Y-83963194D01*
X130146112Y-83973641D01*
X130160490Y-83975057D01*
X130261439Y-83985000D01*
X130261446Y-83985000D01*
X130299999Y-83988797D01*
X130338552Y-83985000D01*
X132615000Y-83985000D01*
X132615001Y-84730000D01*
X131790957Y-84730000D01*
X131780537Y-84710506D01*
X131701185Y-84613815D01*
X131604494Y-84534463D01*
X131494180Y-84475498D01*
X131374482Y-84439188D01*
X131250000Y-84426928D01*
X129250000Y-84426928D01*
X129125518Y-84439188D01*
X129005820Y-84475498D01*
X128997397Y-84480000D01*
X128023335Y-84480000D01*
X127972500Y-84474993D01*
X127921665Y-84480000D01*
X127921662Y-84480000D01*
X127769605Y-84494976D01*
X127574507Y-84554159D01*
X127466429Y-84611928D01*
X127293750Y-84611928D01*
X127121715Y-84628872D01*
X126956291Y-84679053D01*
X126912425Y-84702500D01*
X126587575Y-84702500D01*
X126543709Y-84679053D01*
X126378285Y-84628872D01*
X126206250Y-84611928D01*
X125293750Y-84611928D01*
X125121715Y-84628872D01*
X124956291Y-84679053D01*
X124914008Y-84701654D01*
X124905415Y-84702500D01*
X124905412Y-84702500D01*
X124753355Y-84717476D01*
X124558257Y-84776659D01*
X124475637Y-84820820D01*
X124378452Y-84872766D01*
X124378167Y-84873000D01*
X122912115Y-84873000D01*
X123281942Y-84346709D01*
X126161256Y-80727000D01*
X126973000Y-80727000D01*
X126973000Y-81038656D01*
G37*
X126973000Y-81038656D02*
X126960542Y-81053836D01*
X126879053Y-81206291D01*
X126828872Y-81371715D01*
X126811928Y-81543750D01*
X126811928Y-82456250D01*
X126828872Y-82628285D01*
X126879053Y-82793709D01*
X126960542Y-82946164D01*
X127070208Y-83079792D01*
X127203836Y-83189458D01*
X127356291Y-83270947D01*
X127521715Y-83321128D01*
X127693750Y-83338072D01*
X128181250Y-83338072D01*
X128353285Y-83321128D01*
X128518709Y-83270947D01*
X128671164Y-83189458D01*
X128804792Y-83079792D01*
X128914458Y-82946164D01*
X128920425Y-82935000D01*
X128942411Y-82935000D01*
X128944139Y-82938232D01*
X128976621Y-82977811D01*
X129042236Y-83057764D01*
X129072187Y-83082344D01*
X129073000Y-83083157D01*
X129073000Y-83700000D01*
X129075440Y-83724776D01*
X129082667Y-83748601D01*
X129094403Y-83770557D01*
X129110197Y-83789803D01*
X129129443Y-83805597D01*
X129151399Y-83817333D01*
X129175224Y-83824560D01*
X129200000Y-83827000D01*
X129826599Y-83827000D01*
X129861767Y-83855862D01*
X129998140Y-83928754D01*
X130111672Y-83963194D01*
X130146112Y-83973641D01*
X130160490Y-83975057D01*
X130261439Y-83985000D01*
X130261446Y-83985000D01*
X130299999Y-83988797D01*
X130338552Y-83985000D01*
X132615000Y-83985000D01*
X132615001Y-84730000D01*
X131790957Y-84730000D01*
X131780537Y-84710506D01*
X131701185Y-84613815D01*
X131604494Y-84534463D01*
X131494180Y-84475498D01*
X131374482Y-84439188D01*
X131250000Y-84426928D01*
X129250000Y-84426928D01*
X129125518Y-84439188D01*
X129005820Y-84475498D01*
X128997397Y-84480000D01*
X128023335Y-84480000D01*
X127972500Y-84474993D01*
X127921665Y-84480000D01*
X127921662Y-84480000D01*
X127769605Y-84494976D01*
X127574507Y-84554159D01*
X127466429Y-84611928D01*
X127293750Y-84611928D01*
X127121715Y-84628872D01*
X126956291Y-84679053D01*
X126912425Y-84702500D01*
X126587575Y-84702500D01*
X126543709Y-84679053D01*
X126378285Y-84628872D01*
X126206250Y-84611928D01*
X125293750Y-84611928D01*
X125121715Y-84628872D01*
X124956291Y-84679053D01*
X124914008Y-84701654D01*
X124905415Y-84702500D01*
X124905412Y-84702500D01*
X124753355Y-84717476D01*
X124558257Y-84776659D01*
X124475637Y-84820820D01*
X124378452Y-84872766D01*
X124378167Y-84873000D01*
X122912115Y-84873000D01*
X123281942Y-84346709D01*
X126161256Y-80727000D01*
X126973000Y-80727000D01*
X126973000Y-81038656D01*
M02*
