G04 #@! TF.GenerationSoftware,KiCad,Pcbnew,(5.1.5)-3*
G04 #@! TF.CreationDate,2020-12-18T10:23:58+02:00*
G04 #@! TF.ProjectId,voltlog christmas tree,766f6c74-6c6f-4672-9063-68726973746d,rev?*
G04 #@! TF.SameCoordinates,Original*
G04 #@! TF.FileFunction,Paste,Bot*
G04 #@! TF.FilePolarity,Positive*
%FSLAX46Y46*%
G04 Gerber Fmt 4.6, Leading zero omitted, Abs format (unit mm)*
G04 Created by KiCad (PCBNEW (5.1.5)-3) date 2020-12-18 10:23:58*
%MOMM*%
%LPD*%
G04 APERTURE LIST*
%ADD10R,0.560000X0.640000*%
G04 APERTURE END LIST*
D10*
X131900000Y-129950000D03*
X131900000Y-128650000D03*
X133100000Y-128650000D03*
X133100000Y-129950000D03*
X159600000Y-127450000D03*
X159600000Y-126150000D03*
X160800000Y-126150000D03*
X160800000Y-127450000D03*
X118800000Y-117650000D03*
X118800000Y-116350000D03*
X120000000Y-116350000D03*
X120000000Y-117650000D03*
X135500000Y-112950000D03*
X135500000Y-111650000D03*
X136700000Y-111650000D03*
X136700000Y-112950000D03*
X153000000Y-109250000D03*
X153000000Y-107950000D03*
X154200000Y-107950000D03*
X154200000Y-109250000D03*
X122400000Y-100950000D03*
X122400000Y-99650000D03*
X123600000Y-99650000D03*
X123600000Y-100950000D03*
X138400000Y-95950000D03*
X138400000Y-94650000D03*
X139600000Y-94650000D03*
X139600000Y-95950000D03*
X150900000Y-89950000D03*
X150900000Y-88650000D03*
X152100000Y-88650000D03*
X152100000Y-89950000D03*
X130900000Y-82950000D03*
X130900000Y-81650000D03*
X132100000Y-81650000D03*
X132100000Y-82950000D03*
X144900000Y-78350000D03*
X144900000Y-77050000D03*
X146100000Y-77050000D03*
X146100000Y-78350000D03*
X135900000Y-68650000D03*
X135900000Y-67350000D03*
X137100000Y-67350000D03*
X137100000Y-68650000D03*
M02*
