G04 #@! TF.GenerationSoftware,KiCad,Pcbnew,(5.1.5)-3*
G04 #@! TF.CreationDate,2020-12-18T10:23:59+02:00*
G04 #@! TF.ProjectId,voltlog christmas tree,766f6c74-6c6f-4672-9063-68726973746d,rev?*
G04 #@! TF.SameCoordinates,Original*
G04 #@! TF.FileFunction,Legend,Bot*
G04 #@! TF.FilePolarity,Positive*
%FSLAX46Y46*%
G04 Gerber Fmt 4.6, Leading zero omitted, Abs format (unit mm)*
G04 Created by KiCad (PCBNEW (5.1.5)-3) date 2020-12-18 10:23:59*
%MOMM*%
%LPD*%
G04 APERTURE LIST*
%ADD10C,0.120000*%
%ADD11C,0.300000*%
G04 APERTURE END LIST*
D10*
X131300000Y-130500000D02*
X133700000Y-130500000D01*
X131300000Y-128100000D02*
X131300000Y-130500000D01*
X133700000Y-128100000D02*
X131300000Y-128100000D01*
X133700000Y-130500000D02*
X133700000Y-128100000D01*
D11*
X131350000Y-127900000D02*
G75*
G03X131350000Y-127900000I-150000J0D01*
G01*
D10*
X159000000Y-128000000D02*
X161400000Y-128000000D01*
X159000000Y-125600000D02*
X159000000Y-128000000D01*
X161400000Y-125600000D02*
X159000000Y-125600000D01*
X161400000Y-128000000D02*
X161400000Y-125600000D01*
D11*
X159050000Y-125400000D02*
G75*
G03X159050000Y-125400000I-150000J0D01*
G01*
D10*
X118200000Y-118200000D02*
X120600000Y-118200000D01*
X118200000Y-115800000D02*
X118200000Y-118200000D01*
X120600000Y-115800000D02*
X118200000Y-115800000D01*
X120600000Y-118200000D02*
X120600000Y-115800000D01*
D11*
X118250000Y-115600000D02*
G75*
G03X118250000Y-115600000I-150000J0D01*
G01*
D10*
X134900000Y-113500000D02*
X137300000Y-113500000D01*
X134900000Y-111100000D02*
X134900000Y-113500000D01*
X137300000Y-111100000D02*
X134900000Y-111100000D01*
X137300000Y-113500000D02*
X137300000Y-111100000D01*
D11*
X134950000Y-110900000D02*
G75*
G03X134950000Y-110900000I-150000J0D01*
G01*
D10*
X152400000Y-109800000D02*
X154800000Y-109800000D01*
X152400000Y-107400000D02*
X152400000Y-109800000D01*
X154800000Y-107400000D02*
X152400000Y-107400000D01*
X154800000Y-109800000D02*
X154800000Y-107400000D01*
D11*
X152450000Y-107200000D02*
G75*
G03X152450000Y-107200000I-150000J0D01*
G01*
D10*
X121800000Y-101500000D02*
X124200000Y-101500000D01*
X121800000Y-99100000D02*
X121800000Y-101500000D01*
X124200000Y-99100000D02*
X121800000Y-99100000D01*
X124200000Y-101500000D02*
X124200000Y-99100000D01*
D11*
X121850000Y-98900000D02*
G75*
G03X121850000Y-98900000I-150000J0D01*
G01*
D10*
X137800000Y-96500000D02*
X140200000Y-96500000D01*
X137800000Y-94100000D02*
X137800000Y-96500000D01*
X140200000Y-94100000D02*
X137800000Y-94100000D01*
X140200000Y-96500000D02*
X140200000Y-94100000D01*
D11*
X137850000Y-93900000D02*
G75*
G03X137850000Y-93900000I-150000J0D01*
G01*
D10*
X150300000Y-90500000D02*
X152700000Y-90500000D01*
X150300000Y-88100000D02*
X150300000Y-90500000D01*
X152700000Y-88100000D02*
X150300000Y-88100000D01*
X152700000Y-90500000D02*
X152700000Y-88100000D01*
D11*
X150350000Y-87900000D02*
G75*
G03X150350000Y-87900000I-150000J0D01*
G01*
D10*
X130300000Y-83500000D02*
X132700000Y-83500000D01*
X130300000Y-81100000D02*
X130300000Y-83500000D01*
X132700000Y-81100000D02*
X130300000Y-81100000D01*
X132700000Y-83500000D02*
X132700000Y-81100000D01*
D11*
X130350000Y-80900000D02*
G75*
G03X130350000Y-80900000I-150000J0D01*
G01*
D10*
X144300000Y-78900000D02*
X146700000Y-78900000D01*
X144300000Y-76500000D02*
X144300000Y-78900000D01*
X146700000Y-76500000D02*
X144300000Y-76500000D01*
X146700000Y-78900000D02*
X146700000Y-76500000D01*
D11*
X144350000Y-76300000D02*
G75*
G03X144350000Y-76300000I-150000J0D01*
G01*
D10*
X135300000Y-69200000D02*
X137700000Y-69200000D01*
X135300000Y-66800000D02*
X135300000Y-69200000D01*
X137700000Y-66800000D02*
X135300000Y-66800000D01*
X137700000Y-69200000D02*
X137700000Y-66800000D01*
D11*
X135350000Y-66600000D02*
G75*
G03X135350000Y-66600000I-150000J0D01*
G01*
M02*
