G04 #@! TF.GenerationSoftware,KiCad,Pcbnew,(5.1.5)-3*
G04 #@! TF.CreationDate,2020-12-18T10:23:58+02:00*
G04 #@! TF.ProjectId,voltlog christmas tree,766f6c74-6c6f-4672-9063-68726973746d,rev?*
G04 #@! TF.SameCoordinates,Original*
G04 #@! TF.FileFunction,Copper,L2,Bot*
G04 #@! TF.FilePolarity,Positive*
%FSLAX46Y46*%
G04 Gerber Fmt 4.6, Leading zero omitted, Abs format (unit mm)*
G04 Created by KiCad (PCBNEW (5.1.5)-3) date 2020-12-18 10:23:58*
%MOMM*%
%LPD*%
G04 APERTURE LIST*
%ADD10R,0.700000X0.800000*%
%ADD11O,1.200000X1.900000*%
%ADD12C,1.450000*%
%ADD13C,0.600000*%
%ADD14C,1.600000*%
%ADD15C,0.500000*%
%ADD16C,0.800000*%
%ADD17C,0.300000*%
%ADD18C,0.254000*%
G04 APERTURE END LIST*
D10*
X131900000Y-129950000D03*
X131900000Y-128650000D03*
X133100000Y-128650000D03*
X133100000Y-129950000D03*
X159600000Y-127450000D03*
X159600000Y-126150000D03*
X160800000Y-126150000D03*
X160800000Y-127450000D03*
X118800000Y-117650000D03*
X118800000Y-116350000D03*
X120000000Y-116350000D03*
X120000000Y-117650000D03*
X135500000Y-112950000D03*
X135500000Y-111650000D03*
X136700000Y-111650000D03*
X136700000Y-112950000D03*
X153000000Y-109250000D03*
X153000000Y-107950000D03*
X154200000Y-107950000D03*
X154200000Y-109250000D03*
X122400000Y-100950000D03*
X122400000Y-99650000D03*
X123600000Y-99650000D03*
X123600000Y-100950000D03*
X138400000Y-95950000D03*
X138400000Y-94650000D03*
X139600000Y-94650000D03*
X139600000Y-95950000D03*
X150900000Y-89950000D03*
X150900000Y-88650000D03*
X152100000Y-88650000D03*
X152100000Y-89950000D03*
X130900000Y-82950000D03*
X130900000Y-81650000D03*
X132100000Y-81650000D03*
X132100000Y-82950000D03*
X144900000Y-78350000D03*
X144900000Y-77050000D03*
X146100000Y-77050000D03*
X146100000Y-78350000D03*
X135900000Y-68650000D03*
X135900000Y-67350000D03*
X137100000Y-67350000D03*
X137100000Y-68650000D03*
D11*
X142500000Y-139937500D03*
X135500000Y-139937500D03*
D12*
X141500000Y-137237500D03*
X136500000Y-137237500D03*
D13*
X137500000Y-91500000D03*
X136500000Y-91500000D03*
X134000000Y-70200000D03*
X144100000Y-68000000D03*
X138300000Y-118300000D03*
X139000000Y-117900000D03*
X139000000Y-118500000D03*
X140200000Y-118500000D03*
X140800000Y-118500000D03*
X140200000Y-117900000D03*
X139600000Y-117900000D03*
X139600000Y-118500000D03*
X138300000Y-119500000D03*
X138300000Y-118900000D03*
X139100000Y-127700000D03*
X139700000Y-127700000D03*
X140300000Y-127700000D03*
X139100000Y-128300000D03*
X139700000Y-128300000D03*
X140300000Y-128300000D03*
X141400000Y-135200000D03*
X142000000Y-135200000D03*
X142600000Y-135200000D03*
X143200000Y-135200000D03*
X143200000Y-135800000D03*
X142600000Y-135800000D03*
X142600000Y-134600000D03*
X143200000Y-134600000D03*
X142000000Y-134600000D03*
X142600000Y-134000000D03*
X143200000Y-134000000D03*
X142000000Y-134000000D03*
X132300000Y-113700000D03*
X115800000Y-118400000D03*
X128900000Y-129600000D03*
X156800000Y-128100000D03*
X150000000Y-110000000D03*
X154100000Y-90400000D03*
X131800000Y-84000000D03*
X132000000Y-84600000D03*
X128800000Y-84300000D03*
X128800000Y-83600000D03*
X126800000Y-83700000D03*
X126800000Y-83100000D03*
X124400000Y-84200000D03*
X124400000Y-83500000D03*
X125200000Y-82400000D03*
X124800000Y-83000000D03*
X125500000Y-83000000D03*
X120700000Y-103900000D03*
X123500000Y-129100000D03*
X133000000Y-100000000D03*
X155000000Y-103750000D03*
D14*
X139600000Y-51000000D03*
D13*
X148850000Y-81599998D03*
X140800000Y-117900000D03*
X159600000Y-126100000D03*
X131900000Y-128700000D03*
X118800000Y-116400000D03*
X122350000Y-99650000D03*
X150850000Y-88650000D03*
X135900000Y-66400000D03*
X130600000Y-117400000D03*
X130600000Y-113700000D03*
X130600000Y-114300000D03*
X130600000Y-118000000D03*
X130600000Y-118600000D03*
X130600000Y-113100000D03*
X151000000Y-75000000D03*
X150400000Y-75000000D03*
X129000000Y-82000000D03*
X135450000Y-111700000D03*
X152965373Y-108034627D03*
X141650000Y-93350000D03*
X135800000Y-84100000D03*
X129600000Y-119600000D03*
X132000000Y-119600000D03*
X152500000Y-104000000D03*
X153000000Y-106500000D03*
X135100000Y-71200000D03*
X143900000Y-76400010D03*
X135800000Y-70200000D03*
X147450000Y-79300000D03*
X146150000Y-77150000D03*
X135000000Y-85100000D03*
X150850000Y-89850000D03*
X149800002Y-87500000D03*
X143600000Y-89200000D03*
X141200000Y-95700000D03*
X132000000Y-98100000D03*
X128100000Y-98100000D03*
X122350000Y-100850000D03*
X150000000Y-103500000D03*
X127500000Y-100800000D03*
X154400000Y-107900000D03*
X135450000Y-112949998D03*
X136800000Y-111800000D03*
X125800000Y-110900000D03*
X124200000Y-112400000D03*
X118850000Y-117600000D03*
X121700000Y-116300000D03*
X159600000Y-127350000D03*
X160900000Y-126100000D03*
X139000000Y-132000000D03*
X131850000Y-129850000D03*
X134600000Y-133100000D03*
X151750000Y-93000000D03*
X153000000Y-95750000D03*
X145300000Y-93700000D03*
X149200000Y-93900000D03*
X125200000Y-115200000D03*
X130700000Y-108900000D03*
D15*
X146150000Y-78350000D02*
X148150000Y-78350000D01*
D16*
X130600000Y-117400000D02*
X130600000Y-114500000D01*
X130600000Y-117400000D02*
X130600000Y-118600000D01*
D15*
X146150000Y-75000000D02*
X151000000Y-75000000D01*
X144850000Y-77150000D02*
X144850000Y-76300000D01*
X144850000Y-76300000D02*
X146150000Y-75000000D01*
X135900000Y-67350000D02*
X135850000Y-67400000D01*
X135900000Y-66400000D02*
X135900000Y-67350000D01*
X138350000Y-93800000D02*
X138350000Y-94650000D01*
X139550000Y-92600000D02*
X138350000Y-93800000D01*
X150650000Y-88650000D02*
X148900000Y-90400000D01*
X150850000Y-88650000D02*
X150650000Y-88650000D01*
X148200000Y-90400000D02*
X146000000Y-92600000D01*
X148900000Y-90400000D02*
X148200000Y-90400000D01*
X146150000Y-75000000D02*
X145500000Y-75650000D01*
X141650000Y-93350000D02*
X141650000Y-92600000D01*
X141650000Y-92600000D02*
X139550000Y-92600000D01*
X146000000Y-92600000D02*
X142700000Y-92600000D01*
X142700000Y-92600000D02*
X141650000Y-92600000D01*
X135750001Y-84050001D02*
X135800000Y-84100000D01*
X135750001Y-83701459D02*
X135750001Y-84050001D01*
X132748542Y-80700000D02*
X135750001Y-83701459D01*
X131200000Y-80700000D02*
X132748542Y-80700000D01*
X129500000Y-82000000D02*
X129850000Y-81650000D01*
X129850000Y-81650000D02*
X130850000Y-81650000D01*
X129000000Y-82000000D02*
X129500000Y-82000000D01*
X130850000Y-81650000D02*
X130850000Y-81050000D01*
X130850000Y-81050000D02*
X131200000Y-80700000D01*
D17*
X129600000Y-119600000D02*
X132000000Y-119600000D01*
X152500000Y-104000000D02*
X152500000Y-106000000D01*
X152500000Y-106000000D02*
X153000000Y-106500000D01*
X137150000Y-67400000D02*
X137150000Y-66687998D01*
X135587999Y-65749999D02*
X135100000Y-66237998D01*
X137150000Y-66687998D02*
X136212001Y-65749999D01*
X136212001Y-65749999D02*
X135587999Y-65749999D01*
X135100000Y-66237998D02*
X135100000Y-71200000D01*
X144150000Y-78350000D02*
X143900000Y-78100000D01*
X143900000Y-78100000D02*
X143900000Y-76824274D01*
X144850000Y-78350000D02*
X144150000Y-78350000D01*
X143900000Y-76824274D02*
X143900000Y-76400010D01*
X135850000Y-68600000D02*
X135850000Y-70150000D01*
X135850000Y-70150000D02*
X135800000Y-70200000D01*
X132850000Y-81650000D02*
X133700000Y-82500000D01*
X132150000Y-81650000D02*
X132850000Y-81650000D01*
X133700000Y-82500000D02*
X133700000Y-83400000D01*
X133700000Y-83400000D02*
X135000000Y-84700000D01*
X135000000Y-84700000D02*
X135000000Y-85100000D01*
X148100002Y-89200000D02*
X144024264Y-89200000D01*
X144024264Y-89200000D02*
X143600000Y-89200000D01*
X149800002Y-87500000D02*
X148100002Y-89200000D01*
X139650000Y-94650000D02*
X140150000Y-94650000D01*
X140150000Y-94650000D02*
X141200000Y-95700000D01*
X132000000Y-98100000D02*
X128100000Y-98100000D01*
X123650000Y-99650000D02*
X124350000Y-99650000D01*
X152400000Y-109100000D02*
X153100000Y-109100000D01*
X152000000Y-105500000D02*
X152000000Y-108700000D01*
X152000000Y-108700000D02*
X152400000Y-109100000D01*
X150000000Y-103500000D02*
X152000000Y-105500000D01*
X126350000Y-99650000D02*
X127500000Y-100800000D01*
X123650000Y-99650000D02*
X126350000Y-99650000D01*
X125800000Y-110900000D02*
X125700000Y-110900000D01*
X125700000Y-110900000D02*
X124200000Y-112400000D01*
X120150000Y-116400000D02*
X121600000Y-116400000D01*
X121600000Y-116400000D02*
X121700000Y-116300000D01*
X139000000Y-132000000D02*
X137900000Y-133100000D01*
X135024264Y-133100000D02*
X134600000Y-133100000D01*
X137900000Y-133100000D02*
X135024264Y-133100000D01*
X151750000Y-93000000D02*
X151750000Y-94500000D01*
X151750000Y-94500000D02*
X153000000Y-95750000D01*
X145500000Y-93900000D02*
X145300000Y-93700000D01*
X149200000Y-93900000D02*
X145500000Y-93900000D01*
X125200000Y-114400000D02*
X130400001Y-109199999D01*
X125200000Y-115200000D02*
X125200000Y-114400000D01*
X130400001Y-109199999D02*
X130700000Y-108900000D01*
X142600000Y-83000000D02*
X142100000Y-83500000D01*
X144150000Y-82600000D02*
X144100000Y-82600000D01*
X132997074Y-80099989D02*
X129938009Y-80099989D01*
X128349999Y-82312001D02*
X128887998Y-82850000D01*
X129938009Y-80099989D02*
X128349999Y-81687999D01*
X128887998Y-82850000D02*
X130850000Y-82850000D01*
X128349999Y-81687999D02*
X128349999Y-82312001D01*
X136397085Y-83500000D02*
X132997074Y-80099989D01*
X143700000Y-83000000D02*
X142600000Y-83000000D01*
X142100000Y-83500000D02*
X136397085Y-83500000D01*
X144100000Y-82600000D02*
X143700000Y-83000000D01*
X147450000Y-79300000D02*
X144150000Y-82600000D01*
X137650000Y-95850000D02*
X138350000Y-95850000D01*
X137599999Y-95799999D02*
X137650000Y-95850000D01*
X137599999Y-93701459D02*
X137599999Y-95799999D01*
X139301468Y-91999990D02*
X137599999Y-93701459D01*
X147951468Y-89799990D02*
X145751468Y-91999990D01*
X145751468Y-91999990D02*
X139301468Y-91999990D01*
X152150000Y-88000000D02*
X151950000Y-87800000D01*
X152150000Y-88650000D02*
X152150000Y-88000000D01*
X148450010Y-89799990D02*
X147951468Y-89799990D01*
X151950000Y-87800000D02*
X150450000Y-87800000D01*
X150450000Y-87800000D02*
X148450010Y-89799990D01*
D18*
G36*
X141369197Y-51894489D02*
G01*
X141383948Y-51945567D01*
X141404328Y-51984956D01*
X141422232Y-52025592D01*
X141434155Y-52042602D01*
X141443692Y-52061034D01*
X141471373Y-52095700D01*
X141496854Y-52132052D01*
X141511865Y-52146408D01*
X141524816Y-52162627D01*
X141558724Y-52191223D01*
X141590810Y-52221909D01*
X141608335Y-52233062D01*
X141624201Y-52246442D01*
X141663041Y-52267876D01*
X141700492Y-52291709D01*
X141719854Y-52299228D01*
X141738028Y-52309257D01*
X141780305Y-52322702D01*
X141821684Y-52338771D01*
X141842137Y-52342367D01*
X141861921Y-52348659D01*
X141906019Y-52353599D01*
X141949728Y-52361284D01*
X142002937Y-52360098D01*
X147751222Y-52437060D01*
X143129244Y-55603971D01*
X143077821Y-55638543D01*
X143052794Y-55663712D01*
X143025613Y-55686555D01*
X143007066Y-55709700D01*
X142986152Y-55730733D01*
X142966512Y-55760308D01*
X142944315Y-55788008D01*
X142930639Y-55814328D01*
X142914231Y-55839036D01*
X142900741Y-55871868D01*
X142884371Y-55903372D01*
X142876092Y-55931857D01*
X142864820Y-55959290D01*
X142857993Y-55994127D01*
X142848086Y-56028214D01*
X142845524Y-56057761D01*
X142839819Y-56086871D01*
X142839920Y-56122375D01*
X142836853Y-56157736D01*
X142840104Y-56187213D01*
X142840188Y-56216878D01*
X142847213Y-56251678D01*
X142851104Y-56286960D01*
X142869804Y-56346114D01*
X144533715Y-61775723D01*
X143433734Y-61062223D01*
X143405612Y-61040211D01*
X143350404Y-61012322D01*
X143295421Y-60983889D01*
X143292385Y-60983013D01*
X143289570Y-60981591D01*
X143229985Y-60965009D01*
X143170508Y-60947849D01*
X143167362Y-60947582D01*
X143164321Y-60946736D01*
X143102659Y-60942098D01*
X143040966Y-60936869D01*
X143037825Y-60937222D01*
X143034679Y-60936985D01*
X142973250Y-60944472D01*
X142911769Y-60951374D01*
X142908763Y-60952331D01*
X142905626Y-60952713D01*
X142846778Y-60972060D01*
X142787883Y-60990805D01*
X142785123Y-60992329D01*
X142782121Y-60993316D01*
X142728216Y-61023751D01*
X142674072Y-61053647D01*
X142671659Y-61055683D01*
X142668910Y-61057235D01*
X142622000Y-61097582D01*
X142574707Y-61137484D01*
X142572738Y-61139951D01*
X142570343Y-61142011D01*
X142532207Y-61190734D01*
X142493607Y-61239097D01*
X142492156Y-61241903D01*
X142490211Y-61244388D01*
X142462332Y-61299576D01*
X142433889Y-61354579D01*
X142433013Y-61357615D01*
X142431591Y-61360430D01*
X142415009Y-61420015D01*
X142397849Y-61479492D01*
X142397582Y-61482638D01*
X142396736Y-61485679D01*
X142392098Y-61547341D01*
X142386869Y-61609034D01*
X142387222Y-61612175D01*
X142386985Y-61615321D01*
X142394472Y-61676750D01*
X142401374Y-61738231D01*
X142402331Y-61741237D01*
X142402713Y-61744374D01*
X142422060Y-61803222D01*
X142440805Y-61862117D01*
X142442329Y-61864877D01*
X142443316Y-61867879D01*
X142473750Y-61921782D01*
X142503647Y-61975928D01*
X142526676Y-62003222D01*
X144142122Y-64304012D01*
X144142895Y-64305365D01*
X144160658Y-64330411D01*
X144178476Y-64355788D01*
X144179502Y-64356981D01*
X149152058Y-71368285D01*
X149160545Y-71381626D01*
X149170787Y-71394693D01*
X149180403Y-71408252D01*
X149190784Y-71420207D01*
X151301104Y-74112685D01*
X151272729Y-74100932D01*
X151092089Y-74065000D01*
X150907911Y-74065000D01*
X150727271Y-74100932D01*
X150700000Y-74112228D01*
X150672729Y-74100932D01*
X150492089Y-74065000D01*
X150307911Y-74065000D01*
X150127271Y-74100932D01*
X150093308Y-74115000D01*
X146193469Y-74115000D01*
X146150000Y-74110719D01*
X146106531Y-74115000D01*
X146106523Y-74115000D01*
X145976510Y-74127805D01*
X145809686Y-74178411D01*
X145655941Y-74260589D01*
X145554953Y-74343468D01*
X145554951Y-74343470D01*
X145521183Y-74371183D01*
X145493470Y-74404951D01*
X144331652Y-75566770D01*
X144172729Y-75500942D01*
X143992089Y-75465010D01*
X143807911Y-75465010D01*
X143627271Y-75500942D01*
X143457111Y-75571424D01*
X143303972Y-75673748D01*
X143173738Y-75803982D01*
X143071414Y-75957121D01*
X143000932Y-76127281D01*
X142965000Y-76307921D01*
X142965000Y-76492099D01*
X142981092Y-76573000D01*
X129700000Y-76573000D01*
X129675224Y-76575440D01*
X129651399Y-76582667D01*
X129629443Y-76594403D01*
X129610197Y-76610197D01*
X129594403Y-76629443D01*
X129582667Y-76651399D01*
X129575440Y-76675224D01*
X129573000Y-76700000D01*
X129573000Y-79404988D01*
X129499776Y-79444127D01*
X129439568Y-79493539D01*
X129410196Y-79517644D01*
X129410193Y-79517647D01*
X129380245Y-79542225D01*
X129355667Y-79572173D01*
X127822189Y-81105652D01*
X127792235Y-81130235D01*
X127694137Y-81249767D01*
X127621245Y-81386140D01*
X127576358Y-81534113D01*
X127564999Y-81649439D01*
X127564999Y-81649446D01*
X127561202Y-81687999D01*
X127564999Y-81726552D01*
X127564999Y-82273448D01*
X127561202Y-82312001D01*
X127564999Y-82350554D01*
X127564999Y-82350562D01*
X127576358Y-82465888D01*
X127621245Y-82613861D01*
X127694138Y-82750234D01*
X127734689Y-82799645D01*
X127767654Y-82839813D01*
X127767658Y-82839817D01*
X127792236Y-82869765D01*
X127822184Y-82894343D01*
X128305655Y-83377815D01*
X128330234Y-83407764D01*
X128360182Y-83432342D01*
X128360185Y-83432345D01*
X128377751Y-83446761D01*
X128449765Y-83505862D01*
X128586138Y-83578754D01*
X128675762Y-83605941D01*
X128734110Y-83623641D01*
X128748488Y-83625057D01*
X128849437Y-83635000D01*
X128849444Y-83635000D01*
X128887997Y-83638797D01*
X128926550Y-83635000D01*
X129982317Y-83635000D01*
X130019463Y-83704494D01*
X130098815Y-83801185D01*
X130195506Y-83880537D01*
X130305820Y-83939502D01*
X130425518Y-83975812D01*
X130550000Y-83988072D01*
X131250000Y-83988072D01*
X131374482Y-83975812D01*
X131494180Y-83939502D01*
X131604494Y-83880537D01*
X131701185Y-83801185D01*
X131780537Y-83704494D01*
X131839502Y-83594180D01*
X131875812Y-83474482D01*
X131888072Y-83350000D01*
X131888072Y-82727000D01*
X132816843Y-82727000D01*
X132915000Y-82825157D01*
X132915000Y-83361447D01*
X132911203Y-83400000D01*
X132915000Y-83438553D01*
X132915000Y-83438561D01*
X132920393Y-83493308D01*
X132926359Y-83553886D01*
X132971246Y-83701859D01*
X132975431Y-83709688D01*
X133044139Y-83838233D01*
X133078858Y-83880537D01*
X133117655Y-83927812D01*
X133117659Y-83927816D01*
X133142237Y-83957764D01*
X133172185Y-83982342D01*
X134087026Y-84897183D01*
X134065000Y-85007911D01*
X134065000Y-85192089D01*
X134100932Y-85372729D01*
X134171414Y-85542889D01*
X134273738Y-85696028D01*
X134403972Y-85826262D01*
X134557111Y-85928586D01*
X134727271Y-85999068D01*
X134907911Y-86035000D01*
X135092089Y-86035000D01*
X135272729Y-85999068D01*
X135442889Y-85928586D01*
X135596028Y-85826262D01*
X135726262Y-85696028D01*
X135828586Y-85542889D01*
X135899068Y-85372729D01*
X135935000Y-85192089D01*
X135935000Y-85026464D01*
X136072729Y-84999068D01*
X136242889Y-84928586D01*
X136396028Y-84826262D01*
X136526262Y-84696028D01*
X136628586Y-84542889D01*
X136699068Y-84372729D01*
X136716519Y-84285000D01*
X142061447Y-84285000D01*
X142100000Y-84288797D01*
X142138553Y-84285000D01*
X142138561Y-84285000D01*
X142253887Y-84273641D01*
X142401860Y-84228754D01*
X142538233Y-84155862D01*
X142657764Y-84057764D01*
X142682347Y-84027810D01*
X142925156Y-83785000D01*
X143661447Y-83785000D01*
X143700000Y-83788797D01*
X143738553Y-83785000D01*
X143738561Y-83785000D01*
X143853887Y-83773641D01*
X144001860Y-83728754D01*
X144138233Y-83655862D01*
X144257764Y-83557764D01*
X144282347Y-83527810D01*
X144515326Y-83294831D01*
X144588233Y-83255862D01*
X144707764Y-83157764D01*
X144732347Y-83127810D01*
X145133157Y-82727000D01*
X147800000Y-82727000D01*
X147822662Y-82724962D01*
X147846605Y-82718139D01*
X147868758Y-82706777D01*
X147888268Y-82691312D01*
X147904386Y-82672337D01*
X147916492Y-82650582D01*
X147924122Y-82626884D01*
X147926982Y-82602152D01*
X147969778Y-80077211D01*
X148046028Y-80026262D01*
X148176262Y-79896028D01*
X148278586Y-79742889D01*
X148349068Y-79572729D01*
X148385000Y-79392089D01*
X148385000Y-79207911D01*
X148349068Y-79027271D01*
X148278586Y-78857111D01*
X148176262Y-78703972D01*
X148046028Y-78573738D01*
X147995829Y-78540196D01*
X148026982Y-76702152D01*
X148024560Y-76675224D01*
X148017333Y-76651399D01*
X148005597Y-76629443D01*
X147989803Y-76610197D01*
X147970557Y-76594403D01*
X147948601Y-76582667D01*
X147924776Y-76575440D01*
X147900000Y-76573000D01*
X147080488Y-76573000D01*
X147075812Y-76525518D01*
X147039502Y-76405820D01*
X146980537Y-76295506D01*
X146901185Y-76198815D01*
X146804494Y-76119463D01*
X146694180Y-76060498D01*
X146574482Y-76024188D01*
X146450000Y-76011928D01*
X146389651Y-76011928D01*
X146516579Y-75885000D01*
X150093308Y-75885000D01*
X150127271Y-75899068D01*
X150307911Y-75935000D01*
X150492089Y-75935000D01*
X150672729Y-75899068D01*
X150700000Y-75887772D01*
X150727271Y-75899068D01*
X150907911Y-75935000D01*
X151092089Y-75935000D01*
X151272729Y-75899068D01*
X151442889Y-75828586D01*
X151596028Y-75726262D01*
X151726262Y-75596028D01*
X151828586Y-75442889D01*
X151899068Y-75272729D01*
X151935000Y-75092089D01*
X151935000Y-74921449D01*
X152070948Y-75094900D01*
X152080688Y-75108614D01*
X152090911Y-75120371D01*
X152100541Y-75132657D01*
X152112188Y-75144839D01*
X154081964Y-77410083D01*
X154102108Y-77438096D01*
X154148144Y-77481071D01*
X154194065Y-77524444D01*
X154223296Y-77542792D01*
X154404521Y-77681375D01*
X150670736Y-76861765D01*
X150637303Y-76851176D01*
X150575207Y-76844295D01*
X150513087Y-76836936D01*
X150510578Y-76837133D01*
X150508086Y-76836857D01*
X150445837Y-76842222D01*
X150383479Y-76847124D01*
X150381063Y-76847805D01*
X150378559Y-76848021D01*
X150318484Y-76865448D01*
X150258349Y-76882401D01*
X150256112Y-76883540D01*
X150253697Y-76884241D01*
X150198138Y-76913072D01*
X150142504Y-76941412D01*
X150140534Y-76942965D01*
X150138300Y-76944124D01*
X150089443Y-76983234D01*
X150040398Y-77021890D01*
X150038767Y-77023800D01*
X150036805Y-77025370D01*
X149996522Y-77073251D01*
X149955955Y-77120740D01*
X149954729Y-77122928D01*
X149953109Y-77124854D01*
X149922946Y-77179666D01*
X149892418Y-77234165D01*
X149891641Y-77236555D01*
X149890430Y-77238756D01*
X149871558Y-77298343D01*
X149852230Y-77357807D01*
X149851934Y-77360302D01*
X149851176Y-77362697D01*
X149844297Y-77424775D01*
X149836936Y-77486913D01*
X149837133Y-77489422D01*
X149836857Y-77491914D01*
X149842222Y-77554163D01*
X149847124Y-77616521D01*
X149847805Y-77618937D01*
X149848021Y-77621441D01*
X149865438Y-77681481D01*
X149882401Y-77741651D01*
X149898319Y-77772901D01*
X150071276Y-78205291D01*
X150076760Y-78226707D01*
X150095364Y-78265513D01*
X150099246Y-78275217D01*
X150109369Y-78294725D01*
X150118881Y-78314565D01*
X150124306Y-78323510D01*
X150144124Y-78361699D01*
X150157937Y-78378955D01*
X151978085Y-81379740D01*
X151986580Y-81395265D01*
X151994866Y-81407406D01*
X152002506Y-81420002D01*
X152013147Y-81434194D01*
X159198878Y-91963287D01*
X159210545Y-91981626D01*
X159217110Y-91990003D01*
X159223128Y-91998820D01*
X159237122Y-92015535D01*
X160677089Y-93852736D01*
X160712788Y-93899942D01*
X160741393Y-93925385D01*
X160767873Y-93953082D01*
X160816437Y-93987132D01*
X160964512Y-94094823D01*
X160291624Y-94044979D01*
X158912889Y-93759723D01*
X157311801Y-93274546D01*
X155752890Y-92689954D01*
X155714306Y-92672388D01*
X155660579Y-92659759D01*
X155607243Y-92645536D01*
X155597375Y-92644901D01*
X155587747Y-92642638D01*
X155532576Y-92640733D01*
X155477504Y-92637190D01*
X155467702Y-92638492D01*
X155457817Y-92638151D01*
X155403336Y-92647045D01*
X155348628Y-92654314D01*
X155339269Y-92657504D01*
X155329508Y-92659097D01*
X155277816Y-92678447D01*
X155225569Y-92696252D01*
X155217010Y-92701208D01*
X155207749Y-92704674D01*
X155160820Y-92733739D01*
X155113057Y-92761392D01*
X155105632Y-92767919D01*
X155097222Y-92773128D01*
X155056858Y-92810797D01*
X155015415Y-92847230D01*
X155009405Y-92855082D01*
X155002174Y-92861830D01*
X154969943Y-92906638D01*
X154936395Y-92950467D01*
X154932031Y-92959342D01*
X154926257Y-92967370D01*
X154903385Y-93017608D01*
X154879034Y-93067138D01*
X154876486Y-93076692D01*
X154872388Y-93085694D01*
X154859756Y-93139430D01*
X154845536Y-93192757D01*
X154844901Y-93202625D01*
X154842638Y-93212253D01*
X154840733Y-93267424D01*
X154837190Y-93322496D01*
X154838492Y-93332298D01*
X154838151Y-93342183D01*
X154847045Y-93396664D01*
X154854314Y-93451372D01*
X154857504Y-93460731D01*
X154859097Y-93470492D01*
X154878446Y-93522182D01*
X154896252Y-93574431D01*
X154917497Y-93611127D01*
X156248671Y-96322780D01*
X156253391Y-96334092D01*
X156262930Y-96351826D01*
X156271825Y-96369946D01*
X156278296Y-96380394D01*
X159811625Y-102949401D01*
X159819142Y-102965047D01*
X159826964Y-102977919D01*
X159834104Y-102991193D01*
X159843792Y-103005610D01*
X163762239Y-109453689D01*
X163769882Y-109471383D01*
X163795910Y-109509097D01*
X163802813Y-109520456D01*
X163814348Y-109535812D01*
X163825225Y-109551573D01*
X163833786Y-109561691D01*
X163861330Y-109598360D01*
X163875701Y-109611226D01*
X164922331Y-110848154D01*
X164923477Y-110849864D01*
X161095931Y-109684959D01*
X161088072Y-109681013D01*
X161033836Y-109666061D01*
X161011152Y-109659157D01*
X161002578Y-109657443D01*
X160962738Y-109646460D01*
X160938971Y-109644730D01*
X160915608Y-109640061D01*
X160874287Y-109640023D01*
X160833074Y-109637024D01*
X160809428Y-109639964D01*
X160785601Y-109639942D01*
X160745072Y-109647965D01*
X160704059Y-109653064D01*
X160681437Y-109660562D01*
X160658068Y-109665188D01*
X160619884Y-109680964D01*
X160580652Y-109693967D01*
X160559925Y-109705736D01*
X160537910Y-109714831D01*
X160503540Y-109737750D01*
X160467596Y-109758159D01*
X160449567Y-109773742D01*
X160429745Y-109786960D01*
X160400501Y-109816151D01*
X160369236Y-109843174D01*
X160354592Y-109861976D01*
X160337732Y-109878806D01*
X160314744Y-109913141D01*
X160289352Y-109945744D01*
X160278662Y-109967033D01*
X160265403Y-109986837D01*
X160249550Y-110025012D01*
X160231013Y-110061928D01*
X160224682Y-110084893D01*
X160215541Y-110106904D01*
X160207442Y-110147427D01*
X160196460Y-110187262D01*
X160194730Y-110211029D01*
X160190061Y-110234392D01*
X160190023Y-110275713D01*
X160187024Y-110316926D01*
X160189964Y-110340572D01*
X160189942Y-110364399D01*
X160197965Y-110404928D01*
X160203064Y-110445941D01*
X160210562Y-110468562D01*
X160215188Y-110491932D01*
X160230964Y-110530116D01*
X160233718Y-110538426D01*
X160243359Y-110560118D01*
X160264831Y-110612090D01*
X160269708Y-110619404D01*
X160842235Y-111907590D01*
X160850073Y-111927017D01*
X160855390Y-111937188D01*
X160860051Y-111947676D01*
X160870398Y-111965899D01*
X165458310Y-120742775D01*
X165465824Y-120758851D01*
X165473306Y-120771463D01*
X165480109Y-120784478D01*
X165489845Y-120799343D01*
X170700520Y-129583054D01*
X170701399Y-129585485D01*
X170733606Y-129638827D01*
X170748904Y-129664615D01*
X170750433Y-129666697D01*
X170751760Y-129668894D01*
X170769602Y-129692790D01*
X170806589Y-129743137D01*
X170808500Y-129744884D01*
X173547432Y-133413098D01*
X173560049Y-133435067D01*
X173586222Y-133465049D01*
X173590551Y-133470847D01*
X173607559Y-133489491D01*
X173645546Y-133533007D01*
X173651306Y-133537448D01*
X173656215Y-133542829D01*
X173702778Y-133577130D01*
X173722710Y-133592496D01*
X173728832Y-133596322D01*
X173760889Y-133619937D01*
X173783835Y-133630699D01*
X174646346Y-134169769D01*
X154261643Y-132542821D01*
X154206214Y-132536837D01*
X154164580Y-132540544D01*
X154122777Y-132541319D01*
X154099969Y-132546297D01*
X154076719Y-132548367D01*
X154036602Y-132560127D01*
X153995759Y-132569041D01*
X153974362Y-132578372D01*
X153951960Y-132584939D01*
X153914912Y-132604298D01*
X153876589Y-132621010D01*
X153857419Y-132634340D01*
X153836734Y-132645148D01*
X153804173Y-132671363D01*
X153769848Y-132695230D01*
X153753653Y-132712036D01*
X153735467Y-132726678D01*
X153708641Y-132758748D01*
X153679637Y-132788847D01*
X153667031Y-132808492D01*
X153652052Y-132826399D01*
X153632000Y-132863084D01*
X153609424Y-132898265D01*
X153600891Y-132919995D01*
X153589695Y-132940478D01*
X153577188Y-132980361D01*
X153561906Y-133019278D01*
X153557776Y-133042259D01*
X153550792Y-133064529D01*
X153546305Y-133106086D01*
X153538910Y-133147237D01*
X153539343Y-133170578D01*
X153536837Y-133193786D01*
X153540544Y-133235424D01*
X153541319Y-133277223D01*
X153546297Y-133300031D01*
X153548367Y-133323281D01*
X153560127Y-133363398D01*
X153569041Y-133404241D01*
X153578372Y-133425638D01*
X153584939Y-133448040D01*
X153604298Y-133485088D01*
X153621010Y-133523411D01*
X153634340Y-133542581D01*
X153645148Y-133563266D01*
X153671363Y-133595827D01*
X153695230Y-133630152D01*
X153712036Y-133646347D01*
X153726678Y-133664533D01*
X153758746Y-133691357D01*
X153788847Y-133720363D01*
X153835796Y-133750490D01*
X157436841Y-136205748D01*
X144773045Y-134844050D01*
X144711144Y-134836901D01*
X144676079Y-134839761D01*
X144640899Y-134839446D01*
X144611447Y-134845031D01*
X144581566Y-134847468D01*
X144547729Y-134857115D01*
X144513167Y-134863669D01*
X144485370Y-134874893D01*
X144456540Y-134883112D01*
X144425240Y-134899172D01*
X144392615Y-134912345D01*
X144367541Y-134928777D01*
X144340869Y-134942462D01*
X144313300Y-134964322D01*
X144283876Y-134983605D01*
X144262488Y-135004613D01*
X144238999Y-135023239D01*
X144216229Y-135050052D01*
X144191127Y-135074709D01*
X144174249Y-135099487D01*
X144154845Y-135122336D01*
X144137742Y-135153080D01*
X144117935Y-135182157D01*
X144106215Y-135209752D01*
X144091642Y-135235947D01*
X144080867Y-135269432D01*
X144067111Y-135301819D01*
X144060999Y-135331174D01*
X144051817Y-135359706D01*
X144047781Y-135394650D01*
X144040608Y-135429098D01*
X144040051Y-135491430D01*
X144030411Y-136065000D01*
X142193164Y-136065000D01*
X142144201Y-136032284D01*
X141896697Y-135929764D01*
X141633948Y-135877500D01*
X141366052Y-135877500D01*
X141103303Y-135929764D01*
X140855799Y-136032284D01*
X140633051Y-136181119D01*
X140443619Y-136370551D01*
X140294784Y-136593299D01*
X140192264Y-136840803D01*
X140140000Y-137103552D01*
X140140000Y-137371448D01*
X140192264Y-137634197D01*
X140287866Y-137865000D01*
X137935000Y-137865000D01*
X137935000Y-136600000D01*
X137922799Y-136476118D01*
X137886664Y-136356996D01*
X137827983Y-136247213D01*
X137749013Y-136150987D01*
X137652787Y-136072017D01*
X137543004Y-136013336D01*
X137423882Y-135977201D01*
X137300000Y-135965000D01*
X136981764Y-135965000D01*
X136896697Y-135929764D01*
X136633948Y-135877500D01*
X136366052Y-135877500D01*
X136103303Y-135929764D01*
X136018236Y-135965000D01*
X134216488Y-135965000D01*
X134210384Y-135195887D01*
X134212413Y-135182153D01*
X134209869Y-135130985D01*
X134209721Y-135112345D01*
X134208260Y-135098630D01*
X134205957Y-135052305D01*
X134201389Y-135034112D01*
X134199402Y-135015459D01*
X134185590Y-134971196D01*
X134174294Y-134926210D01*
X134166261Y-134909252D01*
X134160676Y-134891353D01*
X134138497Y-134850640D01*
X134118639Y-134808717D01*
X134107455Y-134793655D01*
X134098483Y-134777186D01*
X134068786Y-134741581D01*
X134041132Y-134704339D01*
X134027222Y-134691746D01*
X134015211Y-134677346D01*
X133979136Y-134648216D01*
X133944750Y-134617087D01*
X133928656Y-134607453D01*
X133914062Y-134595669D01*
X133872991Y-134574134D01*
X133833199Y-134550315D01*
X133815531Y-134544005D01*
X133798922Y-134535296D01*
X133754445Y-134522188D01*
X133710765Y-134506588D01*
X133692208Y-134503846D01*
X133674216Y-134498544D01*
X133628030Y-134494365D01*
X133582153Y-134487587D01*
X133563418Y-134488518D01*
X133544737Y-134486828D01*
X133498624Y-134491740D01*
X133484840Y-134492425D01*
X133466385Y-134495174D01*
X133415459Y-134500598D01*
X133402214Y-134504731D01*
X128771067Y-135194477D01*
X125009288Y-135540957D01*
X120295638Y-135689810D01*
X120279684Y-135689517D01*
X120263235Y-135690833D01*
X120246766Y-135691353D01*
X120230965Y-135693415D01*
X119564606Y-135746724D01*
X122996262Y-133127829D01*
X123044280Y-133092382D01*
X123069761Y-133064393D01*
X123097463Y-133038584D01*
X123113426Y-133016430D01*
X123121181Y-133007911D01*
X133665000Y-133007911D01*
X133665000Y-133192089D01*
X133700932Y-133372729D01*
X133771414Y-133542889D01*
X133873738Y-133696028D01*
X134003972Y-133826262D01*
X134157111Y-133928586D01*
X134327271Y-133999068D01*
X134507911Y-134035000D01*
X134692089Y-134035000D01*
X134872729Y-133999068D01*
X135042889Y-133928586D01*
X135108120Y-133885000D01*
X137861447Y-133885000D01*
X137900000Y-133888797D01*
X137938553Y-133885000D01*
X137938561Y-133885000D01*
X138053887Y-133873641D01*
X138201860Y-133828754D01*
X138338233Y-133755862D01*
X138457764Y-133657764D01*
X138482347Y-133627810D01*
X139195784Y-132914373D01*
X139272729Y-132899068D01*
X139442889Y-132828586D01*
X139596028Y-132726262D01*
X139726262Y-132596028D01*
X139828586Y-132442889D01*
X139899068Y-132272729D01*
X139935000Y-132092089D01*
X139935000Y-131907911D01*
X139899068Y-131727271D01*
X139828586Y-131557111D01*
X139726262Y-131403972D01*
X139596028Y-131273738D01*
X139442889Y-131171414D01*
X139272729Y-131100932D01*
X139092089Y-131065000D01*
X138907911Y-131065000D01*
X138727271Y-131100932D01*
X138557111Y-131171414D01*
X138403972Y-131273738D01*
X138273738Y-131403972D01*
X138171414Y-131557111D01*
X138100932Y-131727271D01*
X138085627Y-131804216D01*
X137574843Y-132315000D01*
X135108120Y-132315000D01*
X135042889Y-132271414D01*
X134872729Y-132200932D01*
X134692089Y-132165000D01*
X134507911Y-132165000D01*
X134327271Y-132200932D01*
X134157111Y-132271414D01*
X134003972Y-132373738D01*
X133873738Y-132503972D01*
X133771414Y-132657111D01*
X133700932Y-132827271D01*
X133665000Y-133007911D01*
X123121181Y-133007911D01*
X123131802Y-132996246D01*
X123151336Y-132963820D01*
X123173467Y-132933106D01*
X123184799Y-132908270D01*
X123198888Y-132884882D01*
X123211719Y-132849270D01*
X123227434Y-132814828D01*
X123233704Y-132788251D01*
X123242957Y-132762571D01*
X123248595Y-132725137D01*
X123257288Y-132688293D01*
X123258253Y-132661016D01*
X123262320Y-132634013D01*
X123260546Y-132596190D01*
X123261884Y-132558366D01*
X123257508Y-132531423D01*
X123256229Y-132504147D01*
X123247110Y-132467397D01*
X123241043Y-132430039D01*
X123231495Y-132404467D01*
X123224919Y-132377964D01*
X123208808Y-132343704D01*
X123195568Y-132308243D01*
X123181212Y-132285021D01*
X123169594Y-132260315D01*
X123147111Y-132229858D01*
X123127205Y-132197659D01*
X123108596Y-132177685D01*
X123092381Y-132155720D01*
X123064388Y-132130236D01*
X123038582Y-132102537D01*
X123016429Y-132086575D01*
X122996244Y-132068198D01*
X122963816Y-132048663D01*
X122933104Y-132026533D01*
X122908271Y-132015203D01*
X122884881Y-132001112D01*
X122849261Y-131988278D01*
X122814826Y-131972566D01*
X122788258Y-131966298D01*
X122762570Y-131957042D01*
X122725127Y-131951403D01*
X122688292Y-131942712D01*
X122661017Y-131941747D01*
X122634012Y-131937680D01*
X122596190Y-131939454D01*
X122558364Y-131938116D01*
X122499449Y-131947684D01*
X118066927Y-132595131D01*
X111580485Y-133293671D01*
X103950875Y-134091539D01*
X101340760Y-134208409D01*
X101626123Y-134024962D01*
X101651578Y-134012332D01*
X101680672Y-133989895D01*
X101684170Y-133987646D01*
X101706339Y-133970100D01*
X101728733Y-133952830D01*
X101731762Y-133949979D01*
X101760570Y-133927179D01*
X101778982Y-133905537D01*
X102562240Y-133168353D01*
X102570495Y-133162843D01*
X102609494Y-133123880D01*
X102625948Y-133108393D01*
X102632441Y-133100952D01*
X102639421Y-133093979D01*
X102653749Y-133076536D01*
X102690012Y-133034983D01*
X102694956Y-133026371D01*
X103806367Y-131673349D01*
X103823612Y-131653089D01*
X103826905Y-131648347D01*
X103830576Y-131643878D01*
X103845394Y-131621723D01*
X105086177Y-129834997D01*
X105099265Y-129817366D01*
X105104631Y-129808422D01*
X105110596Y-129799833D01*
X105121318Y-129780611D01*
X106039684Y-128250000D01*
X130911928Y-128250000D01*
X130911928Y-129050000D01*
X130924188Y-129174482D01*
X130960498Y-129294180D01*
X130963609Y-129300000D01*
X130960498Y-129305820D01*
X130924188Y-129425518D01*
X130911928Y-129550000D01*
X130911928Y-130350000D01*
X130924188Y-130474482D01*
X130960498Y-130594180D01*
X131019463Y-130704494D01*
X131098815Y-130801185D01*
X131195506Y-130880537D01*
X131305820Y-130939502D01*
X131425518Y-130975812D01*
X131550000Y-130988072D01*
X132250000Y-130988072D01*
X132374482Y-130975812D01*
X132494180Y-130939502D01*
X132604494Y-130880537D01*
X132701185Y-130801185D01*
X132780537Y-130704494D01*
X132839502Y-130594180D01*
X132875812Y-130474482D01*
X132888072Y-130350000D01*
X132888072Y-129688072D01*
X133450000Y-129688072D01*
X133574482Y-129675812D01*
X133694180Y-129639502D01*
X133804494Y-129580537D01*
X133901185Y-129501185D01*
X133980537Y-129404494D01*
X134039502Y-129294180D01*
X134075812Y-129174482D01*
X134088072Y-129050000D01*
X134088072Y-128250000D01*
X134075812Y-128125518D01*
X134039502Y-128005820D01*
X133980537Y-127895506D01*
X133901185Y-127798815D01*
X133804494Y-127719463D01*
X133694180Y-127660498D01*
X133574482Y-127624188D01*
X133450000Y-127611928D01*
X132750000Y-127611928D01*
X132625518Y-127624188D01*
X132505820Y-127660498D01*
X132500000Y-127663609D01*
X132494180Y-127660498D01*
X132374482Y-127624188D01*
X132250000Y-127611928D01*
X131550000Y-127611928D01*
X131425518Y-127624188D01*
X131305820Y-127660498D01*
X131195506Y-127719463D01*
X131098815Y-127798815D01*
X131019463Y-127895506D01*
X130960498Y-128005820D01*
X130924188Y-128125518D01*
X130911928Y-128250000D01*
X106039684Y-128250000D01*
X107051065Y-126564367D01*
X107053118Y-126561539D01*
X107067739Y-126536577D01*
X107082624Y-126511768D01*
X107084120Y-126508609D01*
X107528448Y-125750000D01*
X158611928Y-125750000D01*
X158611928Y-126550000D01*
X158624188Y-126674482D01*
X158660498Y-126794180D01*
X158663609Y-126800000D01*
X158660498Y-126805820D01*
X158624188Y-126925518D01*
X158611928Y-127050000D01*
X158611928Y-127850000D01*
X158624188Y-127974482D01*
X158660498Y-128094180D01*
X158719463Y-128204494D01*
X158798815Y-128301185D01*
X158895506Y-128380537D01*
X159005820Y-128439502D01*
X159125518Y-128475812D01*
X159250000Y-128488072D01*
X159950000Y-128488072D01*
X160074482Y-128475812D01*
X160194180Y-128439502D01*
X160304494Y-128380537D01*
X160401185Y-128301185D01*
X160480537Y-128204494D01*
X160539502Y-128094180D01*
X160575812Y-127974482D01*
X160588072Y-127850000D01*
X160588072Y-127188072D01*
X161150000Y-127188072D01*
X161274482Y-127175812D01*
X161394180Y-127139502D01*
X161504494Y-127080537D01*
X161601185Y-127001185D01*
X161680537Y-126904494D01*
X161739502Y-126794180D01*
X161775812Y-126674482D01*
X161788072Y-126550000D01*
X161788072Y-126399276D01*
X161799068Y-126372729D01*
X161835000Y-126192089D01*
X161835000Y-126007911D01*
X161799068Y-125827271D01*
X161788072Y-125800724D01*
X161788072Y-125750000D01*
X161775812Y-125625518D01*
X161739502Y-125505820D01*
X161680537Y-125395506D01*
X161601185Y-125298815D01*
X161504494Y-125219463D01*
X161394180Y-125160498D01*
X161274482Y-125124188D01*
X161150000Y-125111928D01*
X160450000Y-125111928D01*
X160325518Y-125124188D01*
X160205820Y-125160498D01*
X160200000Y-125163609D01*
X160194180Y-125160498D01*
X160074482Y-125124188D01*
X159950000Y-125111928D01*
X159250000Y-125111928D01*
X159125518Y-125124188D01*
X159005820Y-125160498D01*
X158895506Y-125219463D01*
X158798815Y-125298815D01*
X158719463Y-125395506D01*
X158660498Y-125505820D01*
X158624188Y-125625518D01*
X158611928Y-125750000D01*
X107528448Y-125750000D01*
X109113233Y-123044271D01*
X109123976Y-123027417D01*
X109129599Y-123016328D01*
X109135887Y-123005593D01*
X109144253Y-122987431D01*
X110908749Y-119507911D01*
X128665000Y-119507911D01*
X128665000Y-119692089D01*
X128700932Y-119872729D01*
X128771414Y-120042889D01*
X128873738Y-120196028D01*
X129003972Y-120326262D01*
X129157111Y-120428586D01*
X129327271Y-120499068D01*
X129507911Y-120535000D01*
X129692089Y-120535000D01*
X129872729Y-120499068D01*
X130042889Y-120428586D01*
X130108120Y-120385000D01*
X131491880Y-120385000D01*
X131557111Y-120428586D01*
X131727271Y-120499068D01*
X131907911Y-120535000D01*
X132092089Y-120535000D01*
X132272729Y-120499068D01*
X132442889Y-120428586D01*
X132596028Y-120326262D01*
X132726262Y-120196028D01*
X132828586Y-120042889D01*
X132899068Y-119872729D01*
X132935000Y-119692089D01*
X132935000Y-119507911D01*
X132899068Y-119327271D01*
X132828586Y-119157111D01*
X132726262Y-119003972D01*
X132596028Y-118873738D01*
X132442889Y-118771414D01*
X132272729Y-118700932D01*
X132092089Y-118665000D01*
X131907911Y-118665000D01*
X131727271Y-118700932D01*
X131625932Y-118742908D01*
X131635000Y-118650838D01*
X131635000Y-114449162D01*
X131620024Y-114297105D01*
X131560841Y-114102007D01*
X131495869Y-113980452D01*
X131499068Y-113972729D01*
X131535000Y-113792089D01*
X131535000Y-113607911D01*
X131499068Y-113427271D01*
X131487772Y-113400000D01*
X131499068Y-113372729D01*
X131535000Y-113192089D01*
X131535000Y-113007911D01*
X131499068Y-112827271D01*
X131428586Y-112657111D01*
X131326262Y-112503972D01*
X131196028Y-112373738D01*
X131042889Y-112271414D01*
X130872729Y-112200932D01*
X130692089Y-112165000D01*
X130507911Y-112165000D01*
X130327271Y-112200932D01*
X130157111Y-112271414D01*
X130003972Y-112373738D01*
X129873738Y-112503972D01*
X129771414Y-112657111D01*
X129700932Y-112827271D01*
X129665000Y-113007911D01*
X129665000Y-113192089D01*
X129700932Y-113372729D01*
X129712228Y-113400000D01*
X129700932Y-113427271D01*
X129665000Y-113607911D01*
X129665000Y-113792089D01*
X129700932Y-113972729D01*
X129704132Y-113980453D01*
X129639160Y-114102007D01*
X129579977Y-114297105D01*
X129565001Y-114449162D01*
X129565000Y-117349162D01*
X129565000Y-117349163D01*
X129565001Y-118650838D01*
X129566396Y-118665000D01*
X129507911Y-118665000D01*
X129327271Y-118700932D01*
X129157111Y-118771414D01*
X129003972Y-118873738D01*
X128873738Y-119003972D01*
X128771414Y-119157111D01*
X128700932Y-119327271D01*
X128665000Y-119507911D01*
X110908749Y-119507911D01*
X112712998Y-115950000D01*
X117811928Y-115950000D01*
X117811928Y-116750000D01*
X117824188Y-116874482D01*
X117860498Y-116994180D01*
X117863609Y-117000000D01*
X117860498Y-117005820D01*
X117824188Y-117125518D01*
X117811928Y-117250000D01*
X117811928Y-118050000D01*
X117824188Y-118174482D01*
X117860498Y-118294180D01*
X117919463Y-118404494D01*
X117998815Y-118501185D01*
X118095506Y-118580537D01*
X118205820Y-118639502D01*
X118325518Y-118675812D01*
X118450000Y-118688072D01*
X119150000Y-118688072D01*
X119274482Y-118675812D01*
X119394180Y-118639502D01*
X119504494Y-118580537D01*
X119601185Y-118501185D01*
X119680537Y-118404494D01*
X119739502Y-118294180D01*
X119775812Y-118174482D01*
X119788072Y-118050000D01*
X119788072Y-117388072D01*
X120350000Y-117388072D01*
X120474482Y-117375812D01*
X120594180Y-117339502D01*
X120704494Y-117280537D01*
X120801185Y-117201185D01*
X120814468Y-117185000D01*
X121393308Y-117185000D01*
X121427271Y-117199068D01*
X121607911Y-117235000D01*
X121792089Y-117235000D01*
X121972729Y-117199068D01*
X122142889Y-117128586D01*
X122296028Y-117026262D01*
X122426262Y-116896028D01*
X122528586Y-116742889D01*
X122599068Y-116572729D01*
X122635000Y-116392089D01*
X122635000Y-116207911D01*
X122599068Y-116027271D01*
X122528586Y-115857111D01*
X122426262Y-115703972D01*
X122296028Y-115573738D01*
X122142889Y-115471414D01*
X121972729Y-115400932D01*
X121792089Y-115365000D01*
X121607911Y-115365000D01*
X121427271Y-115400932D01*
X121257111Y-115471414D01*
X121103972Y-115573738D01*
X121062710Y-115615000D01*
X120890957Y-115615000D01*
X120880537Y-115595506D01*
X120801185Y-115498815D01*
X120704494Y-115419463D01*
X120594180Y-115360498D01*
X120474482Y-115324188D01*
X120350000Y-115311928D01*
X119650000Y-115311928D01*
X119525518Y-115324188D01*
X119405820Y-115360498D01*
X119400000Y-115363609D01*
X119394180Y-115360498D01*
X119274482Y-115324188D01*
X119150000Y-115311928D01*
X118450000Y-115311928D01*
X118325518Y-115324188D01*
X118205820Y-115360498D01*
X118095506Y-115419463D01*
X117998815Y-115498815D01*
X117919463Y-115595506D01*
X117860498Y-115705820D01*
X117824188Y-115825518D01*
X117811928Y-115950000D01*
X112712998Y-115950000D01*
X113140029Y-115107911D01*
X124265000Y-115107911D01*
X124265000Y-115292089D01*
X124300932Y-115472729D01*
X124371414Y-115642889D01*
X124473738Y-115796028D01*
X124603972Y-115926262D01*
X124757111Y-116028586D01*
X124927271Y-116099068D01*
X125107911Y-116135000D01*
X125292089Y-116135000D01*
X125472729Y-116099068D01*
X125642889Y-116028586D01*
X125796028Y-115926262D01*
X125926262Y-115796028D01*
X126028586Y-115642889D01*
X126099068Y-115472729D01*
X126135000Y-115292089D01*
X126135000Y-115107911D01*
X126099068Y-114927271D01*
X126028586Y-114757111D01*
X125998329Y-114711828D01*
X129460157Y-111250000D01*
X134511928Y-111250000D01*
X134511928Y-112050000D01*
X134524188Y-112174482D01*
X134560498Y-112294180D01*
X134563609Y-112300000D01*
X134560498Y-112305820D01*
X134524188Y-112425518D01*
X134511928Y-112550000D01*
X134511928Y-113350000D01*
X134524188Y-113474482D01*
X134560498Y-113594180D01*
X134619463Y-113704494D01*
X134698815Y-113801185D01*
X134795506Y-113880537D01*
X134905820Y-113939502D01*
X135025518Y-113975812D01*
X135150000Y-113988072D01*
X135850000Y-113988072D01*
X135974482Y-113975812D01*
X136094180Y-113939502D01*
X136204494Y-113880537D01*
X136301185Y-113801185D01*
X136380537Y-113704494D01*
X136439502Y-113594180D01*
X136475812Y-113474482D01*
X136488072Y-113350000D01*
X136488072Y-112688072D01*
X136500724Y-112688072D01*
X136527271Y-112699068D01*
X136707911Y-112735000D01*
X136892089Y-112735000D01*
X137072729Y-112699068D01*
X137114647Y-112681705D01*
X137174482Y-112675812D01*
X137294180Y-112639502D01*
X137404494Y-112580537D01*
X137501185Y-112501185D01*
X137580537Y-112404494D01*
X137639502Y-112294180D01*
X137675812Y-112174482D01*
X137681705Y-112114647D01*
X137699068Y-112072729D01*
X137735000Y-111892089D01*
X137735000Y-111707911D01*
X137699068Y-111527271D01*
X137688072Y-111500724D01*
X137688072Y-111250000D01*
X137675812Y-111125518D01*
X137639502Y-111005820D01*
X137580537Y-110895506D01*
X137501185Y-110798815D01*
X137404494Y-110719463D01*
X137294180Y-110660498D01*
X137174482Y-110624188D01*
X137050000Y-110611928D01*
X136350000Y-110611928D01*
X136225518Y-110624188D01*
X136105820Y-110660498D01*
X136100000Y-110663609D01*
X136094180Y-110660498D01*
X135974482Y-110624188D01*
X135850000Y-110611928D01*
X135150000Y-110611928D01*
X135025518Y-110624188D01*
X134905820Y-110660498D01*
X134795506Y-110719463D01*
X134698815Y-110798815D01*
X134619463Y-110895506D01*
X134560498Y-111005820D01*
X134524188Y-111125518D01*
X134511928Y-111250000D01*
X129460157Y-111250000D01*
X130895785Y-109814373D01*
X130972729Y-109799068D01*
X131142889Y-109728586D01*
X131296028Y-109626262D01*
X131426262Y-109496028D01*
X131528586Y-109342889D01*
X131599068Y-109172729D01*
X131635000Y-108992089D01*
X131635000Y-108807911D01*
X131599068Y-108627271D01*
X131528586Y-108457111D01*
X131426262Y-108303972D01*
X131296028Y-108173738D01*
X131142889Y-108071414D01*
X130972729Y-108000932D01*
X130792089Y-107965000D01*
X130607911Y-107965000D01*
X130427271Y-108000932D01*
X130257111Y-108071414D01*
X130103972Y-108173738D01*
X129973738Y-108303972D01*
X129871414Y-108457111D01*
X129800932Y-108627271D01*
X129785627Y-108704215D01*
X124672185Y-113817658D01*
X124642237Y-113842236D01*
X124617659Y-113872184D01*
X124617655Y-113872188D01*
X124591931Y-113903533D01*
X124544139Y-113961767D01*
X124520557Y-114005886D01*
X124471246Y-114098141D01*
X124426359Y-114246114D01*
X124423774Y-114272363D01*
X124415000Y-114361439D01*
X124415000Y-114361447D01*
X124411203Y-114400000D01*
X124415000Y-114438553D01*
X124415000Y-114691880D01*
X124371414Y-114757111D01*
X124300932Y-114927271D01*
X124265000Y-115107911D01*
X113140029Y-115107911D01*
X114483626Y-112458389D01*
X114509569Y-112411245D01*
X114522769Y-112369567D01*
X114538638Y-112328791D01*
X114542325Y-112307911D01*
X123265000Y-112307911D01*
X123265000Y-112492089D01*
X123300932Y-112672729D01*
X123371414Y-112842889D01*
X123473738Y-112996028D01*
X123603972Y-113126262D01*
X123757111Y-113228586D01*
X123927271Y-113299068D01*
X124107911Y-113335000D01*
X124292089Y-113335000D01*
X124472729Y-113299068D01*
X124642889Y-113228586D01*
X124796028Y-113126262D01*
X124926262Y-112996028D01*
X125028586Y-112842889D01*
X125099068Y-112672729D01*
X125114374Y-112595784D01*
X125875158Y-111835000D01*
X125892089Y-111835000D01*
X126072729Y-111799068D01*
X126242889Y-111728586D01*
X126396028Y-111626262D01*
X126526262Y-111496028D01*
X126628586Y-111342889D01*
X126699068Y-111172729D01*
X126735000Y-110992089D01*
X126735000Y-110807911D01*
X126699068Y-110627271D01*
X126628586Y-110457111D01*
X126526262Y-110303972D01*
X126396028Y-110173738D01*
X126242889Y-110071414D01*
X126072729Y-110000932D01*
X125892089Y-109965000D01*
X125707911Y-109965000D01*
X125527271Y-110000932D01*
X125357111Y-110071414D01*
X125203972Y-110173738D01*
X125073738Y-110303972D01*
X124971414Y-110457111D01*
X124928057Y-110561785D01*
X124004216Y-111485626D01*
X123927271Y-111500932D01*
X123757111Y-111571414D01*
X123603972Y-111673738D01*
X123473738Y-111803972D01*
X123371414Y-111957111D01*
X123300932Y-112127271D01*
X123265000Y-112307911D01*
X114542325Y-112307911D01*
X114542362Y-112307705D01*
X114548823Y-112287304D01*
X114553638Y-112243849D01*
X114561247Y-112200764D01*
X114560785Y-112179353D01*
X114563142Y-112158087D01*
X114559388Y-112114533D01*
X114558445Y-112070786D01*
X114553815Y-112049878D01*
X114551978Y-112028559D01*
X114539797Y-111986568D01*
X114530339Y-111943852D01*
X114521720Y-111924250D01*
X114515758Y-111903697D01*
X114495617Y-111864884D01*
X114478009Y-111824839D01*
X114465734Y-111807300D01*
X114455875Y-111788300D01*
X114428542Y-111754155D01*
X114403467Y-111718324D01*
X114388007Y-111703516D01*
X114374630Y-111686805D01*
X114341171Y-111658656D01*
X114309578Y-111628396D01*
X114291520Y-111616885D01*
X114275145Y-111603109D01*
X114236839Y-111582030D01*
X114199948Y-111558514D01*
X114179993Y-111550748D01*
X114161243Y-111540430D01*
X114119562Y-111527229D01*
X114078791Y-111511362D01*
X114057702Y-111507638D01*
X114037302Y-111501177D01*
X113993845Y-111496361D01*
X113950763Y-111488753D01*
X113929358Y-111489214D01*
X113908085Y-111486857D01*
X113864515Y-111490612D01*
X113820785Y-111491555D01*
X113799885Y-111496183D01*
X113778557Y-111498021D01*
X113736553Y-111510206D01*
X113693851Y-111519661D01*
X113644551Y-111541339D01*
X112187107Y-112124316D01*
X107776896Y-113370680D01*
X108166424Y-113013613D01*
X108186676Y-112999138D01*
X108214214Y-112969806D01*
X108219876Y-112964616D01*
X108236432Y-112946141D01*
X108253365Y-112928105D01*
X108258035Y-112922034D01*
X108284900Y-112892055D01*
X108297582Y-112870623D01*
X109759753Y-110969802D01*
X109766670Y-110961950D01*
X109779502Y-110944128D01*
X109792898Y-110926713D01*
X109798438Y-110917828D01*
X112474189Y-107201507D01*
X112482304Y-107191539D01*
X112493112Y-107175225D01*
X112504555Y-107159332D01*
X112511011Y-107148208D01*
X114988957Y-103407911D01*
X149065000Y-103407911D01*
X149065000Y-103592089D01*
X149100932Y-103772729D01*
X149171414Y-103942889D01*
X149273738Y-104096028D01*
X149403972Y-104226262D01*
X149557111Y-104328586D01*
X149727271Y-104399068D01*
X149804216Y-104414374D01*
X151215000Y-105825158D01*
X151215001Y-108661437D01*
X151211203Y-108700000D01*
X151226359Y-108853886D01*
X151271246Y-109001859D01*
X151271247Y-109001860D01*
X151344139Y-109138233D01*
X151384690Y-109187644D01*
X151417655Y-109227812D01*
X151417659Y-109227816D01*
X151442237Y-109257764D01*
X151472185Y-109282342D01*
X151817653Y-109627810D01*
X151842236Y-109657764D01*
X151961767Y-109755862D01*
X152029526Y-109792080D01*
X152060498Y-109894180D01*
X152119463Y-110004494D01*
X152198815Y-110101185D01*
X152295506Y-110180537D01*
X152405820Y-110239502D01*
X152525518Y-110275812D01*
X152650000Y-110288072D01*
X153350000Y-110288072D01*
X153474482Y-110275812D01*
X153594180Y-110239502D01*
X153704494Y-110180537D01*
X153801185Y-110101185D01*
X153880537Y-110004494D01*
X153939502Y-109894180D01*
X153975812Y-109774482D01*
X153988072Y-109650000D01*
X153988072Y-108988072D01*
X154550000Y-108988072D01*
X154674482Y-108975812D01*
X154794180Y-108939502D01*
X154904494Y-108880537D01*
X155001185Y-108801185D01*
X155080537Y-108704494D01*
X155139502Y-108594180D01*
X155175812Y-108474482D01*
X155181889Y-108412776D01*
X155228586Y-108342889D01*
X155299068Y-108172729D01*
X155335000Y-107992089D01*
X155335000Y-107807911D01*
X155299068Y-107627271D01*
X155228586Y-107457111D01*
X155149484Y-107338726D01*
X155139502Y-107305820D01*
X155080537Y-107195506D01*
X155001185Y-107098815D01*
X154904494Y-107019463D01*
X154794180Y-106960498D01*
X154674482Y-106924188D01*
X154550000Y-106911928D01*
X153850000Y-106911928D01*
X153841045Y-106912810D01*
X153899068Y-106772729D01*
X153935000Y-106592089D01*
X153935000Y-106407911D01*
X153899068Y-106227271D01*
X153828586Y-106057111D01*
X153726262Y-105903972D01*
X153596028Y-105773738D01*
X153442889Y-105671414D01*
X153285000Y-105606015D01*
X153285000Y-104508120D01*
X153328586Y-104442889D01*
X153399068Y-104272729D01*
X153435000Y-104092089D01*
X153435000Y-103907911D01*
X153399068Y-103727271D01*
X153328586Y-103557111D01*
X153226262Y-103403972D01*
X153096028Y-103273738D01*
X152942889Y-103171414D01*
X152772729Y-103100932D01*
X152592089Y-103065000D01*
X152407911Y-103065000D01*
X152227271Y-103100932D01*
X152057111Y-103171414D01*
X151903972Y-103273738D01*
X151773738Y-103403972D01*
X151671414Y-103557111D01*
X151600932Y-103727271D01*
X151565000Y-103907911D01*
X151565000Y-103954842D01*
X150914374Y-103304216D01*
X150899068Y-103227271D01*
X150828586Y-103057111D01*
X150726262Y-102903972D01*
X150596028Y-102773738D01*
X150442889Y-102671414D01*
X150272729Y-102600932D01*
X150092089Y-102565000D01*
X149907911Y-102565000D01*
X149727271Y-102600932D01*
X149557111Y-102671414D01*
X149403972Y-102773738D01*
X149273738Y-102903972D01*
X149171414Y-103057111D01*
X149100932Y-103227271D01*
X149065000Y-103407911D01*
X114988957Y-103407911D01*
X115133587Y-103189603D01*
X115135029Y-103187806D01*
X115151422Y-103162682D01*
X115168113Y-103137488D01*
X115169199Y-103135436D01*
X117704378Y-99250000D01*
X121411928Y-99250000D01*
X121411928Y-100050000D01*
X121424188Y-100174482D01*
X121460498Y-100294180D01*
X121463609Y-100300000D01*
X121460498Y-100305820D01*
X121424188Y-100425518D01*
X121411928Y-100550000D01*
X121411928Y-101350000D01*
X121424188Y-101474482D01*
X121460498Y-101594180D01*
X121519463Y-101704494D01*
X121598815Y-101801185D01*
X121695506Y-101880537D01*
X121805820Y-101939502D01*
X121925518Y-101975812D01*
X122050000Y-101988072D01*
X122750000Y-101988072D01*
X122874482Y-101975812D01*
X122994180Y-101939502D01*
X123104494Y-101880537D01*
X123201185Y-101801185D01*
X123280537Y-101704494D01*
X123339502Y-101594180D01*
X123375812Y-101474482D01*
X123388072Y-101350000D01*
X123388072Y-100688072D01*
X123950000Y-100688072D01*
X124074482Y-100675812D01*
X124194180Y-100639502D01*
X124304494Y-100580537D01*
X124401185Y-100501185D01*
X124455501Y-100435000D01*
X126024843Y-100435000D01*
X126585626Y-100995783D01*
X126600932Y-101072729D01*
X126671414Y-101242889D01*
X126773738Y-101396028D01*
X126903972Y-101526262D01*
X127057111Y-101628586D01*
X127227271Y-101699068D01*
X127407911Y-101735000D01*
X127592089Y-101735000D01*
X127772729Y-101699068D01*
X127942889Y-101628586D01*
X128096028Y-101526262D01*
X128226262Y-101396028D01*
X128328586Y-101242889D01*
X128399068Y-101072729D01*
X128435000Y-100892089D01*
X128435000Y-100707911D01*
X128399068Y-100527271D01*
X128328586Y-100357111D01*
X128226262Y-100203972D01*
X128096028Y-100073738D01*
X127942889Y-99971414D01*
X127772729Y-99900932D01*
X127695783Y-99885626D01*
X126932347Y-99122190D01*
X126907764Y-99092236D01*
X126788233Y-98994138D01*
X126651860Y-98921246D01*
X126503887Y-98876359D01*
X126388561Y-98865000D01*
X126388553Y-98865000D01*
X126350000Y-98861203D01*
X126311447Y-98865000D01*
X124455501Y-98865000D01*
X124401185Y-98798815D01*
X124304494Y-98719463D01*
X124194180Y-98660498D01*
X124074482Y-98624188D01*
X123950000Y-98611928D01*
X123250000Y-98611928D01*
X123125518Y-98624188D01*
X123005820Y-98660498D01*
X123000000Y-98663609D01*
X122994180Y-98660498D01*
X122874482Y-98624188D01*
X122750000Y-98611928D01*
X122050000Y-98611928D01*
X121925518Y-98624188D01*
X121805820Y-98660498D01*
X121695506Y-98719463D01*
X121598815Y-98798815D01*
X121519463Y-98895506D01*
X121460498Y-99005820D01*
X121424188Y-99125518D01*
X121411928Y-99250000D01*
X117704378Y-99250000D01*
X118514819Y-98007911D01*
X127165000Y-98007911D01*
X127165000Y-98192089D01*
X127200932Y-98372729D01*
X127271414Y-98542889D01*
X127373738Y-98696028D01*
X127503972Y-98826262D01*
X127657111Y-98928586D01*
X127827271Y-98999068D01*
X128007911Y-99035000D01*
X128192089Y-99035000D01*
X128372729Y-98999068D01*
X128542889Y-98928586D01*
X128608120Y-98885000D01*
X131491880Y-98885000D01*
X131557111Y-98928586D01*
X131727271Y-98999068D01*
X131907911Y-99035000D01*
X132092089Y-99035000D01*
X132272729Y-98999068D01*
X132442889Y-98928586D01*
X132596028Y-98826262D01*
X132726262Y-98696028D01*
X132828586Y-98542889D01*
X132899068Y-98372729D01*
X132935000Y-98192089D01*
X132935000Y-98007911D01*
X132899068Y-97827271D01*
X132828586Y-97657111D01*
X132726262Y-97503972D01*
X132596028Y-97373738D01*
X132442889Y-97271414D01*
X132272729Y-97200932D01*
X132092089Y-97165000D01*
X131907911Y-97165000D01*
X131727271Y-97200932D01*
X131557111Y-97271414D01*
X131491880Y-97315000D01*
X128608120Y-97315000D01*
X128542889Y-97271414D01*
X128372729Y-97200932D01*
X128192089Y-97165000D01*
X128007911Y-97165000D01*
X127827271Y-97200932D01*
X127657111Y-97271414D01*
X127503972Y-97373738D01*
X127373738Y-97503972D01*
X127271414Y-97657111D01*
X127200932Y-97827271D01*
X127165000Y-98007911D01*
X118514819Y-98007911D01*
X119750987Y-96113351D01*
X120638399Y-94782232D01*
X120665890Y-94745822D01*
X120688519Y-94699020D01*
X120712975Y-94653152D01*
X120716771Y-94640590D01*
X120722483Y-94628777D01*
X120735547Y-94578461D01*
X120750584Y-94528702D01*
X120751856Y-94515643D01*
X120755154Y-94502942D01*
X120758151Y-94451043D01*
X120763192Y-94399307D01*
X120761892Y-94386252D01*
X120762649Y-94373149D01*
X120755460Y-94321643D01*
X120750313Y-94269938D01*
X120746493Y-94257392D01*
X120744678Y-94244388D01*
X120727580Y-94195276D01*
X120712444Y-94145567D01*
X120706247Y-94134003D01*
X120701932Y-94121608D01*
X120675584Y-94076781D01*
X120651038Y-94030974D01*
X120642705Y-94020842D01*
X120636054Y-94009526D01*
X120601470Y-93970704D01*
X120568457Y-93930562D01*
X120558307Y-93922250D01*
X120549577Y-93912450D01*
X120508082Y-93881120D01*
X120467873Y-93848191D01*
X120456297Y-93842019D01*
X120445822Y-93834110D01*
X120399014Y-93811478D01*
X120353151Y-93787025D01*
X120340592Y-93783230D01*
X120328777Y-93777517D01*
X120278457Y-93764452D01*
X120228701Y-93749416D01*
X120215642Y-93748144D01*
X120202941Y-93744846D01*
X120151041Y-93741849D01*
X120099306Y-93736808D01*
X120086251Y-93738108D01*
X120073149Y-93737351D01*
X120021644Y-93744539D01*
X119969937Y-93749687D01*
X119926315Y-93762969D01*
X117071216Y-94452132D01*
X114607128Y-94838655D01*
X114479034Y-94835308D01*
X114791110Y-94616855D01*
X114808364Y-94608032D01*
X114844249Y-94579657D01*
X114855044Y-94572101D01*
X114869675Y-94559553D01*
X114884792Y-94547600D01*
X114894276Y-94538454D01*
X114929003Y-94508672D01*
X114940968Y-94493430D01*
X115762272Y-93701459D01*
X136811202Y-93701459D01*
X136814999Y-93740012D01*
X136815000Y-95761436D01*
X136811202Y-95799999D01*
X136826358Y-95953885D01*
X136871245Y-96101858D01*
X136900746Y-96157050D01*
X136944138Y-96238232D01*
X136949014Y-96244173D01*
X137017654Y-96327811D01*
X137017658Y-96327815D01*
X137042236Y-96357763D01*
X137069696Y-96380299D01*
X137092236Y-96407764D01*
X137211767Y-96505862D01*
X137348140Y-96578754D01*
X137472401Y-96616448D01*
X137519463Y-96704494D01*
X137598815Y-96801185D01*
X137695506Y-96880537D01*
X137805820Y-96939502D01*
X137925518Y-96975812D01*
X138050000Y-96988072D01*
X138750000Y-96988072D01*
X138874482Y-96975812D01*
X138994180Y-96939502D01*
X139104494Y-96880537D01*
X139201185Y-96801185D01*
X139280537Y-96704494D01*
X139339502Y-96594180D01*
X139375812Y-96474482D01*
X139388072Y-96350000D01*
X139388072Y-95688072D01*
X139950000Y-95688072D01*
X140066446Y-95676603D01*
X140285627Y-95895784D01*
X140300932Y-95972729D01*
X140371414Y-96142889D01*
X140473738Y-96296028D01*
X140603972Y-96426262D01*
X140757111Y-96528586D01*
X140927271Y-96599068D01*
X141107911Y-96635000D01*
X141292089Y-96635000D01*
X141472729Y-96599068D01*
X141642889Y-96528586D01*
X141796028Y-96426262D01*
X141926262Y-96296028D01*
X142028586Y-96142889D01*
X142099068Y-95972729D01*
X142135000Y-95792089D01*
X142135000Y-95607911D01*
X142099068Y-95427271D01*
X142028586Y-95257111D01*
X141926262Y-95103972D01*
X141796028Y-94973738D01*
X141642889Y-94871414D01*
X141472729Y-94800932D01*
X141395784Y-94785627D01*
X140732347Y-94122190D01*
X140707764Y-94092236D01*
X140588233Y-93994138D01*
X140511269Y-93953000D01*
X140480537Y-93895506D01*
X140401185Y-93798815D01*
X140304494Y-93719463D01*
X140194180Y-93660498D01*
X140074482Y-93624188D01*
X139950000Y-93611928D01*
X139789651Y-93611928D01*
X139916579Y-93485000D01*
X140723536Y-93485000D01*
X140750932Y-93622729D01*
X140821414Y-93792889D01*
X140923738Y-93946028D01*
X141053972Y-94076262D01*
X141207111Y-94178586D01*
X141377271Y-94249068D01*
X141557911Y-94285000D01*
X141742089Y-94285000D01*
X141922729Y-94249068D01*
X142092889Y-94178586D01*
X142246028Y-94076262D01*
X142376262Y-93946028D01*
X142478586Y-93792889D01*
X142549068Y-93622729D01*
X142576464Y-93485000D01*
X144389449Y-93485000D01*
X144365000Y-93607911D01*
X144365000Y-93792089D01*
X144400932Y-93972729D01*
X144471414Y-94142889D01*
X144573738Y-94296028D01*
X144703972Y-94426262D01*
X144857111Y-94528586D01*
X145027271Y-94599068D01*
X145207911Y-94635000D01*
X145218730Y-94635000D01*
X145226807Y-94637450D01*
X145346113Y-94673642D01*
X145421026Y-94681020D01*
X145461439Y-94685000D01*
X145461444Y-94685000D01*
X145500000Y-94688797D01*
X145538556Y-94685000D01*
X148691880Y-94685000D01*
X148757111Y-94728586D01*
X148927271Y-94799068D01*
X149107911Y-94835000D01*
X149292089Y-94835000D01*
X149472729Y-94799068D01*
X149642889Y-94728586D01*
X149796028Y-94626262D01*
X149926262Y-94496028D01*
X150028586Y-94342889D01*
X150099068Y-94172729D01*
X150135000Y-93992089D01*
X150135000Y-93807911D01*
X150099068Y-93627271D01*
X150028586Y-93457111D01*
X149926262Y-93303972D01*
X149796028Y-93173738D01*
X149642889Y-93071414D01*
X149472729Y-93000932D01*
X149292089Y-92965000D01*
X149107911Y-92965000D01*
X148927271Y-93000932D01*
X148757111Y-93071414D01*
X148691880Y-93115000D01*
X146736578Y-93115000D01*
X146943667Y-92907911D01*
X150815000Y-92907911D01*
X150815000Y-93092089D01*
X150850932Y-93272729D01*
X150921414Y-93442889D01*
X150965000Y-93508121D01*
X150965001Y-94461438D01*
X150961203Y-94500000D01*
X150976359Y-94653886D01*
X151021246Y-94801859D01*
X151042617Y-94841841D01*
X151094139Y-94938233D01*
X151126020Y-94977079D01*
X151167655Y-95027812D01*
X151167659Y-95027816D01*
X151192237Y-95057764D01*
X151222185Y-95082342D01*
X152085627Y-95945784D01*
X152100932Y-96022729D01*
X152171414Y-96192889D01*
X152273738Y-96346028D01*
X152403972Y-96476262D01*
X152557111Y-96578586D01*
X152727271Y-96649068D01*
X152907911Y-96685000D01*
X153092089Y-96685000D01*
X153272729Y-96649068D01*
X153442889Y-96578586D01*
X153596028Y-96476262D01*
X153726262Y-96346028D01*
X153828586Y-96192889D01*
X153899068Y-96022729D01*
X153935000Y-95842089D01*
X153935000Y-95657911D01*
X153899068Y-95477271D01*
X153828586Y-95307111D01*
X153726262Y-95153972D01*
X153596028Y-95023738D01*
X153442889Y-94921414D01*
X153272729Y-94850932D01*
X153195784Y-94835627D01*
X152535000Y-94174843D01*
X152535000Y-93508120D01*
X152578586Y-93442889D01*
X152649068Y-93272729D01*
X152685000Y-93092089D01*
X152685000Y-92907911D01*
X152649068Y-92727271D01*
X152578586Y-92557111D01*
X152476262Y-92403972D01*
X152346028Y-92273738D01*
X152192889Y-92171414D01*
X152022729Y-92100932D01*
X151842089Y-92065000D01*
X151657911Y-92065000D01*
X151477271Y-92100932D01*
X151307111Y-92171414D01*
X151153972Y-92273738D01*
X151023738Y-92403972D01*
X150921414Y-92557111D01*
X150850932Y-92727271D01*
X150815000Y-92907911D01*
X146943667Y-92907911D01*
X148566579Y-91285000D01*
X148856531Y-91285000D01*
X148900000Y-91289281D01*
X148943469Y-91285000D01*
X148943477Y-91285000D01*
X149073490Y-91272195D01*
X149240313Y-91221589D01*
X149394059Y-91139411D01*
X149528817Y-91028817D01*
X149556534Y-90995044D01*
X149959777Y-90591802D01*
X149960498Y-90594180D01*
X150019463Y-90704494D01*
X150098815Y-90801185D01*
X150195506Y-90880537D01*
X150305820Y-90939502D01*
X150425518Y-90975812D01*
X150550000Y-90988072D01*
X151250000Y-90988072D01*
X151374482Y-90975812D01*
X151494180Y-90939502D01*
X151604494Y-90880537D01*
X151701185Y-90801185D01*
X151780537Y-90704494D01*
X151839502Y-90594180D01*
X151875812Y-90474482D01*
X151888072Y-90350000D01*
X151888072Y-89688072D01*
X152450000Y-89688072D01*
X152574482Y-89675812D01*
X152694180Y-89639502D01*
X152804494Y-89580537D01*
X152901185Y-89501185D01*
X152980537Y-89404494D01*
X153039502Y-89294180D01*
X153075812Y-89174482D01*
X153088072Y-89050000D01*
X153088072Y-88250000D01*
X153075812Y-88125518D01*
X153039502Y-88005820D01*
X152980537Y-87895506D01*
X152914049Y-87814490D01*
X152878754Y-87698141D01*
X152878754Y-87698140D01*
X152805862Y-87561767D01*
X152707764Y-87442236D01*
X152677806Y-87417650D01*
X152532348Y-87272191D01*
X152507764Y-87242236D01*
X152388233Y-87144138D01*
X152251860Y-87071246D01*
X152103887Y-87026359D01*
X151988561Y-87015000D01*
X151988553Y-87015000D01*
X151950000Y-87011203D01*
X151911447Y-87015000D01*
X150600450Y-87015000D01*
X150526264Y-86903972D01*
X150396030Y-86773738D01*
X150242891Y-86671414D01*
X150072731Y-86600932D01*
X149892091Y-86565000D01*
X149707913Y-86565000D01*
X149527273Y-86600932D01*
X149357113Y-86671414D01*
X149203974Y-86773738D01*
X149073740Y-86903972D01*
X148971416Y-87057111D01*
X148900934Y-87227271D01*
X148885629Y-87304216D01*
X147774845Y-88415000D01*
X144108120Y-88415000D01*
X144042889Y-88371414D01*
X143872729Y-88300932D01*
X143692089Y-88265000D01*
X143507911Y-88265000D01*
X143327271Y-88300932D01*
X143157111Y-88371414D01*
X143003972Y-88473738D01*
X142873738Y-88603972D01*
X142771414Y-88757111D01*
X142700932Y-88927271D01*
X142665000Y-89107911D01*
X142665000Y-89292089D01*
X142700932Y-89472729D01*
X142771414Y-89642889D01*
X142873738Y-89796028D01*
X143003972Y-89926262D01*
X143157111Y-90028586D01*
X143327271Y-90099068D01*
X143507911Y-90135000D01*
X143692089Y-90135000D01*
X143872729Y-90099068D01*
X144042889Y-90028586D01*
X144108120Y-89985000D01*
X146656301Y-89985000D01*
X145426311Y-91214990D01*
X139340024Y-91214990D01*
X139301468Y-91211193D01*
X139262912Y-91214990D01*
X139262907Y-91214990D01*
X139222494Y-91218970D01*
X139147581Y-91226348D01*
X138999608Y-91271236D01*
X138863235Y-91344128D01*
X138743704Y-91442226D01*
X138719123Y-91472178D01*
X137072189Y-93119112D01*
X137042235Y-93143695D01*
X136944137Y-93263227D01*
X136871245Y-93399600D01*
X136826358Y-93547573D01*
X136814999Y-93662899D01*
X136814999Y-93662906D01*
X136811202Y-93701459D01*
X115762272Y-93701459D01*
X116262664Y-93218940D01*
X116264196Y-93217944D01*
X116309255Y-93174013D01*
X116331466Y-93152595D01*
X116332657Y-93151196D01*
X116333959Y-93149927D01*
X116353633Y-93126565D01*
X116394636Y-93078414D01*
X116395531Y-93076810D01*
X118741403Y-90291087D01*
X118749375Y-90282752D01*
X118762256Y-90266324D01*
X118775723Y-90250332D01*
X118782262Y-90240809D01*
X122210081Y-85869099D01*
X122221367Y-85855988D01*
X122230046Y-85843636D01*
X122239383Y-85831729D01*
X122248692Y-85817102D01*
X127417210Y-78461905D01*
X127434160Y-78443062D01*
X127454491Y-78408852D01*
X127458645Y-78402940D01*
X127471052Y-78380985D01*
X127500579Y-78331300D01*
X127503003Y-78324443D01*
X127506580Y-78318114D01*
X127524651Y-78263216D01*
X127543917Y-78208728D01*
X127544957Y-78201533D01*
X127547231Y-78194624D01*
X127554245Y-78137259D01*
X127562511Y-78080056D01*
X127562127Y-78072792D01*
X127563009Y-78065577D01*
X127558699Y-78007982D01*
X127555645Y-77950228D01*
X127553850Y-77943174D01*
X127553308Y-77935931D01*
X127537848Y-77880292D01*
X127523582Y-77824235D01*
X127520447Y-77817670D01*
X127518501Y-77810668D01*
X127492467Y-77759082D01*
X127467555Y-77706919D01*
X127463202Y-77701096D01*
X127459926Y-77694604D01*
X127424319Y-77649076D01*
X127389718Y-77602786D01*
X127384313Y-77597924D01*
X127379833Y-77592196D01*
X127336036Y-77554497D01*
X127293061Y-77515840D01*
X127286808Y-77512124D01*
X127281299Y-77507382D01*
X127230999Y-77478957D01*
X127181299Y-77449421D01*
X127174442Y-77446997D01*
X127168113Y-77443420D01*
X127113215Y-77425349D01*
X127058727Y-77406083D01*
X127051532Y-77405043D01*
X127044623Y-77402769D01*
X126987258Y-77395755D01*
X126930055Y-77387489D01*
X126922791Y-77387873D01*
X126915576Y-77386991D01*
X126857967Y-77391302D01*
X126832758Y-77392635D01*
X126825608Y-77393723D01*
X126785930Y-77396692D01*
X126761514Y-77403476D01*
X123014404Y-77973689D01*
X123440285Y-77632985D01*
X123470852Y-77612550D01*
X123513778Y-77569603D01*
X123557364Y-77527091D01*
X123578184Y-77496758D01*
X128818709Y-71107911D01*
X134165000Y-71107911D01*
X134165000Y-71292089D01*
X134200932Y-71472729D01*
X134271414Y-71642889D01*
X134373738Y-71796028D01*
X134503972Y-71926262D01*
X134657111Y-72028586D01*
X134827271Y-72099068D01*
X135007911Y-72135000D01*
X135192089Y-72135000D01*
X135372729Y-72099068D01*
X135542889Y-72028586D01*
X135696028Y-71926262D01*
X135826262Y-71796028D01*
X135928586Y-71642889D01*
X135999068Y-71472729D01*
X136035000Y-71292089D01*
X136035000Y-71107911D01*
X136034744Y-71106624D01*
X136072729Y-71099068D01*
X136242889Y-71028586D01*
X136396028Y-70926262D01*
X136526262Y-70796028D01*
X136628586Y-70642889D01*
X136699068Y-70472729D01*
X136735000Y-70292089D01*
X136735000Y-70107911D01*
X136699068Y-69927271D01*
X136635000Y-69772596D01*
X136635000Y-69555501D01*
X136701185Y-69501185D01*
X136780537Y-69404494D01*
X136839502Y-69294180D01*
X136875812Y-69174482D01*
X136888072Y-69050000D01*
X136888072Y-68388072D01*
X137450000Y-68388072D01*
X137574482Y-68375812D01*
X137694180Y-68339502D01*
X137804494Y-68280537D01*
X137901185Y-68201185D01*
X137980537Y-68104494D01*
X138039502Y-67994180D01*
X138075812Y-67874482D01*
X138088072Y-67750000D01*
X138088072Y-66950000D01*
X138075812Y-66825518D01*
X138039502Y-66705820D01*
X137980537Y-66595506D01*
X137919825Y-66521528D01*
X137878754Y-66386138D01*
X137862925Y-66356524D01*
X137805862Y-66249765D01*
X137707764Y-66130234D01*
X137677815Y-66105655D01*
X136794348Y-65222189D01*
X136769765Y-65192235D01*
X136650234Y-65094137D01*
X136513861Y-65021245D01*
X136365888Y-64976358D01*
X136250562Y-64964999D01*
X136250554Y-64964999D01*
X136212001Y-64961202D01*
X136173448Y-64964999D01*
X135626555Y-64964999D01*
X135587999Y-64961202D01*
X135549443Y-64964999D01*
X135549438Y-64964999D01*
X135509025Y-64968979D01*
X135434112Y-64976357D01*
X135286139Y-65021245D01*
X135149766Y-65094137D01*
X135030235Y-65192235D01*
X135005648Y-65222194D01*
X134572190Y-65655651D01*
X134542236Y-65680234D01*
X134444138Y-65799766D01*
X134371246Y-65936139D01*
X134326359Y-66084112D01*
X134315000Y-66199438D01*
X134315000Y-66199445D01*
X134311203Y-66237998D01*
X134315000Y-66276551D01*
X134315001Y-70691878D01*
X134271414Y-70757111D01*
X134200932Y-70927271D01*
X134165000Y-71107911D01*
X128818709Y-71107911D01*
X136069902Y-62267813D01*
X136070909Y-62266979D01*
X136110949Y-62217771D01*
X136130851Y-62193508D01*
X136131581Y-62192415D01*
X136152963Y-62166137D01*
X136167588Y-62138498D01*
X136184962Y-62112482D01*
X136197922Y-62081170D01*
X136213768Y-62051224D01*
X136222723Y-62021253D01*
X136234683Y-61992357D01*
X136241284Y-61959127D01*
X136250986Y-61926656D01*
X136253922Y-61895514D01*
X136260015Y-61864841D01*
X136260006Y-61830963D01*
X136263187Y-61797221D01*
X136259990Y-61766098D01*
X136259982Y-61734832D01*
X136253366Y-61701612D01*
X136249902Y-61667894D01*
X136240695Y-61637993D01*
X136234587Y-61607327D01*
X136221617Y-61576036D01*
X136211642Y-61543643D01*
X136196778Y-61516112D01*
X136184805Y-61487228D01*
X136165978Y-61459066D01*
X136149876Y-61429243D01*
X136129930Y-61405145D01*
X136112550Y-61379148D01*
X136088588Y-61355198D01*
X136066979Y-61329091D01*
X136042715Y-61309347D01*
X136020597Y-61287241D01*
X135992420Y-61268424D01*
X135966136Y-61247037D01*
X135938492Y-61232409D01*
X135912480Y-61215038D01*
X135881176Y-61202081D01*
X135851224Y-61186232D01*
X135821246Y-61177275D01*
X135792355Y-61165317D01*
X135759131Y-61158717D01*
X135726656Y-61149014D01*
X135695510Y-61146078D01*
X135664839Y-61139985D01*
X135630963Y-61139994D01*
X135597221Y-61136813D01*
X135566100Y-61140010D01*
X135534830Y-61140018D01*
X135501602Y-61146636D01*
X135467893Y-61150099D01*
X135437999Y-61159304D01*
X135407326Y-61165413D01*
X135376032Y-61178384D01*
X135343642Y-61188358D01*
X135316112Y-61203222D01*
X135287227Y-61215195D01*
X135259061Y-61234025D01*
X135257907Y-61234648D01*
X135231986Y-61252125D01*
X135179147Y-61287450D01*
X135178220Y-61288378D01*
X134247420Y-61915976D01*
X134287305Y-61726522D01*
X136120699Y-56424544D01*
X136140354Y-56372542D01*
X136147252Y-56331126D01*
X136157017Y-56290294D01*
X136157906Y-56267154D01*
X136161712Y-56244300D01*
X136160396Y-56202319D01*
X136162007Y-56160381D01*
X136158365Y-56137514D01*
X136157639Y-56114355D01*
X136148160Y-56073440D01*
X136141558Y-56031992D01*
X136133526Y-56010277D01*
X136128295Y-55987701D01*
X136111013Y-55949418D01*
X136096454Y-55910058D01*
X136084338Y-55890325D01*
X136074805Y-55869207D01*
X136050390Y-55835035D01*
X136028428Y-55799266D01*
X136012696Y-55782277D01*
X135999226Y-55763424D01*
X135968611Y-55734670D01*
X135940095Y-55703875D01*
X135895118Y-55671257D01*
X131527298Y-52310000D01*
X137139424Y-52310000D01*
X137193737Y-52311748D01*
X137236359Y-52304687D01*
X137279383Y-52300450D01*
X137300369Y-52294084D01*
X137321997Y-52290501D01*
X137362430Y-52275257D01*
X137403793Y-52262710D01*
X137423135Y-52252371D01*
X137443648Y-52244638D01*
X137480322Y-52221805D01*
X137518450Y-52201425D01*
X137535407Y-52187509D01*
X137554014Y-52175924D01*
X137585530Y-52146374D01*
X137618948Y-52118948D01*
X137632863Y-52101993D01*
X137648854Y-52086999D01*
X137674002Y-52051865D01*
X137701425Y-52018450D01*
X137711763Y-51999109D01*
X137724523Y-51981282D01*
X137742336Y-51941910D01*
X137762710Y-51903793D01*
X137778495Y-51851757D01*
X139596278Y-46487081D01*
X141369197Y-51894489D01*
G37*
X141369197Y-51894489D02*
X141383948Y-51945567D01*
X141404328Y-51984956D01*
X141422232Y-52025592D01*
X141434155Y-52042602D01*
X141443692Y-52061034D01*
X141471373Y-52095700D01*
X141496854Y-52132052D01*
X141511865Y-52146408D01*
X141524816Y-52162627D01*
X141558724Y-52191223D01*
X141590810Y-52221909D01*
X141608335Y-52233062D01*
X141624201Y-52246442D01*
X141663041Y-52267876D01*
X141700492Y-52291709D01*
X141719854Y-52299228D01*
X141738028Y-52309257D01*
X141780305Y-52322702D01*
X141821684Y-52338771D01*
X141842137Y-52342367D01*
X141861921Y-52348659D01*
X141906019Y-52353599D01*
X141949728Y-52361284D01*
X142002937Y-52360098D01*
X147751222Y-52437060D01*
X143129244Y-55603971D01*
X143077821Y-55638543D01*
X143052794Y-55663712D01*
X143025613Y-55686555D01*
X143007066Y-55709700D01*
X142986152Y-55730733D01*
X142966512Y-55760308D01*
X142944315Y-55788008D01*
X142930639Y-55814328D01*
X142914231Y-55839036D01*
X142900741Y-55871868D01*
X142884371Y-55903372D01*
X142876092Y-55931857D01*
X142864820Y-55959290D01*
X142857993Y-55994127D01*
X142848086Y-56028214D01*
X142845524Y-56057761D01*
X142839819Y-56086871D01*
X142839920Y-56122375D01*
X142836853Y-56157736D01*
X142840104Y-56187213D01*
X142840188Y-56216878D01*
X142847213Y-56251678D01*
X142851104Y-56286960D01*
X142869804Y-56346114D01*
X144533715Y-61775723D01*
X143433734Y-61062223D01*
X143405612Y-61040211D01*
X143350404Y-61012322D01*
X143295421Y-60983889D01*
X143292385Y-60983013D01*
X143289570Y-60981591D01*
X143229985Y-60965009D01*
X143170508Y-60947849D01*
X143167362Y-60947582D01*
X143164321Y-60946736D01*
X143102659Y-60942098D01*
X143040966Y-60936869D01*
X143037825Y-60937222D01*
X143034679Y-60936985D01*
X142973250Y-60944472D01*
X142911769Y-60951374D01*
X142908763Y-60952331D01*
X142905626Y-60952713D01*
X142846778Y-60972060D01*
X142787883Y-60990805D01*
X142785123Y-60992329D01*
X142782121Y-60993316D01*
X142728216Y-61023751D01*
X142674072Y-61053647D01*
X142671659Y-61055683D01*
X142668910Y-61057235D01*
X142622000Y-61097582D01*
X142574707Y-61137484D01*
X142572738Y-61139951D01*
X142570343Y-61142011D01*
X142532207Y-61190734D01*
X142493607Y-61239097D01*
X142492156Y-61241903D01*
X142490211Y-61244388D01*
X142462332Y-61299576D01*
X142433889Y-61354579D01*
X142433013Y-61357615D01*
X142431591Y-61360430D01*
X142415009Y-61420015D01*
X142397849Y-61479492D01*
X142397582Y-61482638D01*
X142396736Y-61485679D01*
X142392098Y-61547341D01*
X142386869Y-61609034D01*
X142387222Y-61612175D01*
X142386985Y-61615321D01*
X142394472Y-61676750D01*
X142401374Y-61738231D01*
X142402331Y-61741237D01*
X142402713Y-61744374D01*
X142422060Y-61803222D01*
X142440805Y-61862117D01*
X142442329Y-61864877D01*
X142443316Y-61867879D01*
X142473750Y-61921782D01*
X142503647Y-61975928D01*
X142526676Y-62003222D01*
X144142122Y-64304012D01*
X144142895Y-64305365D01*
X144160658Y-64330411D01*
X144178476Y-64355788D01*
X144179502Y-64356981D01*
X149152058Y-71368285D01*
X149160545Y-71381626D01*
X149170787Y-71394693D01*
X149180403Y-71408252D01*
X149190784Y-71420207D01*
X151301104Y-74112685D01*
X151272729Y-74100932D01*
X151092089Y-74065000D01*
X150907911Y-74065000D01*
X150727271Y-74100932D01*
X150700000Y-74112228D01*
X150672729Y-74100932D01*
X150492089Y-74065000D01*
X150307911Y-74065000D01*
X150127271Y-74100932D01*
X150093308Y-74115000D01*
X146193469Y-74115000D01*
X146150000Y-74110719D01*
X146106531Y-74115000D01*
X146106523Y-74115000D01*
X145976510Y-74127805D01*
X145809686Y-74178411D01*
X145655941Y-74260589D01*
X145554953Y-74343468D01*
X145554951Y-74343470D01*
X145521183Y-74371183D01*
X145493470Y-74404951D01*
X144331652Y-75566770D01*
X144172729Y-75500942D01*
X143992089Y-75465010D01*
X143807911Y-75465010D01*
X143627271Y-75500942D01*
X143457111Y-75571424D01*
X143303972Y-75673748D01*
X143173738Y-75803982D01*
X143071414Y-75957121D01*
X143000932Y-76127281D01*
X142965000Y-76307921D01*
X142965000Y-76492099D01*
X142981092Y-76573000D01*
X129700000Y-76573000D01*
X129675224Y-76575440D01*
X129651399Y-76582667D01*
X129629443Y-76594403D01*
X129610197Y-76610197D01*
X129594403Y-76629443D01*
X129582667Y-76651399D01*
X129575440Y-76675224D01*
X129573000Y-76700000D01*
X129573000Y-79404988D01*
X129499776Y-79444127D01*
X129439568Y-79493539D01*
X129410196Y-79517644D01*
X129410193Y-79517647D01*
X129380245Y-79542225D01*
X129355667Y-79572173D01*
X127822189Y-81105652D01*
X127792235Y-81130235D01*
X127694137Y-81249767D01*
X127621245Y-81386140D01*
X127576358Y-81534113D01*
X127564999Y-81649439D01*
X127564999Y-81649446D01*
X127561202Y-81687999D01*
X127564999Y-81726552D01*
X127564999Y-82273448D01*
X127561202Y-82312001D01*
X127564999Y-82350554D01*
X127564999Y-82350562D01*
X127576358Y-82465888D01*
X127621245Y-82613861D01*
X127694138Y-82750234D01*
X127734689Y-82799645D01*
X127767654Y-82839813D01*
X127767658Y-82839817D01*
X127792236Y-82869765D01*
X127822184Y-82894343D01*
X128305655Y-83377815D01*
X128330234Y-83407764D01*
X128360182Y-83432342D01*
X128360185Y-83432345D01*
X128377751Y-83446761D01*
X128449765Y-83505862D01*
X128586138Y-83578754D01*
X128675762Y-83605941D01*
X128734110Y-83623641D01*
X128748488Y-83625057D01*
X128849437Y-83635000D01*
X128849444Y-83635000D01*
X128887997Y-83638797D01*
X128926550Y-83635000D01*
X129982317Y-83635000D01*
X130019463Y-83704494D01*
X130098815Y-83801185D01*
X130195506Y-83880537D01*
X130305820Y-83939502D01*
X130425518Y-83975812D01*
X130550000Y-83988072D01*
X131250000Y-83988072D01*
X131374482Y-83975812D01*
X131494180Y-83939502D01*
X131604494Y-83880537D01*
X131701185Y-83801185D01*
X131780537Y-83704494D01*
X131839502Y-83594180D01*
X131875812Y-83474482D01*
X131888072Y-83350000D01*
X131888072Y-82727000D01*
X132816843Y-82727000D01*
X132915000Y-82825157D01*
X132915000Y-83361447D01*
X132911203Y-83400000D01*
X132915000Y-83438553D01*
X132915000Y-83438561D01*
X132920393Y-83493308D01*
X132926359Y-83553886D01*
X132971246Y-83701859D01*
X132975431Y-83709688D01*
X133044139Y-83838233D01*
X133078858Y-83880537D01*
X133117655Y-83927812D01*
X133117659Y-83927816D01*
X133142237Y-83957764D01*
X133172185Y-83982342D01*
X134087026Y-84897183D01*
X134065000Y-85007911D01*
X134065000Y-85192089D01*
X134100932Y-85372729D01*
X134171414Y-85542889D01*
X134273738Y-85696028D01*
X134403972Y-85826262D01*
X134557111Y-85928586D01*
X134727271Y-85999068D01*
X134907911Y-86035000D01*
X135092089Y-86035000D01*
X135272729Y-85999068D01*
X135442889Y-85928586D01*
X135596028Y-85826262D01*
X135726262Y-85696028D01*
X135828586Y-85542889D01*
X135899068Y-85372729D01*
X135935000Y-85192089D01*
X135935000Y-85026464D01*
X136072729Y-84999068D01*
X136242889Y-84928586D01*
X136396028Y-84826262D01*
X136526262Y-84696028D01*
X136628586Y-84542889D01*
X136699068Y-84372729D01*
X136716519Y-84285000D01*
X142061447Y-84285000D01*
X142100000Y-84288797D01*
X142138553Y-84285000D01*
X142138561Y-84285000D01*
X142253887Y-84273641D01*
X142401860Y-84228754D01*
X142538233Y-84155862D01*
X142657764Y-84057764D01*
X142682347Y-84027810D01*
X142925156Y-83785000D01*
X143661447Y-83785000D01*
X143700000Y-83788797D01*
X143738553Y-83785000D01*
X143738561Y-83785000D01*
X143853887Y-83773641D01*
X144001860Y-83728754D01*
X144138233Y-83655862D01*
X144257764Y-83557764D01*
X144282347Y-83527810D01*
X144515326Y-83294831D01*
X144588233Y-83255862D01*
X144707764Y-83157764D01*
X144732347Y-83127810D01*
X145133157Y-82727000D01*
X147800000Y-82727000D01*
X147822662Y-82724962D01*
X147846605Y-82718139D01*
X147868758Y-82706777D01*
X147888268Y-82691312D01*
X147904386Y-82672337D01*
X147916492Y-82650582D01*
X147924122Y-82626884D01*
X147926982Y-82602152D01*
X147969778Y-80077211D01*
X148046028Y-80026262D01*
X148176262Y-79896028D01*
X148278586Y-79742889D01*
X148349068Y-79572729D01*
X148385000Y-79392089D01*
X148385000Y-79207911D01*
X148349068Y-79027271D01*
X148278586Y-78857111D01*
X148176262Y-78703972D01*
X148046028Y-78573738D01*
X147995829Y-78540196D01*
X148026982Y-76702152D01*
X148024560Y-76675224D01*
X148017333Y-76651399D01*
X148005597Y-76629443D01*
X147989803Y-76610197D01*
X147970557Y-76594403D01*
X147948601Y-76582667D01*
X147924776Y-76575440D01*
X147900000Y-76573000D01*
X147080488Y-76573000D01*
X147075812Y-76525518D01*
X147039502Y-76405820D01*
X146980537Y-76295506D01*
X146901185Y-76198815D01*
X146804494Y-76119463D01*
X146694180Y-76060498D01*
X146574482Y-76024188D01*
X146450000Y-76011928D01*
X146389651Y-76011928D01*
X146516579Y-75885000D01*
X150093308Y-75885000D01*
X150127271Y-75899068D01*
X150307911Y-75935000D01*
X150492089Y-75935000D01*
X150672729Y-75899068D01*
X150700000Y-75887772D01*
X150727271Y-75899068D01*
X150907911Y-75935000D01*
X151092089Y-75935000D01*
X151272729Y-75899068D01*
X151442889Y-75828586D01*
X151596028Y-75726262D01*
X151726262Y-75596028D01*
X151828586Y-75442889D01*
X151899068Y-75272729D01*
X151935000Y-75092089D01*
X151935000Y-74921449D01*
X152070948Y-75094900D01*
X152080688Y-75108614D01*
X152090911Y-75120371D01*
X152100541Y-75132657D01*
X152112188Y-75144839D01*
X154081964Y-77410083D01*
X154102108Y-77438096D01*
X154148144Y-77481071D01*
X154194065Y-77524444D01*
X154223296Y-77542792D01*
X154404521Y-77681375D01*
X150670736Y-76861765D01*
X150637303Y-76851176D01*
X150575207Y-76844295D01*
X150513087Y-76836936D01*
X150510578Y-76837133D01*
X150508086Y-76836857D01*
X150445837Y-76842222D01*
X150383479Y-76847124D01*
X150381063Y-76847805D01*
X150378559Y-76848021D01*
X150318484Y-76865448D01*
X150258349Y-76882401D01*
X150256112Y-76883540D01*
X150253697Y-76884241D01*
X150198138Y-76913072D01*
X150142504Y-76941412D01*
X150140534Y-76942965D01*
X150138300Y-76944124D01*
X150089443Y-76983234D01*
X150040398Y-77021890D01*
X150038767Y-77023800D01*
X150036805Y-77025370D01*
X149996522Y-77073251D01*
X149955955Y-77120740D01*
X149954729Y-77122928D01*
X149953109Y-77124854D01*
X149922946Y-77179666D01*
X149892418Y-77234165D01*
X149891641Y-77236555D01*
X149890430Y-77238756D01*
X149871558Y-77298343D01*
X149852230Y-77357807D01*
X149851934Y-77360302D01*
X149851176Y-77362697D01*
X149844297Y-77424775D01*
X149836936Y-77486913D01*
X149837133Y-77489422D01*
X149836857Y-77491914D01*
X149842222Y-77554163D01*
X149847124Y-77616521D01*
X149847805Y-77618937D01*
X149848021Y-77621441D01*
X149865438Y-77681481D01*
X149882401Y-77741651D01*
X149898319Y-77772901D01*
X150071276Y-78205291D01*
X150076760Y-78226707D01*
X150095364Y-78265513D01*
X150099246Y-78275217D01*
X150109369Y-78294725D01*
X150118881Y-78314565D01*
X150124306Y-78323510D01*
X150144124Y-78361699D01*
X150157937Y-78378955D01*
X151978085Y-81379740D01*
X151986580Y-81395265D01*
X151994866Y-81407406D01*
X152002506Y-81420002D01*
X152013147Y-81434194D01*
X159198878Y-91963287D01*
X159210545Y-91981626D01*
X159217110Y-91990003D01*
X159223128Y-91998820D01*
X159237122Y-92015535D01*
X160677089Y-93852736D01*
X160712788Y-93899942D01*
X160741393Y-93925385D01*
X160767873Y-93953082D01*
X160816437Y-93987132D01*
X160964512Y-94094823D01*
X160291624Y-94044979D01*
X158912889Y-93759723D01*
X157311801Y-93274546D01*
X155752890Y-92689954D01*
X155714306Y-92672388D01*
X155660579Y-92659759D01*
X155607243Y-92645536D01*
X155597375Y-92644901D01*
X155587747Y-92642638D01*
X155532576Y-92640733D01*
X155477504Y-92637190D01*
X155467702Y-92638492D01*
X155457817Y-92638151D01*
X155403336Y-92647045D01*
X155348628Y-92654314D01*
X155339269Y-92657504D01*
X155329508Y-92659097D01*
X155277816Y-92678447D01*
X155225569Y-92696252D01*
X155217010Y-92701208D01*
X155207749Y-92704674D01*
X155160820Y-92733739D01*
X155113057Y-92761392D01*
X155105632Y-92767919D01*
X155097222Y-92773128D01*
X155056858Y-92810797D01*
X155015415Y-92847230D01*
X155009405Y-92855082D01*
X155002174Y-92861830D01*
X154969943Y-92906638D01*
X154936395Y-92950467D01*
X154932031Y-92959342D01*
X154926257Y-92967370D01*
X154903385Y-93017608D01*
X154879034Y-93067138D01*
X154876486Y-93076692D01*
X154872388Y-93085694D01*
X154859756Y-93139430D01*
X154845536Y-93192757D01*
X154844901Y-93202625D01*
X154842638Y-93212253D01*
X154840733Y-93267424D01*
X154837190Y-93322496D01*
X154838492Y-93332298D01*
X154838151Y-93342183D01*
X154847045Y-93396664D01*
X154854314Y-93451372D01*
X154857504Y-93460731D01*
X154859097Y-93470492D01*
X154878446Y-93522182D01*
X154896252Y-93574431D01*
X154917497Y-93611127D01*
X156248671Y-96322780D01*
X156253391Y-96334092D01*
X156262930Y-96351826D01*
X156271825Y-96369946D01*
X156278296Y-96380394D01*
X159811625Y-102949401D01*
X159819142Y-102965047D01*
X159826964Y-102977919D01*
X159834104Y-102991193D01*
X159843792Y-103005610D01*
X163762239Y-109453689D01*
X163769882Y-109471383D01*
X163795910Y-109509097D01*
X163802813Y-109520456D01*
X163814348Y-109535812D01*
X163825225Y-109551573D01*
X163833786Y-109561691D01*
X163861330Y-109598360D01*
X163875701Y-109611226D01*
X164922331Y-110848154D01*
X164923477Y-110849864D01*
X161095931Y-109684959D01*
X161088072Y-109681013D01*
X161033836Y-109666061D01*
X161011152Y-109659157D01*
X161002578Y-109657443D01*
X160962738Y-109646460D01*
X160938971Y-109644730D01*
X160915608Y-109640061D01*
X160874287Y-109640023D01*
X160833074Y-109637024D01*
X160809428Y-109639964D01*
X160785601Y-109639942D01*
X160745072Y-109647965D01*
X160704059Y-109653064D01*
X160681437Y-109660562D01*
X160658068Y-109665188D01*
X160619884Y-109680964D01*
X160580652Y-109693967D01*
X160559925Y-109705736D01*
X160537910Y-109714831D01*
X160503540Y-109737750D01*
X160467596Y-109758159D01*
X160449567Y-109773742D01*
X160429745Y-109786960D01*
X160400501Y-109816151D01*
X160369236Y-109843174D01*
X160354592Y-109861976D01*
X160337732Y-109878806D01*
X160314744Y-109913141D01*
X160289352Y-109945744D01*
X160278662Y-109967033D01*
X160265403Y-109986837D01*
X160249550Y-110025012D01*
X160231013Y-110061928D01*
X160224682Y-110084893D01*
X160215541Y-110106904D01*
X160207442Y-110147427D01*
X160196460Y-110187262D01*
X160194730Y-110211029D01*
X160190061Y-110234392D01*
X160190023Y-110275713D01*
X160187024Y-110316926D01*
X160189964Y-110340572D01*
X160189942Y-110364399D01*
X160197965Y-110404928D01*
X160203064Y-110445941D01*
X160210562Y-110468562D01*
X160215188Y-110491932D01*
X160230964Y-110530116D01*
X160233718Y-110538426D01*
X160243359Y-110560118D01*
X160264831Y-110612090D01*
X160269708Y-110619404D01*
X160842235Y-111907590D01*
X160850073Y-111927017D01*
X160855390Y-111937188D01*
X160860051Y-111947676D01*
X160870398Y-111965899D01*
X165458310Y-120742775D01*
X165465824Y-120758851D01*
X165473306Y-120771463D01*
X165480109Y-120784478D01*
X165489845Y-120799343D01*
X170700520Y-129583054D01*
X170701399Y-129585485D01*
X170733606Y-129638827D01*
X170748904Y-129664615D01*
X170750433Y-129666697D01*
X170751760Y-129668894D01*
X170769602Y-129692790D01*
X170806589Y-129743137D01*
X170808500Y-129744884D01*
X173547432Y-133413098D01*
X173560049Y-133435067D01*
X173586222Y-133465049D01*
X173590551Y-133470847D01*
X173607559Y-133489491D01*
X173645546Y-133533007D01*
X173651306Y-133537448D01*
X173656215Y-133542829D01*
X173702778Y-133577130D01*
X173722710Y-133592496D01*
X173728832Y-133596322D01*
X173760889Y-133619937D01*
X173783835Y-133630699D01*
X174646346Y-134169769D01*
X154261643Y-132542821D01*
X154206214Y-132536837D01*
X154164580Y-132540544D01*
X154122777Y-132541319D01*
X154099969Y-132546297D01*
X154076719Y-132548367D01*
X154036602Y-132560127D01*
X153995759Y-132569041D01*
X153974362Y-132578372D01*
X153951960Y-132584939D01*
X153914912Y-132604298D01*
X153876589Y-132621010D01*
X153857419Y-132634340D01*
X153836734Y-132645148D01*
X153804173Y-132671363D01*
X153769848Y-132695230D01*
X153753653Y-132712036D01*
X153735467Y-132726678D01*
X153708641Y-132758748D01*
X153679637Y-132788847D01*
X153667031Y-132808492D01*
X153652052Y-132826399D01*
X153632000Y-132863084D01*
X153609424Y-132898265D01*
X153600891Y-132919995D01*
X153589695Y-132940478D01*
X153577188Y-132980361D01*
X153561906Y-133019278D01*
X153557776Y-133042259D01*
X153550792Y-133064529D01*
X153546305Y-133106086D01*
X153538910Y-133147237D01*
X153539343Y-133170578D01*
X153536837Y-133193786D01*
X153540544Y-133235424D01*
X153541319Y-133277223D01*
X153546297Y-133300031D01*
X153548367Y-133323281D01*
X153560127Y-133363398D01*
X153569041Y-133404241D01*
X153578372Y-133425638D01*
X153584939Y-133448040D01*
X153604298Y-133485088D01*
X153621010Y-133523411D01*
X153634340Y-133542581D01*
X153645148Y-133563266D01*
X153671363Y-133595827D01*
X153695230Y-133630152D01*
X153712036Y-133646347D01*
X153726678Y-133664533D01*
X153758746Y-133691357D01*
X153788847Y-133720363D01*
X153835796Y-133750490D01*
X157436841Y-136205748D01*
X144773045Y-134844050D01*
X144711144Y-134836901D01*
X144676079Y-134839761D01*
X144640899Y-134839446D01*
X144611447Y-134845031D01*
X144581566Y-134847468D01*
X144547729Y-134857115D01*
X144513167Y-134863669D01*
X144485370Y-134874893D01*
X144456540Y-134883112D01*
X144425240Y-134899172D01*
X144392615Y-134912345D01*
X144367541Y-134928777D01*
X144340869Y-134942462D01*
X144313300Y-134964322D01*
X144283876Y-134983605D01*
X144262488Y-135004613D01*
X144238999Y-135023239D01*
X144216229Y-135050052D01*
X144191127Y-135074709D01*
X144174249Y-135099487D01*
X144154845Y-135122336D01*
X144137742Y-135153080D01*
X144117935Y-135182157D01*
X144106215Y-135209752D01*
X144091642Y-135235947D01*
X144080867Y-135269432D01*
X144067111Y-135301819D01*
X144060999Y-135331174D01*
X144051817Y-135359706D01*
X144047781Y-135394650D01*
X144040608Y-135429098D01*
X144040051Y-135491430D01*
X144030411Y-136065000D01*
X142193164Y-136065000D01*
X142144201Y-136032284D01*
X141896697Y-135929764D01*
X141633948Y-135877500D01*
X141366052Y-135877500D01*
X141103303Y-135929764D01*
X140855799Y-136032284D01*
X140633051Y-136181119D01*
X140443619Y-136370551D01*
X140294784Y-136593299D01*
X140192264Y-136840803D01*
X140140000Y-137103552D01*
X140140000Y-137371448D01*
X140192264Y-137634197D01*
X140287866Y-137865000D01*
X137935000Y-137865000D01*
X137935000Y-136600000D01*
X137922799Y-136476118D01*
X137886664Y-136356996D01*
X137827983Y-136247213D01*
X137749013Y-136150987D01*
X137652787Y-136072017D01*
X137543004Y-136013336D01*
X137423882Y-135977201D01*
X137300000Y-135965000D01*
X136981764Y-135965000D01*
X136896697Y-135929764D01*
X136633948Y-135877500D01*
X136366052Y-135877500D01*
X136103303Y-135929764D01*
X136018236Y-135965000D01*
X134216488Y-135965000D01*
X134210384Y-135195887D01*
X134212413Y-135182153D01*
X134209869Y-135130985D01*
X134209721Y-135112345D01*
X134208260Y-135098630D01*
X134205957Y-135052305D01*
X134201389Y-135034112D01*
X134199402Y-135015459D01*
X134185590Y-134971196D01*
X134174294Y-134926210D01*
X134166261Y-134909252D01*
X134160676Y-134891353D01*
X134138497Y-134850640D01*
X134118639Y-134808717D01*
X134107455Y-134793655D01*
X134098483Y-134777186D01*
X134068786Y-134741581D01*
X134041132Y-134704339D01*
X134027222Y-134691746D01*
X134015211Y-134677346D01*
X133979136Y-134648216D01*
X133944750Y-134617087D01*
X133928656Y-134607453D01*
X133914062Y-134595669D01*
X133872991Y-134574134D01*
X133833199Y-134550315D01*
X133815531Y-134544005D01*
X133798922Y-134535296D01*
X133754445Y-134522188D01*
X133710765Y-134506588D01*
X133692208Y-134503846D01*
X133674216Y-134498544D01*
X133628030Y-134494365D01*
X133582153Y-134487587D01*
X133563418Y-134488518D01*
X133544737Y-134486828D01*
X133498624Y-134491740D01*
X133484840Y-134492425D01*
X133466385Y-134495174D01*
X133415459Y-134500598D01*
X133402214Y-134504731D01*
X128771067Y-135194477D01*
X125009288Y-135540957D01*
X120295638Y-135689810D01*
X120279684Y-135689517D01*
X120263235Y-135690833D01*
X120246766Y-135691353D01*
X120230965Y-135693415D01*
X119564606Y-135746724D01*
X122996262Y-133127829D01*
X123044280Y-133092382D01*
X123069761Y-133064393D01*
X123097463Y-133038584D01*
X123113426Y-133016430D01*
X123121181Y-133007911D01*
X133665000Y-133007911D01*
X133665000Y-133192089D01*
X133700932Y-133372729D01*
X133771414Y-133542889D01*
X133873738Y-133696028D01*
X134003972Y-133826262D01*
X134157111Y-133928586D01*
X134327271Y-133999068D01*
X134507911Y-134035000D01*
X134692089Y-134035000D01*
X134872729Y-133999068D01*
X135042889Y-133928586D01*
X135108120Y-133885000D01*
X137861447Y-133885000D01*
X137900000Y-133888797D01*
X137938553Y-133885000D01*
X137938561Y-133885000D01*
X138053887Y-133873641D01*
X138201860Y-133828754D01*
X138338233Y-133755862D01*
X138457764Y-133657764D01*
X138482347Y-133627810D01*
X139195784Y-132914373D01*
X139272729Y-132899068D01*
X139442889Y-132828586D01*
X139596028Y-132726262D01*
X139726262Y-132596028D01*
X139828586Y-132442889D01*
X139899068Y-132272729D01*
X139935000Y-132092089D01*
X139935000Y-131907911D01*
X139899068Y-131727271D01*
X139828586Y-131557111D01*
X139726262Y-131403972D01*
X139596028Y-131273738D01*
X139442889Y-131171414D01*
X139272729Y-131100932D01*
X139092089Y-131065000D01*
X138907911Y-131065000D01*
X138727271Y-131100932D01*
X138557111Y-131171414D01*
X138403972Y-131273738D01*
X138273738Y-131403972D01*
X138171414Y-131557111D01*
X138100932Y-131727271D01*
X138085627Y-131804216D01*
X137574843Y-132315000D01*
X135108120Y-132315000D01*
X135042889Y-132271414D01*
X134872729Y-132200932D01*
X134692089Y-132165000D01*
X134507911Y-132165000D01*
X134327271Y-132200932D01*
X134157111Y-132271414D01*
X134003972Y-132373738D01*
X133873738Y-132503972D01*
X133771414Y-132657111D01*
X133700932Y-132827271D01*
X133665000Y-133007911D01*
X123121181Y-133007911D01*
X123131802Y-132996246D01*
X123151336Y-132963820D01*
X123173467Y-132933106D01*
X123184799Y-132908270D01*
X123198888Y-132884882D01*
X123211719Y-132849270D01*
X123227434Y-132814828D01*
X123233704Y-132788251D01*
X123242957Y-132762571D01*
X123248595Y-132725137D01*
X123257288Y-132688293D01*
X123258253Y-132661016D01*
X123262320Y-132634013D01*
X123260546Y-132596190D01*
X123261884Y-132558366D01*
X123257508Y-132531423D01*
X123256229Y-132504147D01*
X123247110Y-132467397D01*
X123241043Y-132430039D01*
X123231495Y-132404467D01*
X123224919Y-132377964D01*
X123208808Y-132343704D01*
X123195568Y-132308243D01*
X123181212Y-132285021D01*
X123169594Y-132260315D01*
X123147111Y-132229858D01*
X123127205Y-132197659D01*
X123108596Y-132177685D01*
X123092381Y-132155720D01*
X123064388Y-132130236D01*
X123038582Y-132102537D01*
X123016429Y-132086575D01*
X122996244Y-132068198D01*
X122963816Y-132048663D01*
X122933104Y-132026533D01*
X122908271Y-132015203D01*
X122884881Y-132001112D01*
X122849261Y-131988278D01*
X122814826Y-131972566D01*
X122788258Y-131966298D01*
X122762570Y-131957042D01*
X122725127Y-131951403D01*
X122688292Y-131942712D01*
X122661017Y-131941747D01*
X122634012Y-131937680D01*
X122596190Y-131939454D01*
X122558364Y-131938116D01*
X122499449Y-131947684D01*
X118066927Y-132595131D01*
X111580485Y-133293671D01*
X103950875Y-134091539D01*
X101340760Y-134208409D01*
X101626123Y-134024962D01*
X101651578Y-134012332D01*
X101680672Y-133989895D01*
X101684170Y-133987646D01*
X101706339Y-133970100D01*
X101728733Y-133952830D01*
X101731762Y-133949979D01*
X101760570Y-133927179D01*
X101778982Y-133905537D01*
X102562240Y-133168353D01*
X102570495Y-133162843D01*
X102609494Y-133123880D01*
X102625948Y-133108393D01*
X102632441Y-133100952D01*
X102639421Y-133093979D01*
X102653749Y-133076536D01*
X102690012Y-133034983D01*
X102694956Y-133026371D01*
X103806367Y-131673349D01*
X103823612Y-131653089D01*
X103826905Y-131648347D01*
X103830576Y-131643878D01*
X103845394Y-131621723D01*
X105086177Y-129834997D01*
X105099265Y-129817366D01*
X105104631Y-129808422D01*
X105110596Y-129799833D01*
X105121318Y-129780611D01*
X106039684Y-128250000D01*
X130911928Y-128250000D01*
X130911928Y-129050000D01*
X130924188Y-129174482D01*
X130960498Y-129294180D01*
X130963609Y-129300000D01*
X130960498Y-129305820D01*
X130924188Y-129425518D01*
X130911928Y-129550000D01*
X130911928Y-130350000D01*
X130924188Y-130474482D01*
X130960498Y-130594180D01*
X131019463Y-130704494D01*
X131098815Y-130801185D01*
X131195506Y-130880537D01*
X131305820Y-130939502D01*
X131425518Y-130975812D01*
X131550000Y-130988072D01*
X132250000Y-130988072D01*
X132374482Y-130975812D01*
X132494180Y-130939502D01*
X132604494Y-130880537D01*
X132701185Y-130801185D01*
X132780537Y-130704494D01*
X132839502Y-130594180D01*
X132875812Y-130474482D01*
X132888072Y-130350000D01*
X132888072Y-129688072D01*
X133450000Y-129688072D01*
X133574482Y-129675812D01*
X133694180Y-129639502D01*
X133804494Y-129580537D01*
X133901185Y-129501185D01*
X133980537Y-129404494D01*
X134039502Y-129294180D01*
X134075812Y-129174482D01*
X134088072Y-129050000D01*
X134088072Y-128250000D01*
X134075812Y-128125518D01*
X134039502Y-128005820D01*
X133980537Y-127895506D01*
X133901185Y-127798815D01*
X133804494Y-127719463D01*
X133694180Y-127660498D01*
X133574482Y-127624188D01*
X133450000Y-127611928D01*
X132750000Y-127611928D01*
X132625518Y-127624188D01*
X132505820Y-127660498D01*
X132500000Y-127663609D01*
X132494180Y-127660498D01*
X132374482Y-127624188D01*
X132250000Y-127611928D01*
X131550000Y-127611928D01*
X131425518Y-127624188D01*
X131305820Y-127660498D01*
X131195506Y-127719463D01*
X131098815Y-127798815D01*
X131019463Y-127895506D01*
X130960498Y-128005820D01*
X130924188Y-128125518D01*
X130911928Y-128250000D01*
X106039684Y-128250000D01*
X107051065Y-126564367D01*
X107053118Y-126561539D01*
X107067739Y-126536577D01*
X107082624Y-126511768D01*
X107084120Y-126508609D01*
X107528448Y-125750000D01*
X158611928Y-125750000D01*
X158611928Y-126550000D01*
X158624188Y-126674482D01*
X158660498Y-126794180D01*
X158663609Y-126800000D01*
X158660498Y-126805820D01*
X158624188Y-126925518D01*
X158611928Y-127050000D01*
X158611928Y-127850000D01*
X158624188Y-127974482D01*
X158660498Y-128094180D01*
X158719463Y-128204494D01*
X158798815Y-128301185D01*
X158895506Y-128380537D01*
X159005820Y-128439502D01*
X159125518Y-128475812D01*
X159250000Y-128488072D01*
X159950000Y-128488072D01*
X160074482Y-128475812D01*
X160194180Y-128439502D01*
X160304494Y-128380537D01*
X160401185Y-128301185D01*
X160480537Y-128204494D01*
X160539502Y-128094180D01*
X160575812Y-127974482D01*
X160588072Y-127850000D01*
X160588072Y-127188072D01*
X161150000Y-127188072D01*
X161274482Y-127175812D01*
X161394180Y-127139502D01*
X161504494Y-127080537D01*
X161601185Y-127001185D01*
X161680537Y-126904494D01*
X161739502Y-126794180D01*
X161775812Y-126674482D01*
X161788072Y-126550000D01*
X161788072Y-126399276D01*
X161799068Y-126372729D01*
X161835000Y-126192089D01*
X161835000Y-126007911D01*
X161799068Y-125827271D01*
X161788072Y-125800724D01*
X161788072Y-125750000D01*
X161775812Y-125625518D01*
X161739502Y-125505820D01*
X161680537Y-125395506D01*
X161601185Y-125298815D01*
X161504494Y-125219463D01*
X161394180Y-125160498D01*
X161274482Y-125124188D01*
X161150000Y-125111928D01*
X160450000Y-125111928D01*
X160325518Y-125124188D01*
X160205820Y-125160498D01*
X160200000Y-125163609D01*
X160194180Y-125160498D01*
X160074482Y-125124188D01*
X159950000Y-125111928D01*
X159250000Y-125111928D01*
X159125518Y-125124188D01*
X159005820Y-125160498D01*
X158895506Y-125219463D01*
X158798815Y-125298815D01*
X158719463Y-125395506D01*
X158660498Y-125505820D01*
X158624188Y-125625518D01*
X158611928Y-125750000D01*
X107528448Y-125750000D01*
X109113233Y-123044271D01*
X109123976Y-123027417D01*
X109129599Y-123016328D01*
X109135887Y-123005593D01*
X109144253Y-122987431D01*
X110908749Y-119507911D01*
X128665000Y-119507911D01*
X128665000Y-119692089D01*
X128700932Y-119872729D01*
X128771414Y-120042889D01*
X128873738Y-120196028D01*
X129003972Y-120326262D01*
X129157111Y-120428586D01*
X129327271Y-120499068D01*
X129507911Y-120535000D01*
X129692089Y-120535000D01*
X129872729Y-120499068D01*
X130042889Y-120428586D01*
X130108120Y-120385000D01*
X131491880Y-120385000D01*
X131557111Y-120428586D01*
X131727271Y-120499068D01*
X131907911Y-120535000D01*
X132092089Y-120535000D01*
X132272729Y-120499068D01*
X132442889Y-120428586D01*
X132596028Y-120326262D01*
X132726262Y-120196028D01*
X132828586Y-120042889D01*
X132899068Y-119872729D01*
X132935000Y-119692089D01*
X132935000Y-119507911D01*
X132899068Y-119327271D01*
X132828586Y-119157111D01*
X132726262Y-119003972D01*
X132596028Y-118873738D01*
X132442889Y-118771414D01*
X132272729Y-118700932D01*
X132092089Y-118665000D01*
X131907911Y-118665000D01*
X131727271Y-118700932D01*
X131625932Y-118742908D01*
X131635000Y-118650838D01*
X131635000Y-114449162D01*
X131620024Y-114297105D01*
X131560841Y-114102007D01*
X131495869Y-113980452D01*
X131499068Y-113972729D01*
X131535000Y-113792089D01*
X131535000Y-113607911D01*
X131499068Y-113427271D01*
X131487772Y-113400000D01*
X131499068Y-113372729D01*
X131535000Y-113192089D01*
X131535000Y-113007911D01*
X131499068Y-112827271D01*
X131428586Y-112657111D01*
X131326262Y-112503972D01*
X131196028Y-112373738D01*
X131042889Y-112271414D01*
X130872729Y-112200932D01*
X130692089Y-112165000D01*
X130507911Y-112165000D01*
X130327271Y-112200932D01*
X130157111Y-112271414D01*
X130003972Y-112373738D01*
X129873738Y-112503972D01*
X129771414Y-112657111D01*
X129700932Y-112827271D01*
X129665000Y-113007911D01*
X129665000Y-113192089D01*
X129700932Y-113372729D01*
X129712228Y-113400000D01*
X129700932Y-113427271D01*
X129665000Y-113607911D01*
X129665000Y-113792089D01*
X129700932Y-113972729D01*
X129704132Y-113980453D01*
X129639160Y-114102007D01*
X129579977Y-114297105D01*
X129565001Y-114449162D01*
X129565000Y-117349162D01*
X129565000Y-117349163D01*
X129565001Y-118650838D01*
X129566396Y-118665000D01*
X129507911Y-118665000D01*
X129327271Y-118700932D01*
X129157111Y-118771414D01*
X129003972Y-118873738D01*
X128873738Y-119003972D01*
X128771414Y-119157111D01*
X128700932Y-119327271D01*
X128665000Y-119507911D01*
X110908749Y-119507911D01*
X112712998Y-115950000D01*
X117811928Y-115950000D01*
X117811928Y-116750000D01*
X117824188Y-116874482D01*
X117860498Y-116994180D01*
X117863609Y-117000000D01*
X117860498Y-117005820D01*
X117824188Y-117125518D01*
X117811928Y-117250000D01*
X117811928Y-118050000D01*
X117824188Y-118174482D01*
X117860498Y-118294180D01*
X117919463Y-118404494D01*
X117998815Y-118501185D01*
X118095506Y-118580537D01*
X118205820Y-118639502D01*
X118325518Y-118675812D01*
X118450000Y-118688072D01*
X119150000Y-118688072D01*
X119274482Y-118675812D01*
X119394180Y-118639502D01*
X119504494Y-118580537D01*
X119601185Y-118501185D01*
X119680537Y-118404494D01*
X119739502Y-118294180D01*
X119775812Y-118174482D01*
X119788072Y-118050000D01*
X119788072Y-117388072D01*
X120350000Y-117388072D01*
X120474482Y-117375812D01*
X120594180Y-117339502D01*
X120704494Y-117280537D01*
X120801185Y-117201185D01*
X120814468Y-117185000D01*
X121393308Y-117185000D01*
X121427271Y-117199068D01*
X121607911Y-117235000D01*
X121792089Y-117235000D01*
X121972729Y-117199068D01*
X122142889Y-117128586D01*
X122296028Y-117026262D01*
X122426262Y-116896028D01*
X122528586Y-116742889D01*
X122599068Y-116572729D01*
X122635000Y-116392089D01*
X122635000Y-116207911D01*
X122599068Y-116027271D01*
X122528586Y-115857111D01*
X122426262Y-115703972D01*
X122296028Y-115573738D01*
X122142889Y-115471414D01*
X121972729Y-115400932D01*
X121792089Y-115365000D01*
X121607911Y-115365000D01*
X121427271Y-115400932D01*
X121257111Y-115471414D01*
X121103972Y-115573738D01*
X121062710Y-115615000D01*
X120890957Y-115615000D01*
X120880537Y-115595506D01*
X120801185Y-115498815D01*
X120704494Y-115419463D01*
X120594180Y-115360498D01*
X120474482Y-115324188D01*
X120350000Y-115311928D01*
X119650000Y-115311928D01*
X119525518Y-115324188D01*
X119405820Y-115360498D01*
X119400000Y-115363609D01*
X119394180Y-115360498D01*
X119274482Y-115324188D01*
X119150000Y-115311928D01*
X118450000Y-115311928D01*
X118325518Y-115324188D01*
X118205820Y-115360498D01*
X118095506Y-115419463D01*
X117998815Y-115498815D01*
X117919463Y-115595506D01*
X117860498Y-115705820D01*
X117824188Y-115825518D01*
X117811928Y-115950000D01*
X112712998Y-115950000D01*
X113140029Y-115107911D01*
X124265000Y-115107911D01*
X124265000Y-115292089D01*
X124300932Y-115472729D01*
X124371414Y-115642889D01*
X124473738Y-115796028D01*
X124603972Y-115926262D01*
X124757111Y-116028586D01*
X124927271Y-116099068D01*
X125107911Y-116135000D01*
X125292089Y-116135000D01*
X125472729Y-116099068D01*
X125642889Y-116028586D01*
X125796028Y-115926262D01*
X125926262Y-115796028D01*
X126028586Y-115642889D01*
X126099068Y-115472729D01*
X126135000Y-115292089D01*
X126135000Y-115107911D01*
X126099068Y-114927271D01*
X126028586Y-114757111D01*
X125998329Y-114711828D01*
X129460157Y-111250000D01*
X134511928Y-111250000D01*
X134511928Y-112050000D01*
X134524188Y-112174482D01*
X134560498Y-112294180D01*
X134563609Y-112300000D01*
X134560498Y-112305820D01*
X134524188Y-112425518D01*
X134511928Y-112550000D01*
X134511928Y-113350000D01*
X134524188Y-113474482D01*
X134560498Y-113594180D01*
X134619463Y-113704494D01*
X134698815Y-113801185D01*
X134795506Y-113880537D01*
X134905820Y-113939502D01*
X135025518Y-113975812D01*
X135150000Y-113988072D01*
X135850000Y-113988072D01*
X135974482Y-113975812D01*
X136094180Y-113939502D01*
X136204494Y-113880537D01*
X136301185Y-113801185D01*
X136380537Y-113704494D01*
X136439502Y-113594180D01*
X136475812Y-113474482D01*
X136488072Y-113350000D01*
X136488072Y-112688072D01*
X136500724Y-112688072D01*
X136527271Y-112699068D01*
X136707911Y-112735000D01*
X136892089Y-112735000D01*
X137072729Y-112699068D01*
X137114647Y-112681705D01*
X137174482Y-112675812D01*
X137294180Y-112639502D01*
X137404494Y-112580537D01*
X137501185Y-112501185D01*
X137580537Y-112404494D01*
X137639502Y-112294180D01*
X137675812Y-112174482D01*
X137681705Y-112114647D01*
X137699068Y-112072729D01*
X137735000Y-111892089D01*
X137735000Y-111707911D01*
X137699068Y-111527271D01*
X137688072Y-111500724D01*
X137688072Y-111250000D01*
X137675812Y-111125518D01*
X137639502Y-111005820D01*
X137580537Y-110895506D01*
X137501185Y-110798815D01*
X137404494Y-110719463D01*
X137294180Y-110660498D01*
X137174482Y-110624188D01*
X137050000Y-110611928D01*
X136350000Y-110611928D01*
X136225518Y-110624188D01*
X136105820Y-110660498D01*
X136100000Y-110663609D01*
X136094180Y-110660498D01*
X135974482Y-110624188D01*
X135850000Y-110611928D01*
X135150000Y-110611928D01*
X135025518Y-110624188D01*
X134905820Y-110660498D01*
X134795506Y-110719463D01*
X134698815Y-110798815D01*
X134619463Y-110895506D01*
X134560498Y-111005820D01*
X134524188Y-111125518D01*
X134511928Y-111250000D01*
X129460157Y-111250000D01*
X130895785Y-109814373D01*
X130972729Y-109799068D01*
X131142889Y-109728586D01*
X131296028Y-109626262D01*
X131426262Y-109496028D01*
X131528586Y-109342889D01*
X131599068Y-109172729D01*
X131635000Y-108992089D01*
X131635000Y-108807911D01*
X131599068Y-108627271D01*
X131528586Y-108457111D01*
X131426262Y-108303972D01*
X131296028Y-108173738D01*
X131142889Y-108071414D01*
X130972729Y-108000932D01*
X130792089Y-107965000D01*
X130607911Y-107965000D01*
X130427271Y-108000932D01*
X130257111Y-108071414D01*
X130103972Y-108173738D01*
X129973738Y-108303972D01*
X129871414Y-108457111D01*
X129800932Y-108627271D01*
X129785627Y-108704215D01*
X124672185Y-113817658D01*
X124642237Y-113842236D01*
X124617659Y-113872184D01*
X124617655Y-113872188D01*
X124591931Y-113903533D01*
X124544139Y-113961767D01*
X124520557Y-114005886D01*
X124471246Y-114098141D01*
X124426359Y-114246114D01*
X124423774Y-114272363D01*
X124415000Y-114361439D01*
X124415000Y-114361447D01*
X124411203Y-114400000D01*
X124415000Y-114438553D01*
X124415000Y-114691880D01*
X124371414Y-114757111D01*
X124300932Y-114927271D01*
X124265000Y-115107911D01*
X113140029Y-115107911D01*
X114483626Y-112458389D01*
X114509569Y-112411245D01*
X114522769Y-112369567D01*
X114538638Y-112328791D01*
X114542325Y-112307911D01*
X123265000Y-112307911D01*
X123265000Y-112492089D01*
X123300932Y-112672729D01*
X123371414Y-112842889D01*
X123473738Y-112996028D01*
X123603972Y-113126262D01*
X123757111Y-113228586D01*
X123927271Y-113299068D01*
X124107911Y-113335000D01*
X124292089Y-113335000D01*
X124472729Y-113299068D01*
X124642889Y-113228586D01*
X124796028Y-113126262D01*
X124926262Y-112996028D01*
X125028586Y-112842889D01*
X125099068Y-112672729D01*
X125114374Y-112595784D01*
X125875158Y-111835000D01*
X125892089Y-111835000D01*
X126072729Y-111799068D01*
X126242889Y-111728586D01*
X126396028Y-111626262D01*
X126526262Y-111496028D01*
X126628586Y-111342889D01*
X126699068Y-111172729D01*
X126735000Y-110992089D01*
X126735000Y-110807911D01*
X126699068Y-110627271D01*
X126628586Y-110457111D01*
X126526262Y-110303972D01*
X126396028Y-110173738D01*
X126242889Y-110071414D01*
X126072729Y-110000932D01*
X125892089Y-109965000D01*
X125707911Y-109965000D01*
X125527271Y-110000932D01*
X125357111Y-110071414D01*
X125203972Y-110173738D01*
X125073738Y-110303972D01*
X124971414Y-110457111D01*
X124928057Y-110561785D01*
X124004216Y-111485626D01*
X123927271Y-111500932D01*
X123757111Y-111571414D01*
X123603972Y-111673738D01*
X123473738Y-111803972D01*
X123371414Y-111957111D01*
X123300932Y-112127271D01*
X123265000Y-112307911D01*
X114542325Y-112307911D01*
X114542362Y-112307705D01*
X114548823Y-112287304D01*
X114553638Y-112243849D01*
X114561247Y-112200764D01*
X114560785Y-112179353D01*
X114563142Y-112158087D01*
X114559388Y-112114533D01*
X114558445Y-112070786D01*
X114553815Y-112049878D01*
X114551978Y-112028559D01*
X114539797Y-111986568D01*
X114530339Y-111943852D01*
X114521720Y-111924250D01*
X114515758Y-111903697D01*
X114495617Y-111864884D01*
X114478009Y-111824839D01*
X114465734Y-111807300D01*
X114455875Y-111788300D01*
X114428542Y-111754155D01*
X114403467Y-111718324D01*
X114388007Y-111703516D01*
X114374630Y-111686805D01*
X114341171Y-111658656D01*
X114309578Y-111628396D01*
X114291520Y-111616885D01*
X114275145Y-111603109D01*
X114236839Y-111582030D01*
X114199948Y-111558514D01*
X114179993Y-111550748D01*
X114161243Y-111540430D01*
X114119562Y-111527229D01*
X114078791Y-111511362D01*
X114057702Y-111507638D01*
X114037302Y-111501177D01*
X113993845Y-111496361D01*
X113950763Y-111488753D01*
X113929358Y-111489214D01*
X113908085Y-111486857D01*
X113864515Y-111490612D01*
X113820785Y-111491555D01*
X113799885Y-111496183D01*
X113778557Y-111498021D01*
X113736553Y-111510206D01*
X113693851Y-111519661D01*
X113644551Y-111541339D01*
X112187107Y-112124316D01*
X107776896Y-113370680D01*
X108166424Y-113013613D01*
X108186676Y-112999138D01*
X108214214Y-112969806D01*
X108219876Y-112964616D01*
X108236432Y-112946141D01*
X108253365Y-112928105D01*
X108258035Y-112922034D01*
X108284900Y-112892055D01*
X108297582Y-112870623D01*
X109759753Y-110969802D01*
X109766670Y-110961950D01*
X109779502Y-110944128D01*
X109792898Y-110926713D01*
X109798438Y-110917828D01*
X112474189Y-107201507D01*
X112482304Y-107191539D01*
X112493112Y-107175225D01*
X112504555Y-107159332D01*
X112511011Y-107148208D01*
X114988957Y-103407911D01*
X149065000Y-103407911D01*
X149065000Y-103592089D01*
X149100932Y-103772729D01*
X149171414Y-103942889D01*
X149273738Y-104096028D01*
X149403972Y-104226262D01*
X149557111Y-104328586D01*
X149727271Y-104399068D01*
X149804216Y-104414374D01*
X151215000Y-105825158D01*
X151215001Y-108661437D01*
X151211203Y-108700000D01*
X151226359Y-108853886D01*
X151271246Y-109001859D01*
X151271247Y-109001860D01*
X151344139Y-109138233D01*
X151384690Y-109187644D01*
X151417655Y-109227812D01*
X151417659Y-109227816D01*
X151442237Y-109257764D01*
X151472185Y-109282342D01*
X151817653Y-109627810D01*
X151842236Y-109657764D01*
X151961767Y-109755862D01*
X152029526Y-109792080D01*
X152060498Y-109894180D01*
X152119463Y-110004494D01*
X152198815Y-110101185D01*
X152295506Y-110180537D01*
X152405820Y-110239502D01*
X152525518Y-110275812D01*
X152650000Y-110288072D01*
X153350000Y-110288072D01*
X153474482Y-110275812D01*
X153594180Y-110239502D01*
X153704494Y-110180537D01*
X153801185Y-110101185D01*
X153880537Y-110004494D01*
X153939502Y-109894180D01*
X153975812Y-109774482D01*
X153988072Y-109650000D01*
X153988072Y-108988072D01*
X154550000Y-108988072D01*
X154674482Y-108975812D01*
X154794180Y-108939502D01*
X154904494Y-108880537D01*
X155001185Y-108801185D01*
X155080537Y-108704494D01*
X155139502Y-108594180D01*
X155175812Y-108474482D01*
X155181889Y-108412776D01*
X155228586Y-108342889D01*
X155299068Y-108172729D01*
X155335000Y-107992089D01*
X155335000Y-107807911D01*
X155299068Y-107627271D01*
X155228586Y-107457111D01*
X155149484Y-107338726D01*
X155139502Y-107305820D01*
X155080537Y-107195506D01*
X155001185Y-107098815D01*
X154904494Y-107019463D01*
X154794180Y-106960498D01*
X154674482Y-106924188D01*
X154550000Y-106911928D01*
X153850000Y-106911928D01*
X153841045Y-106912810D01*
X153899068Y-106772729D01*
X153935000Y-106592089D01*
X153935000Y-106407911D01*
X153899068Y-106227271D01*
X153828586Y-106057111D01*
X153726262Y-105903972D01*
X153596028Y-105773738D01*
X153442889Y-105671414D01*
X153285000Y-105606015D01*
X153285000Y-104508120D01*
X153328586Y-104442889D01*
X153399068Y-104272729D01*
X153435000Y-104092089D01*
X153435000Y-103907911D01*
X153399068Y-103727271D01*
X153328586Y-103557111D01*
X153226262Y-103403972D01*
X153096028Y-103273738D01*
X152942889Y-103171414D01*
X152772729Y-103100932D01*
X152592089Y-103065000D01*
X152407911Y-103065000D01*
X152227271Y-103100932D01*
X152057111Y-103171414D01*
X151903972Y-103273738D01*
X151773738Y-103403972D01*
X151671414Y-103557111D01*
X151600932Y-103727271D01*
X151565000Y-103907911D01*
X151565000Y-103954842D01*
X150914374Y-103304216D01*
X150899068Y-103227271D01*
X150828586Y-103057111D01*
X150726262Y-102903972D01*
X150596028Y-102773738D01*
X150442889Y-102671414D01*
X150272729Y-102600932D01*
X150092089Y-102565000D01*
X149907911Y-102565000D01*
X149727271Y-102600932D01*
X149557111Y-102671414D01*
X149403972Y-102773738D01*
X149273738Y-102903972D01*
X149171414Y-103057111D01*
X149100932Y-103227271D01*
X149065000Y-103407911D01*
X114988957Y-103407911D01*
X115133587Y-103189603D01*
X115135029Y-103187806D01*
X115151422Y-103162682D01*
X115168113Y-103137488D01*
X115169199Y-103135436D01*
X117704378Y-99250000D01*
X121411928Y-99250000D01*
X121411928Y-100050000D01*
X121424188Y-100174482D01*
X121460498Y-100294180D01*
X121463609Y-100300000D01*
X121460498Y-100305820D01*
X121424188Y-100425518D01*
X121411928Y-100550000D01*
X121411928Y-101350000D01*
X121424188Y-101474482D01*
X121460498Y-101594180D01*
X121519463Y-101704494D01*
X121598815Y-101801185D01*
X121695506Y-101880537D01*
X121805820Y-101939502D01*
X121925518Y-101975812D01*
X122050000Y-101988072D01*
X122750000Y-101988072D01*
X122874482Y-101975812D01*
X122994180Y-101939502D01*
X123104494Y-101880537D01*
X123201185Y-101801185D01*
X123280537Y-101704494D01*
X123339502Y-101594180D01*
X123375812Y-101474482D01*
X123388072Y-101350000D01*
X123388072Y-100688072D01*
X123950000Y-100688072D01*
X124074482Y-100675812D01*
X124194180Y-100639502D01*
X124304494Y-100580537D01*
X124401185Y-100501185D01*
X124455501Y-100435000D01*
X126024843Y-100435000D01*
X126585626Y-100995783D01*
X126600932Y-101072729D01*
X126671414Y-101242889D01*
X126773738Y-101396028D01*
X126903972Y-101526262D01*
X127057111Y-101628586D01*
X127227271Y-101699068D01*
X127407911Y-101735000D01*
X127592089Y-101735000D01*
X127772729Y-101699068D01*
X127942889Y-101628586D01*
X128096028Y-101526262D01*
X128226262Y-101396028D01*
X128328586Y-101242889D01*
X128399068Y-101072729D01*
X128435000Y-100892089D01*
X128435000Y-100707911D01*
X128399068Y-100527271D01*
X128328586Y-100357111D01*
X128226262Y-100203972D01*
X128096028Y-100073738D01*
X127942889Y-99971414D01*
X127772729Y-99900932D01*
X127695783Y-99885626D01*
X126932347Y-99122190D01*
X126907764Y-99092236D01*
X126788233Y-98994138D01*
X126651860Y-98921246D01*
X126503887Y-98876359D01*
X126388561Y-98865000D01*
X126388553Y-98865000D01*
X126350000Y-98861203D01*
X126311447Y-98865000D01*
X124455501Y-98865000D01*
X124401185Y-98798815D01*
X124304494Y-98719463D01*
X124194180Y-98660498D01*
X124074482Y-98624188D01*
X123950000Y-98611928D01*
X123250000Y-98611928D01*
X123125518Y-98624188D01*
X123005820Y-98660498D01*
X123000000Y-98663609D01*
X122994180Y-98660498D01*
X122874482Y-98624188D01*
X122750000Y-98611928D01*
X122050000Y-98611928D01*
X121925518Y-98624188D01*
X121805820Y-98660498D01*
X121695506Y-98719463D01*
X121598815Y-98798815D01*
X121519463Y-98895506D01*
X121460498Y-99005820D01*
X121424188Y-99125518D01*
X121411928Y-99250000D01*
X117704378Y-99250000D01*
X118514819Y-98007911D01*
X127165000Y-98007911D01*
X127165000Y-98192089D01*
X127200932Y-98372729D01*
X127271414Y-98542889D01*
X127373738Y-98696028D01*
X127503972Y-98826262D01*
X127657111Y-98928586D01*
X127827271Y-98999068D01*
X128007911Y-99035000D01*
X128192089Y-99035000D01*
X128372729Y-98999068D01*
X128542889Y-98928586D01*
X128608120Y-98885000D01*
X131491880Y-98885000D01*
X131557111Y-98928586D01*
X131727271Y-98999068D01*
X131907911Y-99035000D01*
X132092089Y-99035000D01*
X132272729Y-98999068D01*
X132442889Y-98928586D01*
X132596028Y-98826262D01*
X132726262Y-98696028D01*
X132828586Y-98542889D01*
X132899068Y-98372729D01*
X132935000Y-98192089D01*
X132935000Y-98007911D01*
X132899068Y-97827271D01*
X132828586Y-97657111D01*
X132726262Y-97503972D01*
X132596028Y-97373738D01*
X132442889Y-97271414D01*
X132272729Y-97200932D01*
X132092089Y-97165000D01*
X131907911Y-97165000D01*
X131727271Y-97200932D01*
X131557111Y-97271414D01*
X131491880Y-97315000D01*
X128608120Y-97315000D01*
X128542889Y-97271414D01*
X128372729Y-97200932D01*
X128192089Y-97165000D01*
X128007911Y-97165000D01*
X127827271Y-97200932D01*
X127657111Y-97271414D01*
X127503972Y-97373738D01*
X127373738Y-97503972D01*
X127271414Y-97657111D01*
X127200932Y-97827271D01*
X127165000Y-98007911D01*
X118514819Y-98007911D01*
X119750987Y-96113351D01*
X120638399Y-94782232D01*
X120665890Y-94745822D01*
X120688519Y-94699020D01*
X120712975Y-94653152D01*
X120716771Y-94640590D01*
X120722483Y-94628777D01*
X120735547Y-94578461D01*
X120750584Y-94528702D01*
X120751856Y-94515643D01*
X120755154Y-94502942D01*
X120758151Y-94451043D01*
X120763192Y-94399307D01*
X120761892Y-94386252D01*
X120762649Y-94373149D01*
X120755460Y-94321643D01*
X120750313Y-94269938D01*
X120746493Y-94257392D01*
X120744678Y-94244388D01*
X120727580Y-94195276D01*
X120712444Y-94145567D01*
X120706247Y-94134003D01*
X120701932Y-94121608D01*
X120675584Y-94076781D01*
X120651038Y-94030974D01*
X120642705Y-94020842D01*
X120636054Y-94009526D01*
X120601470Y-93970704D01*
X120568457Y-93930562D01*
X120558307Y-93922250D01*
X120549577Y-93912450D01*
X120508082Y-93881120D01*
X120467873Y-93848191D01*
X120456297Y-93842019D01*
X120445822Y-93834110D01*
X120399014Y-93811478D01*
X120353151Y-93787025D01*
X120340592Y-93783230D01*
X120328777Y-93777517D01*
X120278457Y-93764452D01*
X120228701Y-93749416D01*
X120215642Y-93748144D01*
X120202941Y-93744846D01*
X120151041Y-93741849D01*
X120099306Y-93736808D01*
X120086251Y-93738108D01*
X120073149Y-93737351D01*
X120021644Y-93744539D01*
X119969937Y-93749687D01*
X119926315Y-93762969D01*
X117071216Y-94452132D01*
X114607128Y-94838655D01*
X114479034Y-94835308D01*
X114791110Y-94616855D01*
X114808364Y-94608032D01*
X114844249Y-94579657D01*
X114855044Y-94572101D01*
X114869675Y-94559553D01*
X114884792Y-94547600D01*
X114894276Y-94538454D01*
X114929003Y-94508672D01*
X114940968Y-94493430D01*
X115762272Y-93701459D01*
X136811202Y-93701459D01*
X136814999Y-93740012D01*
X136815000Y-95761436D01*
X136811202Y-95799999D01*
X136826358Y-95953885D01*
X136871245Y-96101858D01*
X136900746Y-96157050D01*
X136944138Y-96238232D01*
X136949014Y-96244173D01*
X137017654Y-96327811D01*
X137017658Y-96327815D01*
X137042236Y-96357763D01*
X137069696Y-96380299D01*
X137092236Y-96407764D01*
X137211767Y-96505862D01*
X137348140Y-96578754D01*
X137472401Y-96616448D01*
X137519463Y-96704494D01*
X137598815Y-96801185D01*
X137695506Y-96880537D01*
X137805820Y-96939502D01*
X137925518Y-96975812D01*
X138050000Y-96988072D01*
X138750000Y-96988072D01*
X138874482Y-96975812D01*
X138994180Y-96939502D01*
X139104494Y-96880537D01*
X139201185Y-96801185D01*
X139280537Y-96704494D01*
X139339502Y-96594180D01*
X139375812Y-96474482D01*
X139388072Y-96350000D01*
X139388072Y-95688072D01*
X139950000Y-95688072D01*
X140066446Y-95676603D01*
X140285627Y-95895784D01*
X140300932Y-95972729D01*
X140371414Y-96142889D01*
X140473738Y-96296028D01*
X140603972Y-96426262D01*
X140757111Y-96528586D01*
X140927271Y-96599068D01*
X141107911Y-96635000D01*
X141292089Y-96635000D01*
X141472729Y-96599068D01*
X141642889Y-96528586D01*
X141796028Y-96426262D01*
X141926262Y-96296028D01*
X142028586Y-96142889D01*
X142099068Y-95972729D01*
X142135000Y-95792089D01*
X142135000Y-95607911D01*
X142099068Y-95427271D01*
X142028586Y-95257111D01*
X141926262Y-95103972D01*
X141796028Y-94973738D01*
X141642889Y-94871414D01*
X141472729Y-94800932D01*
X141395784Y-94785627D01*
X140732347Y-94122190D01*
X140707764Y-94092236D01*
X140588233Y-93994138D01*
X140511269Y-93953000D01*
X140480537Y-93895506D01*
X140401185Y-93798815D01*
X140304494Y-93719463D01*
X140194180Y-93660498D01*
X140074482Y-93624188D01*
X139950000Y-93611928D01*
X139789651Y-93611928D01*
X139916579Y-93485000D01*
X140723536Y-93485000D01*
X140750932Y-93622729D01*
X140821414Y-93792889D01*
X140923738Y-93946028D01*
X141053972Y-94076262D01*
X141207111Y-94178586D01*
X141377271Y-94249068D01*
X141557911Y-94285000D01*
X141742089Y-94285000D01*
X141922729Y-94249068D01*
X142092889Y-94178586D01*
X142246028Y-94076262D01*
X142376262Y-93946028D01*
X142478586Y-93792889D01*
X142549068Y-93622729D01*
X142576464Y-93485000D01*
X144389449Y-93485000D01*
X144365000Y-93607911D01*
X144365000Y-93792089D01*
X144400932Y-93972729D01*
X144471414Y-94142889D01*
X144573738Y-94296028D01*
X144703972Y-94426262D01*
X144857111Y-94528586D01*
X145027271Y-94599068D01*
X145207911Y-94635000D01*
X145218730Y-94635000D01*
X145226807Y-94637450D01*
X145346113Y-94673642D01*
X145421026Y-94681020D01*
X145461439Y-94685000D01*
X145461444Y-94685000D01*
X145500000Y-94688797D01*
X145538556Y-94685000D01*
X148691880Y-94685000D01*
X148757111Y-94728586D01*
X148927271Y-94799068D01*
X149107911Y-94835000D01*
X149292089Y-94835000D01*
X149472729Y-94799068D01*
X149642889Y-94728586D01*
X149796028Y-94626262D01*
X149926262Y-94496028D01*
X150028586Y-94342889D01*
X150099068Y-94172729D01*
X150135000Y-93992089D01*
X150135000Y-93807911D01*
X150099068Y-93627271D01*
X150028586Y-93457111D01*
X149926262Y-93303972D01*
X149796028Y-93173738D01*
X149642889Y-93071414D01*
X149472729Y-93000932D01*
X149292089Y-92965000D01*
X149107911Y-92965000D01*
X148927271Y-93000932D01*
X148757111Y-93071414D01*
X148691880Y-93115000D01*
X146736578Y-93115000D01*
X146943667Y-92907911D01*
X150815000Y-92907911D01*
X150815000Y-93092089D01*
X150850932Y-93272729D01*
X150921414Y-93442889D01*
X150965000Y-93508121D01*
X150965001Y-94461438D01*
X150961203Y-94500000D01*
X150976359Y-94653886D01*
X151021246Y-94801859D01*
X151042617Y-94841841D01*
X151094139Y-94938233D01*
X151126020Y-94977079D01*
X151167655Y-95027812D01*
X151167659Y-95027816D01*
X151192237Y-95057764D01*
X151222185Y-95082342D01*
X152085627Y-95945784D01*
X152100932Y-96022729D01*
X152171414Y-96192889D01*
X152273738Y-96346028D01*
X152403972Y-96476262D01*
X152557111Y-96578586D01*
X152727271Y-96649068D01*
X152907911Y-96685000D01*
X153092089Y-96685000D01*
X153272729Y-96649068D01*
X153442889Y-96578586D01*
X153596028Y-96476262D01*
X153726262Y-96346028D01*
X153828586Y-96192889D01*
X153899068Y-96022729D01*
X153935000Y-95842089D01*
X153935000Y-95657911D01*
X153899068Y-95477271D01*
X153828586Y-95307111D01*
X153726262Y-95153972D01*
X153596028Y-95023738D01*
X153442889Y-94921414D01*
X153272729Y-94850932D01*
X153195784Y-94835627D01*
X152535000Y-94174843D01*
X152535000Y-93508120D01*
X152578586Y-93442889D01*
X152649068Y-93272729D01*
X152685000Y-93092089D01*
X152685000Y-92907911D01*
X152649068Y-92727271D01*
X152578586Y-92557111D01*
X152476262Y-92403972D01*
X152346028Y-92273738D01*
X152192889Y-92171414D01*
X152022729Y-92100932D01*
X151842089Y-92065000D01*
X151657911Y-92065000D01*
X151477271Y-92100932D01*
X151307111Y-92171414D01*
X151153972Y-92273738D01*
X151023738Y-92403972D01*
X150921414Y-92557111D01*
X150850932Y-92727271D01*
X150815000Y-92907911D01*
X146943667Y-92907911D01*
X148566579Y-91285000D01*
X148856531Y-91285000D01*
X148900000Y-91289281D01*
X148943469Y-91285000D01*
X148943477Y-91285000D01*
X149073490Y-91272195D01*
X149240313Y-91221589D01*
X149394059Y-91139411D01*
X149528817Y-91028817D01*
X149556534Y-90995044D01*
X149959777Y-90591802D01*
X149960498Y-90594180D01*
X150019463Y-90704494D01*
X150098815Y-90801185D01*
X150195506Y-90880537D01*
X150305820Y-90939502D01*
X150425518Y-90975812D01*
X150550000Y-90988072D01*
X151250000Y-90988072D01*
X151374482Y-90975812D01*
X151494180Y-90939502D01*
X151604494Y-90880537D01*
X151701185Y-90801185D01*
X151780537Y-90704494D01*
X151839502Y-90594180D01*
X151875812Y-90474482D01*
X151888072Y-90350000D01*
X151888072Y-89688072D01*
X152450000Y-89688072D01*
X152574482Y-89675812D01*
X152694180Y-89639502D01*
X152804494Y-89580537D01*
X152901185Y-89501185D01*
X152980537Y-89404494D01*
X153039502Y-89294180D01*
X153075812Y-89174482D01*
X153088072Y-89050000D01*
X153088072Y-88250000D01*
X153075812Y-88125518D01*
X153039502Y-88005820D01*
X152980537Y-87895506D01*
X152914049Y-87814490D01*
X152878754Y-87698141D01*
X152878754Y-87698140D01*
X152805862Y-87561767D01*
X152707764Y-87442236D01*
X152677806Y-87417650D01*
X152532348Y-87272191D01*
X152507764Y-87242236D01*
X152388233Y-87144138D01*
X152251860Y-87071246D01*
X152103887Y-87026359D01*
X151988561Y-87015000D01*
X151988553Y-87015000D01*
X151950000Y-87011203D01*
X151911447Y-87015000D01*
X150600450Y-87015000D01*
X150526264Y-86903972D01*
X150396030Y-86773738D01*
X150242891Y-86671414D01*
X150072731Y-86600932D01*
X149892091Y-86565000D01*
X149707913Y-86565000D01*
X149527273Y-86600932D01*
X149357113Y-86671414D01*
X149203974Y-86773738D01*
X149073740Y-86903972D01*
X148971416Y-87057111D01*
X148900934Y-87227271D01*
X148885629Y-87304216D01*
X147774845Y-88415000D01*
X144108120Y-88415000D01*
X144042889Y-88371414D01*
X143872729Y-88300932D01*
X143692089Y-88265000D01*
X143507911Y-88265000D01*
X143327271Y-88300932D01*
X143157111Y-88371414D01*
X143003972Y-88473738D01*
X142873738Y-88603972D01*
X142771414Y-88757111D01*
X142700932Y-88927271D01*
X142665000Y-89107911D01*
X142665000Y-89292089D01*
X142700932Y-89472729D01*
X142771414Y-89642889D01*
X142873738Y-89796028D01*
X143003972Y-89926262D01*
X143157111Y-90028586D01*
X143327271Y-90099068D01*
X143507911Y-90135000D01*
X143692089Y-90135000D01*
X143872729Y-90099068D01*
X144042889Y-90028586D01*
X144108120Y-89985000D01*
X146656301Y-89985000D01*
X145426311Y-91214990D01*
X139340024Y-91214990D01*
X139301468Y-91211193D01*
X139262912Y-91214990D01*
X139262907Y-91214990D01*
X139222494Y-91218970D01*
X139147581Y-91226348D01*
X138999608Y-91271236D01*
X138863235Y-91344128D01*
X138743704Y-91442226D01*
X138719123Y-91472178D01*
X137072189Y-93119112D01*
X137042235Y-93143695D01*
X136944137Y-93263227D01*
X136871245Y-93399600D01*
X136826358Y-93547573D01*
X136814999Y-93662899D01*
X136814999Y-93662906D01*
X136811202Y-93701459D01*
X115762272Y-93701459D01*
X116262664Y-93218940D01*
X116264196Y-93217944D01*
X116309255Y-93174013D01*
X116331466Y-93152595D01*
X116332657Y-93151196D01*
X116333959Y-93149927D01*
X116353633Y-93126565D01*
X116394636Y-93078414D01*
X116395531Y-93076810D01*
X118741403Y-90291087D01*
X118749375Y-90282752D01*
X118762256Y-90266324D01*
X118775723Y-90250332D01*
X118782262Y-90240809D01*
X122210081Y-85869099D01*
X122221367Y-85855988D01*
X122230046Y-85843636D01*
X122239383Y-85831729D01*
X122248692Y-85817102D01*
X127417210Y-78461905D01*
X127434160Y-78443062D01*
X127454491Y-78408852D01*
X127458645Y-78402940D01*
X127471052Y-78380985D01*
X127500579Y-78331300D01*
X127503003Y-78324443D01*
X127506580Y-78318114D01*
X127524651Y-78263216D01*
X127543917Y-78208728D01*
X127544957Y-78201533D01*
X127547231Y-78194624D01*
X127554245Y-78137259D01*
X127562511Y-78080056D01*
X127562127Y-78072792D01*
X127563009Y-78065577D01*
X127558699Y-78007982D01*
X127555645Y-77950228D01*
X127553850Y-77943174D01*
X127553308Y-77935931D01*
X127537848Y-77880292D01*
X127523582Y-77824235D01*
X127520447Y-77817670D01*
X127518501Y-77810668D01*
X127492467Y-77759082D01*
X127467555Y-77706919D01*
X127463202Y-77701096D01*
X127459926Y-77694604D01*
X127424319Y-77649076D01*
X127389718Y-77602786D01*
X127384313Y-77597924D01*
X127379833Y-77592196D01*
X127336036Y-77554497D01*
X127293061Y-77515840D01*
X127286808Y-77512124D01*
X127281299Y-77507382D01*
X127230999Y-77478957D01*
X127181299Y-77449421D01*
X127174442Y-77446997D01*
X127168113Y-77443420D01*
X127113215Y-77425349D01*
X127058727Y-77406083D01*
X127051532Y-77405043D01*
X127044623Y-77402769D01*
X126987258Y-77395755D01*
X126930055Y-77387489D01*
X126922791Y-77387873D01*
X126915576Y-77386991D01*
X126857967Y-77391302D01*
X126832758Y-77392635D01*
X126825608Y-77393723D01*
X126785930Y-77396692D01*
X126761514Y-77403476D01*
X123014404Y-77973689D01*
X123440285Y-77632985D01*
X123470852Y-77612550D01*
X123513778Y-77569603D01*
X123557364Y-77527091D01*
X123578184Y-77496758D01*
X128818709Y-71107911D01*
X134165000Y-71107911D01*
X134165000Y-71292089D01*
X134200932Y-71472729D01*
X134271414Y-71642889D01*
X134373738Y-71796028D01*
X134503972Y-71926262D01*
X134657111Y-72028586D01*
X134827271Y-72099068D01*
X135007911Y-72135000D01*
X135192089Y-72135000D01*
X135372729Y-72099068D01*
X135542889Y-72028586D01*
X135696028Y-71926262D01*
X135826262Y-71796028D01*
X135928586Y-71642889D01*
X135999068Y-71472729D01*
X136035000Y-71292089D01*
X136035000Y-71107911D01*
X136034744Y-71106624D01*
X136072729Y-71099068D01*
X136242889Y-71028586D01*
X136396028Y-70926262D01*
X136526262Y-70796028D01*
X136628586Y-70642889D01*
X136699068Y-70472729D01*
X136735000Y-70292089D01*
X136735000Y-70107911D01*
X136699068Y-69927271D01*
X136635000Y-69772596D01*
X136635000Y-69555501D01*
X136701185Y-69501185D01*
X136780537Y-69404494D01*
X136839502Y-69294180D01*
X136875812Y-69174482D01*
X136888072Y-69050000D01*
X136888072Y-68388072D01*
X137450000Y-68388072D01*
X137574482Y-68375812D01*
X137694180Y-68339502D01*
X137804494Y-68280537D01*
X137901185Y-68201185D01*
X137980537Y-68104494D01*
X138039502Y-67994180D01*
X138075812Y-67874482D01*
X138088072Y-67750000D01*
X138088072Y-66950000D01*
X138075812Y-66825518D01*
X138039502Y-66705820D01*
X137980537Y-66595506D01*
X137919825Y-66521528D01*
X137878754Y-66386138D01*
X137862925Y-66356524D01*
X137805862Y-66249765D01*
X137707764Y-66130234D01*
X137677815Y-66105655D01*
X136794348Y-65222189D01*
X136769765Y-65192235D01*
X136650234Y-65094137D01*
X136513861Y-65021245D01*
X136365888Y-64976358D01*
X136250562Y-64964999D01*
X136250554Y-64964999D01*
X136212001Y-64961202D01*
X136173448Y-64964999D01*
X135626555Y-64964999D01*
X135587999Y-64961202D01*
X135549443Y-64964999D01*
X135549438Y-64964999D01*
X135509025Y-64968979D01*
X135434112Y-64976357D01*
X135286139Y-65021245D01*
X135149766Y-65094137D01*
X135030235Y-65192235D01*
X135005648Y-65222194D01*
X134572190Y-65655651D01*
X134542236Y-65680234D01*
X134444138Y-65799766D01*
X134371246Y-65936139D01*
X134326359Y-66084112D01*
X134315000Y-66199438D01*
X134315000Y-66199445D01*
X134311203Y-66237998D01*
X134315000Y-66276551D01*
X134315001Y-70691878D01*
X134271414Y-70757111D01*
X134200932Y-70927271D01*
X134165000Y-71107911D01*
X128818709Y-71107911D01*
X136069902Y-62267813D01*
X136070909Y-62266979D01*
X136110949Y-62217771D01*
X136130851Y-62193508D01*
X136131581Y-62192415D01*
X136152963Y-62166137D01*
X136167588Y-62138498D01*
X136184962Y-62112482D01*
X136197922Y-62081170D01*
X136213768Y-62051224D01*
X136222723Y-62021253D01*
X136234683Y-61992357D01*
X136241284Y-61959127D01*
X136250986Y-61926656D01*
X136253922Y-61895514D01*
X136260015Y-61864841D01*
X136260006Y-61830963D01*
X136263187Y-61797221D01*
X136259990Y-61766098D01*
X136259982Y-61734832D01*
X136253366Y-61701612D01*
X136249902Y-61667894D01*
X136240695Y-61637993D01*
X136234587Y-61607327D01*
X136221617Y-61576036D01*
X136211642Y-61543643D01*
X136196778Y-61516112D01*
X136184805Y-61487228D01*
X136165978Y-61459066D01*
X136149876Y-61429243D01*
X136129930Y-61405145D01*
X136112550Y-61379148D01*
X136088588Y-61355198D01*
X136066979Y-61329091D01*
X136042715Y-61309347D01*
X136020597Y-61287241D01*
X135992420Y-61268424D01*
X135966136Y-61247037D01*
X135938492Y-61232409D01*
X135912480Y-61215038D01*
X135881176Y-61202081D01*
X135851224Y-61186232D01*
X135821246Y-61177275D01*
X135792355Y-61165317D01*
X135759131Y-61158717D01*
X135726656Y-61149014D01*
X135695510Y-61146078D01*
X135664839Y-61139985D01*
X135630963Y-61139994D01*
X135597221Y-61136813D01*
X135566100Y-61140010D01*
X135534830Y-61140018D01*
X135501602Y-61146636D01*
X135467893Y-61150099D01*
X135437999Y-61159304D01*
X135407326Y-61165413D01*
X135376032Y-61178384D01*
X135343642Y-61188358D01*
X135316112Y-61203222D01*
X135287227Y-61215195D01*
X135259061Y-61234025D01*
X135257907Y-61234648D01*
X135231986Y-61252125D01*
X135179147Y-61287450D01*
X135178220Y-61288378D01*
X134247420Y-61915976D01*
X134287305Y-61726522D01*
X136120699Y-56424544D01*
X136140354Y-56372542D01*
X136147252Y-56331126D01*
X136157017Y-56290294D01*
X136157906Y-56267154D01*
X136161712Y-56244300D01*
X136160396Y-56202319D01*
X136162007Y-56160381D01*
X136158365Y-56137514D01*
X136157639Y-56114355D01*
X136148160Y-56073440D01*
X136141558Y-56031992D01*
X136133526Y-56010277D01*
X136128295Y-55987701D01*
X136111013Y-55949418D01*
X136096454Y-55910058D01*
X136084338Y-55890325D01*
X136074805Y-55869207D01*
X136050390Y-55835035D01*
X136028428Y-55799266D01*
X136012696Y-55782277D01*
X135999226Y-55763424D01*
X135968611Y-55734670D01*
X135940095Y-55703875D01*
X135895118Y-55671257D01*
X131527298Y-52310000D01*
X137139424Y-52310000D01*
X137193737Y-52311748D01*
X137236359Y-52304687D01*
X137279383Y-52300450D01*
X137300369Y-52294084D01*
X137321997Y-52290501D01*
X137362430Y-52275257D01*
X137403793Y-52262710D01*
X137423135Y-52252371D01*
X137443648Y-52244638D01*
X137480322Y-52221805D01*
X137518450Y-52201425D01*
X137535407Y-52187509D01*
X137554014Y-52175924D01*
X137585530Y-52146374D01*
X137618948Y-52118948D01*
X137632863Y-52101993D01*
X137648854Y-52086999D01*
X137674002Y-52051865D01*
X137701425Y-52018450D01*
X137711763Y-51999109D01*
X137724523Y-51981282D01*
X137742336Y-51941910D01*
X137762710Y-51903793D01*
X137778495Y-51851757D01*
X139596278Y-46487081D01*
X141369197Y-51894489D01*
G36*
X130873000Y-114521609D02*
G01*
X130327000Y-114521609D01*
X130327000Y-112875609D01*
X130873000Y-112875609D01*
X130873000Y-114521609D01*
G37*
X130873000Y-114521609D02*
X130327000Y-114521609D01*
X130327000Y-112875609D01*
X130873000Y-112875609D01*
X130873000Y-114521609D01*
G36*
X130873000Y-118815000D02*
G01*
X130327000Y-118815000D01*
X130327000Y-117127000D01*
X130873000Y-117127000D01*
X130873000Y-118815000D01*
G37*
X130873000Y-118815000D02*
X130327000Y-118815000D01*
X130327000Y-117127000D01*
X130873000Y-117127000D01*
X130873000Y-118815000D01*
G36*
X137173000Y-138500000D02*
G01*
X137175440Y-138524776D01*
X137182667Y-138548601D01*
X137194403Y-138570557D01*
X137210197Y-138589803D01*
X137229443Y-138605597D01*
X137251399Y-138617333D01*
X137275224Y-138624560D01*
X137300000Y-138627000D01*
X141100000Y-138627000D01*
X141124776Y-138624560D01*
X141148601Y-138617333D01*
X141170557Y-138605597D01*
X141189803Y-138589803D01*
X141205597Y-138570557D01*
X141217333Y-138548601D01*
X141224560Y-138524776D01*
X141227000Y-138500000D01*
X141227000Y-136827000D01*
X144017604Y-136827000D01*
X143951000Y-140790000D01*
X134254782Y-140790000D01*
X134222536Y-136727000D01*
X137173000Y-136727000D01*
X137173000Y-138500000D01*
G37*
X137173000Y-138500000D02*
X137175440Y-138524776D01*
X137182667Y-138548601D01*
X137194403Y-138570557D01*
X137210197Y-138589803D01*
X137229443Y-138605597D01*
X137251399Y-138617333D01*
X137275224Y-138624560D01*
X137300000Y-138627000D01*
X141100000Y-138627000D01*
X141124776Y-138624560D01*
X141148601Y-138617333D01*
X141170557Y-138605597D01*
X141189803Y-138589803D01*
X141205597Y-138570557D01*
X141217333Y-138548601D01*
X141224560Y-138524776D01*
X141227000Y-138500000D01*
X141227000Y-136827000D01*
X144017604Y-136827000D01*
X143951000Y-140790000D01*
X134254782Y-140790000D01*
X134222536Y-136727000D01*
X137173000Y-136727000D01*
X137173000Y-138500000D01*
M02*
