G04 #@! TF.GenerationSoftware,KiCad,Pcbnew,(5.1.5)-3*
G04 #@! TF.CreationDate,2020-12-18T10:23:58+02:00*
G04 #@! TF.ProjectId,voltlog christmas tree,766f6c74-6c6f-4672-9063-68726973746d,rev?*
G04 #@! TF.SameCoordinates,Original*
G04 #@! TF.FileFunction,Legend,Top*
G04 #@! TF.FilePolarity,Positive*
%FSLAX46Y46*%
G04 Gerber Fmt 4.6, Leading zero omitted, Abs format (unit mm)*
G04 Created by KiCad (PCBNEW (5.1.5)-3) date 2020-12-18 10:23:59*
%MOMM*%
%LPD*%
G04 APERTURE LIST*
%ADD10C,0.150000*%
%ADD11C,0.120000*%
G04 APERTURE END LIST*
D10*
X154809523Y-100861904D02*
X155304761Y-100861904D01*
X155038095Y-101166666D01*
X155152380Y-101166666D01*
X155228571Y-101204761D01*
X155266666Y-101242857D01*
X155304761Y-101319047D01*
X155304761Y-101509523D01*
X155266666Y-101585714D01*
X155228571Y-101623809D01*
X155152380Y-101661904D01*
X154923809Y-101661904D01*
X154847619Y-101623809D01*
X154809523Y-101585714D01*
X155533333Y-100861904D02*
X155800000Y-101661904D01*
X156066666Y-100861904D01*
X156257142Y-100861904D02*
X156752380Y-100861904D01*
X156485714Y-101166666D01*
X156600000Y-101166666D01*
X156676190Y-101204761D01*
X156714285Y-101242857D01*
X156752380Y-101319047D01*
X156752380Y-101509523D01*
X156714285Y-101585714D01*
X156676190Y-101623809D01*
X156600000Y-101661904D01*
X156371428Y-101661904D01*
X156295238Y-101623809D01*
X156257142Y-101585714D01*
X155190476Y-99800000D02*
X155114285Y-99761904D01*
X155000000Y-99761904D01*
X154885714Y-99800000D01*
X154809523Y-99876190D01*
X154771428Y-99952380D01*
X154733333Y-100104761D01*
X154733333Y-100219047D01*
X154771428Y-100371428D01*
X154809523Y-100447619D01*
X154885714Y-100523809D01*
X155000000Y-100561904D01*
X155076190Y-100561904D01*
X155190476Y-100523809D01*
X155228571Y-100485714D01*
X155228571Y-100219047D01*
X155076190Y-100219047D01*
X155571428Y-100561904D02*
X155571428Y-99761904D01*
X156028571Y-100561904D01*
X156028571Y-99761904D01*
X156409523Y-100561904D02*
X156409523Y-99761904D01*
X156600000Y-99761904D01*
X156714285Y-99800000D01*
X156790476Y-99876190D01*
X156828571Y-99952380D01*
X156866666Y-100104761D01*
X156866666Y-100219047D01*
X156828571Y-100371428D01*
X156790476Y-100447619D01*
X156714285Y-100523809D01*
X156600000Y-100561904D01*
X156409523Y-100561904D01*
X154690476Y-98661904D02*
X155147619Y-98661904D01*
X154919047Y-99461904D02*
X154919047Y-98661904D01*
X155338095Y-98661904D02*
X155871428Y-99461904D01*
X155871428Y-98661904D02*
X155338095Y-99461904D01*
X155166666Y-98361904D02*
X154900000Y-97980952D01*
X154709523Y-98361904D02*
X154709523Y-97561904D01*
X155014285Y-97561904D01*
X155090476Y-97600000D01*
X155128571Y-97638095D01*
X155166666Y-97714285D01*
X155166666Y-97828571D01*
X155128571Y-97904761D01*
X155090476Y-97942857D01*
X155014285Y-97980952D01*
X154709523Y-97980952D01*
X155433333Y-97561904D02*
X155966666Y-98361904D01*
X155966666Y-97561904D02*
X155433333Y-98361904D01*
X154600000Y-97261904D02*
X154600000Y-96461904D01*
X155133333Y-96461904D02*
X155285714Y-96461904D01*
X155361904Y-96500000D01*
X155438095Y-96576190D01*
X155476190Y-96728571D01*
X155476190Y-96995238D01*
X155438095Y-97147619D01*
X155361904Y-97223809D01*
X155285714Y-97261904D01*
X155133333Y-97261904D01*
X155057142Y-97223809D01*
X154980952Y-97147619D01*
X154942857Y-96995238D01*
X154942857Y-96728571D01*
X154980952Y-96576190D01*
X155057142Y-96500000D01*
X155133333Y-96461904D01*
X155971428Y-96461904D02*
X156047619Y-96461904D01*
X156123809Y-96500000D01*
X156161904Y-96538095D01*
X156200000Y-96614285D01*
X156238095Y-96766666D01*
X156238095Y-96957142D01*
X156200000Y-97109523D01*
X156161904Y-97185714D01*
X156123809Y-97223809D01*
X156047619Y-97261904D01*
X155971428Y-97261904D01*
X155895238Y-97223809D01*
X155857142Y-97185714D01*
X155819047Y-97109523D01*
X155780952Y-96957142D01*
X155780952Y-96766666D01*
X155819047Y-96614285D01*
X155857142Y-96538095D01*
X155895238Y-96500000D01*
X155971428Y-96461904D01*
X154609523Y-95742857D02*
X154876190Y-95742857D01*
X154990476Y-96161904D02*
X154609523Y-96161904D01*
X154609523Y-95361904D01*
X154990476Y-95361904D01*
X155333333Y-96161904D02*
X155333333Y-95361904D01*
X155790476Y-96161904D01*
X155790476Y-95361904D01*
D11*
X140410000Y-120758578D02*
X140410000Y-120241422D01*
X138990000Y-120758578D02*
X138990000Y-120241422D01*
X154010000Y-95310000D02*
X154010000Y-101190000D01*
X150890000Y-102360000D02*
X150890000Y-101310000D01*
X152040000Y-102360000D02*
X150890000Y-102360000D01*
X150890000Y-95190000D02*
X149900000Y-95190000D01*
X150890000Y-94140000D02*
X150890000Y-95190000D01*
X152040000Y-94140000D02*
X150890000Y-94140000D01*
X137300000Y-136387500D02*
X137300000Y-136837500D01*
X137300000Y-136387500D02*
X137750000Y-136387500D01*
X142900000Y-136937500D02*
X142450000Y-136937500D01*
X142900000Y-138787500D02*
X142900000Y-136937500D01*
X135100000Y-141337500D02*
X135100000Y-141087500D01*
X142900000Y-141337500D02*
X142900000Y-141087500D01*
X135100000Y-138787500D02*
X135100000Y-136937500D01*
X135100000Y-136937500D02*
X135550000Y-136937500D01*
X141300000Y-119190000D02*
X147310000Y-119190000D01*
X143550000Y-126010000D02*
X147310000Y-126010000D01*
X147310000Y-119190000D02*
X147310000Y-120450000D01*
X147310000Y-126010000D02*
X147310000Y-124750000D01*
X129630000Y-83055000D02*
X129250000Y-83055000D01*
X129630000Y-76635000D02*
X129630000Y-83055000D01*
X147870000Y-76635000D02*
X147870000Y-83055000D01*
X129630000Y-76635000D02*
X147870000Y-76635000D01*
X147870000Y-102380000D02*
X146870000Y-102380000D01*
X147870000Y-101600000D02*
X147870000Y-102380000D01*
X129630000Y-102380000D02*
X130630000Y-102380000D01*
X129630000Y-101600000D02*
X129630000Y-102380000D01*
X120630000Y-122220000D02*
X114170000Y-122220000D01*
X120630000Y-126750000D02*
X120630000Y-124150000D01*
X120630000Y-128680000D02*
X114170000Y-128680000D01*
X114170000Y-126750000D02*
X114170000Y-124150000D01*
X120630000Y-128650000D02*
X120630000Y-128680000D01*
X120630000Y-122220000D02*
X120630000Y-122250000D01*
X114170000Y-122220000D02*
X114170000Y-122250000D01*
X114170000Y-128680000D02*
X114170000Y-128650000D01*
X127040000Y-94241422D02*
X127040000Y-94758578D01*
X128460000Y-94241422D02*
X128460000Y-94758578D01*
X124041422Y-126210000D02*
X124558578Y-126210000D01*
X124041422Y-124790000D02*
X124558578Y-124790000D01*
X124558578Y-122490000D02*
X124041422Y-122490000D01*
X124558578Y-123910000D02*
X124041422Y-123910000D01*
X135390000Y-67941422D02*
X135390000Y-68458578D01*
X136810000Y-67941422D02*
X136810000Y-68458578D01*
X125090000Y-88441422D02*
X125090000Y-88958578D01*
X126510000Y-88441422D02*
X126510000Y-88958578D01*
X140990000Y-67941422D02*
X140990000Y-68458578D01*
X142410000Y-67941422D02*
X142410000Y-68458578D01*
X139660000Y-69880000D02*
X138200000Y-69880000D01*
X139660000Y-66720000D02*
X137500000Y-66720000D01*
X139660000Y-66720000D02*
X139660000Y-67650000D01*
X139660000Y-69880000D02*
X139660000Y-68950000D01*
X138700000Y-132900000D02*
X140100000Y-132900000D01*
X140800000Y-133600000D02*
X140800000Y-134200000D01*
X140100000Y-134900000D02*
X138700000Y-134900000D01*
X138000000Y-134200000D02*
X138000000Y-133600000D01*
X138000000Y-133600000D02*
G75*
G02X138700000Y-132900000I700000J0D01*
G01*
X138700000Y-134900000D02*
G75*
G02X138000000Y-134200000I0J700000D01*
G01*
X140800000Y-134200000D02*
G75*
G02X140100000Y-134900000I-700000J0D01*
G01*
X140100000Y-132900000D02*
G75*
G02X140800000Y-133600000I0J-700000D01*
G01*
X136290000Y-132741422D02*
X136290000Y-133258578D01*
X137710000Y-132741422D02*
X137710000Y-133258578D01*
X124790000Y-92815000D02*
X124790000Y-95500000D01*
X126710000Y-92815000D02*
X124790000Y-92815000D01*
X126710000Y-95500000D02*
X126710000Y-92815000D01*
X138990000Y-125541422D02*
X138990000Y-126058578D01*
X140410000Y-125541422D02*
X140410000Y-126058578D01*
X128460000Y-85058578D02*
X128460000Y-84541422D01*
X127040000Y-85058578D02*
X127040000Y-84541422D01*
X124558578Y-126990000D02*
X124041422Y-126990000D01*
X124558578Y-128410000D02*
X124041422Y-128410000D01*
X126460000Y-85058578D02*
X126460000Y-84541422D01*
X125040000Y-85058578D02*
X125040000Y-84541422D01*
X129490000Y-128341422D02*
X129490000Y-128858578D01*
X130910000Y-128341422D02*
X130910000Y-128858578D01*
X157190000Y-126941422D02*
X157190000Y-127458578D01*
X158610000Y-126941422D02*
X158610000Y-127458578D01*
X116390000Y-117241422D02*
X116390000Y-117758578D01*
X117810000Y-117241422D02*
X117810000Y-117758578D01*
X132990000Y-112541422D02*
X132990000Y-113058578D01*
X134410000Y-112541422D02*
X134410000Y-113058578D01*
X150690000Y-108741422D02*
X150690000Y-109258578D01*
X152110000Y-108741422D02*
X152110000Y-109258578D01*
X120040000Y-101741422D02*
X120040000Y-102258578D01*
X121460000Y-101741422D02*
X121460000Y-102258578D01*
X151990000Y-89241422D02*
X151990000Y-89758578D01*
X153410000Y-89241422D02*
X153410000Y-89758578D01*
X127258578Y-81290000D02*
X126741422Y-81290000D01*
X127258578Y-82710000D02*
X126741422Y-82710000D01*
X145610000Y-70158578D02*
X145610000Y-69641422D01*
X144190000Y-70158578D02*
X144190000Y-69641422D01*
X133290000Y-67941422D02*
X133290000Y-68458578D01*
X134710000Y-67941422D02*
X134710000Y-68458578D01*
D10*
X138407142Y-120666666D02*
X138454761Y-120714285D01*
X138502380Y-120857142D01*
X138502380Y-120952380D01*
X138454761Y-121095238D01*
X138359523Y-121190476D01*
X138264285Y-121238095D01*
X138073809Y-121285714D01*
X137930952Y-121285714D01*
X137740476Y-121238095D01*
X137645238Y-121190476D01*
X137550000Y-121095238D01*
X137502380Y-120952380D01*
X137502380Y-120857142D01*
X137550000Y-120714285D01*
X137597619Y-120666666D01*
X137502380Y-119761904D02*
X137502380Y-120238095D01*
X137978571Y-120285714D01*
X137930952Y-120238095D01*
X137883333Y-120142857D01*
X137883333Y-119904761D01*
X137930952Y-119809523D01*
X137978571Y-119761904D01*
X138073809Y-119714285D01*
X138311904Y-119714285D01*
X138407142Y-119761904D01*
X138454761Y-119809523D01*
X138502380Y-119904761D01*
X138502380Y-120142857D01*
X138454761Y-120238095D01*
X138407142Y-120285714D01*
X152866666Y-92052380D02*
X152866666Y-92766666D01*
X152819047Y-92909523D01*
X152723809Y-93004761D01*
X152580952Y-93052380D01*
X152485714Y-93052380D01*
X153866666Y-93052380D02*
X153295238Y-93052380D01*
X153580952Y-93052380D02*
X153580952Y-92052380D01*
X153485714Y-92195238D01*
X153390476Y-92290476D01*
X153295238Y-92338095D01*
X134666666Y-134952380D02*
X134666666Y-135666666D01*
X134619047Y-135809523D01*
X134523809Y-135904761D01*
X134380952Y-135952380D01*
X134285714Y-135952380D01*
X135095238Y-135047619D02*
X135142857Y-135000000D01*
X135238095Y-134952380D01*
X135476190Y-134952380D01*
X135571428Y-135000000D01*
X135619047Y-135047619D01*
X135666666Y-135142857D01*
X135666666Y-135238095D01*
X135619047Y-135380952D01*
X135047619Y-135952380D01*
X135666666Y-135952380D01*
X144638095Y-117552380D02*
X144638095Y-118361904D01*
X144685714Y-118457142D01*
X144733333Y-118504761D01*
X144828571Y-118552380D01*
X145019047Y-118552380D01*
X145114285Y-118504761D01*
X145161904Y-118457142D01*
X145209523Y-118361904D01*
X145209523Y-117552380D01*
X145638095Y-117647619D02*
X145685714Y-117600000D01*
X145780952Y-117552380D01*
X146019047Y-117552380D01*
X146114285Y-117600000D01*
X146161904Y-117647619D01*
X146209523Y-117742857D01*
X146209523Y-117838095D01*
X146161904Y-117980952D01*
X145590476Y-118552380D01*
X146209523Y-118552380D01*
X138038095Y-75152380D02*
X138038095Y-75961904D01*
X138085714Y-76057142D01*
X138133333Y-76104761D01*
X138228571Y-76152380D01*
X138419047Y-76152380D01*
X138514285Y-76104761D01*
X138561904Y-76057142D01*
X138609523Y-75961904D01*
X138609523Y-75152380D01*
X139609523Y-76152380D02*
X139038095Y-76152380D01*
X139323809Y-76152380D02*
X139323809Y-75152380D01*
X139228571Y-75295238D01*
X139133333Y-75390476D01*
X139038095Y-75438095D01*
X116066666Y-129904761D02*
X116209523Y-129952380D01*
X116447619Y-129952380D01*
X116542857Y-129904761D01*
X116590476Y-129857142D01*
X116638095Y-129761904D01*
X116638095Y-129666666D01*
X116590476Y-129571428D01*
X116542857Y-129523809D01*
X116447619Y-129476190D01*
X116257142Y-129428571D01*
X116161904Y-129380952D01*
X116114285Y-129333333D01*
X116066666Y-129238095D01*
X116066666Y-129142857D01*
X116114285Y-129047619D01*
X116161904Y-129000000D01*
X116257142Y-128952380D01*
X116495238Y-128952380D01*
X116638095Y-129000000D01*
X116971428Y-128952380D02*
X117209523Y-129952380D01*
X117400000Y-129238095D01*
X117590476Y-129952380D01*
X117828571Y-128952380D01*
X118733333Y-129952380D02*
X118161904Y-129952380D01*
X118447619Y-129952380D02*
X118447619Y-128952380D01*
X118352380Y-129095238D01*
X118257142Y-129190476D01*
X118161904Y-129238095D01*
X128152380Y-97566666D02*
X127676190Y-97900000D01*
X128152380Y-98138095D02*
X127152380Y-98138095D01*
X127152380Y-97757142D01*
X127200000Y-97661904D01*
X127247619Y-97614285D01*
X127342857Y-97566666D01*
X127485714Y-97566666D01*
X127580952Y-97614285D01*
X127628571Y-97661904D01*
X127676190Y-97757142D01*
X127676190Y-98138095D01*
X127152380Y-96709523D02*
X127152380Y-96900000D01*
X127200000Y-96995238D01*
X127247619Y-97042857D01*
X127390476Y-97138095D01*
X127580952Y-97185714D01*
X127961904Y-97185714D01*
X128057142Y-97138095D01*
X128104761Y-97090476D01*
X128152380Y-96995238D01*
X128152380Y-96804761D01*
X128104761Y-96709523D01*
X128057142Y-96661904D01*
X127961904Y-96614285D01*
X127723809Y-96614285D01*
X127628571Y-96661904D01*
X127580952Y-96709523D01*
X127533333Y-96804761D01*
X127533333Y-96995238D01*
X127580952Y-97090476D01*
X127628571Y-97138095D01*
X127723809Y-97185714D01*
X126933333Y-123652380D02*
X126600000Y-123176190D01*
X126361904Y-123652380D02*
X126361904Y-122652380D01*
X126742857Y-122652380D01*
X126838095Y-122700000D01*
X126885714Y-122747619D01*
X126933333Y-122842857D01*
X126933333Y-122985714D01*
X126885714Y-123080952D01*
X126838095Y-123128571D01*
X126742857Y-123176190D01*
X126361904Y-123176190D01*
X127838095Y-122652380D02*
X127361904Y-122652380D01*
X127314285Y-123128571D01*
X127361904Y-123080952D01*
X127457142Y-123033333D01*
X127695238Y-123033333D01*
X127790476Y-123080952D01*
X127838095Y-123128571D01*
X127885714Y-123223809D01*
X127885714Y-123461904D01*
X127838095Y-123557142D01*
X127790476Y-123604761D01*
X127695238Y-123652380D01*
X127457142Y-123652380D01*
X127361904Y-123604761D01*
X127314285Y-123557142D01*
X126833333Y-126052380D02*
X126500000Y-125576190D01*
X126261904Y-126052380D02*
X126261904Y-125052380D01*
X126642857Y-125052380D01*
X126738095Y-125100000D01*
X126785714Y-125147619D01*
X126833333Y-125242857D01*
X126833333Y-125385714D01*
X126785714Y-125480952D01*
X126738095Y-125528571D01*
X126642857Y-125576190D01*
X126261904Y-125576190D01*
X127690476Y-125385714D02*
X127690476Y-126052380D01*
X127452380Y-125004761D02*
X127214285Y-125719047D01*
X127833333Y-125719047D01*
X136033333Y-66352380D02*
X135700000Y-65876190D01*
X135461904Y-66352380D02*
X135461904Y-65352380D01*
X135842857Y-65352380D01*
X135938095Y-65400000D01*
X135985714Y-65447619D01*
X136033333Y-65542857D01*
X136033333Y-65685714D01*
X135985714Y-65780952D01*
X135938095Y-65828571D01*
X135842857Y-65876190D01*
X135461904Y-65876190D01*
X136366666Y-65352380D02*
X136985714Y-65352380D01*
X136652380Y-65733333D01*
X136795238Y-65733333D01*
X136890476Y-65780952D01*
X136938095Y-65828571D01*
X136985714Y-65923809D01*
X136985714Y-66161904D01*
X136938095Y-66257142D01*
X136890476Y-66304761D01*
X136795238Y-66352380D01*
X136509523Y-66352380D01*
X136414285Y-66304761D01*
X136366666Y-66257142D01*
X124352380Y-89566666D02*
X123876190Y-89900000D01*
X124352380Y-90138095D02*
X123352380Y-90138095D01*
X123352380Y-89757142D01*
X123400000Y-89661904D01*
X123447619Y-89614285D01*
X123542857Y-89566666D01*
X123685714Y-89566666D01*
X123780952Y-89614285D01*
X123828571Y-89661904D01*
X123876190Y-89757142D01*
X123876190Y-90138095D01*
X123447619Y-89185714D02*
X123400000Y-89138095D01*
X123352380Y-89042857D01*
X123352380Y-88804761D01*
X123400000Y-88709523D01*
X123447619Y-88661904D01*
X123542857Y-88614285D01*
X123638095Y-88614285D01*
X123780952Y-88661904D01*
X124352380Y-89233333D01*
X124352380Y-88614285D01*
X141533333Y-66252380D02*
X141200000Y-65776190D01*
X140961904Y-66252380D02*
X140961904Y-65252380D01*
X141342857Y-65252380D01*
X141438095Y-65300000D01*
X141485714Y-65347619D01*
X141533333Y-65442857D01*
X141533333Y-65585714D01*
X141485714Y-65680952D01*
X141438095Y-65728571D01*
X141342857Y-65776190D01*
X140961904Y-65776190D01*
X142485714Y-66252380D02*
X141914285Y-66252380D01*
X142200000Y-66252380D02*
X142200000Y-65252380D01*
X142104761Y-65395238D01*
X142009523Y-65490476D01*
X141914285Y-65538095D01*
X138804761Y-66347619D02*
X138709523Y-66300000D01*
X138614285Y-66204761D01*
X138471428Y-66061904D01*
X138376190Y-66014285D01*
X138280952Y-66014285D01*
X138328571Y-66252380D02*
X138233333Y-66204761D01*
X138138095Y-66109523D01*
X138090476Y-65919047D01*
X138090476Y-65585714D01*
X138138095Y-65395238D01*
X138233333Y-65300000D01*
X138328571Y-65252380D01*
X138519047Y-65252380D01*
X138614285Y-65300000D01*
X138709523Y-65395238D01*
X138757142Y-65585714D01*
X138757142Y-65919047D01*
X138709523Y-66109523D01*
X138614285Y-66204761D01*
X138519047Y-66252380D01*
X138328571Y-66252380D01*
X139709523Y-66252380D02*
X139138095Y-66252380D01*
X139423809Y-66252380D02*
X139423809Y-65252380D01*
X139328571Y-65395238D01*
X139233333Y-65490476D01*
X139138095Y-65538095D01*
X138566666Y-131552380D02*
X138566666Y-132266666D01*
X138519047Y-132409523D01*
X138423809Y-132504761D01*
X138280952Y-132552380D01*
X138185714Y-132552380D01*
X139042857Y-132552380D02*
X139042857Y-131552380D01*
X139423809Y-131552380D01*
X139519047Y-131600000D01*
X139566666Y-131647619D01*
X139614285Y-131742857D01*
X139614285Y-131885714D01*
X139566666Y-131980952D01*
X139519047Y-132028571D01*
X139423809Y-132076190D01*
X139042857Y-132076190D01*
X140566666Y-132552380D02*
X139995238Y-132552380D01*
X140280952Y-132552380D02*
X140280952Y-131552380D01*
X140185714Y-131695238D01*
X140090476Y-131790476D01*
X139995238Y-131838095D01*
X136666666Y-130428571D02*
X136333333Y-130428571D01*
X136333333Y-130952380D02*
X136333333Y-129952380D01*
X136809523Y-129952380D01*
X137714285Y-130952380D02*
X137142857Y-130952380D01*
X137428571Y-130952380D02*
X137428571Y-129952380D01*
X137333333Y-130095238D01*
X137238095Y-130190476D01*
X137142857Y-130238095D01*
X124352380Y-96014285D02*
X123352380Y-96014285D01*
X123352380Y-95776190D01*
X123400000Y-95633333D01*
X123495238Y-95538095D01*
X123590476Y-95490476D01*
X123780952Y-95442857D01*
X123923809Y-95442857D01*
X124114285Y-95490476D01*
X124209523Y-95538095D01*
X124304761Y-95633333D01*
X124352380Y-95776190D01*
X124352380Y-96014285D01*
X124352380Y-94490476D02*
X124352380Y-95061904D01*
X124352380Y-94776190D02*
X123352380Y-94776190D01*
X123495238Y-94871428D01*
X123590476Y-94966666D01*
X123638095Y-95061904D01*
X123447619Y-94109523D02*
X123400000Y-94061904D01*
X123352380Y-93966666D01*
X123352380Y-93728571D01*
X123400000Y-93633333D01*
X123447619Y-93585714D01*
X123542857Y-93538095D01*
X123638095Y-93538095D01*
X123780952Y-93585714D01*
X124352380Y-94157142D01*
X124352380Y-93538095D01*
X138157142Y-126942857D02*
X138204761Y-126990476D01*
X138252380Y-127133333D01*
X138252380Y-127228571D01*
X138204761Y-127371428D01*
X138109523Y-127466666D01*
X138014285Y-127514285D01*
X137823809Y-127561904D01*
X137680952Y-127561904D01*
X137490476Y-127514285D01*
X137395238Y-127466666D01*
X137300000Y-127371428D01*
X137252380Y-127228571D01*
X137252380Y-127133333D01*
X137300000Y-126990476D01*
X137347619Y-126942857D01*
X138252380Y-125990476D02*
X138252380Y-126561904D01*
X138252380Y-126276190D02*
X137252380Y-126276190D01*
X137395238Y-126371428D01*
X137490476Y-126466666D01*
X137538095Y-126561904D01*
X137252380Y-125085714D02*
X137252380Y-125561904D01*
X137728571Y-125609523D01*
X137680952Y-125561904D01*
X137633333Y-125466666D01*
X137633333Y-125228571D01*
X137680952Y-125133333D01*
X137728571Y-125085714D01*
X137823809Y-125038095D01*
X138061904Y-125038095D01*
X138157142Y-125085714D01*
X138204761Y-125133333D01*
X138252380Y-125228571D01*
X138252380Y-125466666D01*
X138204761Y-125561904D01*
X138157142Y-125609523D01*
X128457142Y-88542857D02*
X128504761Y-88590476D01*
X128552380Y-88733333D01*
X128552380Y-88828571D01*
X128504761Y-88971428D01*
X128409523Y-89066666D01*
X128314285Y-89114285D01*
X128123809Y-89161904D01*
X127980952Y-89161904D01*
X127790476Y-89114285D01*
X127695238Y-89066666D01*
X127600000Y-88971428D01*
X127552380Y-88828571D01*
X127552380Y-88733333D01*
X127600000Y-88590476D01*
X127647619Y-88542857D01*
X128552380Y-87590476D02*
X128552380Y-88161904D01*
X128552380Y-87876190D02*
X127552380Y-87876190D01*
X127695238Y-87971428D01*
X127790476Y-88066666D01*
X127838095Y-88161904D01*
X127885714Y-86733333D02*
X128552380Y-86733333D01*
X127504761Y-86971428D02*
X128219047Y-87209523D01*
X128219047Y-86590476D01*
X126757142Y-128157142D02*
X126709523Y-128204761D01*
X126566666Y-128252380D01*
X126471428Y-128252380D01*
X126328571Y-128204761D01*
X126233333Y-128109523D01*
X126185714Y-128014285D01*
X126138095Y-127823809D01*
X126138095Y-127680952D01*
X126185714Y-127490476D01*
X126233333Y-127395238D01*
X126328571Y-127300000D01*
X126471428Y-127252380D01*
X126566666Y-127252380D01*
X126709523Y-127300000D01*
X126757142Y-127347619D01*
X127709523Y-128252380D02*
X127138095Y-128252380D01*
X127423809Y-128252380D02*
X127423809Y-127252380D01*
X127328571Y-127395238D01*
X127233333Y-127490476D01*
X127138095Y-127538095D01*
X128042857Y-127252380D02*
X128661904Y-127252380D01*
X128328571Y-127633333D01*
X128471428Y-127633333D01*
X128566666Y-127680952D01*
X128614285Y-127728571D01*
X128661904Y-127823809D01*
X128661904Y-128061904D01*
X128614285Y-128157142D01*
X128566666Y-128204761D01*
X128471428Y-128252380D01*
X128185714Y-128252380D01*
X128090476Y-128204761D01*
X128042857Y-128157142D01*
X124257142Y-86142857D02*
X124304761Y-86190476D01*
X124352380Y-86333333D01*
X124352380Y-86428571D01*
X124304761Y-86571428D01*
X124209523Y-86666666D01*
X124114285Y-86714285D01*
X123923809Y-86761904D01*
X123780952Y-86761904D01*
X123590476Y-86714285D01*
X123495238Y-86666666D01*
X123400000Y-86571428D01*
X123352380Y-86428571D01*
X123352380Y-86333333D01*
X123400000Y-86190476D01*
X123447619Y-86142857D01*
X124352380Y-85190476D02*
X124352380Y-85761904D01*
X124352380Y-85476190D02*
X123352380Y-85476190D01*
X123495238Y-85571428D01*
X123590476Y-85666666D01*
X123638095Y-85761904D01*
X123447619Y-84809523D02*
X123400000Y-84761904D01*
X123352380Y-84666666D01*
X123352380Y-84428571D01*
X123400000Y-84333333D01*
X123447619Y-84285714D01*
X123542857Y-84238095D01*
X123638095Y-84238095D01*
X123780952Y-84285714D01*
X124352380Y-84857142D01*
X124352380Y-84238095D01*
X129157142Y-131657142D02*
X129109523Y-131704761D01*
X128966666Y-131752380D01*
X128871428Y-131752380D01*
X128728571Y-131704761D01*
X128633333Y-131609523D01*
X128585714Y-131514285D01*
X128538095Y-131323809D01*
X128538095Y-131180952D01*
X128585714Y-130990476D01*
X128633333Y-130895238D01*
X128728571Y-130800000D01*
X128871428Y-130752380D01*
X128966666Y-130752380D01*
X129109523Y-130800000D01*
X129157142Y-130847619D01*
X130109523Y-131752380D02*
X129538095Y-131752380D01*
X129823809Y-131752380D02*
X129823809Y-130752380D01*
X129728571Y-130895238D01*
X129633333Y-130990476D01*
X129538095Y-131038095D01*
X131061904Y-131752380D02*
X130490476Y-131752380D01*
X130776190Y-131752380D02*
X130776190Y-130752380D01*
X130680952Y-130895238D01*
X130585714Y-130990476D01*
X130490476Y-131038095D01*
X156957142Y-125057142D02*
X156909523Y-125104761D01*
X156766666Y-125152380D01*
X156671428Y-125152380D01*
X156528571Y-125104761D01*
X156433333Y-125009523D01*
X156385714Y-124914285D01*
X156338095Y-124723809D01*
X156338095Y-124580952D01*
X156385714Y-124390476D01*
X156433333Y-124295238D01*
X156528571Y-124200000D01*
X156671428Y-124152380D01*
X156766666Y-124152380D01*
X156909523Y-124200000D01*
X156957142Y-124247619D01*
X157909523Y-125152380D02*
X157338095Y-125152380D01*
X157623809Y-125152380D02*
X157623809Y-124152380D01*
X157528571Y-124295238D01*
X157433333Y-124390476D01*
X157338095Y-124438095D01*
X158528571Y-124152380D02*
X158623809Y-124152380D01*
X158719047Y-124200000D01*
X158766666Y-124247619D01*
X158814285Y-124342857D01*
X158861904Y-124533333D01*
X158861904Y-124771428D01*
X158814285Y-124961904D01*
X158766666Y-125057142D01*
X158719047Y-125104761D01*
X158623809Y-125152380D01*
X158528571Y-125152380D01*
X158433333Y-125104761D01*
X158385714Y-125057142D01*
X158338095Y-124961904D01*
X158290476Y-124771428D01*
X158290476Y-124533333D01*
X158338095Y-124342857D01*
X158385714Y-124247619D01*
X158433333Y-124200000D01*
X158528571Y-124152380D01*
X116533333Y-115257142D02*
X116485714Y-115304761D01*
X116342857Y-115352380D01*
X116247619Y-115352380D01*
X116104761Y-115304761D01*
X116009523Y-115209523D01*
X115961904Y-115114285D01*
X115914285Y-114923809D01*
X115914285Y-114780952D01*
X115961904Y-114590476D01*
X116009523Y-114495238D01*
X116104761Y-114400000D01*
X116247619Y-114352380D01*
X116342857Y-114352380D01*
X116485714Y-114400000D01*
X116533333Y-114447619D01*
X117009523Y-115352380D02*
X117200000Y-115352380D01*
X117295238Y-115304761D01*
X117342857Y-115257142D01*
X117438095Y-115114285D01*
X117485714Y-114923809D01*
X117485714Y-114542857D01*
X117438095Y-114447619D01*
X117390476Y-114400000D01*
X117295238Y-114352380D01*
X117104761Y-114352380D01*
X117009523Y-114400000D01*
X116961904Y-114447619D01*
X116914285Y-114542857D01*
X116914285Y-114780952D01*
X116961904Y-114876190D01*
X117009523Y-114923809D01*
X117104761Y-114971428D01*
X117295238Y-114971428D01*
X117390476Y-114923809D01*
X117438095Y-114876190D01*
X117485714Y-114780952D01*
X133533333Y-110657142D02*
X133485714Y-110704761D01*
X133342857Y-110752380D01*
X133247619Y-110752380D01*
X133104761Y-110704761D01*
X133009523Y-110609523D01*
X132961904Y-110514285D01*
X132914285Y-110323809D01*
X132914285Y-110180952D01*
X132961904Y-109990476D01*
X133009523Y-109895238D01*
X133104761Y-109800000D01*
X133247619Y-109752380D01*
X133342857Y-109752380D01*
X133485714Y-109800000D01*
X133533333Y-109847619D01*
X134104761Y-110180952D02*
X134009523Y-110133333D01*
X133961904Y-110085714D01*
X133914285Y-109990476D01*
X133914285Y-109942857D01*
X133961904Y-109847619D01*
X134009523Y-109800000D01*
X134104761Y-109752380D01*
X134295238Y-109752380D01*
X134390476Y-109800000D01*
X134438095Y-109847619D01*
X134485714Y-109942857D01*
X134485714Y-109990476D01*
X134438095Y-110085714D01*
X134390476Y-110133333D01*
X134295238Y-110180952D01*
X134104761Y-110180952D01*
X134009523Y-110228571D01*
X133961904Y-110276190D01*
X133914285Y-110371428D01*
X133914285Y-110561904D01*
X133961904Y-110657142D01*
X134009523Y-110704761D01*
X134104761Y-110752380D01*
X134295238Y-110752380D01*
X134390476Y-110704761D01*
X134438095Y-110657142D01*
X134485714Y-110561904D01*
X134485714Y-110371428D01*
X134438095Y-110276190D01*
X134390476Y-110228571D01*
X134295238Y-110180952D01*
X151233333Y-106757142D02*
X151185714Y-106804761D01*
X151042857Y-106852380D01*
X150947619Y-106852380D01*
X150804761Y-106804761D01*
X150709523Y-106709523D01*
X150661904Y-106614285D01*
X150614285Y-106423809D01*
X150614285Y-106280952D01*
X150661904Y-106090476D01*
X150709523Y-105995238D01*
X150804761Y-105900000D01*
X150947619Y-105852380D01*
X151042857Y-105852380D01*
X151185714Y-105900000D01*
X151233333Y-105947619D01*
X151566666Y-105852380D02*
X152233333Y-105852380D01*
X151804761Y-106852380D01*
X120233333Y-99657142D02*
X120185714Y-99704761D01*
X120042857Y-99752380D01*
X119947619Y-99752380D01*
X119804761Y-99704761D01*
X119709523Y-99609523D01*
X119661904Y-99514285D01*
X119614285Y-99323809D01*
X119614285Y-99180952D01*
X119661904Y-98990476D01*
X119709523Y-98895238D01*
X119804761Y-98800000D01*
X119947619Y-98752380D01*
X120042857Y-98752380D01*
X120185714Y-98800000D01*
X120233333Y-98847619D01*
X121090476Y-98752380D02*
X120900000Y-98752380D01*
X120804761Y-98800000D01*
X120757142Y-98847619D01*
X120661904Y-98990476D01*
X120614285Y-99180952D01*
X120614285Y-99561904D01*
X120661904Y-99657142D01*
X120709523Y-99704761D01*
X120804761Y-99752380D01*
X120995238Y-99752380D01*
X121090476Y-99704761D01*
X121138095Y-99657142D01*
X121185714Y-99561904D01*
X121185714Y-99323809D01*
X121138095Y-99228571D01*
X121090476Y-99180952D01*
X120995238Y-99133333D01*
X120804761Y-99133333D01*
X120709523Y-99180952D01*
X120661904Y-99228571D01*
X120614285Y-99323809D01*
X152733333Y-87257142D02*
X152685714Y-87304761D01*
X152542857Y-87352380D01*
X152447619Y-87352380D01*
X152304761Y-87304761D01*
X152209523Y-87209523D01*
X152161904Y-87114285D01*
X152114285Y-86923809D01*
X152114285Y-86780952D01*
X152161904Y-86590476D01*
X152209523Y-86495238D01*
X152304761Y-86400000D01*
X152447619Y-86352380D01*
X152542857Y-86352380D01*
X152685714Y-86400000D01*
X152733333Y-86447619D01*
X153590476Y-86685714D02*
X153590476Y-87352380D01*
X153352380Y-86304761D02*
X153114285Y-87019047D01*
X153733333Y-87019047D01*
X127933333Y-80657142D02*
X127885714Y-80704761D01*
X127742857Y-80752380D01*
X127647619Y-80752380D01*
X127504761Y-80704761D01*
X127409523Y-80609523D01*
X127361904Y-80514285D01*
X127314285Y-80323809D01*
X127314285Y-80180952D01*
X127361904Y-79990476D01*
X127409523Y-79895238D01*
X127504761Y-79800000D01*
X127647619Y-79752380D01*
X127742857Y-79752380D01*
X127885714Y-79800000D01*
X127933333Y-79847619D01*
X128266666Y-79752380D02*
X128885714Y-79752380D01*
X128552380Y-80133333D01*
X128695238Y-80133333D01*
X128790476Y-80180952D01*
X128838095Y-80228571D01*
X128885714Y-80323809D01*
X128885714Y-80561904D01*
X128838095Y-80657142D01*
X128790476Y-80704761D01*
X128695238Y-80752380D01*
X128409523Y-80752380D01*
X128314285Y-80704761D01*
X128266666Y-80657142D01*
X144533333Y-67857142D02*
X144485714Y-67904761D01*
X144342857Y-67952380D01*
X144247619Y-67952380D01*
X144104761Y-67904761D01*
X144009523Y-67809523D01*
X143961904Y-67714285D01*
X143914285Y-67523809D01*
X143914285Y-67380952D01*
X143961904Y-67190476D01*
X144009523Y-67095238D01*
X144104761Y-67000000D01*
X144247619Y-66952380D01*
X144342857Y-66952380D01*
X144485714Y-67000000D01*
X144533333Y-67047619D01*
X144914285Y-67047619D02*
X144961904Y-67000000D01*
X145057142Y-66952380D01*
X145295238Y-66952380D01*
X145390476Y-67000000D01*
X145438095Y-67047619D01*
X145485714Y-67142857D01*
X145485714Y-67238095D01*
X145438095Y-67380952D01*
X144866666Y-67952380D01*
X145485714Y-67952380D01*
X133933333Y-66257142D02*
X133885714Y-66304761D01*
X133742857Y-66352380D01*
X133647619Y-66352380D01*
X133504761Y-66304761D01*
X133409523Y-66209523D01*
X133361904Y-66114285D01*
X133314285Y-65923809D01*
X133314285Y-65780952D01*
X133361904Y-65590476D01*
X133409523Y-65495238D01*
X133504761Y-65400000D01*
X133647619Y-65352380D01*
X133742857Y-65352380D01*
X133885714Y-65400000D01*
X133933333Y-65447619D01*
X134885714Y-66352380D02*
X134314285Y-66352380D01*
X134600000Y-66352380D02*
X134600000Y-65352380D01*
X134504761Y-65495238D01*
X134409523Y-65590476D01*
X134314285Y-65638095D01*
M02*
