M48
; DRILL file {KiCad (5.1.5)-3} date 12/18/2020 10:24:01 AM
; FORMAT={-:-/ absolute / inch / decimal}
; #@! TF.CreationDate,2020-12-18T10:24:01+02:00
; #@! TF.GenerationSoftware,Kicad,Pcbnew,(5.1.5)-3
; #@! TF.FileFunction,Plated,1,2,PTH
FMAT,2
INCH
T1C0.0118
T2C0.0236
T3C0.0335
T4C0.0472
%
G90
G05
T1
X4.5591Y-4.6614
X4.6772Y-4.5827
X4.6791Y-4.6299
X4.752Y-4.0906
X4.7913Y-4.5787
X4.8169Y-3.9232
X4.8169Y-3.9705
X4.8622Y-5.0827
X4.8898Y-4.4252
X4.8976Y-3.2874
X4.8976Y-3.315
X4.9134Y-3.2677
X4.9291Y-3.2441
X4.9291Y-4.5354
X4.9409Y-3.2677
X4.9528Y-4.3661
X4.9921Y-3.2717
X4.9921Y-3.2953
X5.0197Y-3.9685
X5.0433Y-3.8622
X5.0709Y-3.2913
X5.0709Y-3.3189
X5.0748Y-5.1024
X5.0787Y-3.2283
X5.1024Y-4.7087
X5.1417Y-4.4528
X5.1417Y-4.4764
X5.1417Y-4.5
X5.1417Y-4.622
X5.1417Y-4.6457
X5.1417Y-4.6693
X5.1457Y-4.2874
X5.189Y-3.3071
X5.1909Y-5.1122
X5.1929Y-5.0669
X5.1969Y-3.3307
X5.1969Y-3.8622
X5.1969Y-4.7087
X5.2087Y-4.4764
X5.2362Y-3.937
X5.2756Y-2.7638
X5.2992Y-5.2402
X5.315Y-3.3504
X5.3189Y-2.8031
X5.3327Y-4.3976
X5.3327Y-4.4469
X5.3465Y-2.7638
X5.3465Y-3.311
X5.3504Y-2.6142
X5.374Y-3.6024
X5.3858Y-4.4016
X5.4134Y-3.6024
X5.4449Y-4.6575
X5.4449Y-4.6811
X5.4449Y-4.7047
X5.4724Y-4.6417
X5.4724Y-4.6654
X5.4724Y-5.1969
X5.4764Y-5.0276
X5.4764Y-5.0512
X5.4961Y-4.6417
X5.4961Y-4.6654
X5.5Y-5.0276
X5.5Y-5.0512
X5.5197Y-4.6417
X5.5197Y-4.6654
X5.5236Y-5.0276
X5.5236Y-5.0512
X5.5433Y-4.6417
X5.5433Y-4.6654
X5.5591Y-3.7677
X5.5669Y-5.3228
X5.5768Y-3.6752
X5.5906Y-5.2756
X5.5906Y-5.2992
X5.5906Y-5.3228
X5.6142Y-5.2756
X5.6142Y-5.2992
X5.6142Y-5.3228
X5.6142Y-5.3465
X5.6378Y-5.2756
X5.6378Y-5.2992
X5.6378Y-5.3228
X5.6378Y-5.3465
X5.6535Y-3.5118
X5.6654Y-3.0079
X5.6732Y-2.6772
X5.7205Y-3.689
X5.7539Y-3.0374
X5.8051Y-3.122
X5.8602Y-3.2126
X5.874Y-3.6969
X5.8976Y-3.4449
X5.9055Y-4.0748
X5.9055Y-4.3307
X5.9213Y-2.9528
X5.939Y-3.4902
X5.939Y-3.5374
X5.9449Y-2.9528
X5.9744Y-3.6614
X6.0039Y-4.0945
X6.0223Y-4.2533
X6.0236Y-3.7697
X6.0236Y-4.1929
X6.0669Y-3.5591
X6.0787Y-4.248
X6.1024Y-4.0846
X6.1732Y-5.0433
X6.2835Y-4.9646
X6.2835Y-5.0138
X6.3346Y-4.9646
T3
X5.374Y-5.4031
X5.5709Y-5.4031
T4
X5.4961Y-2.0079
T2
G00X5.3346Y-5.5231
M15
G01X5.3346Y-5.4956
M16
G05
G00X5.6102Y-5.4956
M15
G01X5.6102Y-5.5231
M16
G05
T0
M30
