G04 #@! TF.GenerationSoftware,KiCad,Pcbnew,(5.1.5)-3*
G04 #@! TF.CreationDate,2020-12-18T10:23:59+02:00*
G04 #@! TF.ProjectId,voltlog christmas tree,766f6c74-6c6f-4672-9063-68726973746d,rev?*
G04 #@! TF.SameCoordinates,Original*
G04 #@! TF.FileFunction,Profile,NP*
%FSLAX46Y46*%
G04 Gerber Fmt 4.6, Leading zero omitted, Abs format (unit mm)*
G04 Created by KiCad (PCBNEW (5.1.5)-3) date 2020-12-18 10:23:59*
%MOMM*%
%LPD*%
G04 APERTURE LIST*
%ADD10C,0.050000*%
G04 APERTURE END LIST*
D10*
X113937297Y-95481377D02*
X114650000Y-95500000D01*
X113577986Y-94899999D02*
G75*
G02X113950001Y-94400001I522014J-1D01*
G01*
X113937297Y-95481377D02*
G75*
G02X113577986Y-94899999I290689J581378D01*
G01*
X130407898Y-52281371D02*
G75*
G02X130350000Y-51650000I142102J331371D01*
G01*
X140000000Y-45600000D02*
X139850000Y-45400000D01*
X139200000Y-45600000D02*
X139366762Y-45375072D01*
X139366761Y-45375072D02*
G75*
G02X139850000Y-45400000I233239J-174928D01*
G01*
X148803909Y-51791097D02*
G75*
G02X148900000Y-52450000I-153909J-358903D01*
G01*
X145404950Y-62599999D02*
X145400000Y-62350000D01*
X144900000Y-62800000D02*
X145100001Y-62849999D01*
X145404950Y-62599999D02*
G75*
G02X145100001Y-62849999I-254950J-1D01*
G01*
X134106074Y-62807289D02*
G75*
G02X133450000Y-62500000I-256074J307289D01*
G01*
X133550000Y-135150000D02*
X133600000Y-141450000D01*
X128850000Y-135850000D02*
X133550000Y-135150000D01*
X125050000Y-136200000D02*
X128850000Y-135850000D01*
X120300000Y-136350000D02*
X125050000Y-136200000D01*
X119050000Y-136450000D02*
X120300000Y-136350000D01*
X118750000Y-136400000D02*
X119050000Y-136450000D01*
X118650000Y-136200000D02*
X118750000Y-136400000D01*
X118650000Y-135850000D02*
X118650000Y-136200000D01*
X118800000Y-135500000D02*
X118650000Y-135850000D01*
X122600000Y-132600000D02*
X118800000Y-135500000D01*
X118150000Y-133250000D02*
X122600000Y-132600000D01*
X111650000Y-133950000D02*
X118150000Y-133250000D01*
X104000000Y-134750000D02*
X111650000Y-133950000D01*
X100650000Y-134900000D02*
X104000000Y-134750000D01*
X100150000Y-134850000D02*
X100650000Y-134900000D01*
X100050000Y-134550000D02*
X100150000Y-134850000D01*
X100150000Y-134150000D02*
X100050000Y-134550000D01*
X100600000Y-133900000D02*
X100150000Y-134150000D01*
X101300000Y-133450000D02*
X100600000Y-133900000D01*
X102150000Y-132650000D02*
X101300000Y-133450000D01*
X103300000Y-131250000D02*
X102150000Y-132650000D01*
X104550000Y-129450000D02*
X103300000Y-131250000D01*
X106500000Y-126200000D02*
X104550000Y-129450000D01*
X108550000Y-122700000D02*
X106500000Y-126200000D01*
X113900000Y-112150000D02*
X108550000Y-122700000D01*
X112400000Y-112750000D02*
X113900000Y-112150000D01*
X107800000Y-114050000D02*
X112400000Y-112750000D01*
X107050000Y-114100000D02*
X107800000Y-114050000D01*
X106850000Y-113850000D02*
X107050000Y-114100000D01*
X106850000Y-113400000D02*
X106850000Y-113850000D01*
X107150000Y-113050000D02*
X106850000Y-113400000D01*
X107750000Y-112500000D02*
X107150000Y-113050000D01*
X109250000Y-110550000D02*
X107750000Y-112500000D01*
X111950000Y-106800000D02*
X109250000Y-110550000D01*
X114600000Y-102800000D02*
X111950000Y-106800000D01*
X119200000Y-95750000D02*
X114600000Y-102800000D01*
X120100000Y-94400000D02*
X119200000Y-95750000D01*
X117200000Y-95100000D02*
X120100000Y-94400000D01*
X114650000Y-95500000D02*
X117200000Y-95100000D01*
X114450000Y-94050000D02*
X113950000Y-94400000D01*
X115850000Y-92700000D02*
X114450000Y-94050000D01*
X118250000Y-89850000D02*
X115850000Y-92700000D01*
X121700000Y-85450000D02*
X118250000Y-89850000D01*
X126900000Y-78050000D02*
X121700000Y-85450000D01*
X122300000Y-78750000D02*
X126900000Y-78050000D01*
X121900000Y-78600000D02*
X122300000Y-78750000D01*
X121800000Y-78300000D02*
X121900000Y-78600000D01*
X121850000Y-77950000D02*
X121800000Y-78300000D01*
X122300000Y-77700000D02*
X121850000Y-77950000D01*
X123050000Y-77100000D02*
X122300000Y-77700000D01*
X135600000Y-61800000D02*
X123050000Y-77100000D01*
X134106074Y-62807289D02*
X135600000Y-61800000D01*
X133650000Y-61550000D02*
X133450000Y-62500000D01*
X135500000Y-56200000D02*
X133650000Y-61550000D01*
X130407898Y-52281371D02*
X135500000Y-56200000D01*
X137150000Y-51650000D02*
X130350000Y-51650000D01*
X139200000Y-45600000D02*
X137150000Y-51650000D01*
X142000000Y-51700000D02*
X140000000Y-45600000D01*
X148803909Y-51791096D02*
X142000000Y-51700000D01*
X143500000Y-56150000D02*
X148900000Y-52450000D01*
X145400000Y-62350000D02*
X143500000Y-56150000D01*
X143050000Y-61600000D02*
X144900000Y-62800000D01*
X144700000Y-63950000D02*
X143050000Y-61600000D01*
X149700000Y-71000000D02*
X144700000Y-63950000D01*
X152600000Y-74700000D02*
X149700000Y-71000000D01*
X154600000Y-77000000D02*
X152600000Y-74700000D01*
X155450000Y-77650000D02*
X154600000Y-77000000D01*
X155700000Y-78050000D02*
X155450000Y-77650000D01*
X155650000Y-78400000D02*
X155700000Y-78050000D01*
X155200000Y-78500000D02*
X155650000Y-78400000D01*
X154600000Y-78400000D02*
X155200000Y-78500000D01*
X150500000Y-77500000D02*
X154600000Y-78400000D01*
X150700000Y-78000000D02*
X150500000Y-77500000D01*
X152550000Y-81050000D02*
X150700000Y-78000000D01*
X159750000Y-91600000D02*
X152550000Y-81050000D01*
X161200000Y-93450000D02*
X159750000Y-91600000D01*
X161750000Y-93850000D02*
X161200000Y-93450000D01*
X161950000Y-94300000D02*
X161750000Y-93850000D01*
X161900000Y-94650000D02*
X161950000Y-94300000D01*
X161550000Y-94800000D02*
X161900000Y-94650000D01*
X160200000Y-94700000D02*
X161550000Y-94800000D01*
X158750000Y-94400000D02*
X160200000Y-94700000D01*
X157100000Y-93900000D02*
X158750000Y-94400000D01*
X155500000Y-93300000D02*
X157100000Y-93900000D01*
X156850000Y-96050000D02*
X155500000Y-93300000D01*
X160400000Y-102650000D02*
X156850000Y-96050000D01*
X164350000Y-109150000D02*
X160400000Y-102650000D01*
X165450000Y-110450000D02*
X164350000Y-109150000D01*
X166000000Y-110900000D02*
X165450000Y-110450000D01*
X166100000Y-111300000D02*
X166000000Y-110900000D01*
X165950000Y-111650000D02*
X166100000Y-111300000D01*
X165450000Y-111700000D02*
X165950000Y-111650000D01*
X160850000Y-110300000D02*
X165450000Y-111700000D01*
X161450000Y-111650000D02*
X160850000Y-110300000D01*
X166050000Y-120450000D02*
X161450000Y-111650000D01*
X171300000Y-129300000D02*
X166050000Y-120450000D01*
X174100000Y-133050000D02*
X171300000Y-129300000D01*
X175700000Y-134050000D02*
X174100000Y-133050000D01*
X175800000Y-134550000D02*
X175700000Y-134050000D01*
X175500000Y-134900000D02*
X175800000Y-134550000D01*
X154200000Y-133200000D02*
X175500000Y-134900000D01*
X158600000Y-136200000D02*
X154200000Y-133200000D01*
X158700000Y-136600000D02*
X158600000Y-136200000D01*
X158650000Y-137000000D02*
X158700000Y-136600000D01*
X144700000Y-135500000D02*
X158650000Y-137000000D01*
X144600000Y-141450000D02*
X144700000Y-135500000D01*
X133600000Y-141450000D02*
X144600000Y-141450000D01*
M02*
